<svg width="53" height="47" viewBox="0 0 53 47" fill="none" xmlns="http://www.w3.org/2000/svg">
<g clip-path="url(#clip0_3693_30623)">
<path d="M18.9991 0.652344C16.2983 0.652344 14.0582 2.50406 13.4168 5.00613C13.3446 5.00613 13.2904 4.98807 13.2181 4.98807C10.0295 4.98807 7.43715 7.58047 7.43715 10.769C7.43715 11.2026 7.49134 11.6271 7.5907 12.0336C4.95314 13.1176 3.10142 15.7009 3.10142 18.7179C3.10142 19.856 3.39047 20.9128 3.85114 21.8703C1.68328 23.1168 0.210938 25.4292 0.210938 28.1119C0.210938 31.1199 2.05362 33.7032 4.67312 34.7872C4.59183 35.2027 4.54666 35.6272 4.54666 36.0608C4.54666 39.6558 7.45521 42.5644 11.0503 42.5644C11.4206 42.5644 11.7819 42.5192 12.1342 42.456C13.0013 45.0303 15.404 46.9001 18.2765 46.9001C21.8715 46.9001 24.7801 43.9915 24.7801 40.3965V6.43331C24.7801 3.24475 22.1876 0.652344 18.9991 0.652344ZM52.2396 28.1119C52.2396 25.4292 50.7673 23.1168 48.5994 21.8703C49.0691 20.9128 49.3492 19.856 49.3492 18.7179C49.3492 15.7009 47.4974 13.1176 44.8599 12.0336C44.9502 11.6271 45.0134 11.2026 45.0134 10.769C45.0134 7.58047 42.421 4.98807 39.2325 4.98807C39.1602 4.98807 39.097 5.00613 39.0337 5.00613C38.3924 2.50406 36.1523 0.652344 33.4515 0.652344C30.2629 0.652344 27.6705 3.23571 27.6705 6.43331V40.3965C27.6705 43.9915 30.5791 46.9001 34.1741 46.9001C37.0465 46.9001 39.4493 45.0303 40.3164 42.456C40.6687 42.5192 41.03 42.5644 41.4003 42.5644C44.9954 42.5644 47.9039 39.6558 47.9039 36.0608C47.9039 35.6272 47.8588 35.2027 47.7775 34.7872C50.397 33.7032 52.2396 31.1199 52.2396 28.1119Z" fill="#111111"/>
</g>
<defs>
<clipPath id="clip0_3693_30623">
<rect width="52.0287" height="46.2477" fill="white" transform="translate(0.210938 0.652344)"/>
</clipPath>
</defs>
</svg>
