<svg width="45" height="45" viewBox="0 0 45 45" fill="none" xmlns="http://www.w3.org/2000/svg">
<path d="M24.2929 17.2686H34.3929L24.2929 7.16861V17.2686ZM11.4384 4.41406H26.1293L37.1475 15.4323V37.4686C37.1475 38.4427 36.7605 39.3769 36.0717 40.0657C35.383 40.7544 34.4488 41.1414 33.4747 41.1414H11.4384C10.4643 41.1414 9.53011 40.7544 8.84134 40.0657C8.15257 39.3769 7.76563 38.4427 7.76562 37.4686V8.08679C7.76562 6.04843 9.39999 4.41406 11.4384 4.41406ZM13.2747 37.4686H16.9475V26.4504H13.2747V37.4686ZM20.6202 37.4686H24.2929V22.7777H20.6202V37.4686ZM27.9656 37.4686H31.6384V30.1232H27.9656V37.4686Z" fill="#111111"/>
</svg>
