<svg width="59" height="59" viewBox="0 0 59 59" fill="none" xmlns="http://www.w3.org/2000/svg">
<path fill-rule="evenodd" clip-rule="evenodd" d="M5.35343 3.88477C4.8743 3.88477 4.4148 4.0751 4.076 4.41389C3.73721 4.75269 3.54688 5.21219 3.54688 5.69132C3.54688 6.17044 3.73721 6.62995 4.076 6.96874C4.4148 7.30753 4.8743 7.49787 5.35343 7.49787H10.1709V26.1656C10.1709 33.5459 10.1709 37.2361 12.5893 39.5292C15.0076 41.8223 18.9001 41.8223 26.6876 41.8223H27.6342V50.342L23.8164 52.2497C23.6022 52.3546 23.411 52.5008 23.2536 52.6799C23.0962 52.859 22.9759 53.0675 22.8995 53.2933C22.8231 53.5192 22.7921 53.7579 22.8084 53.9958C22.8247 54.2336 22.8879 54.4659 22.9944 54.6792C23.1009 54.8925 23.2486 55.0827 23.4289 55.2386C23.6092 55.3946 23.8187 55.5133 24.0451 55.588C24.2715 55.6626 24.5105 55.6917 24.7482 55.6736C24.986 55.6554 25.2177 55.5904 25.4302 55.4823L29.4408 53.4782L33.4513 55.4823C33.6638 55.5904 33.8956 55.6554 34.1333 55.6736C34.371 55.6917 34.61 55.6626 34.8364 55.588C35.0629 55.5133 35.2723 55.3946 35.4526 55.2386C35.6329 55.0827 35.7806 54.8925 35.8871 54.6792C35.9936 54.4659 36.0568 54.2336 36.0731 53.9958C36.0894 53.7579 36.0585 53.5192 35.9821 53.2933C35.9057 53.0675 35.7853 52.859 35.6279 52.6799C35.4706 52.5008 35.2793 52.3546 35.0652 52.2497L31.2473 50.3396V41.8223H32.194C39.979 41.8223 43.8739 41.8223 46.2923 39.5292C48.7106 37.2361 48.7106 33.5459 48.7106 26.1656V7.49787H53.5281C54.0072 7.49787 54.4667 7.30753 54.8055 6.96874C55.1443 6.62995 55.3347 6.17044 55.3347 5.69132C55.3347 5.21219 55.1443 4.75269 54.8055 4.41389C54.4667 4.0751 54.0072 3.88477 53.5281 3.88477H5.35343ZM37.9436 20.0715C38.2819 20.4102 38.4719 20.8694 38.4719 21.3481C38.4719 21.8268 38.2819 22.286 37.9436 22.6247L34.7713 25.7994C34.4298 26.156 34.0662 26.4907 33.6825 26.8015C33.1641 27.2245 32.5185 27.4611 31.8495 27.4735C31.1805 27.4611 30.5349 27.2245 30.0165 26.8015C29.6328 26.4907 29.2692 26.156 28.9277 25.7994L27.4584 24.3301L27.032 23.9038L26.6057 24.3253L23.4912 27.4422C23.3258 27.6197 23.1264 27.762 22.9048 27.8608C22.6832 27.9595 22.4439 28.0126 22.2014 28.0169C21.9588 28.0212 21.7179 27.9765 21.4929 27.8857C21.268 27.7948 21.0636 27.6596 20.8921 27.488C20.7205 27.3165 20.5853 27.1122 20.4944 26.8872C20.4036 26.6623 20.359 26.4213 20.3632 26.1788C20.3675 25.9362 20.4206 25.697 20.5193 25.4754C20.6181 25.2538 20.7604 25.0543 20.9379 24.8889L24.1102 21.7142C24.4595 21.365 24.8377 20.9868 25.199 20.7122C25.7175 20.2892 26.363 20.0525 27.032 20.0401C27.8366 20.0401 28.4411 20.3894 28.8651 20.7122C29.2264 20.9868 29.6046 21.365 29.9538 21.7142L31.4232 23.1835L31.8495 23.6075L32.2759 23.186L35.3903 20.0715C35.7291 19.7332 36.1882 19.5431 36.667 19.5431C37.1457 19.5431 37.6049 19.7332 37.9436 20.0715Z" fill="#111111"/>
</svg>
