<svg width="74" height="73" viewBox="0 0 74 73" fill="none" xmlns="http://www.w3.org/2000/svg">
<g clip-path="url(#clip0_3693_30628)">
<path d="M31.9354 11.247C33.5165 10.4979 35.2442 10.1094 36.9938 10.1094C38.7433 10.1094 40.471 10.4979 42.0521 11.247L71.4026 25.1514C71.9138 25.3934 72.3466 25.7745 72.6513 26.2511C72.956 26.7277 73.1203 27.2805 73.1253 27.8461C73.1303 28.4118 72.9759 28.9674 72.6797 29.4493C72.3836 29.9313 71.9576 30.32 71.4507 30.5711L42.2448 45.0596C40.6128 45.8693 38.8156 46.2906 36.9938 46.2906C35.1719 46.2906 33.3747 45.8693 31.7427 45.0596L6.88456 32.7269V46.2399C6.88456 47.0384 6.56733 47.8043 6.00268 48.3689C5.43802 48.9336 4.67218 49.2508 3.87363 49.2508C3.07509 49.2508 2.30925 48.9336 1.74459 48.3689C1.17993 47.8043 0.862713 47.0384 0.862713 46.2399V28.0238C0.83472 27.4286 0.983267 26.8384 1.28969 26.3273C1.59611 25.8162 2.04674 25.4071 2.58496 25.1514L31.9354 11.247ZM12.9064 42.4401V52.2617C12.9065 52.6578 12.9847 53.05 13.1366 53.4158C13.2885 53.7816 13.5111 54.1138 13.7916 54.3935L13.8036 54.4115L13.9422 54.538L14.3035 54.8752C16.1906 56.5572 18.2309 58.0592 20.3976 59.3615C24.4202 61.7762 30.2312 64.3054 36.9938 64.3054C43.7563 64.3054 49.5674 61.7762 53.596 59.3615C55.7627 58.0592 57.8029 56.5572 59.6901 54.8752L60.0514 54.538L60.1477 54.4416L60.1839 54.4055L60.1899 54.3995L60.2019 54.3935C60.4814 54.1133 60.7028 53.7809 60.8537 53.4151C61.0046 53.0493 61.0818 52.6574 61.0811 52.2617V42.4341L44.9185 50.4552C42.4554 51.6767 39.7432 52.3123 36.9938 52.3123C34.2444 52.3123 31.5322 51.6767 29.069 50.4552L12.9064 42.4401Z" fill="white"/>
</g>
<defs>
<clipPath id="clip0_3693_30628">
<rect width="72.2621" height="72.2621" fill="white" transform="translate(0.859375 0.646484)"/>
</clipPath>
</defs>
</svg>
