<svg width="57" height="57" viewBox="0 0 57 57" fill="none" xmlns="http://www.w3.org/2000/svg">
<path d="M47.554 40.4757C50.1279 40.4757 52.2338 38.3698 52.2338 35.7959V10.0568C52.2338 7.48288 50.1279 5.37695 47.554 5.37695H25.9925C24.6107 5.37695 23.69 6.83837 23.9631 8.19291C24.166 9.19925 24.9871 10.0568 26.0137 10.0568H44.5455C46.2071 10.0568 47.554 11.4037 47.554 13.0652V32.7874C47.554 34.4489 46.2071 35.7959 44.5455 35.7959H29.5032C27.8417 35.7959 26.4948 37.1428 26.4948 38.8043V40.4757M33.5145 17.0765C34.8068 17.0765 35.8544 18.1241 35.8544 19.4164C35.8544 20.7087 34.8068 21.7564 33.5145 21.7564H24.8234C23.1619 21.7564 21.815 23.1033 21.815 24.7648V49.8354C21.815 51.1276 20.7673 52.1753 19.4751 52.1753C18.1828 52.1753 17.1351 51.1276 17.1351 49.8354V40.4757C17.1351 39.1834 16.0875 38.1358 14.7952 38.1358C13.5029 38.1358 12.4553 39.1834 12.4553 40.4757V49.8354C12.4553 51.1276 11.4077 52.1753 10.1154 52.1753C8.82311 52.1753 7.77549 51.1276 7.77549 49.8354V35.2109C7.77549 34.2417 6.98978 33.4559 6.02056 33.4559C5.05134 33.4559 4.26562 32.6702 4.26562 31.701V21.7564C4.26562 19.1825 6.37155 17.0765 8.94545 17.0765H33.5145ZM19.4751 10.0568C19.4751 12.6307 17.3691 14.7366 14.7952 14.7366C12.2213 14.7366 10.1154 12.6307 10.1154 10.0568C10.1154 7.48288 12.2213 5.37695 14.7952 5.37695C17.3691 5.37695 19.4751 7.48288 19.4751 10.0568ZM40.5343 17.0765C40.5343 15.7842 41.5819 14.7366 42.8742 14.7366C44.1665 14.7366 45.2141 15.7842 45.2141 17.0765V31.116C45.2141 32.4083 44.1665 33.4559 42.8742 33.4559C41.5819 33.4559 40.5343 32.4083 40.5343 31.116V17.0765ZM33.5145 26.4362C33.5145 25.1439 34.5621 24.0963 35.8544 24.0963C37.1467 24.0963 38.1943 25.1439 38.1943 26.4362V31.116C38.1943 32.4083 37.1467 33.4559 35.8544 33.4559C34.5621 33.4559 33.5145 32.4083 33.5145 31.116V26.4362ZM26.4948 26.4362C26.4948 25.1439 27.5424 24.0963 28.8347 24.0963C30.127 24.0963 31.1746 25.1439 31.1746 26.4362V31.116C31.1746 32.4083 30.127 33.4559 28.8347 33.4559C27.5424 33.4559 26.4948 32.4083 26.4948 31.116V26.4362Z" fill="#111111"/>
</svg>
