<svg width="407" height="241" viewBox="0 0 407 241" fill="none" xmlns="http://www.w3.org/2000/svg">
<rect width="180.105" height="31.2913" rx="15.6457" fill="url(#paint0_linear_8022_44806)"/>
<rect x="0.225659" y="0.225659" width="179.654" height="30.84" rx="15.42" stroke="#111111" stroke-opacity="0.1" stroke-width="0.451317"/>
<rect x="7.21875" y="8.42383" width="14.4421" height="14.4421" rx="7.22107" fill="#111111"/>
<path d="M17.31 14.2253L13.6994 17.8358C13.6785 17.8568 13.6536 17.8734 13.6262 17.8848C13.5988 17.8962 13.5694 17.902 13.5398 17.902C13.5101 17.902 13.4807 17.8962 13.4534 17.8848C13.426 17.8734 13.4011 17.8568 13.3801 17.8358L11.8005 16.2562C11.7582 16.2139 11.7344 16.1564 11.7344 16.0966C11.7344 16.0367 11.7582 15.9792 11.8005 15.9369C11.8428 15.8946 11.9003 15.8708 11.9602 15.8708C12.02 15.8708 12.0775 15.8946 12.1198 15.9369L13.5398 17.3571L16.9907 13.906C17.033 13.8636 17.0904 13.8398 17.1503 13.8398C17.2102 13.8398 17.2676 13.8636 17.31 13.906C17.3523 13.9483 17.3761 14.0057 17.3761 14.0656C17.3761 14.1255 17.3523 14.1829 17.31 14.2253Z" fill="white" stroke="white" stroke-width="0.902634"/>
<path d="M26.3125 21.1465V9.87305H30.2891C33.6328 9.87305 35.625 11.9277 35.625 15.4746V15.4902C35.625 19.0527 33.6484 21.1465 30.2891 21.1465H26.3125ZM28.0625 19.6309H30.125C32.5156 19.6309 33.8359 18.1699 33.8359 15.5059V15.4902C33.8359 12.8418 32.5 11.3809 30.125 11.3809H28.0625V19.6309ZM39.4922 21.2949C37.8516 21.2949 36.75 20.2871 36.75 18.8105V18.7949C36.75 17.3652 37.8594 16.4902 39.8047 16.373L42.0391 16.2402V15.623C42.0391 14.7168 41.4531 14.1699 40.4062 14.1699C39.4297 14.1699 38.8281 14.6309 38.6875 15.2871L38.6719 15.3574H37.0781L37.0859 15.2715C37.2031 13.8574 38.4297 12.7715 40.4531 12.7715C42.4609 12.7715 43.7344 13.834 43.7344 15.4824V21.1465H42.0391V19.8496H42.0078C41.5312 20.7324 40.5781 21.2949 39.4922 21.2949ZM38.4531 18.7715C38.4531 19.4902 39.0469 19.9434 39.9531 19.9434C41.1406 19.9434 42.0391 19.1387 42.0391 18.0684V17.4277L40.0312 17.5527C39.0156 17.6152 38.4531 18.0605 38.4531 18.7559V18.7715ZM46.2891 11.6621C45.7422 11.6621 45.3047 11.2246 45.3047 10.6934C45.3047 10.1543 45.7422 9.7168 46.2891 9.7168C46.8438 9.7168 47.2734 10.1543 47.2734 10.6934C47.2734 11.2246 46.8438 11.6621 46.2891 11.6621ZM45.4453 21.1465V12.9277H47.1328V21.1465H45.4453ZM48.9375 21.1465V9.87305H50.625V21.1465H48.9375ZM53.3281 23.8887C53 23.8887 52.6484 23.8496 52.4453 23.8105V22.4902C52.5781 22.5215 52.7734 22.5527 53 22.5527C53.7969 22.5527 54.2344 22.3418 54.5156 21.5449L54.6562 21.1543L51.6641 12.9277H53.4922L55.5625 19.6152H55.6172L57.6875 12.9277H59.4688L56.4062 21.5293C55.7969 23.2324 54.9375 23.8887 53.3281 23.8887ZM63.9062 21.1465V9.87305H65.9297L69.5781 18.873H69.625L73.2812 9.87305H75.2969V21.1465H73.7031V12.8262H73.6484L70.25 21.1465H68.9531L65.5547 12.8262H65.5V21.1465H63.9062ZM79.3672 21.2949C77.7266 21.2949 76.625 20.2871 76.625 18.8105V18.7949C76.625 17.3652 77.7344 16.4902 79.6797 16.373L81.9141 16.2402V15.623C81.9141 14.7168 81.3281 14.1699 80.2812 14.1699C79.3047 14.1699 78.7031 14.6309 78.5625 15.2871L78.5469 15.3574H76.9531L76.9609 15.2715C77.0781 13.8574 78.3047 12.7715 80.3281 12.7715C82.3359 12.7715 83.6094 13.834 83.6094 15.4824V21.1465H81.9141V19.8496H81.8828C81.4062 20.7324 80.4531 21.2949 79.3672 21.2949ZM78.3281 18.7715C78.3281 19.4902 78.9219 19.9434 79.8281 19.9434C81.0156 19.9434 81.9141 19.1387 81.9141 18.0684V17.4277L79.9062 17.5527C78.8906 17.6152 78.3281 18.0605 78.3281 18.7559V18.7715ZM85.25 21.1465V12.9277H86.9375V14.334H86.9766C87.2422 13.373 87.9297 12.7715 88.8672 12.7715C89.1094 12.7715 89.3203 12.8105 89.4531 12.834V14.4043C89.3203 14.3496 89.0234 14.3105 88.6953 14.3105C87.6094 14.3105 86.9375 15.0215 86.9375 16.248V21.1465H85.25ZM90.5938 21.1465V9.87305H92.2812V16.4355H92.3203L95.6172 12.9277H97.6016L94.2266 16.4746L97.7344 21.1465H95.7734L92.9844 17.4902L92.2812 18.1855V21.1465H90.5938ZM101.695 21.3105C99.2812 21.3105 97.8203 19.6621 97.8203 17.0684V17.0605C97.8203 14.4902 99.3047 12.7715 101.609 12.7715C103.914 12.7715 105.328 14.4277 105.328 16.8965V17.4668H99.5078C99.5391 19.0215 100.391 19.9277 101.734 19.9277C102.734 19.9277 103.398 19.4121 103.609 18.7949L103.633 18.7324H105.234L105.219 18.8184C104.953 20.123 103.688 21.3105 101.695 21.3105ZM101.617 14.1543C100.523 14.1543 99.6797 14.8965 99.5312 16.2715H103.656C103.516 14.8496 102.719 14.1543 101.617 14.1543ZM109.523 21.3105C107.898 21.3105 107.117 20.623 107.117 18.9824V14.2715H105.938V12.9277H107.117V10.7871H108.844V12.9277H110.383V14.2715H108.844V18.8809C108.844 19.7168 109.219 19.9668 109.93 19.9668C110.109 19.9668 110.258 19.9512 110.383 19.9355V21.2402C110.188 21.2715 109.867 21.3105 109.523 21.3105ZM115.234 21.1465V9.87305H116.984V21.1465H115.234ZM118.859 21.1465V12.9277H120.547V14.1699H120.586C121.016 13.334 121.859 12.7715 123.102 12.7715C124.906 12.7715 125.945 13.9355 125.945 15.8262V21.1465H124.25V16.1465C124.25 14.9121 123.672 14.2168 122.5 14.2168C121.312 14.2168 120.547 15.0762 120.547 16.3574V21.1465H118.859ZM130.656 21.3105C128.602 21.3105 127.398 20.2949 127.227 18.7949L127.219 18.7246H128.891L128.906 18.8027C129.062 19.5605 129.625 20.0059 130.664 20.0059C131.68 20.0059 132.289 19.584 132.289 18.9199V18.9121C132.289 18.3809 131.992 18.0762 131.109 17.8652L129.766 17.5605C128.203 17.2012 127.43 16.4512 127.43 15.2559V15.248C127.43 13.7793 128.711 12.7715 130.602 12.7715C132.547 12.7715 133.719 13.8574 133.805 15.2559L133.812 15.3496H132.227L132.219 15.2949C132.117 14.5762 131.555 14.0762 130.602 14.0762C129.695 14.0762 129.125 14.5059 129.125 15.1621V15.1699C129.125 15.6777 129.461 16.0215 130.344 16.2324L131.68 16.5371C133.359 16.9277 134 17.5918 134 18.7715V18.7793C134 20.2793 132.594 21.3105 130.656 21.3105ZM136.227 11.6621C135.68 11.6621 135.242 11.2246 135.242 10.6934C135.242 10.1543 135.68 9.7168 136.227 9.7168C136.781 9.7168 137.211 10.1543 137.211 10.6934C137.211 11.2246 136.781 11.6621 136.227 11.6621ZM135.383 21.1465V12.9277H137.07V21.1465H135.383ZM142.414 24.0449C140.305 24.0449 138.969 23.0684 138.719 21.8105L138.711 21.7402H140.383L140.414 21.8027C140.641 22.3262 141.352 22.6855 142.406 22.6855C143.75 22.6855 144.492 21.9668 144.492 20.8184V19.6934H144.453C143.984 20.584 143.047 21.1543 141.867 21.1543C139.805 21.1543 138.445 19.5371 138.445 16.9746V16.9668C138.445 14.3887 139.82 12.7715 141.906 12.7715C143.062 12.7715 143.969 13.3965 144.453 14.3262H144.492V12.9277H146.188V20.9199C146.188 22.7949 144.734 24.0449 142.414 24.0449ZM142.344 19.7793C143.633 19.7793 144.492 18.6934 144.492 16.998V16.9902C144.492 15.3027 143.625 14.2168 142.344 14.2168C141.008 14.2168 140.172 15.2949 140.172 16.9902V16.998C140.172 18.7168 141.008 19.7793 142.344 19.7793ZM147.922 21.1465V9.87305H149.609V14.2793H149.648C150.086 13.3262 150.969 12.7715 152.195 12.7715C153.953 12.7715 155.109 14.084 155.109 16.0684V21.1465H153.422V16.3887C153.422 15.0293 152.734 14.2168 151.547 14.2168C150.383 14.2168 149.609 15.1074 149.609 16.3887V21.1465H147.922ZM159.633 21.3105C158.008 21.3105 157.227 20.623 157.227 18.9824V14.2715H156.047V12.9277H157.227V10.7871H158.953V12.9277H160.492V14.2715H158.953V18.8809C158.953 19.7168 159.328 19.9668 160.039 19.9668C160.219 19.9668 160.367 19.9512 160.492 19.9355V21.2402C160.297 21.2715 159.977 21.3105 159.633 21.3105ZM164.969 21.3105C162.914 21.3105 161.711 20.2949 161.539 18.7949L161.531 18.7246H163.203L163.219 18.8027C163.375 19.5605 163.938 20.0059 164.977 20.0059C165.992 20.0059 166.602 19.584 166.602 18.9199V18.9121C166.602 18.3809 166.305 18.0762 165.422 17.8652L164.078 17.5605C162.516 17.2012 161.742 16.4512 161.742 15.2559V15.248C161.742 13.7793 163.023 12.7715 164.914 12.7715C166.859 12.7715 168.031 13.8574 168.117 15.2559L168.125 15.3496H166.539L166.531 15.2949C166.43 14.5762 165.867 14.0762 164.914 14.0762C164.008 14.0762 163.438 14.5059 163.438 15.1621V15.1699C163.438 15.6777 163.773 16.0215 164.656 16.2324L165.992 16.5371C167.672 16.9277 168.312 17.5918 168.312 18.7715V18.7793C168.312 20.2793 166.906 21.3105 164.969 21.3105Z" fill="#111111"/>
<rect x="123" y="52" width="129.105" height="31.2913" rx="15.6457" fill="url(#paint1_linear_8022_44806)"/>
<rect x="123.226" y="52.2257" width="128.654" height="30.84" rx="15.42" stroke="#111111" stroke-opacity="0.1" stroke-width="0.451317"/>
<rect x="130.219" y="60.4238" width="14.4421" height="14.4421" rx="7.22107" fill="#111111"/>
<path d="M140.31 66.2253L136.699 69.8358C136.678 69.8568 136.654 69.8734 136.626 69.8848C136.599 69.8962 136.569 69.902 136.54 69.902C136.51 69.902 136.481 69.8962 136.453 69.8848C136.426 69.8734 136.401 69.8568 136.38 69.8358L134.801 68.2562C134.758 68.2139 134.734 68.1564 134.734 68.0966C134.734 68.0367 134.758 67.9792 134.801 67.9369C134.843 67.8946 134.9 67.8708 134.96 67.8708C135.02 67.8708 135.077 67.8946 135.12 67.9369L136.54 69.3571L139.991 65.906C140.033 65.8636 140.09 65.8398 140.15 65.8398C140.21 65.8398 140.268 65.8636 140.31 65.906C140.352 65.9483 140.376 66.0057 140.376 66.0656C140.376 66.1255 140.352 66.1829 140.31 66.2253Z" fill="white" stroke="white" stroke-width="0.902634"/>
<path d="M153.859 73.1465H152.109V63.3809H148.656V61.873H157.305V63.3809H153.859V73.1465ZM157 73.1465V64.9277H158.609V66.3262H158.648C158.922 65.3652 159.656 64.7949 160.625 64.7949C160.867 64.7949 161.078 64.834 161.203 64.8574V66.4277C161.07 66.373 160.773 66.334 160.445 66.334C159.359 66.334 158.688 67.0605 158.688 68.2246V73.1465H157ZM164.953 71.9512C166.133 71.9512 167.055 71.1387 167.055 70.0684V69.4199L165.031 69.5449C164.023 69.6152 163.453 70.0605 163.453 70.7637C163.453 71.4824 164.047 71.9512 164.953 71.9512ZM164.484 73.2871C162.875 73.2871 161.75 72.2871 161.75 70.8105C161.75 69.373 162.852 68.4902 164.805 68.3809L167.055 68.248V67.6152C167.055 66.7012 166.438 66.1543 165.406 66.1543C164.43 66.1543 163.82 66.623 163.672 67.3574H162.078C162.172 65.873 163.438 64.7793 165.469 64.7793C167.461 64.7793 168.734 65.834 168.734 67.4824V73.1465H167.117V71.7949H167.078C166.602 72.709 165.562 73.2871 164.484 73.2871ZM173.461 73.2871C171.383 73.2871 170.008 71.6309 170.008 69.0371C170.008 66.4434 171.383 64.7949 173.445 64.7949C174.625 64.7949 175.562 65.3887 176.023 66.2949H176.055V61.873H177.75V73.1465H176.109V71.748H176.078C175.594 72.6855 174.656 73.2871 173.461 73.2871ZM173.906 66.2168C172.57 66.2168 171.734 67.3105 171.734 69.0371C171.734 70.7715 172.57 71.8574 173.906 71.8574C175.203 71.8574 176.07 70.7559 176.07 69.0371C176.07 67.334 175.203 66.2168 173.906 66.2168ZM182.922 66.1387C181.742 66.1387 180.914 67.0371 180.828 68.2793H184.938C184.898 67.0215 184.102 66.1387 182.922 66.1387ZM184.93 70.7324H186.531C186.297 72.2324 184.875 73.3027 182.992 73.3027C180.578 73.3027 179.117 71.6699 179.117 69.0762C179.117 66.498 180.602 64.7793 182.922 64.7793C185.203 64.7793 186.625 66.3887 186.625 68.8809V69.459H180.82V69.5605C180.82 70.9902 181.68 71.9355 183.031 71.9355C183.992 71.9355 184.703 71.4512 184.93 70.7324ZM190.891 70.0059H192.617C192.742 71.123 193.828 71.8574 195.312 71.8574C196.734 71.8574 197.758 71.123 197.758 70.1152C197.758 69.2402 197.141 68.7168 195.68 68.3574L194.219 68.0059C192.148 67.5059 191.188 66.5371 191.188 64.9668C191.188 63.0215 192.883 61.6855 195.289 61.6855C197.672 61.6855 199.305 63.0215 199.359 64.9668H197.656C197.555 63.8418 196.625 63.1621 195.266 63.1621C193.906 63.1621 192.977 63.8496 192.977 64.8496C192.977 65.6465 193.57 66.1152 195.023 66.4746L196.266 66.7793C198.578 67.3262 199.539 68.2559 199.539 69.9043C199.539 72.0137 197.859 73.334 195.188 73.334C192.688 73.334 191 72.0449 190.891 70.0059ZM200.961 73.1465V64.9277H202.648V73.1465H200.961ZM201.805 63.7246C201.266 63.7246 200.828 63.2949 200.828 62.7637C200.828 62.2246 201.266 61.7949 201.805 61.7949C202.352 61.7949 202.789 62.2246 202.789 62.7637C202.789 63.2949 202.352 63.7246 201.805 63.7246ZM207.875 71.7793C209.195 71.7793 210.062 70.709 210.062 69.0137C210.062 67.3262 209.195 66.2168 207.875 66.2168C206.578 66.2168 205.734 67.3027 205.734 69.0137C205.734 70.7324 206.578 71.7793 207.875 71.7793ZM207.891 76.2402C205.953 76.2402 204.516 75.209 204.305 73.7871H206C206.242 74.4746 206.992 74.9277 207.953 74.9277C209.273 74.9277 210.055 74.1777 210.055 73.0527V71.7012H210.023C209.562 72.5918 208.594 73.1777 207.422 73.1777C205.359 73.1777 204.008 71.5684 204.008 69.0059C204.008 66.4199 205.352 64.7949 207.461 64.7949C208.625 64.7949 209.578 65.3809 210.078 66.334H210.109V64.9277H211.75V72.998C211.75 74.959 210.234 76.2402 207.891 76.2402ZM213.422 73.1465V64.9277H215.031V66.3027H215.07C215.516 65.3652 216.391 64.7871 217.656 64.7871C219.469 64.7871 220.508 65.9434 220.508 67.8262V73.1465H218.812V68.1543C218.812 66.9199 218.234 66.2402 217.062 66.2402C215.875 66.2402 215.109 67.084 215.109 68.3574V73.1465H213.422ZM225.016 71.9512C226.195 71.9512 227.117 71.1387 227.117 70.0684V69.4199L225.094 69.5449C224.086 69.6152 223.516 70.0605 223.516 70.7637C223.516 71.4824 224.109 71.9512 225.016 71.9512ZM224.547 73.2871C222.938 73.2871 221.812 72.2871 221.812 70.8105C221.812 69.373 222.914 68.4902 224.867 68.3809L227.117 68.248V67.6152C227.117 66.7012 226.5 66.1543 225.469 66.1543C224.492 66.1543 223.883 66.623 223.734 67.3574H222.141C222.234 65.873 223.5 64.7793 225.531 64.7793C227.523 64.7793 228.797 65.834 228.797 67.4824V73.1465H227.18V71.7949H227.141C226.664 72.709 225.625 73.2871 224.547 73.2871ZM230.5 73.1465V61.873H232.188V73.1465H230.5ZM233.773 67.2559C233.773 65.7871 235.07 64.7793 236.992 64.7793C238.82 64.7793 240.102 65.8027 240.156 67.2637H238.57C238.492 66.5215 237.891 66.0605 236.945 66.0605C236.031 66.0605 235.422 66.5059 235.422 67.1543C235.422 67.6621 235.828 68.0059 236.68 68.2168L238.062 68.5371C239.719 68.9355 240.344 69.5605 240.344 70.7715C240.344 72.2715 238.945 73.3027 236.93 73.3027C234.984 73.3027 233.695 72.2949 233.562 70.7871H235.234C235.367 71.5762 235.977 72.0137 237.008 72.0137C238.023 72.0137 238.648 71.5918 238.648 70.9277C238.648 70.4043 238.336 70.1152 237.477 69.8965L236.008 69.5371C234.523 69.1777 233.773 68.4043 233.773 67.2559Z" fill="#111111"/>
<rect x="123" y="156" width="165.105" height="31.2913" rx="15.6457" fill="url(#paint2_linear_8022_44806)"/>
<rect x="123.226" y="156.226" width="164.654" height="30.84" rx="15.42" stroke="#111111" stroke-opacity="0.1" stroke-width="0.451317"/>
<rect x="130.219" y="164.424" width="14.4421" height="14.4421" rx="7.22107" fill="#111111"/>
<path d="M140.31 170.225L136.699 173.836C136.678 173.857 136.654 173.873 136.626 173.885C136.599 173.896 136.569 173.902 136.54 173.902C136.51 173.902 136.481 173.896 136.453 173.885C136.426 173.873 136.401 173.857 136.38 173.836L134.801 172.256C134.758 172.214 134.734 172.156 134.734 172.097C134.734 172.037 134.758 171.979 134.801 171.937C134.843 171.895 134.9 171.871 134.96 171.871C135.02 171.871 135.077 171.895 135.12 171.937L136.54 173.357L139.991 169.906C140.033 169.864 140.09 169.84 140.15 169.84C140.21 169.84 140.268 169.864 140.31 169.906C140.352 169.948 140.376 170.006 140.376 170.066C140.376 170.126 140.352 170.183 140.31 170.225Z" fill="white" stroke="white" stroke-width="0.902634"/>
<path d="M153.156 177.334C150.625 177.334 148.953 176.131 148.812 174.146L148.805 174.029H150.508L150.523 174.131C150.68 175.17 151.719 175.818 153.227 175.818C154.734 175.818 155.688 175.139 155.688 174.084V174.076C155.688 173.17 155.07 172.678 153.578 172.35L152.352 172.092C150.141 171.623 149.07 170.607 149.07 168.936V168.928C149.078 167.006 150.773 165.686 153.156 165.686C155.508 165.686 157.117 166.967 157.234 168.857L157.242 168.99H155.539L155.531 168.881C155.375 167.834 154.469 167.201 153.133 167.201C151.734 167.209 150.844 167.873 150.844 168.857V168.865C150.844 169.709 151.484 170.225 152.891 170.529L154.125 170.787C156.453 171.279 157.453 172.225 157.453 173.967V173.975C157.453 176.029 155.828 177.334 153.156 177.334ZM158.828 179.881V168.928H160.516V170.342H160.555C161.047 169.365 161.953 168.771 163.125 168.771C165.219 168.771 166.562 170.412 166.562 173.037V173.045C166.562 175.662 165.211 177.311 163.148 177.311C161.984 177.311 161.039 176.717 160.555 175.764H160.516V179.881H158.828ZM162.688 175.857C164.016 175.857 164.844 174.779 164.844 173.045V173.037C164.844 171.287 164.008 170.217 162.688 170.217C161.406 170.217 160.508 171.326 160.508 173.037V173.045C160.508 174.748 161.414 175.857 162.688 175.857ZM171.406 177.311C169.047 177.311 167.508 175.678 167.508 173.037V173.021C167.508 170.396 169.062 168.771 171.398 168.771C173.742 168.771 175.305 170.389 175.305 173.021V173.037C175.305 175.686 173.758 177.311 171.406 177.311ZM171.414 175.896C172.734 175.896 173.578 174.85 173.578 173.037V173.021C173.578 171.225 172.719 170.186 171.398 170.186C170.102 170.186 169.234 171.225 169.234 173.021V173.037C169.234 174.857 170.094 175.896 171.414 175.896ZM179.492 177.311C177.867 177.311 177.086 176.623 177.086 174.982V170.271H175.906V168.928H177.086V166.787H178.812V168.928H180.352V170.271H178.812V174.881C178.812 175.717 179.188 175.967 179.898 175.967C180.078 175.967 180.227 175.951 180.352 175.936V177.24C180.156 177.271 179.836 177.311 179.492 177.311ZM188 177.146V167.381H184.547V165.873H193.195V167.381H189.75V177.146H188ZM192.891 177.146V168.928H194.578V170.334H194.617C194.883 169.373 195.57 168.771 196.508 168.771C196.75 168.771 196.961 168.811 197.094 168.834V170.404C196.961 170.35 196.664 170.311 196.336 170.311C195.25 170.311 194.578 171.021 194.578 172.248V177.146H192.891ZM200.383 177.295C198.742 177.295 197.641 176.287 197.641 174.811V174.795C197.641 173.365 198.75 172.49 200.695 172.373L202.93 172.24V171.623C202.93 170.717 202.344 170.17 201.297 170.17C200.32 170.17 199.719 170.631 199.578 171.287L199.562 171.357H197.969L197.977 171.271C198.094 169.857 199.32 168.771 201.344 168.771C203.352 168.771 204.625 169.834 204.625 171.482V177.146H202.93V175.85H202.898C202.422 176.732 201.469 177.295 200.383 177.295ZM199.344 174.771C199.344 175.49 199.938 175.943 200.844 175.943C202.031 175.943 202.93 175.139 202.93 174.068V173.428L200.922 173.553C199.906 173.615 199.344 174.061 199.344 174.756V174.771ZM209.336 177.311C207.242 177.311 205.898 175.654 205.898 173.037V173.029C205.898 170.412 207.258 168.771 209.32 168.771C210.484 168.771 211.422 169.357 211.914 170.326H211.945V165.873H213.641V177.146H211.945V175.756H211.914C211.422 176.717 210.516 177.311 209.336 177.311ZM209.781 175.857C211.055 175.857 211.953 174.748 211.953 173.037V173.029C211.953 171.326 211.047 170.217 209.781 170.217C208.453 170.217 207.625 171.295 207.625 173.029V173.037C207.625 174.787 208.445 175.857 209.781 175.857ZM218.883 177.311C216.469 177.311 215.008 175.662 215.008 173.068V173.061C215.008 170.49 216.492 168.771 218.797 168.771C221.102 168.771 222.516 170.428 222.516 172.896V173.467H216.695C216.727 175.021 217.578 175.928 218.922 175.928C219.922 175.928 220.586 175.412 220.797 174.795L220.82 174.732H222.422L222.406 174.818C222.141 176.123 220.875 177.311 218.883 177.311ZM218.805 170.154C217.711 170.154 216.867 170.896 216.719 172.271H220.844C220.703 170.85 219.906 170.154 218.805 170.154ZM231.125 177.334C228.594 177.334 226.922 176.131 226.781 174.146L226.773 174.029H228.477L228.492 174.131C228.648 175.17 229.688 175.818 231.195 175.818C232.703 175.818 233.656 175.139 233.656 174.084V174.076C233.656 173.17 233.039 172.678 231.547 172.35L230.32 172.092C228.109 171.623 227.039 170.607 227.039 168.936V168.928C227.047 167.006 228.742 165.686 231.125 165.686C233.477 165.686 235.086 166.967 235.203 168.857L235.211 168.99H233.508L233.5 168.881C233.344 167.834 232.438 167.201 231.102 167.201C229.703 167.209 228.812 167.873 228.812 168.857V168.865C228.812 169.709 229.453 170.225 230.859 170.529L232.094 170.787C234.422 171.279 235.422 172.225 235.422 173.967V173.975C235.422 176.029 233.797 177.334 231.125 177.334ZM237.711 167.662C237.164 167.662 236.727 167.225 236.727 166.693C236.727 166.154 237.164 165.717 237.711 165.717C238.266 165.717 238.695 166.154 238.695 166.693C238.695 167.225 238.266 167.662 237.711 167.662ZM236.867 177.146V168.928H238.555V177.146H236.867ZM243.898 180.045C241.789 180.045 240.453 179.068 240.203 177.811L240.195 177.74H241.867L241.898 177.803C242.125 178.326 242.836 178.686 243.891 178.686C245.234 178.686 245.977 177.967 245.977 176.818V175.693H245.938C245.469 176.584 244.531 177.154 243.352 177.154C241.289 177.154 239.93 175.537 239.93 172.975V172.967C239.93 170.389 241.305 168.771 243.391 168.771C244.547 168.771 245.453 169.396 245.938 170.326H245.977V168.928H247.672V176.92C247.672 178.795 246.219 180.045 243.898 180.045ZM243.828 175.779C245.117 175.779 245.977 174.693 245.977 172.998V172.99C245.977 171.303 245.109 170.217 243.828 170.217C242.492 170.217 241.656 171.295 241.656 172.99V172.998C241.656 174.717 242.492 175.779 243.828 175.779ZM249.344 177.146V168.928H251.031V170.17H251.07C251.5 169.334 252.344 168.771 253.586 168.771C255.391 168.771 256.43 169.936 256.43 171.826V177.146H254.734V172.146C254.734 170.912 254.156 170.217 252.984 170.217C251.797 170.217 251.031 171.076 251.031 172.357V177.146H249.344ZM260.477 177.295C258.836 177.295 257.734 176.287 257.734 174.811V174.795C257.734 173.365 258.844 172.49 260.789 172.373L263.023 172.24V171.623C263.023 170.717 262.438 170.17 261.391 170.17C260.414 170.17 259.812 170.631 259.672 171.287L259.656 171.357H258.062L258.07 171.271C258.188 169.857 259.414 168.771 261.438 168.771C263.445 168.771 264.719 169.834 264.719 171.482V177.146H263.023V175.85H262.992C262.516 176.732 261.562 177.295 260.477 177.295ZM259.438 174.771C259.438 175.49 260.031 175.943 260.938 175.943C262.125 175.943 263.023 175.139 263.023 174.068V173.428L261.016 173.553C260 173.615 259.438 174.061 259.438 174.756V174.771ZM266.422 177.146V165.873H268.109V177.146H266.422ZM272.922 177.311C270.867 177.311 269.664 176.295 269.492 174.795L269.484 174.725H271.156L271.172 174.803C271.328 175.561 271.891 176.006 272.93 176.006C273.945 176.006 274.555 175.584 274.555 174.92V174.912C274.555 174.381 274.258 174.076 273.375 173.865L272.031 173.561C270.469 173.201 269.695 172.451 269.695 171.256V171.248C269.695 169.779 270.977 168.771 272.867 168.771C274.812 168.771 275.984 169.857 276.07 171.256L276.078 171.35H274.492L274.484 171.295C274.383 170.576 273.82 170.076 272.867 170.076C271.961 170.076 271.391 170.506 271.391 171.162V171.17C271.391 171.678 271.727 172.021 272.609 172.232L273.945 172.537C275.625 172.928 276.266 173.592 276.266 174.771V174.779C276.266 176.279 274.859 177.311 272.922 177.311Z" fill="#111111"/>
<rect x="248" y="104" width="158.105" height="31.2913" rx="15.6457" fill="#111111"/>
<rect x="248" y="104" width="158.105" height="31.2913" rx="15.6457" fill="url(#paint3_linear_8022_44806)"/>
<rect x="248.226" y="104.226" width="157.654" height="30.84" rx="15.42" stroke="#111111" stroke-opacity="0.1" stroke-width="0.451317"/>
<rect x="255.219" y="112.424" width="14.4421" height="14.4421" rx="7.22107" fill="#111111"/>
<path d="M265.31 118.225L261.699 121.836C261.678 121.857 261.654 121.873 261.626 121.885C261.599 121.896 261.569 121.902 261.54 121.902C261.51 121.902 261.481 121.896 261.453 121.885C261.426 121.873 261.401 121.857 261.38 121.836L259.801 120.256C259.758 120.214 259.734 120.156 259.734 120.097C259.734 120.037 259.758 119.979 259.801 119.937C259.843 119.895 259.9 119.871 259.96 119.871C260.02 119.871 260.077 119.895 260.12 119.937L261.54 121.357L264.991 117.906C265.033 117.864 265.09 117.84 265.15 117.84C265.21 117.84 265.268 117.864 265.31 117.906C265.352 117.948 265.376 118.006 265.376 118.066C265.376 118.126 265.352 118.183 265.31 118.225Z" fill="white" stroke="white" stroke-width="0.902634"/>
<path d="M274.312 125.146V113.873H278.289C281.633 113.873 283.625 115.928 283.625 119.475V119.49C283.625 123.053 281.648 125.146 278.289 125.146H274.312ZM276.062 123.631H278.125C280.516 123.631 281.836 122.17 281.836 119.506V119.49C281.836 116.842 280.5 115.381 278.125 115.381H276.062V123.631ZM287.492 125.295C285.852 125.295 284.75 124.287 284.75 122.811V122.795C284.75 121.365 285.859 120.49 287.805 120.373L290.039 120.24V119.623C290.039 118.717 289.453 118.17 288.406 118.17C287.43 118.17 286.828 118.631 286.688 119.287L286.672 119.357H285.078L285.086 119.271C285.203 117.857 286.43 116.771 288.453 116.771C290.461 116.771 291.734 117.834 291.734 119.482V125.146H290.039V123.85H290.008C289.531 124.732 288.578 125.295 287.492 125.295ZM286.453 122.771C286.453 123.49 287.047 123.943 287.953 123.943C289.141 123.943 290.039 123.139 290.039 122.068V121.428L288.031 121.553C287.016 121.615 286.453 122.061 286.453 122.756V122.771ZM294.328 127.889C294 127.889 293.648 127.85 293.445 127.811V126.49C293.578 126.521 293.773 126.553 294 126.553C294.797 126.553 295.234 126.342 295.516 125.545L295.656 125.154L292.664 116.928H294.492L296.562 123.615H296.617L298.688 116.928H300.469L297.406 125.529C296.797 127.232 295.938 127.889 294.328 127.889ZM307.703 125.146V115.381H304.25V113.873H312.898V115.381H309.453V125.146H307.703ZM312.594 125.146V116.928H314.281V118.334H314.32C314.586 117.373 315.273 116.771 316.211 116.771C316.453 116.771 316.664 116.811 316.797 116.834V118.404C316.664 118.35 316.367 118.311 316.039 118.311C314.953 118.311 314.281 119.021 314.281 120.248V125.146H312.594ZM320.086 125.295C318.445 125.295 317.344 124.287 317.344 122.811V122.795C317.344 121.365 318.453 120.49 320.398 120.373L322.633 120.24V119.623C322.633 118.717 322.047 118.17 321 118.17C320.023 118.17 319.422 118.631 319.281 119.287L319.266 119.357H317.672L317.68 119.271C317.797 117.857 319.023 116.771 321.047 116.771C323.055 116.771 324.328 117.834 324.328 119.482V125.146H322.633V123.85H322.602C322.125 124.732 321.172 125.295 320.086 125.295ZM319.047 122.771C319.047 123.49 319.641 123.943 320.547 123.943C321.734 123.943 322.633 123.139 322.633 122.068V121.428L320.625 121.553C319.609 121.615 319.047 122.061 319.047 122.756V122.771ZM329.039 125.311C326.945 125.311 325.602 123.654 325.602 121.037V121.029C325.602 118.412 326.961 116.771 329.023 116.771C330.188 116.771 331.125 117.357 331.617 118.326H331.648V113.873H333.344V125.146H331.648V123.756H331.617C331.125 124.717 330.219 125.311 329.039 125.311ZM329.484 123.857C330.758 123.857 331.656 122.748 331.656 121.037V121.029C331.656 119.326 330.75 118.217 329.484 118.217C328.156 118.217 327.328 119.295 327.328 121.029V121.037C327.328 122.787 328.148 123.857 329.484 123.857ZM338.586 125.311C336.172 125.311 334.711 123.662 334.711 121.068V121.061C334.711 118.49 336.195 116.771 338.5 116.771C340.805 116.771 342.219 118.428 342.219 120.896V121.467H336.398C336.43 123.021 337.281 123.928 338.625 123.928C339.625 123.928 340.289 123.412 340.5 122.795L340.523 122.732H342.125L342.109 122.818C341.844 124.123 340.578 125.311 338.586 125.311ZM338.508 118.154C337.414 118.154 336.57 118.896 336.422 120.271H340.547C340.406 118.85 339.609 118.154 338.508 118.154ZM350.828 125.334C348.297 125.334 346.625 124.131 346.484 122.146L346.477 122.029H348.18L348.195 122.131C348.352 123.17 349.391 123.818 350.898 123.818C352.406 123.818 353.359 123.139 353.359 122.084V122.076C353.359 121.17 352.742 120.678 351.25 120.35L350.023 120.092C347.812 119.623 346.742 118.607 346.742 116.936V116.928C346.75 115.006 348.445 113.686 350.828 113.686C353.18 113.686 354.789 114.967 354.906 116.857L354.914 116.99H353.211L353.203 116.881C353.047 115.834 352.141 115.201 350.805 115.201C349.406 115.209 348.516 115.873 348.516 116.857V116.865C348.516 117.709 349.156 118.225 350.562 118.529L351.797 118.787C354.125 119.279 355.125 120.225 355.125 121.967V121.975C355.125 124.029 353.5 125.334 350.828 125.334ZM360.008 125.311C357.594 125.311 356.133 123.662 356.133 121.068V121.061C356.133 118.49 357.617 116.771 359.922 116.771C362.227 116.771 363.641 118.428 363.641 120.896V121.467H357.82C357.852 123.021 358.703 123.928 360.047 123.928C361.047 123.928 361.711 123.412 361.922 122.795L361.945 122.732H363.547L363.531 122.818C363.266 124.123 362 125.311 360.008 125.311ZM359.93 118.154C358.836 118.154 357.992 118.896 357.844 120.271H361.969C361.828 118.85 361.031 118.154 359.93 118.154ZM367.836 125.311C366.211 125.311 365.43 124.623 365.43 122.982V118.271H364.25V116.928H365.43V114.787H367.156V116.928H368.695V118.271H367.156V122.881C367.156 123.717 367.531 123.967 368.242 123.967C368.422 123.967 368.57 123.951 368.695 123.936V125.24C368.5 125.271 368.18 125.311 367.836 125.311ZM372.891 125.311C371.086 125.311 370.055 124.146 370.055 122.256V116.928H371.742V121.928C371.742 123.17 372.32 123.857 373.492 123.857C374.68 123.857 375.445 123.006 375.445 121.725V116.928H377.141V125.146H375.445V123.912H375.406C374.977 124.74 374.141 125.311 372.891 125.311ZM378.812 127.881V116.928H380.5V118.342H380.539C381.031 117.365 381.938 116.771 383.109 116.771C385.203 116.771 386.547 118.412 386.547 121.037V121.045C386.547 123.662 385.195 125.311 383.133 125.311C381.969 125.311 381.023 124.717 380.539 123.764H380.5V127.881H378.812ZM382.672 123.857C384 123.857 384.828 122.779 384.828 121.045V121.037C384.828 119.287 383.992 118.217 382.672 118.217C381.391 118.217 380.492 119.326 380.492 121.037V121.045C380.492 122.748 381.398 123.857 382.672 123.857ZM390.938 125.311C388.883 125.311 387.68 124.295 387.508 122.795L387.5 122.725H389.172L389.188 122.803C389.344 123.561 389.906 124.006 390.945 124.006C391.961 124.006 392.57 123.584 392.57 122.92V122.912C392.57 122.381 392.273 122.076 391.391 121.865L390.047 121.561C388.484 121.201 387.711 120.451 387.711 119.256V119.248C387.711 117.779 388.992 116.771 390.883 116.771C392.828 116.771 394 117.857 394.086 119.256L394.094 119.35H392.508L392.5 119.295C392.398 118.576 391.836 118.076 390.883 118.076C389.977 118.076 389.406 118.506 389.406 119.162V119.17C389.406 119.678 389.742 120.021 390.625 120.232L391.961 120.537C393.641 120.928 394.281 121.592 394.281 122.771V122.779C394.281 124.279 392.875 125.311 390.938 125.311Z" fill="#111111"/>
<rect x="16" y="209" width="168.105" height="31.2913" rx="15.6457" fill="#111111"/>
<rect x="16" y="209" width="168.105" height="31.2913" rx="15.6457" fill="url(#paint4_linear_8022_44806)"/>
<rect x="16.2257" y="209.226" width="167.654" height="30.84" rx="15.42" stroke="#111111" stroke-opacity="0.1" stroke-width="0.451317"/>
<rect x="23.2188" y="217.424" width="14.4421" height="14.4421" rx="7.22107" fill="#111111"/>
<path d="M33.31 223.225L29.6994 226.836C29.6785 226.857 29.6536 226.873 29.6262 226.885C29.5988 226.896 29.5694 226.902 29.5398 226.902C29.5101 226.902 29.4807 226.896 29.4534 226.885C29.426 226.873 29.4011 226.857 29.3801 226.836L27.8005 225.256C27.7582 225.214 27.7344 225.156 27.7344 225.097C27.7344 225.037 27.7582 224.979 27.8005 224.937C27.8428 224.895 27.9003 224.871 27.9602 224.871C28.02 224.871 28.0775 224.895 28.1198 224.937L29.5398 226.357L32.9907 222.906C33.033 222.864 33.0904 222.84 33.1503 222.84C33.2102 222.84 33.2676 222.864 33.31 222.906C33.3523 222.948 33.3761 223.006 33.3761 223.066C33.3761 223.126 33.3523 223.183 33.31 223.225Z" fill="white" stroke="white" stroke-width="0.902634"/>
<path d="M42.3125 230.146V218.873H46.5078C48.7188 218.873 50.25 220.357 50.25 222.568V222.584C50.25 224.787 48.7188 226.295 46.5078 226.295H44.0625V230.146H42.3125ZM46.0703 220.35H44.0625V224.826H46.0703C47.5938 224.826 48.4688 224.006 48.4688 222.592V222.576C48.4688 221.17 47.5938 220.35 46.0703 220.35ZM51.5781 230.146V221.928H53.2656V223.334H53.3047C53.5703 222.373 54.2578 221.771 55.1953 221.771C55.4375 221.771 55.6484 221.811 55.7812 221.834V223.404C55.6484 223.35 55.3516 223.311 55.0234 223.311C53.9375 223.311 53.2656 224.021 53.2656 225.248V230.146H51.5781ZM57.7422 220.662C57.1953 220.662 56.7578 220.225 56.7578 219.693C56.7578 219.154 57.1953 218.717 57.7422 218.717C58.2969 218.717 58.7266 219.154 58.7266 219.693C58.7266 220.225 58.2969 220.662 57.7422 220.662ZM56.8984 230.146V221.928H58.5859V230.146H56.8984ZM62.5859 230.146L59.625 221.928H61.4219L63.4844 228.498H63.5234L65.5859 221.928H67.3438L64.3984 230.146H62.5859ZM70.5547 230.295C68.9141 230.295 67.8125 229.287 67.8125 227.811V227.795C67.8125 226.365 68.9219 225.49 70.8672 225.373L73.1016 225.24V224.623C73.1016 223.717 72.5156 223.17 71.4688 223.17C70.4922 223.17 69.8906 223.631 69.75 224.287L69.7344 224.357H68.1406L68.1484 224.271C68.2656 222.857 69.4922 221.771 71.5156 221.771C73.5234 221.771 74.7969 222.834 74.7969 224.482V230.146H73.1016V228.85H73.0703C72.5938 229.732 71.6406 230.295 70.5547 230.295ZM69.5156 227.771C69.5156 228.49 70.1094 228.943 71.0156 228.943C72.2031 228.943 73.1016 228.139 73.1016 227.068V226.428L71.0938 226.553C70.0781 226.615 69.5156 227.061 69.5156 227.756V227.771ZM79.3203 230.311C77.6953 230.311 76.9141 229.623 76.9141 227.982V223.271H75.7344V221.928H76.9141V219.787H78.6406V221.928H80.1797V223.271H78.6406V227.881C78.6406 228.717 79.0156 228.967 79.7266 228.967C79.9062 228.967 80.0547 228.951 80.1797 228.936V230.24C79.9844 230.271 79.6641 230.311 79.3203 230.311ZM84.8828 230.311C82.4688 230.311 81.0078 228.662 81.0078 226.068V226.061C81.0078 223.49 82.4922 221.771 84.7969 221.771C87.1016 221.771 88.5156 223.428 88.5156 225.896V226.467H82.6953C82.7266 228.021 83.5781 228.928 84.9219 228.928C85.9219 228.928 86.5859 228.412 86.7969 227.795L86.8203 227.732H88.4219L88.4062 227.818C88.1406 229.123 86.875 230.311 84.8828 230.311ZM84.8047 223.154C83.7109 223.154 82.8672 223.896 82.7188 225.271H86.8438C86.7031 223.85 85.9062 223.154 84.8047 223.154ZM98.1016 230.334C94.9062 230.334 92.875 228.084 92.875 224.506V224.498C92.875 220.92 94.9062 218.686 98.1016 218.686C100.586 218.686 102.453 220.217 102.805 222.443L102.82 222.514H101.086L101.039 222.357C100.664 221.037 99.6172 220.232 98.1016 220.232C96.0078 220.232 94.6641 221.889 94.6641 224.498V224.506C94.6641 227.115 96.0156 228.787 98.1016 228.787C99.6016 228.787 100.641 228.006 101.062 226.576L101.086 226.506H102.82L102.812 226.584C102.461 228.826 100.594 230.334 98.1016 230.334ZM107.734 230.311C105.375 230.311 103.836 228.678 103.836 226.037V226.021C103.836 223.396 105.391 221.771 107.727 221.771C110.07 221.771 111.633 223.389 111.633 226.021V226.037C111.633 228.686 110.086 230.311 107.734 230.311ZM107.742 228.896C109.062 228.896 109.906 227.85 109.906 226.037V226.021C109.906 224.225 109.047 223.186 107.727 223.186C106.43 223.186 105.562 224.225 105.562 226.021V226.037C105.562 227.857 106.422 228.896 107.742 228.896ZM112.938 230.146V221.928H114.625V223.201H114.664C115.016 222.342 115.852 221.771 116.93 221.771C118.062 221.771 118.891 222.357 119.219 223.389H119.258C119.68 222.389 120.648 221.771 121.82 221.771C123.445 221.771 124.508 222.85 124.508 224.498V230.146H122.812V224.904C122.812 223.834 122.242 223.217 121.242 223.217C120.242 223.217 119.547 223.967 119.547 225.006V230.146H117.891V224.779C117.891 223.826 117.289 223.217 116.336 223.217C115.336 223.217 114.625 224.006 114.625 225.068V230.146H112.938ZM126.141 230.146V221.928H127.828V223.201H127.867C128.219 222.342 129.055 221.771 130.133 221.771C131.266 221.771 132.094 222.357 132.422 223.389H132.461C132.883 222.389 133.852 221.771 135.023 221.771C136.648 221.771 137.711 222.85 137.711 224.498V230.146H136.016V224.904C136.016 223.834 135.445 223.217 134.445 223.217C133.445 223.217 132.75 223.967 132.75 225.006V230.146H131.094V224.779C131.094 223.826 130.492 223.217 129.539 223.217C128.539 223.217 127.828 224.006 127.828 225.068V230.146H126.141ZM142.141 230.311C140.336 230.311 139.305 229.146 139.305 227.256V221.928H140.992V226.928C140.992 228.17 141.57 228.857 142.742 228.857C143.93 228.857 144.695 228.006 144.695 226.725V221.928H146.391V230.146H144.695V228.912H144.656C144.227 229.74 143.391 230.311 142.141 230.311ZM148.062 230.146V221.928H149.75V223.17H149.789C150.219 222.334 151.062 221.771 152.305 221.771C154.109 221.771 155.148 222.936 155.148 224.826V230.146H153.453V225.146C153.453 223.912 152.875 223.217 151.703 223.217C150.516 223.217 149.75 224.076 149.75 225.357V230.146H148.062ZM157.695 220.662C157.148 220.662 156.711 220.225 156.711 219.693C156.711 219.154 157.148 218.717 157.695 218.717C158.25 218.717 158.68 219.154 158.68 219.693C158.68 220.225 158.25 220.662 157.695 220.662ZM156.852 230.146V221.928H158.539V230.146H156.852ZM163.164 230.311C161.539 230.311 160.758 229.623 160.758 227.982V223.271H159.578V221.928H160.758V219.787H162.484V221.928H164.023V223.271H162.484V227.881C162.484 228.717 162.859 228.967 163.57 228.967C163.75 228.967 163.898 228.951 164.023 228.936V230.24C163.828 230.271 163.508 230.311 163.164 230.311ZM166.391 232.889C166.062 232.889 165.711 232.85 165.508 232.811V231.49C165.641 231.521 165.836 231.553 166.062 231.553C166.859 231.553 167.297 231.342 167.578 230.545L167.719 230.154L164.727 221.928H166.555L168.625 228.615H168.68L170.75 221.928H172.531L169.469 230.529C168.859 232.232 168 232.889 166.391 232.889Z" fill="#111111"/>
<defs>
<linearGradient id="paint0_linear_8022_44806" x1="90.0527" y1="0" x2="90.0527" y2="31.2913" gradientUnits="userSpaceOnUse">
<stop stop-color="#2BFF27"/>
<stop offset="1" stop-color="#FBFF39"/>
</linearGradient>
<linearGradient id="paint1_linear_8022_44806" x1="187.553" y1="52" x2="187.553" y2="83.2913" gradientUnits="userSpaceOnUse">
<stop stop-color="#2BFF27"/>
<stop offset="1" stop-color="#FBFF39"/>
</linearGradient>
<linearGradient id="paint2_linear_8022_44806" x1="205.553" y1="156" x2="205.553" y2="187.291" gradientUnits="userSpaceOnUse">
<stop stop-color="#2BFF27"/>
<stop offset="1" stop-color="#FBFF39"/>
</linearGradient>
<linearGradient id="paint3_linear_8022_44806" x1="327.053" y1="104" x2="327.053" y2="135.291" gradientUnits="userSpaceOnUse">
<stop stop-color="#2BFF27"/>
<stop offset="1" stop-color="#FBFF39"/>
</linearGradient>
<linearGradient id="paint4_linear_8022_44806" x1="100.053" y1="209" x2="100.053" y2="240.291" gradientUnits="userSpaceOnUse">
<stop stop-color="#2BFF27"/>
<stop offset="1" stop-color="#FBFF39"/>
</linearGradient>
</defs>
</svg>
