<svg width="41" height="40" viewBox="0 0 41 40" fill="none" xmlns="http://www.w3.org/2000/svg">
<path d="M34.25 6.25H6.75C6.08696 6.25 5.45107 6.51339 4.98223 6.98223C4.51339 7.45107 4.25 8.08696 4.25 8.75V31.25C4.25 31.913 4.51339 32.5489 4.98223 33.0178C5.45107 33.4866 6.08696 33.75 6.75 33.75H8.84219C9.07876 33.7501 9.3105 33.683 9.51047 33.5566C9.71045 33.4302 9.87044 33.2497 9.97187 33.0359C10.5797 31.7526 11.5394 30.6682 12.7393 29.9089C13.9392 29.1495 15.33 28.7464 16.75 28.7464C18.17 28.7464 19.5608 29.1495 20.7607 29.9089C21.9606 30.6682 22.9203 31.7526 23.5281 33.0359C23.6296 33.2497 23.7896 33.4302 23.9895 33.5566C24.1895 33.683 24.4212 33.7501 24.6578 33.75H34.25C34.913 33.75 35.5489 33.4866 36.0178 33.0178C36.4866 32.5489 36.75 31.913 36.75 31.25V8.75C36.75 8.08696 36.4866 7.45107 36.0178 6.98223C35.5489 6.51339 34.913 6.25 34.25 6.25ZM16.75 26.25C15.7611 26.25 14.7944 25.9568 13.9721 25.4073C13.1499 24.8579 12.509 24.077 12.1306 23.1634C11.7522 22.2498 11.6531 21.2445 11.8461 20.2745C12.039 19.3046 12.5152 18.4137 13.2145 17.7145C13.9137 17.0152 14.8046 16.539 15.7745 16.3461C16.7445 16.1531 17.7498 16.2522 18.6634 16.6306C19.577 17.009 20.3579 17.6499 20.9073 18.4721C21.4568 19.2944 21.75 20.2611 21.75 21.25C21.75 22.5761 21.2232 23.8479 20.2855 24.7855C19.3479 25.7232 18.0761 26.25 16.75 26.25ZM34.25 31.25H25.4109C24.866 30.3104 24.1715 29.466 23.3547 28.75H30.5C30.8315 28.75 31.1495 28.6183 31.3839 28.3839C31.6183 28.1495 31.75 27.8315 31.75 27.5V12.5C31.75 12.1685 31.6183 11.8505 31.3839 11.6161C31.1495 11.3817 30.8315 11.25 30.5 11.25H10.5C10.1685 11.25 9.85054 11.3817 9.61612 11.6161C9.3817 11.8505 9.25 12.1685 9.25 12.5V27.5C9.24986 27.7772 9.34188 28.0466 9.5116 28.2658C9.68131 28.4851 9.91908 28.6416 10.1875 28.7109C9.3519 29.4349 8.64271 30.293 8.08906 31.25H6.75V8.75H34.25V31.25Z" fill="white"/>
</svg>
