<svg width="12" height="13" viewBox="0 0 12 13" fill="none" xmlns="http://www.w3.org/2000/svg">
<path d="M11.5 10C11.5 10.1326 11.4473 10.2598 11.3536 10.3536C11.2598 10.4473 11.1326 10.5 11 10.5H5C4.86739 10.5 4.74021 10.4473 4.64645 10.3536C4.55268 10.2598 4.5 10.1326 4.5 10C4.5 9.20435 4.81607 8.44129 5.37868 7.87868C5.94129 7.31607 6.70435 7 7.5 7H8.5C9.29565 7 10.0587 7.31607 10.6213 7.87868C11.1839 8.44129 11.5 9.20435 11.5 10ZM8 2.5C7.60444 2.5 7.21776 2.6173 6.88886 2.83706C6.55996 3.05682 6.30362 3.36918 6.15224 3.73463C6.00087 4.10009 5.96126 4.50222 6.03843 4.89018C6.1156 5.27814 6.30608 5.63451 6.58579 5.91421C6.86549 6.19392 7.22186 6.3844 7.60982 6.46157C7.99778 6.53874 8.39991 6.49913 8.76537 6.34776C9.13082 6.19638 9.44318 5.94004 9.66294 5.61114C9.8827 5.28224 10 4.89556 10 4.5C10 3.96957 9.78929 3.46086 9.41421 3.08579C9.03914 2.71071 8.53043 2.5 8 2.5ZM3.5 2.5C3.10444 2.5 2.71776 2.6173 2.38886 2.83706C2.05996 3.05682 1.80362 3.36918 1.65224 3.73463C1.50087 4.10009 1.46126 4.50222 1.53843 4.89018C1.6156 5.27814 1.80608 5.63451 2.08579 5.91421C2.36549 6.19392 2.72186 6.3844 3.10982 6.46157C3.49778 6.53874 3.89991 6.49913 4.26537 6.34776C4.63082 6.19638 4.94318 5.94004 5.16294 5.61114C5.3827 5.28224 5.5 4.89556 5.5 4.5C5.5 3.96957 5.28929 3.46086 4.91421 3.08579C4.53914 2.71071 4.03043 2.5 3.5 2.5ZM3.5 10C3.49926 9.4748 3.60273 8.95468 3.80442 8.46976C4.00612 7.98484 4.30202 7.54475 4.675 7.175C4.36977 7.05976 4.04626 7.00048 3.72 7H3.28C2.5431 7.00132 1.83677 7.29464 1.3157 7.8157C0.794638 8.33677 0.501322 9.0431 0.5 9.78V10C0.5 10.1326 0.552678 10.2598 0.646447 10.3536C0.740215 10.4473 0.867392 10.5 1 10.5H3.59C3.53179 10.3397 3.50135 10.1706 3.5 10Z" fill="white"/>
</svg>
