<svg width="16" height="16" viewBox="0 0 16 16" fill="none" xmlns="http://www.w3.org/2000/svg">
<path d="M8 1.00024C6.61553 1.00024 5.26216 1.41079 4.11101 2.17996C2.95987 2.94913 2.06266 4.04238 1.53285 5.32146C1.00303 6.60054 0.86441 8.00801 1.13451 9.36588C1.4046 10.7237 2.07129 11.971 3.05026 12.95C4.02922 13.929 5.2765 14.5956 6.63437 14.8657C7.99224 15.1358 9.3997 14.9972 10.6788 14.4674C11.9579 13.9376 13.0511 13.0404 13.8203 11.8892C14.5895 10.7381 15 9.38471 15 8.00024C14.998 6.14433 14.2599 4.36499 12.9476 3.05266C11.6353 1.74033 9.85592 1.0022 8 1.00024ZM8 13.9233C6.82853 13.9233 5.68336 13.5759 4.70932 12.9251C3.73527 12.2743 2.9761 11.3492 2.52779 10.2669C2.07949 9.18461 1.96219 7.99367 2.19074 6.84471C2.41928 5.69574 2.9834 4.64035 3.81175 3.812C4.64011 2.98364 5.6955 2.41952 6.84447 2.19098C7.99343 1.96243 9.18436 2.07973 10.2667 2.52803C11.349 2.97634 12.274 3.73551 12.9249 4.70956C13.5757 5.6836 13.9231 6.82877 13.9231 8.00024C13.9213 9.57059 13.2967 11.0761 12.1863 12.1865C11.0759 13.2969 9.57035 13.9215 8 13.9233ZM9.07692 11.231C9.07692 11.3738 9.0202 11.5108 8.91921 11.6118C8.81823 11.7127 8.68127 11.7695 8.53846 11.7695C8.25285 11.7695 7.97893 11.656 7.77696 11.454C7.575 11.2521 7.46154 10.9782 7.46154 10.6926V8.00024C7.31873 8.00024 7.18177 7.94351 7.08079 7.84253C6.97981 7.74155 6.92308 7.60459 6.92308 7.46178C6.92308 7.31897 6.97981 7.18201 7.08079 7.08103C7.18177 6.98005 7.31873 6.92332 7.46154 6.92332C7.74716 6.92332 8.02108 7.03678 8.22304 7.23874C8.425 7.44071 8.53846 7.71463 8.53846 8.00024V10.6926C8.68127 10.6926 8.81823 10.7493 8.91921 10.8503C9.0202 10.9512 9.07692 11.0882 9.07692 11.231ZM6.92308 5.0387C6.92308 4.87896 6.97045 4.7228 7.0592 4.58998C7.14795 4.45715 7.27409 4.35363 7.42168 4.29249C7.56927 4.23136 7.73167 4.21537 7.88834 4.24653C8.04502 4.2777 8.18894 4.35462 8.3019 4.46758C8.41485 4.58054 8.49178 4.72445 8.52294 4.88113C8.55411 5.03781 8.53811 5.20021 8.47698 5.3478C8.41585 5.49538 8.31233 5.62153 8.1795 5.71028C8.04668 5.79903 7.89052 5.8464 7.73077 5.8464C7.51656 5.8464 7.31112 5.7613 7.15965 5.60983C7.00817 5.45836 6.92308 5.25292 6.92308 5.0387Z" fill="#111111" fill-opacity="0.4" stroke="#111111" stroke-opacity="0.4" stroke-width="0.5"/>
</svg>
