<svg width="105" height="40" viewBox="0 0 106 40" fill="none" xmlns="http://www.w3.org/2000/svg">
<path d="M1 40L4.78 36.962L8.71565 27.8481L10.24 38L12.0703 40L13.18 25.5L15.4249 27.8481L16.96 37.5L17.7732 34.4304H21.4633L24.8179 30.3797L26.4952 36.962L29.98 32.5L32.92 38.5H36.28L37.901 40L40.06 38.5L40.9 30.3797L42.58 32.5L45.1 26.5L47.6294 27.8481L49.3 33L50.984 34.4304L52.66 32L54.3387 24.8101L56.44 27.8481L57.6933 34.4304L59.3706 27.8481L62.7252 30.3797H65.26L67.4217 24.8101L70.7764 27.8481L72.4 15.5L74.5 20.5L77.4856 21.7722V18.7342L80.8403 21.7722L83.1885 24.8101H87.2141L88.2204 22.2785L90.04 20.5L92.246 11.6456L93.2524 17.7215H95.6006V11.6456L96.76 9.5L98.2843 24.8101L99.2907 14.6835L101.8 14L103.987 5.06329L106 0" stroke="#01C877" stroke-width="1.5"/>
<path d="M17.7732 34.4304H21.4633L24.8179 30.3797L26.4952 36.962L29.98 32.5L32.92 38.5H36.28L37.901 40L40.06 38.5L40.9 30.3797L42.58 32.5L45.1 26.5L47.6294 27.8481L49.3 33L50.984 34.4304L52.66 32L54.3387 24.8101L56.44 27.8481L57.6933 34.4304L59.3706 27.8481L62.7252 30.3797H65.26L67.4217 24.8101L70.7764 27.8481L72.4 15.5L74.5 20.5L77.4856 21.7722V18.7342L80.8402 21.7722L83.1885 24.8101H87.2141L88.2204 22.2785L90.04 20.5L92.246 11.6456L93.2524 17.7215H95.6006V11.6456L96.76 9.5L98.2843 24.8101L99.2907 14.6835L101.8 14L103.987 5.06329L106 0V40H37.901H12.0703H1L4.78 36.962L8.71565 27.8481L10.24 38L12.0703 40L13.18 25.5L15.4249 27.8481L16.96 37.5L17.7732 34.4304Z" fill="url(#paint0_linear_1528_23376)"/>
<defs>
<linearGradient id="paint0_linear_1528_23376" x1="48.6667" y1="7.15328" x2="48.6667" y2="40" gradientUnits="userSpaceOnUse">
<stop stop-color="#00F693"/>
<stop offset="1" stop-color="#00F693" stop-opacity="0"/>
</linearGradient>
</defs>
</svg>
