<svg width="14" height="14" viewBox="0 0 14 14" fill="none" xmlns="http://www.w3.org/2000/svg">
<g clip-path="url(#clip0_8022_40155)">
<path d="M7.0625 0.779297C5.77692 0.779297 4.52022 1.16052 3.4513 1.87474C2.38238 2.58897 1.54926 3.60413 1.05729 4.79185C0.565316 5.97957 0.436595 7.28651 0.687399 8.54738C0.938202 9.80826 1.55727 10.9664 2.46631 11.8755C3.37535 12.7845 4.53354 13.4036 5.79441 13.6544C7.05529 13.9052 8.36222 13.7765 9.54994 13.2845C10.7377 12.7925 11.7528 11.9594 12.4671 10.8905C13.1813 9.82158 13.5625 8.56487 13.5625 7.2793C13.5607 5.55595 12.8753 3.9037 11.6567 2.68511C10.4381 1.46652 8.78585 0.781117 7.0625 0.779297ZM9.5625 8.27929C9.5625 8.4119 9.50982 8.53908 9.41605 8.63285C9.32229 8.72662 9.19511 8.77929 9.0625 8.77929C8.92989 8.77929 8.80272 8.72662 8.70895 8.63285C8.61518 8.53908 8.5625 8.4119 8.5625 8.27929V6.48617L5.41625 9.63305C5.3698 9.6795 5.31465 9.71635 5.25395 9.74149C5.19325 9.76663 5.1282 9.77957 5.0625 9.77957C4.9968 9.77957 4.93175 9.76663 4.87105 9.74149C4.81036 9.71635 4.75521 9.6795 4.70875 9.63305C4.6623 9.58659 4.62545 9.53144 4.60031 9.47074C4.57516 9.41005 4.56222 9.34499 4.56222 9.27929C4.56222 9.2136 4.57516 9.14854 4.60031 9.08785C4.62545 9.02715 4.6623 8.972 4.70875 8.92554L7.85563 5.7793H6.0625C5.92989 5.7793 5.80272 5.72662 5.70895 5.63285C5.61518 5.53908 5.5625 5.4119 5.5625 5.2793C5.5625 5.14669 5.61518 5.01951 5.70895 4.92574C5.80272 4.83197 5.92989 4.7793 6.0625 4.7793H9.0625C9.19511 4.7793 9.32229 4.83197 9.41605 4.92574C9.50982 5.01951 9.5625 5.14669 9.5625 5.2793V8.27929Z" fill="#F76135"/>
</g>
<defs>
<clipPath id="clip0_8022_40155">
<rect width="14" height="14" fill="white"/>
</clipPath>
</defs>
</svg>
