<svg width="15" height="15" viewBox="0 0 15 15" fill="none" xmlns="http://www.w3.org/2000/svg">
<rect width="14.4421" height="14.4421" rx="7.22107" fill="#F76135"/>
<path d="M10.0912 5.80145L6.48067 9.41199C6.45972 9.43297 6.43483 9.44962 6.40743 9.46097C6.38004 9.47233 6.35067 9.47817 6.32102 9.47817C6.29136 9.47817 6.262 9.47233 6.23461 9.46097C6.20721 9.44962 6.18232 9.43297 6.16137 9.41199L4.58176 7.83238C4.53941 7.79004 4.51562 7.73261 4.51562 7.67273C4.51562 7.61285 4.53941 7.55542 4.58176 7.51307C4.6241 7.47073 4.68153 7.44694 4.74141 7.44694C4.80129 7.44694 4.85872 7.47073 4.90106 7.51307L6.32102 8.93331L9.7719 5.48215C9.81425 5.4398 9.87168 5.41602 9.93156 5.41602C9.99144 5.41602 10.0489 5.4398 10.0912 5.48215C10.1336 5.52449 10.1573 5.58192 10.1573 5.6418C10.1573 5.70168 10.1336 5.75911 10.0912 5.80145Z" fill="white" stroke="white" stroke-width="0.902634"/>
</svg>
