<svg width="20" height="20" viewBox="0 0 20 20" fill="none" xmlns="http://www.w3.org/2000/svg">
<path d="M16.875 3.125H3.125C2.79348 3.125 2.47554 3.2567 2.24112 3.49112C2.0067 3.72554 1.875 4.04348 1.875 4.375V16.875C1.87506 16.9815 1.90234 17.0863 1.95426 17.1793C2.00618 17.2723 2.08101 17.3505 2.17165 17.4065C2.26228 17.4624 2.36572 17.4943 2.47214 17.499C2.57856 17.5038 2.68442 17.4813 2.77969 17.4336L5 16.3234L7.22031 17.4336C7.30714 17.477 7.4029 17.4997 7.5 17.4997C7.5971 17.4997 7.69286 17.477 7.77969 17.4336L10 16.3234L12.2203 17.4336C12.3071 17.477 12.4029 17.4997 12.5 17.4997C12.5971 17.4997 12.6929 17.477 12.7797 17.4336L15 16.3234L17.2203 17.4336C17.3156 17.4813 17.4214 17.5038 17.5279 17.499C17.6343 17.4943 17.7377 17.4624 17.8284 17.4065C17.919 17.3505 17.9938 17.2723 18.0457 17.1793C18.0977 17.0863 18.1249 16.9815 18.125 16.875V4.375C18.125 4.04348 17.9933 3.72554 17.7589 3.49112C17.5245 3.2567 17.2065 3.125 16.875 3.125ZM9.0625 12.5C9.0625 12.5829 9.02958 12.6624 8.97097 12.721C8.91237 12.7796 8.83288 12.8125 8.75 12.8125H5C4.91712 12.8125 4.83763 12.7796 4.77903 12.721C4.72042 12.6624 4.6875 12.5829 4.6875 12.5V7.5C4.6875 7.41712 4.72042 7.33763 4.77903 7.27903C4.83763 7.22042 4.91712 7.1875 5 7.1875H8.75C8.83288 7.1875 8.91237 7.22042 8.97097 7.27903C9.02958 7.33763 9.0625 7.41712 9.0625 7.5V12.5ZM15 11.875H11.25C11.0842 11.875 10.9253 11.8092 10.8081 11.6919C10.6908 11.5747 10.625 11.4158 10.625 11.25C10.625 11.0842 10.6908 10.9253 10.8081 10.8081C10.9253 10.6908 11.0842 10.625 11.25 10.625H15C15.1658 10.625 15.3247 10.6908 15.4419 10.8081C15.5592 10.9253 15.625 11.0842 15.625 11.25C15.625 11.4158 15.5592 11.5747 15.4419 11.6919C15.3247 11.8092 15.1658 11.875 15 11.875ZM15 9.375H11.25C11.0842 9.375 10.9253 9.30915 10.8081 9.19194C10.6908 9.07473 10.625 8.91576 10.625 8.75C10.625 8.58424 10.6908 8.42527 10.8081 8.30806C10.9253 8.19085 11.0842 8.125 11.25 8.125H15C15.1658 8.125 15.3247 8.19085 15.4419 8.30806C15.5592 8.42527 15.625 8.58424 15.625 8.75C15.625 8.91576 15.5592 9.07473 15.4419 9.19194C15.3247 9.30915 15.1658 9.375 15 9.375Z" fill="#F50004"/>
</svg>
