<svg width="34" height="40" viewBox="0 0 34 40" fill="none" xmlns="http://www.w3.org/2000/svg">
<path d="M33.7941 10.296C33.7463 9.24365 33.7463 8.23916 33.7463 7.23468C33.7463 6.42152 33.1245 5.7997 32.3113 5.7997C26.3322 5.7997 21.7881 4.07773 18.0094 0.394619C17.4354 -0.13154 16.5744 -0.13154 16.0004 0.394619C12.2216 4.07773 7.67752 5.7997 1.69845 5.7997C0.885296 5.7997 0.263472 6.42152 0.263472 7.23468C0.263472 8.23916 0.263472 9.24365 0.21564 10.296C0.0243093 20.3408 -0.262687 34.1166 16.5266 39.9043L17.0049 40L17.4832 39.9043C34.2246 34.1166 33.9854 20.3886 33.7941 10.296ZM15.8569 24.2152C15.5699 24.4544 15.2351 24.5979 14.8524 24.5979H14.8046C14.4219 24.5979 14.0393 24.4066 13.8001 24.1196L9.35166 19.1928L11.5041 17.2795L14.9959 21.154L22.7448 13.7877L24.7059 15.8924L15.8569 24.2152Z" fill="white"/>
</svg>
