<svg width="519" height="423" viewBox="0 0 519 423" fill="none" xmlns="http://www.w3.org/2000/svg">
<g clip-path="url(#clip0_8022_61751)">
<g opacity="0.1">
<path fill-rule="evenodd" clip-rule="evenodd" d="M42.8575 183C46.6389 183 49.7088 186.042 49.7088 189.789C49.7088 193.536 46.6389 196.578 42.8575 196.578C39.0761 196.578 36.0061 193.536 36.0061 189.789C36.0061 186.042 39.0761 183 42.8575 183ZM52.5174 202.154C54.363 200.662 56.7202 199.766 59.2858 199.766C65.1986 199.766 70 204.524 70 210.383C70 216.242 65.1986 221 59.2858 221C53.3731 221 48.5717 216.242 48.5717 210.383C48.5717 206.676 50.4988 203.786 52.5174 202.154ZM57.8601 215.583C57.9059 216.323 58.5273 216.91 59.2858 216.91C60.0301 216.91 60.643 216.344 60.7087 215.622C60.8158 215.595 60.9201 215.564 61.0201 215.529C62.3401 215.066 63.2944 214.059 63.2944 212.308C63.2944 210.594 62.1101 209.712 60.4487 209.232C59.873 209.065 59.2387 208.943 58.6844 208.759C58.523 208.706 58.3701 208.649 58.2373 208.573C58.193 208.547 58.1344 208.533 58.1344 208.475C58.1344 208.043 58.4759 207.883 58.8387 207.834C59.5744 207.732 60.4587 207.95 61.0473 208.357C61.693 208.805 62.5844 208.648 63.0358 208.008C63.4872 207.366 63.3301 206.483 62.6829 206.036C62.1287 205.652 61.4372 205.355 60.7115 205.177C60.6615 204.439 60.0415 203.856 59.2858 203.856C58.5401 203.856 57.9259 204.423 57.863 205.147C57.0673 205.363 56.393 205.787 55.9316 206.402C55.5345 206.93 55.2773 207.61 55.2773 208.475C55.2773 210.189 56.4616 211.071 58.123 211.551C58.6987 211.718 59.333 211.84 59.8873 212.024C60.0487 212.078 60.2015 212.136 60.3344 212.211C60.3787 212.236 60.4373 212.25 60.4373 212.308C60.4373 212.736 60.0987 212.886 59.7401 212.934C58.9944 213.034 58.1016 212.811 57.5059 212.413C56.8516 211.976 55.963 212.147 55.5216 212.795C55.0816 213.442 55.2545 214.323 55.9073 214.76C56.4573 215.128 57.1402 215.41 57.8601 215.583ZM48.7617 218.871C44.1389 218.877 37.8318 218.877 34.2961 218.877C32.009 218.877 30.1248 217.099 30.0133 214.835C30.0133 214.822 30.0133 214.808 30.0119 214.795C29.9633 212.427 30.0376 208.752 30.7262 204.61C31.0905 202.422 32.9804 199.67 34.9061 198.508C34.9847 198.461 35.0618 198.414 35.139 198.369C35.629 198.079 36.2475 198.106 36.7104 198.44C38.4875 199.719 40.6746 200.474 43.0375 200.474C45.4003 200.474 47.5874 199.719 49.3645 198.44C49.8245 198.109 50.4374 198.08 50.9274 198.365C51.0074 198.411 51.0874 198.46 51.1688 198.508C51.4331 198.666 51.6959 198.855 51.9545 199.065C51.5231 199.342 51.1074 199.64 50.7117 199.962C48.1545 202.028 45.7146 205.689 45.7146 210.383C45.7146 213.601 46.8574 216.555 48.7617 218.871Z" fill="black"/>
</g>
<g opacity="0.3">
<path d="M155.672 207.986C153.199 207.986 151.021 209.202 149.652 211.052L137.821 204.994C138.017 204.324 138.155 203.63 138.155 202.898C138.155 201.905 137.951 200.961 137.6 200.092L149.982 192.641C151.36 194.258 153.385 195.307 155.672 195.307C159.811 195.307 163.179 191.94 163.179 187.8C163.179 183.66 159.811 180.293 155.672 180.293C151.532 180.293 148.165 183.66 148.165 187.8C148.165 188.754 148.361 189.659 148.687 190.499L136.268 197.972C134.891 196.403 132.895 195.391 130.648 195.391C126.508 195.391 123.141 198.758 123.141 202.898C123.141 207.038 126.508 210.405 130.648 210.405C133.161 210.405 135.377 209.153 136.74 207.252L148.532 213.29C148.315 213.991 148.165 214.722 148.165 215.493C148.165 219.633 151.532 223 155.672 223C159.811 223 163.179 219.633 163.179 215.493C163.179 211.354 159.811 207.986 155.672 207.986Z" fill="black"/>
</g>
<g filter="url(#filter0_dd_8022_61751)">
<rect x="203.695" y="145" width="113.293" height="113.293" rx="56.6463" fill="#1FD773" shape-rendering="crispEdges"/>
<path d="M255.482 190.738C242.977 190.738 232.695 199.338 232.695 209.908C232.695 214.133 234.334 218.428 237.34 221.756L233.096 226.606C232.678 227.084 232.577 227.763 232.841 228.342C233.104 228.92 233.679 229.292 234.315 229.292H257.102C266.335 229.292 278.268 221.342 278.268 209.908C278.268 199.338 267.987 190.738 255.482 190.738ZM245.655 212.877C243.869 212.877 242.415 211.423 242.415 209.638C242.415 207.852 243.869 206.398 245.655 206.398C247.44 206.398 248.894 207.852 248.894 209.638C248.894 211.423 247.441 212.877 245.655 212.877ZM255.482 212.877C253.696 212.877 252.242 211.423 252.242 209.638C252.242 207.852 253.696 206.398 255.482 206.398C257.268 206.398 258.722 207.852 258.722 209.638C258.722 211.423 257.268 212.877 255.482 212.877ZM265.309 212.877C263.523 212.877 262.07 211.423 262.07 209.638C262.07 207.852 263.523 206.398 265.309 206.398C267.095 206.398 268.549 207.852 268.549 209.638C268.549 211.423 267.095 212.877 265.309 212.877Z" fill="white"/>
<path d="M287.601 206.963L283.787 202.513C286.509 199.441 287.992 195.694 287.992 191.819C287.992 181.993 278.544 174 266.933 174C256.433 174 247.513 180.543 245.938 189.06C248.867 188.064 252.153 187.499 255.486 187.499C269.671 187.499 281.326 197.407 281.496 209.638H286.372C287.755 209.638 288.499 208.008 287.601 206.963Z" fill="white"/>
</g>
<g opacity="0.3">
<path d="M389.394 209.015C389.033 206.518 387.804 204.235 385.929 202.581C384.055 200.928 381.659 200.012 379.178 200H376.865C374.383 200.012 371.988 200.928 370.113 202.581C368.239 204.235 367.009 206.518 366.648 209.015L365.539 216.897C365.504 217.152 365.527 217.412 365.608 217.656C365.688 217.9 365.823 218.121 366.002 218.303C366.437 218.745 369.104 221 378.023 221C386.942 221 389.603 218.754 390.044 218.303C390.224 218.121 390.359 217.9 390.439 217.656C390.519 217.412 390.543 217.152 390.507 216.897L389.394 209.015Z" fill="black"/>
<path d="M368.523 201.185C366.379 203.104 364.984 205.683 364.575 208.486L363.754 214C357.165 213.957 355.169 211.631 354.836 211.157C354.707 210.985 354.615 210.789 354.566 210.582C354.516 210.375 354.51 210.16 354.547 209.951L355.036 207.28C355.29 205.884 355.887 204.569 356.776 203.445C357.666 202.321 358.821 201.421 360.145 200.823C361.469 200.225 362.921 199.946 364.38 200.009C365.838 200.072 367.26 200.475 368.523 201.185Z" fill="black"/>
<path d="M401.499 209.951C401.537 210.16 401.531 210.375 401.481 210.582C401.431 210.789 401.34 210.985 401.211 211.157C400.878 211.631 398.882 213.957 392.293 214L391.472 208.486C391.062 205.683 389.667 203.104 387.523 201.185C388.787 200.475 390.209 200.072 391.667 200.009C393.126 199.946 394.578 200.225 395.902 200.823C397.225 201.421 398.381 202.321 399.27 203.445C400.16 204.569 400.757 205.884 401.011 207.28L401.499 209.951Z" fill="black"/>
<path d="M368.523 196.491C367.967 197.27 367.229 197.905 366.372 198.341C365.514 198.778 364.563 199.004 363.598 199C362.635 199 361.687 198.774 360.83 198.341C359.973 197.908 359.233 197.279 358.67 196.508C358.107 195.737 357.738 194.845 357.593 193.905C357.448 192.965 357.531 192.005 357.835 191.103C358.14 190.201 358.657 189.383 359.344 188.717C360.031 188.051 360.868 187.556 361.787 187.273C362.705 186.989 363.679 186.926 364.628 187.087C365.576 187.248 366.472 187.63 367.242 188.2C367.021 189.055 366.91 189.935 366.911 190.818C366.913 192.819 367.47 194.781 368.523 196.491Z" fill="black"/>
<path d="M398.523 193C398.524 193.788 398.367 194.569 398.062 195.297C397.757 196.025 397.31 196.687 396.746 197.244C396.181 197.801 395.512 198.243 394.774 198.544C394.037 198.846 393.247 199.001 392.449 199C391.484 199.004 390.533 198.778 389.675 198.341C388.818 197.905 388.079 197.27 387.523 196.491C388.576 194.781 389.134 192.819 389.136 190.818C389.137 189.935 389.026 189.055 388.805 188.2C389.707 187.531 390.78 187.124 391.904 187.024C393.027 186.924 394.157 187.135 395.166 187.633C396.175 188.132 397.023 188.898 397.616 189.846C398.209 190.793 398.523 191.886 398.523 193Z" fill="black"/>
<path d="M378.023 199C382.718 199 386.523 195.194 386.523 190.5C386.523 185.806 382.718 182 378.023 182C373.329 182 369.523 185.806 369.523 190.5C369.523 195.194 373.329 199 378.023 199Z" fill="black"/>
</g>
<g opacity="0.1">
<g clip-path="url(#clip1_8022_61751)">
<path d="M457.062 198.637C454.219 198.637 451.906 196.324 451.906 193.48C451.906 190.637 454.219 188.324 457.062 188.324C459.906 188.324 462.219 190.637 462.219 193.48C462.219 196.324 459.906 198.637 457.062 198.637Z" fill="black"/>
<path d="M475.109 195.199C472.266 195.199 469.953 192.886 469.953 190.043C469.953 187.2 472.266 184.887 475.109 184.887C477.953 184.887 480.266 187.2 480.266 190.043C480.266 192.886 477.953 195.199 475.109 195.199Z" fill="black"/>
<path d="M492.039 193.48H486.883C486.171 193.48 485.594 194.058 485.594 194.77C485.594 195.481 486.171 196.059 486.883 196.059H488.927L475.711 209.275L472.326 205.889C471.822 205.386 471.006 205.386 470.503 205.889L460.568 215.824H450.617C449.905 215.824 449.328 216.401 449.328 217.113C449.328 217.825 449.905 218.402 450.617 218.402H461.102C461.444 218.402 461.771 218.267 462.013 218.025L471.414 208.624L474.799 212.009C475.303 212.513 476.119 212.513 476.622 212.009L490.75 197.882V199.926C490.75 200.638 491.327 201.215 492.039 201.215C492.751 201.215 493.328 200.638 493.328 199.926V194.77C493.328 194.058 492.751 193.48 492.039 193.48Z" fill="black"/>
<path d="M479.383 196.486C478.157 197.301 476.688 197.777 475.109 197.777C473.531 197.777 472.061 197.302 470.836 196.486C468.75 197.872 467.375 200.242 467.375 202.934V205.371L468.68 204.066C469.41 203.336 470.381 202.934 471.414 202.934C472.447 202.934 473.418 203.336 474.149 204.066L475.711 205.629L481.973 199.366C481.366 198.201 480.471 197.209 479.383 196.486Z" fill="black"/>
<path d="M452.789 199.924C450.703 201.309 449.328 203.679 449.328 206.371V213.246H459.5L464.797 207.949V206.371C464.797 203.679 463.422 201.309 461.336 199.924C460.111 200.739 458.641 201.215 457.062 201.215C455.484 201.215 454.014 200.739 452.789 199.924Z" fill="black"/>
</g>
</g>
</g>
<defs>
<filter id="filter0_dd_8022_61751" x="-81.6628" y="-137.04" width="684.005" height="684.009" filterUnits="userSpaceOnUse" color-interpolation-filters="sRGB">
<feFlood flood-opacity="0" result="BackgroundImageFix"/>
<feColorMatrix in="SourceAlpha" type="matrix" values="0 0 0 0 0 0 0 0 0 0 0 0 0 0 0 0 0 0 127 0" result="hardAlpha"/>
<feOffset dy="3.31812"/>
<feGaussianBlur stdDeviation="142.679"/>
<feComposite in2="hardAlpha" operator="out"/>
<feColorMatrix type="matrix" values="0 0 0 0 0.121569 0 0 0 0 0.843137 0 0 0 0 0.45098 0 0 0 0.4 0"/>
<feBlend mode="normal" in2="BackgroundImageFix" result="effect1_dropShadow_8022_61751"/>
<feColorMatrix in="SourceAlpha" type="matrix" values="0 0 0 0 0 0 0 0 0 0 0 0 0 0 0 0 0 0 127 0" result="hardAlpha"/>
<feOffset dy="3.31812"/>
<feGaussianBlur stdDeviation="46.4536"/>
<feComposite in2="hardAlpha" operator="out"/>
<feColorMatrix type="matrix" values="0 0 0 0 0.121569 0 0 0 0 0.843137 0 0 0 0 0.45098 0 0 0 0.4 0"/>
<feBlend mode="normal" in2="effect1_dropShadow_8022_61751" result="effect2_dropShadow_8022_61751"/>
<feBlend mode="normal" in="SourceGraphic" in2="effect2_dropShadow_8022_61751" result="shape"/>
</filter>
<clipPath id="clip0_8022_61751">
<rect width="519" height="423" rx="24" fill="white"/>
</clipPath>
<clipPath id="clip1_8022_61751">
<rect width="44" height="44" fill="white" transform="translate(449.328 179.645)"/>
</clipPath>
</defs>
</svg>
