<svg width="202" height="201" viewBox="0 0 202 201" fill="none" xmlns="http://www.w3.org/2000/svg">
<g filter="url(#filter0_di_8022_49508)">
<path fill-rule="evenodd" clip-rule="evenodd" d="M126.284 26.266C119.13 26 110.793 26 101 26C68.002 26 51.503 26 41.248 36.248C31 46.51 31 63.002 31 96C31 128.998 31 145.497 41.248 155.745C51.51 166 68.002 166 101 166C133.998 166 150.497 166 160.745 155.745C171 145.504 171 128.998 171 96C171 86.207 171 77.87 170.734 70.716C164.72 75.9816 156.929 78.7639 148.94 78.4991C140.951 78.2344 133.362 74.9424 127.71 69.2903C122.058 63.6382 118.766 56.0486 118.501 48.0597C118.236 40.0707 121.018 32.2799 126.284 26.266ZM139.36 77.968C140.429 78.8594 141.1 80.1387 141.226 81.5249C141.352 82.911 140.923 84.2905 140.032 85.36L127.229 100.725C124.933 103.483 122.861 105.975 120.929 107.725C118.815 109.615 116.169 111.316 112.669 111.316C109.169 111.316 106.516 109.622 104.409 107.718C102.477 105.968 100.405 103.483 98.102 100.718L96.058 98.268C93.461 95.153 91.865 93.256 90.549 92.073C90.2083 91.7389 89.8246 91.4517 89.408 91.219L89.338 91.184L89.303 91.198L89.254 91.219C88.8373 91.4515 88.4535 91.7387 88.113 92.073C86.804 93.263 85.208 95.153 82.611 98.268L70.032 113.36C69.1296 114.392 67.8595 115.029 66.4932 115.137C65.1269 115.245 63.7726 114.814 62.7197 113.936C61.6668 113.059 60.9988 111.805 60.8583 110.441C60.7178 109.078 61.1161 107.714 61.968 106.64L74.771 91.275C77.067 88.517 79.139 86.025 81.071 84.275C83.185 82.385 85.831 80.684 89.331 80.684C92.831 80.684 95.484 82.378 97.591 84.282C99.523 86.032 101.595 88.517 103.898 91.282L105.942 93.732C108.539 96.847 110.135 98.744 111.451 99.927C112.053 100.473 112.417 100.697 112.592 100.781L112.613 100.788C112.631 100.798 112.65 100.807 112.669 100.816L112.739 100.781C113.158 100.549 113.544 100.262 113.887 99.927C115.196 98.737 116.792 96.847 119.389 93.732L131.968 78.64C132.859 77.571 134.139 76.8997 135.525 76.7737C136.911 76.6477 138.29 77.0773 139.36 77.968Z" fill="white"/>
</g>
<circle cx="150.576" cy="46.4259" r="26.9591" fill="#1FD773"/>
<path d="M151.842 55.8672V52.3578H142.038V48.8484C143.759 45.5712 145.902 42.1164 149.944 36.1628H155.761V49.0533H158.329V52.3578H155.761V55.8672H151.842ZM145.657 49.0669V49.1762H151.924V39.085H151.842C148.975 43.2908 147.254 45.9808 145.657 49.0669Z" fill="white"/>
<defs>
<filter id="filter0_di_8022_49508" x="0.846151" y="0.153844" width="200.308" height="200.308" filterUnits="userSpaceOnUse" color-interpolation-filters="sRGB">
<feFlood flood-opacity="0" result="BackgroundImageFix"/>
<feColorMatrix in="SourceAlpha" type="matrix" values="0 0 0 0 0 0 0 0 0 0 0 0 0 0 0 0 0 0 127 0" result="hardAlpha"/>
<feOffset dy="4.30769"/>
<feGaussianBlur stdDeviation="15.0769"/>
<feComposite in2="hardAlpha" operator="out"/>
<feColorMatrix type="matrix" values="0 0 0 0 0 0 0 0 0 0 0 0 0 0 0 0 0 0 0.07 0"/>
<feBlend mode="normal" in2="BackgroundImageFix" result="effect1_dropShadow_8022_49508"/>
<feBlend mode="normal" in="SourceGraphic" in2="effect1_dropShadow_8022_49508" result="shape"/>
<feColorMatrix in="SourceAlpha" type="matrix" values="0 0 0 0 0 0 0 0 0 0 0 0 0 0 0 0 0 0 127 0" result="hardAlpha"/>
<feOffset/>
<feGaussianBlur stdDeviation="6.46154"/>
<feComposite in2="hardAlpha" operator="arithmetic" k2="-1" k3="1"/>
<feColorMatrix type="matrix" values="0 0 0 0 0 0 0 0 0 0 0 0 0 0 0 0 0 0 0.1 0"/>
<feBlend mode="normal" in2="shape" result="effect2_innerShadow_8022_49508"/>
</filter>
</defs>
</svg>
