<svg width="240" height="232" viewBox="0 0 240 232" fill="none" xmlns="http://www.w3.org/2000/svg">
<mask id="mask0_8022_50637" style="mask-type:alpha" maskUnits="userSpaceOnUse" x="0" y="0" width="240" height="232">
<rect width="240" height="232" fill="#D9D9D9"/>
</mask>
<g mask="url(#mask0_8022_50637)">
<mask id="mask1_8022_50637" style="mask-type:alpha" maskUnits="userSpaceOnUse" x="12" y="-28" width="474" height="383">
<rect x="12" y="-28" width="474" height="382.846" rx="29.1692" fill="#D9D9D9"/>
</mask>
<g mask="url(#mask1_8022_50637)">
<g filter="url(#filter0_d_8022_50637)">
<rect x="42.9922" y="3.9043" width="471.265" height="318.087" rx="19.8602" fill="white" shape-rendering="crispEdges"/>
<line x1="80.2266" y1="102.172" x2="460.235" y2="102.172" stroke="#111111" stroke-opacity="0.1" stroke-width="0.413753"/>
<line x1="80.2266" y1="116.652" x2="460.235" y2="116.652" stroke="#111111" stroke-opacity="0.1" stroke-width="0.413753"/>
<line x1="80.2266" y1="131.135" x2="460.235" y2="131.135" stroke="#111111" stroke-opacity="0.1" stroke-width="0.413753"/>
<line x1="80.2266" y1="145.615" x2="460.235" y2="145.615" stroke="#111111" stroke-opacity="0.1" stroke-width="0.413753"/>
<line x1="80.2266" y1="160.098" x2="460.235" y2="160.098" stroke="#111111" stroke-opacity="0.1" stroke-width="0.413753"/>
<line x1="80.2266" y1="174.578" x2="460.235" y2="174.578" stroke="#111111" stroke-opacity="0.1" stroke-width="0.413753"/>
<line x1="80.2266" y1="189.061" x2="460.235" y2="189.061" stroke="#111111" stroke-opacity="0.1" stroke-width="0.413753"/>
<line x1="80.2266" y1="203.541" x2="460.235" y2="203.541" stroke="#111111" stroke-opacity="0.1" stroke-width="0.413753"/>
<line x1="80.2266" y1="218.024" x2="460.235" y2="218.024" stroke="#111111" stroke-opacity="0.1" stroke-width="0.413753"/>
<line x1="120.144" y1="102.379" x2="120.144" y2="290.637" stroke="#111111" stroke-opacity="0.1" stroke-width="0.413753"/>
<line x1="153.871" y1="102.379" x2="153.871" y2="290.637" stroke="#111111" stroke-opacity="0.1" stroke-width="0.413753"/>
<line x1="187.605" y1="102.379" x2="187.605" y2="290.637" stroke="#111111" stroke-opacity="0.1" stroke-width="0.413753"/>
<line x1="221.332" y1="102.379" x2="221.332" y2="290.637" stroke="#111111" stroke-opacity="0.1" stroke-width="0.413753"/>
<line x1="86.41" y1="102.379" x2="86.41" y2="290.637" stroke="#111111" stroke-opacity="0.1" stroke-width="0.413753"/>
<path opacity="0.7" d="M65.1531 83.1387H63.2815V78.4743H65.1434C65.9709 78.4743 66.5139 78.9333 66.5139 79.6379C66.5139 80.1325 66.1487 80.5753 65.6832 80.6529V80.6788C66.3167 80.7499 66.7434 81.1992 66.7434 81.8198C66.7434 82.6409 66.1454 83.1387 65.1531 83.1387ZM64.0055 79.0658V80.459H64.8169C65.444 80.459 65.7899 80.2004 65.7899 79.7381C65.7899 79.305 65.4925 79.0658 64.9688 79.0658H64.0055ZM64.0055 82.5471H65.0044C65.6573 82.5471 66.0032 82.2788 66.0032 81.7746C66.0032 81.2703 65.6476 81.0117 64.9624 81.0117H64.0055V82.5471ZM69.2486 83.1387H68.5245V79.0981H67.0958V78.4743H70.6741V79.0981H69.2486V83.1387ZM72.9562 83.2163C71.6471 83.2163 70.8195 82.2918 70.8195 80.8048C70.8195 79.3276 71.6535 78.3967 72.9562 78.3967C74.0132 78.3967 74.8116 79.0464 74.9344 80.0194H74.2168C74.0875 79.4214 73.5898 79.0302 72.9562 79.0302C72.1093 79.0302 71.5598 79.7252 71.5598 80.8048C71.5598 81.8942 72.1028 82.5827 72.9594 82.5827C73.6091 82.5827 74.0714 82.2497 74.2168 81.6873H74.9377C74.7599 82.6506 74.0294 83.2163 72.9562 83.2163ZM75.7814 84.1343H75.1607L76.8157 78.4743H77.4364L75.7814 84.1343ZM78.6097 78.4743V81.4384C78.6097 82.1043 79.03 82.573 79.7734 82.573C80.5169 82.573 80.9403 82.1043 80.9403 81.4384V78.4743H81.6612V81.4998C81.6612 82.5051 80.9436 83.2163 79.7734 83.2163C78.6033 83.2163 77.8857 82.5051 77.8857 81.4998V78.4743H78.6097ZM82.3141 81.8392H83.0285C83.0802 82.3015 83.5295 82.6053 84.1437 82.6053C84.732 82.6053 85.1554 82.3015 85.1554 81.8845C85.1554 81.5224 84.9001 81.3059 84.2956 81.1572L83.6911 81.0117C82.8346 80.8048 82.437 80.404 82.437 79.7543C82.437 78.9494 83.1384 78.3967 84.134 78.3967C85.1199 78.3967 85.7955 78.9494 85.8181 79.7543H85.1134C85.0714 79.2888 84.6867 79.0076 84.1243 79.0076C83.5619 79.0076 83.1772 79.2921 83.1772 79.7058C83.1772 80.0355 83.4229 80.2295 84.0241 80.3782L84.538 80.5042C85.4949 80.7305 85.8924 81.1152 85.8924 81.7972C85.8924 82.67 85.1975 83.2163 84.092 83.2163C83.0576 83.2163 82.3594 82.6829 82.3141 81.8392ZM86.5422 78.4743H88.1875C89.5742 78.4743 90.3952 79.3276 90.3952 80.7984C90.3952 82.2724 89.5774 83.1387 88.1875 83.1387H86.5422V78.4743ZM87.2662 79.0981V82.5116H88.1196C89.1087 82.5116 89.655 81.9071 89.655 80.8048C89.655 79.7058 89.1055 79.0981 88.1196 79.0981H87.2662Z" fill="#111111"/>
<path opacity="0.7" d="M100.393 83.1387V79.1919H100.377L99.1586 80.0581V79.347L100.387 78.4743H101.101V83.1387H100.393Z" fill="#111111"/>
<path d="M125.811 83.2486C124.473 83.2486 123.672 82.2982 123.672 80.8081V80.8016C123.672 79.305 124.493 78.3643 125.811 78.3643C127.137 78.3643 127.951 79.3082 127.951 80.8016V80.8081C127.951 82.295 127.143 83.2486 125.811 83.2486ZM125.811 82.712C126.768 82.712 127.357 81.9621 127.357 80.8081V80.8016C127.357 79.6379 126.765 78.9009 125.811 78.9009C124.861 78.9009 124.266 79.6379 124.266 80.8016V80.8081C124.266 81.9621 124.842 82.712 125.811 82.712Z" fill="#111111" fill-opacity="0.5"/>
<path d="M130.473 83.2163C129.509 83.2163 128.886 82.6797 128.824 81.9427L128.821 81.9039H129.38L129.383 81.9362C129.429 82.3952 129.852 82.712 130.473 82.712C131.084 82.712 131.501 82.3693 131.501 81.8748V81.8683C131.501 81.2962 131.09 80.9762 130.437 80.9762H129.852V80.4848H130.411C130.967 80.4848 131.355 80.1422 131.355 79.6767V79.6703C131.355 79.1822 131.035 78.9009 130.466 78.9009C129.917 78.9009 129.526 79.1919 129.477 79.6638L129.474 79.6961H128.915L128.918 79.6638C128.992 78.9042 129.593 78.3967 130.466 78.3967C131.355 78.3967 131.94 78.8912 131.94 79.5991V79.6056C131.94 80.181 131.533 80.5753 130.951 80.6982V80.7111C131.63 80.7693 132.092 81.1927 132.092 81.8554V81.8619C132.092 82.6409 131.407 83.2163 130.473 83.2163ZM134.63 83.2163C133.64 83.2163 132.936 82.6603 132.936 81.878V81.8716C132.936 81.2962 133.34 80.8178 133.938 80.6788V80.6658C133.427 80.5075 133.104 80.1196 133.104 79.6282V79.6218C133.104 78.9171 133.747 78.3967 134.63 78.3967C135.512 78.3967 136.155 78.9171 136.155 79.6218V79.6282C136.155 80.1196 135.832 80.5075 135.321 80.6658V80.6788C135.919 80.8178 136.323 81.2962 136.323 81.8716V81.878C136.323 82.6603 135.619 83.2163 134.63 83.2163ZM134.63 80.4493C135.192 80.4493 135.577 80.1293 135.577 79.6767V79.6703C135.577 79.2177 135.192 78.8977 134.63 78.8977C134.067 78.8977 133.682 79.2177 133.682 79.6703V79.6767C133.682 80.1293 134.067 80.4493 134.63 80.4493ZM134.63 82.7088C135.273 82.7088 135.732 82.3467 135.732 81.8425V81.836C135.732 81.3253 135.276 80.96 134.63 80.96C133.983 80.96 133.527 81.3253 133.527 81.836V81.8425C133.527 82.3467 133.986 82.7088 134.63 82.7088ZM138.825 83.2486C137.794 83.2486 137.18 82.3079 137.18 80.8081V80.8016C137.18 79.3018 137.794 78.3643 138.825 78.3643C139.856 78.3643 140.477 79.3018 140.477 80.8016V80.8081C140.477 82.3079 139.856 83.2486 138.825 83.2486ZM138.825 82.7411C139.494 82.7411 139.892 81.9976 139.892 80.8081V80.8016C139.892 79.6121 139.494 78.8751 138.825 78.8751C138.156 78.8751 137.765 79.6121 137.765 80.8016V80.8081C137.765 81.9976 138.156 82.7411 138.825 82.7411ZM143.021 83.2163C142.058 83.2163 141.434 82.6797 141.372 81.9427L141.369 81.9039H141.928L141.932 81.9362C141.977 82.3952 142.4 82.712 143.021 82.712C143.632 82.712 144.049 82.3693 144.049 81.8748V81.8683C144.049 81.2962 143.638 80.9762 142.985 80.9762H142.4V80.4848H142.96C143.516 80.4848 143.903 80.1422 143.903 79.6767V79.6703C143.903 79.1822 143.583 78.9009 143.015 78.9009C142.465 78.9009 142.074 79.1919 142.025 79.6638L142.022 79.6961H141.463L141.466 79.6638C141.541 78.9042 142.142 78.3967 143.015 78.3967C143.903 78.3967 144.489 78.8912 144.489 79.5991V79.6056C144.489 80.181 144.081 80.5753 143.499 80.6982V80.7111C144.178 80.7693 144.64 81.1927 144.64 81.8554V81.8619C144.64 82.6409 143.955 83.2163 143.021 83.2163ZM145.584 83.1387V82.7378L147.162 81.0311C147.757 80.3879 147.931 80.1454 147.931 79.7381V79.7317C147.931 79.2403 147.598 78.8718 147.049 78.8718C146.489 78.8718 146.118 79.2371 146.118 79.7866L146.114 79.7931L145.558 79.7899L145.552 79.7866C145.555 78.9591 146.195 78.3643 147.087 78.3643C147.902 78.3643 148.526 78.9171 148.526 79.6703V79.6767C148.526 80.2101 148.296 80.598 147.453 81.4675L146.392 82.5633V82.615H148.603V83.1387H145.584ZM149.945 83.171C149.715 83.171 149.525 82.9803 149.525 82.7508C149.525 82.518 149.715 82.3306 149.945 82.3306C150.178 82.3306 150.365 82.518 150.365 82.7508C150.365 82.9803 150.178 83.171 149.945 83.171ZM152.838 83.2486C151.985 83.2486 151.083 82.6473 151.083 80.8921V80.8857C151.083 79.2953 151.745 78.3643 152.877 78.3643C153.659 78.3643 154.241 78.8234 154.399 79.5119L154.409 79.5539H153.824L153.811 79.5183C153.669 79.1272 153.342 78.8848 152.87 78.8848C152.023 78.8848 151.677 79.7123 151.642 80.6852C151.639 80.7208 151.639 80.7596 151.639 80.7951H151.7C151.871 80.4137 152.311 80.0743 152.941 80.0743C153.817 80.0743 154.47 80.7402 154.47 81.6356V81.642C154.47 82.573 153.779 83.2486 152.838 83.2486ZM151.778 81.6356C151.778 82.2497 152.24 82.7346 152.831 82.7346C153.417 82.7346 153.885 82.2594 153.885 81.655V81.6485C153.885 81.0279 153.446 80.5818 152.841 80.5818C152.237 80.5818 151.778 81.0247 151.778 81.6324V81.6356ZM156.998 83.2163C156.009 83.2163 155.304 82.6603 155.304 81.878V81.8716C155.304 81.2962 155.708 80.8178 156.306 80.6788V80.6658C155.796 80.5075 155.472 80.1196 155.472 79.6282V79.6218C155.472 78.9171 156.116 78.3967 156.998 78.3967C157.881 78.3967 158.524 78.9171 158.524 79.6218V79.6282C158.524 80.1196 158.201 80.5075 157.69 80.6658V80.6788C158.288 80.8178 158.692 81.2962 158.692 81.8716V81.878C158.692 82.6603 157.987 83.2163 156.998 83.2163ZM156.998 80.4493C157.561 80.4493 157.945 80.1293 157.945 79.6767V79.6703C157.945 79.2177 157.561 78.8977 156.998 78.8977C156.436 78.8977 156.051 79.2177 156.051 79.6703V79.6767C156.051 80.1293 156.436 80.4493 156.998 80.4493ZM156.998 82.7088C157.641 82.7088 158.1 82.3467 158.1 81.8425V81.836C158.1 81.3253 157.645 80.96 156.998 80.96C156.352 80.96 155.896 81.3253 155.896 81.836V81.8425C155.896 82.3467 156.355 82.7088 156.998 82.7088Z" fill="#1FD773"/>
<path d="M165.228 83.1387V78.4743H165.809V80.4913H168.37V78.4743H168.951V83.1387H168.37V81.015H165.809V83.1387H165.228Z" fill="#111111" fill-opacity="0.5"/>
<path d="M171.654 83.2163C170.69 83.2163 170.067 82.6797 170.005 81.9427L170.002 81.9039H170.561L170.564 81.9362C170.61 82.3952 171.033 82.712 171.654 82.712C172.265 82.712 172.682 82.3693 172.682 81.8748V81.8683C172.682 81.2962 172.271 80.9762 171.618 80.9762H171.033V80.4848H171.592C172.148 80.4848 172.536 80.1422 172.536 79.6767V79.6703C172.536 79.1822 172.216 78.9009 171.647 78.9009C171.098 78.9009 170.707 79.1919 170.658 79.6638L170.655 79.6961H170.096L170.099 79.6638C170.173 78.9042 170.774 78.3967 171.647 78.3967C172.536 78.3967 173.121 78.8912 173.121 79.5991V79.6056C173.121 80.181 172.714 80.5753 172.132 80.6982V80.7111C172.811 80.7693 173.273 81.1927 173.273 81.8554V81.8619C173.273 82.6409 172.588 83.2163 171.654 83.2163ZM175.811 83.2163C174.821 83.2163 174.117 82.6603 174.117 81.878V81.8716C174.117 81.2962 174.521 80.8178 175.119 80.6788V80.6658C174.608 80.5075 174.285 80.1196 174.285 79.6282V79.6218C174.285 78.9171 174.928 78.3967 175.811 78.3967C176.693 78.3967 177.336 78.9171 177.336 79.6218V79.6282C177.336 80.1196 177.013 80.5075 176.502 80.6658V80.6788C177.1 80.8178 177.504 81.2962 177.504 81.8716V81.878C177.504 82.6603 176.8 83.2163 175.811 83.2163ZM175.811 80.4493C176.373 80.4493 176.758 80.1293 176.758 79.6767V79.6703C176.758 79.2177 176.373 78.8977 175.811 78.8977C175.248 78.8977 174.864 79.2177 174.864 79.6703V79.6767C174.864 80.1293 175.248 80.4493 175.811 80.4493ZM175.811 82.7088C176.454 82.7088 176.913 82.3467 176.913 81.8425V81.836C176.913 81.3253 176.457 80.96 175.811 80.96C175.164 80.96 174.708 81.3253 174.708 81.836V81.8425C174.708 82.3467 175.167 82.7088 175.811 82.7088ZM180.006 83.2486C178.975 83.2486 178.361 82.3079 178.361 80.8081V80.8016C178.361 79.3018 178.975 78.3643 180.006 78.3643C181.037 78.3643 181.658 79.3018 181.658 80.8016V80.8081C181.658 82.3079 181.037 83.2486 180.006 83.2486ZM180.006 82.7411C180.675 82.7411 181.073 81.9976 181.073 80.8081V80.8016C181.073 79.6121 180.675 78.8751 180.006 78.8751C179.337 78.8751 178.946 79.6121 178.946 80.8016V80.8081C178.946 81.9976 179.337 82.7411 180.006 82.7411ZM184.202 83.2163C183.239 83.2163 182.615 82.6797 182.553 81.9427L182.55 81.9039H183.109L183.113 81.9362C183.158 82.3952 183.581 82.712 184.202 82.712C184.813 82.712 185.23 82.3693 185.23 81.8748V81.8683C185.23 81.2962 184.819 80.9762 184.166 80.9762H183.581V80.4848H184.141C184.697 80.4848 185.085 80.1422 185.085 79.6767V79.6703C185.085 79.1822 184.764 78.9009 184.196 78.9009C183.646 78.9009 183.255 79.1919 183.206 79.6638L183.203 79.6961H182.644L182.647 79.6638C182.722 78.9042 183.323 78.3967 184.196 78.3967C185.085 78.3967 185.67 78.8912 185.67 79.5991V79.6056C185.67 80.181 185.262 80.5753 184.68 80.6982V80.7111C185.359 80.7693 185.822 81.1927 185.822 81.8554V81.8619C185.822 82.6409 185.136 83.2163 184.202 83.2163ZM186.765 83.1387V82.7378L188.343 81.0311C188.938 80.3879 189.112 80.1454 189.112 79.7381V79.7317C189.112 79.2403 188.779 78.8718 188.23 78.8718C187.67 78.8718 187.299 79.2371 187.299 79.7866L187.295 79.7931L186.74 79.7899L186.733 79.7866C186.736 78.9591 187.376 78.3643 188.268 78.3643C189.083 78.3643 189.707 78.9171 189.707 79.6703V79.6767C189.707 80.2101 189.477 80.598 188.634 81.4675L187.573 82.5633V82.615H189.784V83.1387H186.765ZM191.126 83.171C190.896 83.171 190.706 82.9803 190.706 82.7508C190.706 82.518 190.896 82.3306 191.126 82.3306C191.359 82.3306 191.546 82.518 191.546 82.7508C191.546 82.9803 191.359 83.171 191.126 83.171ZM194.019 83.2486C193.166 83.2486 192.264 82.6473 192.264 80.8921V80.8857C192.264 79.2953 192.926 78.3643 194.058 78.3643C194.84 78.3643 195.422 78.8234 195.58 79.5119L195.59 79.5539H195.005L194.992 79.5183C194.85 79.1272 194.523 78.8848 194.051 78.8848C193.204 78.8848 192.859 79.7123 192.823 80.6852C192.82 80.7208 192.82 80.7596 192.82 80.7951H192.881C193.052 80.4137 193.492 80.0743 194.122 80.0743C194.998 80.0743 195.651 80.7402 195.651 81.6356V81.642C195.651 82.573 194.96 83.2486 194.019 83.2486ZM192.959 81.6356C192.959 82.2497 193.421 82.7346 194.013 82.7346C194.598 82.7346 195.066 82.2594 195.066 81.655V81.6485C195.066 81.0279 194.627 80.5818 194.022 80.5818C193.418 80.5818 192.959 81.0247 192.959 81.6324V81.6356ZM198.179 83.2163C197.19 83.2163 196.485 82.6603 196.485 81.878V81.8716C196.485 81.2962 196.889 80.8178 197.487 80.6788V80.6658C196.977 80.5075 196.653 80.1196 196.653 79.6282V79.6218C196.653 78.9171 197.297 78.3967 198.179 78.3967C199.062 78.3967 199.705 78.9171 199.705 79.6218V79.6282C199.705 80.1196 199.382 80.5075 198.871 80.6658V80.6788C199.469 80.8178 199.873 81.2962 199.873 81.8716V81.878C199.873 82.6603 199.168 83.2163 198.179 83.2163ZM198.179 80.4493C198.742 80.4493 199.126 80.1293 199.126 79.6767V79.6703C199.126 79.2177 198.742 78.8977 198.179 78.8977C197.617 78.8977 197.232 79.2177 197.232 79.6703V79.6767C197.232 80.1293 197.617 80.4493 198.179 80.4493ZM198.179 82.7088C198.822 82.7088 199.281 82.3467 199.281 81.8425V81.836C199.281 81.3253 198.826 80.96 198.179 80.96C197.533 80.96 197.077 81.3253 197.077 81.836V81.8425C197.077 82.3467 197.536 82.7088 198.179 82.7088Z" fill="#1FD773"/>
<path d="M205.774 83.1387V78.4743H206.356V82.615H208.606V83.1387H205.774Z" fill="#111111" fill-opacity="0.5"/>
<path d="M211.05 83.2163C210.087 83.2163 209.463 82.6797 209.401 81.9427L209.398 81.9039H209.957L209.96 81.9362C210.006 82.3952 210.429 82.712 211.05 82.712C211.661 82.712 212.078 82.3693 212.078 81.8748V81.8683C212.078 81.2962 211.667 80.9762 211.014 80.9762H210.429V80.4848H210.988C211.544 80.4848 211.932 80.1422 211.932 79.6767V79.6703C211.932 79.1822 211.612 78.9009 211.043 78.9009C210.494 78.9009 210.103 79.1919 210.054 79.6638L210.051 79.6961H209.492L209.495 79.6638C209.569 78.9042 210.171 78.3967 211.043 78.3967C211.932 78.3967 212.517 78.8912 212.517 79.5991V79.6056C212.517 80.181 212.11 80.5753 211.528 80.6982V80.7111C212.207 80.7693 212.669 81.1927 212.669 81.8554V81.8619C212.669 82.6409 211.984 83.2163 211.05 83.2163ZM215.207 83.2163C214.218 83.2163 213.513 82.6603 213.513 81.878V81.8716C213.513 81.2962 213.917 80.8178 214.515 80.6788V80.6658C214.004 80.5075 213.681 80.1196 213.681 79.6282V79.6218C213.681 78.9171 214.324 78.3967 215.207 78.3967C216.089 78.3967 216.732 78.9171 216.732 79.6218V79.6282C216.732 80.1196 216.409 80.5075 215.898 80.6658V80.6788C216.496 80.8178 216.901 81.2962 216.901 81.8716V81.878C216.901 82.6603 216.196 83.2163 215.207 83.2163ZM215.207 80.4493C215.769 80.4493 216.154 80.1293 216.154 79.6767V79.6703C216.154 79.2177 215.769 78.8977 215.207 78.8977C214.644 78.8977 214.26 79.2177 214.26 79.6703V79.6767C214.26 80.1293 214.644 80.4493 215.207 80.4493ZM215.207 82.7088C215.85 82.7088 216.309 82.3467 216.309 81.8425V81.836C216.309 81.3253 215.853 80.96 215.207 80.96C214.56 80.96 214.104 81.3253 214.104 81.836V81.8425C214.104 82.3467 214.563 82.7088 215.207 82.7088ZM219.402 83.2486C218.371 83.2486 217.757 82.3079 217.757 80.8081V80.8016C217.757 79.3018 218.371 78.3643 219.402 78.3643C220.434 78.3643 221.054 79.3018 221.054 80.8016V80.8081C221.054 82.3079 220.434 83.2486 219.402 83.2486ZM219.402 82.7411C220.072 82.7411 220.469 81.9976 220.469 80.8081V80.8016C220.469 79.6121 220.072 78.8751 219.402 78.8751C218.733 78.8751 218.342 79.6121 218.342 80.8016V80.8081C218.342 81.9976 218.733 82.7411 219.402 82.7411ZM223.598 83.2163C222.635 83.2163 222.011 82.6797 221.95 81.9427L221.946 81.9039H222.506L222.509 81.9362C222.554 82.3952 222.978 82.712 223.598 82.712C224.209 82.712 224.626 82.3693 224.626 81.8748V81.8683C224.626 81.2962 224.216 80.9762 223.563 80.9762H222.978V80.4848H223.537C224.093 80.4848 224.481 80.1422 224.481 79.6767V79.6703C224.481 79.1822 224.161 78.9009 223.592 78.9009C223.042 78.9009 222.651 79.1919 222.603 79.6638L222.599 79.6961H222.04L222.043 79.6638C222.118 78.9042 222.719 78.3967 223.592 78.3967C224.481 78.3967 225.066 78.8912 225.066 79.5991V79.6056C225.066 80.181 224.658 80.5753 224.077 80.6982V80.7111C224.755 80.7693 225.218 81.1927 225.218 81.8554V81.8619C225.218 82.6409 224.532 83.2163 223.598 83.2163ZM226.162 83.1387V82.7378L227.739 81.0311C228.334 80.3879 228.508 80.1454 228.508 79.7381V79.7317C228.508 79.2403 228.175 78.8718 227.626 78.8718C227.067 78.8718 226.695 79.2371 226.695 79.7866L226.692 79.7931L226.136 79.7899L226.129 79.7866C226.132 78.9591 226.772 78.3643 227.665 78.3643C228.479 78.3643 229.103 78.9171 229.103 79.6703V79.6767C229.103 80.2101 228.874 80.598 228.03 81.4675L226.97 82.5633V82.615H229.181V83.1387H226.162ZM230.522 83.171C230.293 83.171 230.102 82.9803 230.102 82.7508C230.102 82.518 230.293 82.3306 230.522 82.3306C230.755 82.3306 230.942 82.518 230.942 82.7508C230.942 82.9803 230.755 83.171 230.522 83.171ZM233.415 83.2486C232.562 83.2486 231.66 82.6473 231.66 80.8921V80.8857C231.66 79.2953 232.323 78.3643 233.454 78.3643C234.236 78.3643 234.818 78.8234 234.976 79.5119L234.986 79.5539H234.401L234.388 79.5183C234.246 79.1272 233.919 78.8848 233.447 78.8848C232.601 78.8848 232.255 79.7123 232.219 80.6852C232.216 80.7208 232.216 80.7596 232.216 80.7951H232.277C232.449 80.4137 232.888 80.0743 233.519 80.0743C234.395 80.0743 235.047 80.7402 235.047 81.6356V81.642C235.047 82.573 234.356 83.2486 233.415 83.2486ZM232.355 81.6356C232.355 82.2497 232.817 82.7346 233.409 82.7346C233.994 82.7346 234.462 82.2594 234.462 81.655V81.6485C234.462 81.0279 234.023 80.5818 233.418 80.5818C232.814 80.5818 232.355 81.0247 232.355 81.6324V81.6356ZM237.575 83.2163C236.586 83.2163 235.881 82.6603 235.881 81.878V81.8716C235.881 81.2962 236.286 80.8178 236.884 80.6788V80.6658C236.373 80.5075 236.05 80.1196 236.05 79.6282V79.6218C236.05 78.9171 236.693 78.3967 237.575 78.3967C238.458 78.3967 239.101 78.9171 239.101 79.6218V79.6282C239.101 80.1196 238.778 80.5075 238.267 80.6658V80.6788C238.865 80.8178 239.269 81.2962 239.269 81.8716V81.878C239.269 82.6603 238.564 83.2163 237.575 83.2163ZM237.575 80.4493C238.138 80.4493 238.522 80.1293 238.522 79.6767V79.6703C238.522 79.2177 238.138 78.8977 237.575 78.8977C237.013 78.8977 236.628 79.2177 236.628 79.6703V79.6767C236.628 80.1293 237.013 80.4493 237.575 80.4493ZM237.575 82.7088C238.219 82.7088 238.678 82.3467 238.678 81.8425V81.836C238.678 81.3253 238.222 80.96 237.575 80.96C236.929 80.96 236.473 81.3253 236.473 81.836V81.8425C236.473 82.3467 236.932 82.7088 237.575 82.7088Z" fill="#1FD773"/>
<circle opacity="0.1" cx="111.263" cy="82.1046" r="3.72378" fill="#1FD773"/>
<circle cx="111.264" cy="82.1042" r="1.65501" fill="#1FD773"/>
<line x1="82.0897" y1="67.2109" x2="82.0897" y2="68.866" stroke="#111111" stroke-opacity="0.5" stroke-width="0.413753"/>
<line x1="82.0897" y1="60.5898" x2="82.0897" y2="62.2449" stroke="#111111" stroke-opacity="0.5" stroke-width="0.413753"/>
<rect x="81.2616" y="62.037" width="1.65501" height="5.37879" stroke="#111111" stroke-opacity="0.5" stroke-width="0.413753"/>
<line x1="85.4022" y1="65.9668" x2="85.4022" y2="67.6218" stroke="#111111" stroke-opacity="0.5" stroke-width="0.413753"/>
<line x1="85.4022" y1="61.8301" x2="85.4022" y2="63.4851" stroke="#111111" stroke-opacity="0.5" stroke-width="0.413753"/>
<rect x="84.5741" y="63.2791" width="1.65501" height="2.89627" stroke="#111111" stroke-opacity="0.5" stroke-width="0.413753"/>
<path d="M63.0717 63.4686V62.9878H64.1607V67.1758H63.6278V63.4686H63.0717ZM66.7286 63.9435C66.968 63.9435 67.1843 63.9957 67.3774 64.0999C67.5704 64.2003 67.721 64.3529 67.8292 64.5576C67.9412 64.7622 67.9972 65.0113 67.9972 65.3048V67.1758H67.4758V65.3801C67.4758 65.0634 67.3967 64.8221 67.2383 64.656C67.08 64.4861 66.8637 64.4012 66.5896 64.4012C66.3115 64.4012 66.0895 64.488 65.9234 64.6618C65.7612 64.8356 65.6801 65.0885 65.6801 65.4206V67.1758H65.153V62.8893H65.6801V64.4533C65.7844 64.2911 65.9273 64.1656 66.1088 64.0768C66.2941 63.988 66.5007 63.9435 66.7286 63.9435Z" fill="#111111" fill-opacity="0.5"/>
<path opacity="0.8" d="M111.359 66.686C110.25 66.686 109.557 65.8658 109.557 64.5534V64.5477C109.557 63.2325 110.247 62.4123 111.356 62.4123C112.216 62.4123 112.886 62.9525 113.008 63.736L113.005 63.7417H112.493L112.49 63.736C112.355 63.2127 111.919 62.8818 111.356 62.8818C110.573 62.8818 110.081 63.5267 110.081 64.5477V64.5534C110.081 65.5745 110.573 66.2165 111.359 66.2165C111.928 66.2165 112.36 65.9252 112.488 65.4557L112.493 65.45H113.008V65.4557C112.872 66.2024 112.227 66.686 111.359 66.686ZM115.053 66.6436C114.185 66.6436 113.647 66.044 113.647 65.0682V65.0625C113.647 64.0839 114.185 63.4871 115.053 63.4871C115.921 63.4871 116.459 64.0839 116.459 65.0625V65.0682C116.459 66.044 115.921 66.6436 115.053 66.6436ZM115.053 66.208C115.63 66.208 115.955 65.7866 115.955 65.0682V65.0625C115.955 64.3413 115.63 63.9227 115.053 63.9227C114.476 63.9227 114.151 64.3413 114.151 65.0625V65.0682C114.151 65.7866 114.476 66.208 115.053 66.208ZM117.222 66.5898V63.5408H117.714V64.0047H117.76C117.895 63.6766 118.184 63.4871 118.583 63.4871C118.996 63.4871 119.284 63.7049 119.426 64.0217H119.471C119.635 63.6992 119.983 63.4871 120.404 63.4871C121.026 63.4871 121.374 63.8435 121.374 64.4827V66.5898H120.882V64.5958C120.882 64.1461 120.676 63.9227 120.246 63.9227C119.822 63.9227 119.542 64.2423 119.542 64.6298V66.5898H119.049V64.5195C119.049 64.1574 118.801 63.9227 118.416 63.9227C118.017 63.9227 117.714 64.2706 117.714 64.7005V66.5898H117.222ZM122.262 67.6081V63.5408H122.755V64.0273H122.8C122.987 63.6879 123.326 63.4871 123.75 63.4871C124.522 63.4871 125.029 64.1122 125.029 65.0625V65.0682C125.029 66.0242 124.525 66.6436 123.75 66.6436C123.332 66.6436 122.967 66.4343 122.8 66.109H122.755V67.6081H122.262ZM123.637 66.208C124.194 66.208 124.525 65.7781 124.525 65.0682V65.0625C124.525 64.3526 124.194 63.9227 123.637 63.9227C123.083 63.9227 122.743 64.3582 122.743 65.0625V65.0682C122.743 65.7724 123.083 66.208 123.637 66.208ZM126.635 66.6436C126.055 66.6436 125.617 66.2929 125.617 65.7385V65.7328C125.617 65.1898 126.019 64.8758 126.729 64.8334L127.602 64.7797V64.5025C127.602 64.1263 127.373 63.9227 126.918 63.9227C126.553 63.9227 126.313 64.0584 126.234 64.296L126.231 64.3045H125.739L125.741 64.2875C125.821 63.8095 126.284 63.4871 126.935 63.4871C127.679 63.4871 128.095 63.8689 128.095 64.5025V66.5898H127.602V66.1401H127.557C127.365 66.4654 127.045 66.6436 126.635 66.6436ZM126.12 65.7272C126.12 66.0355 126.383 66.2165 126.737 66.2165C127.238 66.2165 127.602 65.8884 127.602 65.4528V65.1756L126.788 65.2266C126.324 65.2548 126.12 65.4189 126.12 65.7215V65.7272ZM128.994 66.5898V63.5408H129.486V63.9934H129.531C129.647 63.6738 129.933 63.4871 130.346 63.4871C130.439 63.4871 130.544 63.4984 130.592 63.5069V63.9849C130.49 63.9679 130.397 63.9566 130.289 63.9566C129.82 63.9566 129.486 64.2536 129.486 64.7005V66.5898H128.994ZM132.36 66.6436C131.489 66.6436 130.963 66.0327 130.963 65.0767V65.0738C130.963 64.132 131.5 63.4871 132.329 63.4871C133.157 63.4871 133.661 64.1037 133.661 65.0144V65.2068H131.466C131.48 65.8375 131.828 66.2052 132.371 66.2052C132.784 66.2052 133.039 66.01 133.121 65.8262L133.132 65.8007H133.624L133.618 65.8233C133.514 66.2363 133.078 66.6436 132.36 66.6436ZM132.326 63.9255C131.873 63.9255 131.528 64.2338 131.475 64.8136H133.16C133.109 64.2112 132.776 63.9255 132.326 63.9255Z" fill="#111111"/>
<line x1="102.746" y1="66.59" x2="102.746" y2="62.4525" stroke="#111111" stroke-opacity="0.5" stroke-width="0.413753" stroke-linecap="round"/>
<line x1="104.848" y1="64.5526" x2="100.71" y2="64.5526" stroke="#111111" stroke-opacity="0.5" stroke-width="0.413753" stroke-linecap="round"/>
<circle cx="102.782" cy="64.5205" r="3.72378" stroke="#111111" stroke-opacity="0.5" stroke-width="0.413753"/>
<path opacity="0.8" d="M161.083 66.5898V62.5085H161.592V66.5898H161.083ZM162.571 66.5898V63.5408H163.063V63.999H163.108C163.261 63.6766 163.546 63.4871 163.996 63.4871C164.681 63.4871 165.062 63.8916 165.062 64.6156V66.5898H164.57V64.7344C164.57 64.1857 164.344 63.9227 163.858 63.9227C163.371 63.9227 163.063 64.2508 163.063 64.7853V66.5898H162.571ZM167.079 66.6436C166.307 66.6436 165.801 66.0185 165.801 65.0682V65.0625C165.801 64.1065 166.304 63.4871 167.079 63.4871C167.498 63.4871 167.863 63.6964 168.029 64.0217H168.075V62.3303H168.567V66.5898H168.075V66.1034H168.029C167.843 66.4428 167.503 66.6436 167.079 66.6436ZM167.192 66.208C167.747 66.208 168.086 65.7724 168.086 65.0682V65.0625C168.086 64.3582 167.747 63.9227 167.192 63.9227C166.635 63.9227 166.304 64.3526 166.304 65.0625V65.0682C166.304 65.7781 166.635 66.208 167.192 66.208ZM169.772 62.9525C169.585 62.9525 169.432 62.7998 169.432 62.6131C169.432 62.4265 169.585 62.2737 169.772 62.2737C169.958 62.2737 170.111 62.4265 170.111 62.6131C170.111 62.7998 169.958 62.9525 169.772 62.9525ZM169.523 66.5898V63.5408H170.015V66.5898H169.523ZM172.19 66.6436C171.336 66.6436 170.79 66.0242 170.79 65.0569V65.0512C170.79 64.1037 171.333 63.4871 172.187 63.4871C172.928 63.4871 173.372 63.9142 173.463 64.4572L173.466 64.4742H172.976L172.973 64.4657C172.897 64.1659 172.626 63.9227 172.187 63.9227C171.638 63.9227 171.293 64.3639 171.293 65.0512V65.0569C171.293 65.7583 171.644 66.208 172.187 66.208C172.597 66.208 172.858 66.027 172.971 65.6876L172.976 65.6706L173.463 65.6678L173.457 65.6989C173.333 66.2504 172.923 66.6436 172.19 66.6436ZM175.021 66.6436C174.441 66.6436 174.003 66.2929 174.003 65.7385V65.7328C174.003 65.1898 174.405 64.8758 175.115 64.8334L175.989 64.7797V64.5025C175.989 64.1263 175.759 63.9227 175.304 63.9227C174.939 63.9227 174.699 64.0584 174.62 64.296L174.617 64.3045H174.125L174.127 64.2875C174.207 63.8095 174.671 63.4871 175.321 63.4871C176.065 63.4871 176.481 63.8689 176.481 64.5025V66.5898H175.989V66.1401H175.943C175.751 66.4654 175.431 66.6436 175.021 66.6436ZM174.506 65.7272C174.506 66.0355 174.77 66.2165 175.123 66.2165C175.624 66.2165 175.989 65.8884 175.989 65.4528V65.1756L175.174 65.2266C174.71 65.2548 174.506 65.4189 174.506 65.7215V65.7272ZM178.463 66.6125C177.835 66.6125 177.572 66.3805 177.572 65.7979V63.9481H177.092V63.5408H177.572V62.7517H178.082V63.5408H178.749V63.9481H178.082V65.6734C178.082 66.0327 178.206 66.1769 178.523 66.1769C178.61 66.1769 178.659 66.1741 178.749 66.1656V66.5842C178.653 66.6012 178.56 66.6125 178.463 66.6125ZM180.692 66.6436C179.824 66.6436 179.286 66.044 179.286 65.0682V65.0625C179.286 64.0839 179.824 63.4871 180.692 63.4871C181.56 63.4871 182.098 64.0839 182.098 65.0625V65.0682C182.098 66.044 181.56 66.6436 180.692 66.6436ZM180.692 66.208C181.269 66.208 181.594 65.7866 181.594 65.0682V65.0625C181.594 64.3413 181.269 63.9227 180.692 63.9227C180.115 63.9227 179.79 64.3413 179.79 65.0625V65.0682C179.79 65.7866 180.115 66.208 180.692 66.208ZM182.862 66.5898V63.5408H183.354V63.9934H183.399C183.515 63.6738 183.801 63.4871 184.214 63.4871C184.307 63.4871 184.411 63.4984 184.46 63.5069V63.9849C184.358 63.9679 184.264 63.9566 184.157 63.9566C183.687 63.9566 183.354 64.2536 183.354 64.7005V66.5898H182.862ZM186.058 66.6436C185.379 66.6436 184.912 66.3155 184.856 65.812H185.359C185.441 66.0666 185.684 66.2335 186.075 66.2335C186.485 66.2335 186.776 66.0383 186.776 65.7611V65.7555C186.776 65.549 186.62 65.4047 186.244 65.3142L185.772 65.2011C185.201 65.0653 184.943 64.8164 184.943 64.378V64.3752C184.943 63.8689 185.43 63.4871 186.077 63.4871C186.717 63.4871 187.161 63.8067 187.229 64.3045H186.745C186.68 64.0641 186.442 63.8972 186.075 63.8972C185.713 63.8972 185.447 64.0839 185.447 64.3526V64.3582C185.447 64.5647 185.599 64.6948 185.959 64.7825L186.428 64.8956C187.002 65.0342 187.279 65.2831 187.279 65.7187V65.7244C187.279 66.2674 186.751 66.6436 186.058 66.6436Z" fill="#111111"/>
<path d="M150.986 68.2501C151.612 68.2501 151.944 67.6911 152.042 67.3608C152.044 67.3556 152.045 67.3503 152.046 67.3449C152.274 66.4018 152.637 64.9071 152.906 63.8199H153.867C154.048 63.8199 154.194 63.6734 154.194 63.4925C154.194 63.3117 154.048 63.1652 153.867 63.1652H153.068C153.154 62.8226 153.217 62.5787 153.242 62.4954L153.269 62.4022C153.371 62.0559 153.609 61.2447 153.976 61.2447C154.317 61.2447 154.368 61.7695 154.37 61.7949C154.384 61.9746 154.541 62.1103 154.721 62.0948C154.902 62.081 155.037 61.9235 155.023 61.7433C154.992 61.3443 154.734 60.5898 153.976 60.5898C153.118 60.5898 152.796 61.6895 152.641 62.2181L152.615 62.3072C152.583 62.4118 152.501 62.7341 152.393 63.1652H151.248C151.067 63.1652 150.921 63.3117 150.921 63.4925C150.921 63.6734 151.067 63.8199 151.248 63.8199H152.231C151.895 65.1831 151.461 66.9812 151.413 67.1792C151.395 67.2311 151.261 67.5953 150.986 67.5953C150.567 67.5953 150.386 67.0069 150.384 67.0025C150.334 66.8289 150.153 66.7284 149.979 66.7791C149.805 66.8294 149.705 67.011 149.755 67.1846C149.87 67.5803 150.258 68.2501 150.986 68.2501Z" fill="#111111" fill-opacity="0.5"/>
<path d="M155.838 67.4059C156.031 67.4059 156.194 67.2689 156.194 67.0508C156.194 66.9494 156.153 66.858 156.067 66.7565L155.387 65.9753L156.047 65.2042C156.107 65.1281 156.153 65.0469 156.153 64.9404C156.153 64.7474 155.996 64.6055 155.793 64.6055C155.656 64.6055 155.549 64.6917 155.458 64.8035L154.946 65.4729L154.443 64.8034C154.342 64.6767 154.235 64.6055 154.083 64.6055C153.89 64.6055 153.728 64.7426 153.728 64.9607C153.728 65.062 153.769 65.1535 153.855 65.2548L154.489 65.9854L153.794 66.8072C153.728 66.8833 153.688 66.9644 153.688 67.071C153.688 67.2639 153.845 67.4058 154.048 67.4058C154.185 67.4058 154.291 67.3196 154.382 67.2079L154.93 66.4876L155.478 67.2079C155.58 67.3349 155.686 67.4059 155.838 67.4059Z" fill="#111111" fill-opacity="0.5"/>
<path d="M224.595 61.002L224.138 61.4587L225.523 62.8463H221.393C219.789 62.8463 218.484 64.1513 218.484 65.7552V68.0176H219.131V65.7552C219.131 64.5077 220.146 63.4928 221.393 63.4928H225.523L224.138 64.8804L224.595 65.3372L226.759 63.1696L224.595 61.002Z" fill="#111111" fill-opacity="0.5"/>
<path d="M204.1 61.002L204.557 61.4587L203.172 62.8463H207.302C208.906 62.8463 210.211 64.1513 210.211 65.7552V68.0176H209.565V65.7552C209.565 64.5077 208.55 63.4928 207.302 63.4928H203.172L204.557 64.8804L204.1 65.3372L201.936 63.1696L204.1 61.002Z" fill="#111111" fill-opacity="0.5"/>
<g opacity="0.5">
<path d="M66.1016 138.97C66.6835 138.822 67.2748 139.173 67.4229 139.755L67.4629 139.911H72.8711C72.9364 139.911 72.9893 139.964 72.9893 140.029C72.989 140.094 72.9362 140.147 72.8711 140.147H67.4629L67.4229 140.303C67.3246 140.689 67.0236 140.991 66.6377 141.089C66.0557 141.237 65.4635 140.885 65.3154 140.303L65.2764 140.147H64.4189C64.3538 140.147 64.301 140.094 64.3008 140.029C64.3008 139.964 64.3537 139.911 64.4189 139.911H65.2764L65.3154 139.755C65.4137 139.369 65.7156 139.068 66.1016 138.97Z" stroke="#111111" stroke-width="0.413753"/>
<path d="M70.3271 135.72C70.9091 135.572 71.5013 135.923 71.6494 136.505L71.6895 136.661H72.8711C72.9364 136.661 72.9893 136.714 72.9893 136.779C72.989 136.844 72.9363 136.897 72.8711 136.897H71.6895L71.6494 137.053C71.5512 137.439 71.25 137.741 70.8643 137.839C70.2823 137.987 69.6901 137.635 69.542 137.053L69.502 136.897H64.4189C64.3538 136.897 64.301 136.844 64.3008 136.779C64.3008 136.714 64.3537 136.661 64.4189 136.661H69.502L69.542 136.505C69.6402 136.119 69.9414 135.818 70.3271 135.72Z" stroke="#111111" stroke-width="0.413753"/>
<path d="M69.6768 142.222C70.2587 142.074 70.8509 142.425 70.999 143.007L71.0391 143.163H72.8711C72.9364 143.163 72.9893 143.216 72.9893 143.281C72.989 143.346 72.9362 143.399 72.8711 143.399H71.0391L70.999 143.555C70.9008 143.941 70.5997 144.243 70.2139 144.341C69.6319 144.489 69.0397 144.137 68.8916 143.555L68.8516 143.399H64.4189C64.3538 143.399 64.301 143.346 64.3008 143.281C64.3008 143.216 64.3536 143.163 64.4189 143.163H68.8516L68.8916 143.007C68.9898 142.621 69.2911 142.32 69.6768 142.222Z" stroke="#111111" stroke-width="0.413753"/>
</g>
<path opacity="0.5" d="M65.75 106.102V107.576H66.2327V106.593H68.4049V113.472H67.1981V113.963H70.0944V113.472H68.8876V106.593H71.0598V107.576H71.5425V106.102H65.75Z" fill="#111111"/>
<g opacity="0.5">
<path d="M68.645 159.062C66.1355 159.062 64.0938 161.104 64.0938 163.614C64.0938 166.123 66.1355 168.165 68.645 168.165C71.1546 168.165 73.1963 166.123 73.1963 163.614C73.1963 161.104 71.1546 159.062 68.645 159.062ZM68.645 167.769C66.3536 167.769 64.4895 165.905 64.4895 163.614C64.4895 161.322 66.3536 159.458 68.645 159.458C70.9365 159.458 72.8006 161.322 72.8006 163.614C72.8006 165.905 70.9365 167.769 68.645 167.769Z" fill="#111111"/>
<path d="M67.656 162.822C67.656 162.495 67.3897 162.229 67.0624 162.229C66.7351 162.229 66.4688 162.495 66.4688 162.822C66.4688 163.149 66.7351 163.416 67.0624 163.416C67.3897 163.416 67.656 163.149 67.656 162.822ZM66.8645 162.822C66.8645 162.713 66.9534 162.624 67.0624 162.624C67.1714 162.624 67.2603 162.713 67.2603 162.822C67.2603 162.931 67.1714 163.02 67.0624 163.02C66.9534 163.02 66.8645 162.931 66.8645 162.822Z" fill="#111111"/>
<path d="M70.2265 162.229C69.8992 162.229 69.6328 162.495 69.6328 162.822C69.6328 163.149 69.8992 163.416 70.2265 163.416C70.5538 163.416 70.8201 163.149 70.8201 162.822C70.8201 162.495 70.5538 162.229 70.2265 162.229ZM70.2265 163.02C70.1174 163.02 70.0286 162.931 70.0286 162.822C70.0286 162.713 70.1174 162.624 70.2265 162.624C70.3355 162.624 70.4243 162.713 70.4243 162.822C70.4243 162.931 70.3355 163.02 70.2265 163.02Z" fill="#111111"/>
<path d="M70.5558 164.654C70.4743 164.581 70.349 164.588 70.2764 164.669C69.8636 165.131 69.2684 165.395 68.6429 165.395C68.0176 165.395 67.4221 165.131 67.0094 164.669C66.9363 164.588 66.8115 164.581 66.73 164.654C66.6484 164.727 66.6417 164.852 66.7145 164.933C67.2023 165.478 67.9052 165.791 68.6429 165.791C69.3808 165.791 70.0837 165.478 70.5712 164.933C70.6441 164.852 70.6371 164.727 70.5558 164.654Z" fill="#111111"/>
</g>
<g opacity="0.5">
<path d="M72.7011 220.819L70.1558 218.172C70.786 217.565 71.1792 216.713 71.1792 215.771C71.1792 213.932 69.6828 212.436 67.8435 212.436C66.0042 212.436 64.5078 213.932 64.5078 215.771C64.5078 217.611 66.0042 219.107 67.8435 219.107C68.5297 219.107 69.1681 218.898 69.6989 218.542L72.279 221.225C72.3365 221.285 72.4132 221.315 72.4901 221.315C72.5631 221.315 72.6362 221.288 72.693 221.233C72.8096 221.121 72.8132 220.936 72.7011 220.819ZM65.0935 215.771C65.0935 214.255 66.3271 213.021 67.8435 213.021C69.3598 213.021 70.5935 214.255 70.5935 215.771C70.5935 217.288 69.3598 218.521 67.8435 218.521C66.3271 218.521 65.0935 217.288 65.0935 215.771Z" fill="#111111"/>
<path d="M69.3344 215.478H68.1338V214.277C68.1338 214.115 68.0028 213.984 67.841 213.984C67.6792 213.984 67.5481 214.115 67.5481 214.277V215.478H66.3475C66.1858 215.478 66.0547 215.609 66.0547 215.771C66.0547 215.932 66.1858 216.063 66.3475 216.063H67.5481V217.264C67.5481 217.426 67.6792 217.557 67.8409 217.557C68.0027 217.557 68.1338 217.426 68.1338 217.264V216.063H69.3344C69.4961 216.063 69.6272 215.932 69.6272 215.771C69.6272 215.609 69.4961 215.478 69.3344 215.478Z" fill="#111111"/>
</g>
<g opacity="0.5">
<path d="M63.7064 189.003L63.7065 189.001C63.7098 188.943 63.7247 188.886 63.7502 188.833C63.7758 188.781 63.8116 188.734 63.8556 188.696L64.5558 188.068C64.5598 188.063 64.5643 188.059 64.569 188.055L65.5147 187.209C65.5189 187.204 65.5235 187.199 65.5285 187.195L66.4434 186.377L71.1007 182.204C71.1436 182.164 71.194 182.134 71.2487 182.115C71.3035 182.095 71.3617 182.087 71.4198 182.09C71.4787 182.093 71.5365 182.107 71.5897 182.133C71.643 182.158 71.6906 182.194 71.7298 182.238L73.767 184.512C73.8064 184.555 73.8367 184.606 73.8562 184.662C73.8757 184.717 73.8841 184.776 73.8808 184.834L73.8807 184.836C73.8773 184.894 73.8625 184.951 73.837 185.003C73.8116 185.056 73.7759 185.102 73.7323 185.141L66.4866 191.633C66.4437 191.672 66.3934 191.703 66.3386 191.722C66.2838 191.742 66.2256 191.751 66.1674 191.748C66.1085 191.745 66.0507 191.73 65.9975 191.705C65.9443 191.679 65.8967 191.643 65.8575 191.599L63.8202 189.325C63.7808 189.282 63.7505 189.231 63.731 189.176C63.7115 189.12 63.7031 189.062 63.7064 189.003ZM64.7713 188.254C64.7673 188.259 64.7629 188.263 64.7582 188.268L64.044 188.908C64.028 188.921 64.015 188.938 64.0057 188.957C63.9963 188.976 63.9909 188.997 63.9898 189.018L63.9897 189.019C63.9886 189.04 63.9917 189.062 63.9988 189.082C64.006 189.102 64.0171 189.121 64.0314 189.136L66.0689 191.41C66.0831 191.426 66.1005 191.439 66.1199 191.448C66.1393 191.458 66.1603 191.463 66.1818 191.464C66.2027 191.465 66.2236 191.462 66.2432 191.455C66.2629 191.448 66.281 191.437 66.2963 191.423L73.5434 184.93L73.5434 184.929C73.5592 184.915 73.5722 184.898 73.5814 184.88C73.5907 184.861 73.5962 184.84 73.5974 184.819C73.5986 184.798 73.5955 184.777 73.5883 184.756C73.5812 184.736 73.5701 184.718 73.5557 184.702L71.5183 182.427C71.5041 182.411 71.4868 182.398 71.4674 182.389C71.448 182.379 71.4269 182.374 71.4054 182.373C71.3845 182.372 71.3637 182.375 71.344 182.382C71.3243 182.389 71.3063 182.4 71.2909 182.414L65.7311 187.394C65.7269 187.399 65.7224 187.404 65.7175 187.408L64.7713 188.254Z" fill="#111111"/>
<path d="M69.3151 183.854C69.3167 183.826 69.3265 183.799 69.3433 183.777C69.3602 183.754 69.3833 183.737 69.4098 183.728C69.4362 183.719 69.4649 183.717 69.492 183.724C69.5192 183.731 69.5437 183.746 69.5624 183.767L69.8772 184.118C69.9015 184.147 69.9139 184.183 69.9115 184.22C69.9091 184.257 69.8923 184.292 69.8646 184.317C69.8369 184.342 69.8005 184.355 69.7634 184.353C69.7262 184.351 69.6912 184.335 69.6659 184.308L69.3511 183.957C69.3387 183.943 69.3291 183.926 69.3229 183.909C69.3167 183.891 69.3141 183.873 69.3151 183.854Z" fill="#111111"/>
<path d="M68.3474 184.724C68.3489 184.696 68.3587 184.669 68.3756 184.646C68.3924 184.624 68.4155 184.607 68.442 184.598C68.4685 184.588 68.4971 184.587 68.5243 184.594C68.5514 184.601 68.5759 184.616 68.5947 184.637L69.0989 185.199C69.1113 185.213 69.1209 185.229 69.1271 185.247C69.1333 185.265 69.1359 185.283 69.1349 185.302C69.1338 185.32 69.1292 185.339 69.1211 185.355C69.113 185.372 69.1017 185.387 69.0878 185.4C69.074 185.412 69.0578 185.422 69.0402 185.428C69.0226 185.434 69.004 185.437 68.9854 185.436C68.9668 185.435 68.9485 185.43 68.9317 185.422C68.915 185.414 68.8999 185.403 68.8875 185.389L68.3834 184.826C68.3583 184.798 68.3453 184.761 68.3474 184.724Z" fill="#111111"/>
<path d="M67.3772 185.592C67.3787 185.564 67.3886 185.537 67.4054 185.515C67.4222 185.492 67.4454 185.476 67.4718 185.466C67.4983 185.457 67.5269 185.456 67.5541 185.463C67.5813 185.47 67.6058 185.484 67.6245 185.505L67.9397 185.857C67.964 185.885 67.9764 185.922 67.974 185.959C67.9716 185.996 67.9548 186.031 67.9271 186.055C67.8994 186.08 67.863 186.093 67.8259 186.091C67.7887 186.09 67.7537 186.073 67.7284 186.046L67.4136 185.695C67.4011 185.681 67.3915 185.665 67.3852 185.647C67.379 185.63 67.3762 185.611 67.3772 185.592Z" fill="#111111"/>
<path d="M66.4117 186.46C66.4132 186.432 66.4231 186.405 66.4399 186.383C66.4567 186.36 66.4799 186.343 66.5063 186.334C66.5328 186.325 66.5614 186.324 66.5886 186.331C66.6158 186.338 66.6403 186.352 66.659 186.373L67.1631 186.936C67.1874 186.964 67.1997 187.001 67.1974 187.038C67.195 187.075 67.1782 187.11 67.1505 187.135C67.1228 187.159 67.0864 187.172 67.0493 187.171C67.0121 187.169 66.9771 187.153 66.9518 187.125L66.4477 186.563C66.4353 186.549 66.4257 186.533 66.4195 186.515C66.4133 186.497 66.4106 186.479 66.4117 186.46Z" fill="#111111"/>
<path d="M65.4401 187.329C65.4417 187.301 65.4515 187.274 65.4683 187.251C65.4852 187.229 65.5083 187.212 65.5348 187.203C65.5612 187.193 65.5899 187.192 65.617 187.199C65.6442 187.206 65.6687 187.221 65.6874 187.242L66.0022 187.593C66.0265 187.621 66.0389 187.658 66.0365 187.695C66.0341 187.732 66.0173 187.767 65.9896 187.791C65.9619 187.816 65.9255 187.829 65.8884 187.827C65.8512 187.826 65.8162 187.809 65.7909 187.782L65.4761 187.431C65.451 187.403 65.4381 187.366 65.4401 187.329Z" fill="#111111"/>
<path d="M64.4724 188.198C64.474 188.17 64.4838 188.143 64.5006 188.121C64.5175 188.099 64.5406 188.082 64.5671 188.072C64.5935 188.063 64.6222 188.062 64.6493 188.069C64.6765 188.076 64.701 188.091 64.7197 188.112L65.2238 188.674C65.249 188.702 65.2619 188.739 65.2599 188.776C65.2578 188.814 65.2409 188.849 65.2129 188.874C65.1849 188.899 65.148 188.912 65.1105 188.91C65.0729 188.908 65.0377 188.891 65.0125 188.863L64.5084 188.301C64.496 188.287 64.4864 188.271 64.4802 188.253C64.474 188.236 64.4714 188.217 64.4724 188.198Z" fill="#111111"/>
<path d="M71.0709 184.287C71.0778 184.163 71.121 184.045 71.195 183.947C71.2691 183.848 71.3707 183.774 71.487 183.733C71.6033 183.692 71.7292 183.686 71.8486 183.717C71.9681 183.747 72.0758 183.812 72.1583 183.904C72.227 183.981 72.2757 184.073 72.3003 184.173C72.3248 184.272 72.3243 184.377 72.2989 184.476C72.2735 184.576 72.2239 184.667 72.1545 184.743C72.0851 184.819 71.9981 184.876 71.9012 184.91C71.8043 184.945 71.7004 184.954 71.5989 184.938C71.4974 184.923 71.4013 184.882 71.3191 184.821C71.237 184.759 71.1714 184.678 71.1281 184.585C71.0847 184.492 71.0651 184.389 71.0709 184.287ZM71.9472 184.093C71.9022 184.043 71.8434 184.007 71.7782 183.99C71.713 183.974 71.6442 183.977 71.5807 183.999C71.5171 184.021 71.4616 184.062 71.4212 184.116C71.3808 184.17 71.3572 184.234 71.3535 184.302C71.3499 184.369 71.3662 184.436 71.4005 184.494C71.4348 184.552 71.4855 184.598 71.5462 184.627C71.607 184.656 71.675 184.667 71.7416 184.657C71.8083 184.648 71.8707 184.619 71.9208 184.574C71.988 184.513 72.0286 184.429 72.0335 184.339C72.0384 184.249 72.0074 184.16 71.9472 184.093Z" fill="#111111"/>
</g>
<line x1="87.9256" y1="101.551" x2="87.9256" y2="114.849" stroke="#1FD773" stroke-width="0.413753"/>
<line x1="90.9178" y1="111.109" x2="90.9178" y2="149.758" stroke="#1FD773" stroke-width="0.413753"/>
<line x1="93.9022" y1="123.16" x2="93.9022" y2="138.121" stroke="#1FD773" stroke-width="0.413753"/>
<line x1="96.8944" y1="125.238" x2="96.8944" y2="141.446" stroke="#1FD773" stroke-width="0.413753"/>
<line x1="99.8866" y1="126.484" x2="99.8866" y2="140.614" stroke="#F74848" stroke-width="0.413753"/>
<line x1="102.871" y1="129.811" x2="102.871" y2="154.33" stroke="#F74848" stroke-width="0.413753"/>
<line x1="105.863" y1="146.434" x2="105.863" y2="166.797" stroke="#F74848" stroke-width="0.413753"/>
<line x1="108.426" y1="150.588" x2="108.426" y2="161.808" stroke="#1FD773" stroke-width="0.413753"/>
<line x1="111.418" y1="153.082" x2="111.418" y2="168.874" stroke="#1FD773" stroke-width="0.413753"/>
<line x1="114.402" y1="136.875" x2="114.402" y2="168.874" stroke="#1FD773" stroke-width="0.413753"/>
<line x1="117.394" y1="131.887" x2="117.394" y2="141.861" stroke="#F74848" stroke-width="0.413753"/>
<line x1="120.387" y1="125.654" x2="120.387" y2="139.784" stroke="#F74848" stroke-width="0.413753"/>
<line x1="123.371" y1="133.135" x2="123.371" y2="146.018" stroke="#F74848" stroke-width="0.413753"/>
<line x1="126.363" y1="121.498" x2="126.363" y2="143.108" stroke="#F74848" stroke-width="0.413753"/>
<line x1="141.308" y1="121.498" x2="141.308" y2="143.524" stroke="#F74848" stroke-width="0.413753"/>
<line x1="144.73" y1="119.836" x2="144.73" y2="133.55" stroke="#F74848" stroke-width="0.413753"/>
<line x1="147.293" y1="118.174" x2="147.293" y2="133.55" stroke="#F74848" stroke-width="0.413753"/>
<line x1="149.855" y1="114.85" x2="149.855" y2="126.07" stroke="#1FD773" stroke-width="0.413753"/>
<line x1="152.84" y1="113.188" x2="152.84" y2="129.395" stroke="#1FD773" stroke-width="0.413753"/>
<line x1="155.832" y1="114.434" x2="155.832" y2="141.03" stroke="#1FD773" stroke-width="0.413753"/>
<line x1="158.824" y1="125.654" x2="158.824" y2="136.875" stroke="#1FD773" stroke-width="0.413753"/>
<line x1="161.808" y1="121.498" x2="161.808" y2="162.64" stroke="#F74848" stroke-width="0.413753"/>
<line x1="165.23" y1="149.758" x2="165.23" y2="174.692" stroke="#F74848" stroke-width="0.413753"/>
<line x1="167.793" y1="148.926" x2="167.793" y2="160.977" stroke="#F74848" stroke-width="0.413753"/>
<line x1="170.777" y1="152.666" x2="170.777" y2="171.367" stroke="#1FD773" stroke-width="0.413753"/>
<line x1="173.769" y1="156.822" x2="173.769" y2="183.004" stroke="#1FD773" stroke-width="0.413753"/>
<line x1="176.762" y1="170.121" x2="176.762" y2="190.069" stroke="#1FD773" stroke-width="0.413753"/>
<line x1="179.746" y1="173.445" x2="179.746" y2="190.484" stroke="#1FD773" stroke-width="0.413753"/>
<line x1="182.738" y1="174.691" x2="182.738" y2="232.872" stroke="#1FD773" stroke-width="0.413753"/>
<line x1="185.73" y1="185.912" x2="185.73" y2="220.82" stroke="#F74848" stroke-width="0.413753"/>
<line x1="188.715" y1="188.822" x2="188.715" y2="227.055" stroke="#F74848" stroke-width="0.413753"/>
<line x1="191.277" y1="203.367" x2="191.277" y2="219.575" stroke="#F74848" stroke-width="0.413753"/>
<line x1="194.269" y1="205.859" x2="194.269" y2="237.443" stroke="#F74848" stroke-width="0.413753"/>
<line x1="197.262" y1="198.795" x2="197.262" y2="222.898" stroke="#F74848" stroke-width="0.413753"/>
<line x1="200.246" y1="198.795" x2="200.246" y2="214.171" stroke="#1FD773" stroke-width="0.413753"/>
<line x1="206.23" y1="196.717" x2="206.23" y2="211.262" stroke="#1FD773" stroke-width="0.413753"/>
<line x1="203.238" y1="195.055" x2="203.238" y2="208.353" stroke="#1FD773" stroke-width="0.413753"/>
<line x1="209.215" y1="203.367" x2="209.215" y2="222.068" stroke="#1FD773" stroke-width="0.413753"/>
<line x1="212.207" y1="210.016" x2="212.207" y2="226.223" stroke="#F74848" stroke-width="0.413753"/>
<line x1="215.199" y1="213.756" x2="215.199" y2="227.47" stroke="#F74848" stroke-width="0.413753"/>
<line x1="218.183" y1="209.186" x2="218.183" y2="224.146" stroke="#1FD773" stroke-width="0.413753"/>
<line x1="221.176" y1="207.523" x2="221.176" y2="217.497" stroke="#1FD773" stroke-width="0.413753"/>
<line x1="224.168" y1="206.275" x2="224.168" y2="216.665" stroke="#1FD773" stroke-width="0.413753"/>
<line x1="227.152" y1="200.873" x2="227.152" y2="211.262" stroke="#F74848" stroke-width="0.413753"/>
<line x1="229.715" y1="201.705" x2="229.715" y2="218.328" stroke="#F74848" stroke-width="0.413753"/>
<line x1="232.707" y1="207.523" x2="232.707" y2="221.237" stroke="#F74848" stroke-width="0.413753"/>
<line x1="235.699" y1="213.756" x2="235.699" y2="219.574" stroke="#1FD773" stroke-width="0.413753"/>
<line x1="238.683" y1="212.51" x2="238.683" y2="227.886" stroke="#1FD773" stroke-width="0.413753"/>
<line x1="129.355" y1="119.004" x2="129.355" y2="126.069" stroke="#1FD773" stroke-width="0.413753"/>
<line x1="132.34" y1="121.498" x2="132.34" y2="131.887" stroke="#1FD773" stroke-width="0.413753"/>
<line x1="135.332" y1="117.342" x2="135.332" y2="128.147" stroke="#1FD773" stroke-width="0.413753"/>
<line x1="138.324" y1="124.822" x2="138.324" y2="143.108" stroke="#1FD773" stroke-width="0.413753"/>
<rect x="86.8672" y="106.537" width="2.13542" height="6.64922" fill="#1FD773"/>
<rect x="89.8516" y="112.771" width="2.13542" height="16.623" fill="#1FD773"/>
<rect x="92.8438" y="128.979" width="2.13542" height="2.90903" fill="#1FD773"/>
<rect x="95.8359" y="127.732" width="2.13542" height="4.15576" fill="#1FD773"/>
<rect x="98.8203" y="127.732" width="2.13542" height="12.0517" fill="#F74848"/>
<rect x="101.812" y="139.369" width="2.13542" height="9.55825" fill="#F74848"/>
<rect x="104.805" y="148.51" width="2.13542" height="2.49346" fill="#F74848"/>
<rect x="107.367" y="150.588" width="2.13542" height="4.98691" fill="#1FD773"/>
<rect x="110.352" y="155.16" width="2.13542" height="4.98691" fill="#1FD773"/>
<rect x="113.344" y="138.121" width="2.13542" height="22.0255" fill="#1FD773"/>
<rect x="116.336" y="133.965" width="2.13542" height="4.98691" fill="#F74848"/>
<rect x="119.32" y="133.965" width="2.13542" height="1.24673" fill="#F74848"/>
<rect x="122.312" y="134.797" width="2.13542" height="5.81806" fill="#F74848"/>
<rect x="125.305" y="122.33" width="2.13542" height="18.2853" fill="#F74848"/>
<rect x="140.25" y="123.576" width="2.13542" height="18.7009" fill="#F74848"/>
<rect x="143.242" y="123.576" width="2.13542" height="4.98691" fill="#F74848"/>
<rect x="146.227" y="123.992" width="2.13542" height="4.57134" fill="#F74848"/>
<rect x="148.789" y="117.342" width="2.13542" height="7.06479" fill="#1FD773"/>
<rect x="151.781" y="117.342" width="2.13542" height="3.32461" fill="#1FD773"/>
<rect x="154.773" y="119.836" width="2.13542" height="11.2206" fill="#1FD773"/>
<rect x="157.758" y="126.9" width="2.13542" height="4.15576" fill="#1FD773"/>
<rect x="160.75" y="126.9" width="2.13542" height="31.9993" fill="#F74848"/>
<rect x="163.742" y="157.238" width="2.13542" height="1.6623" fill="#F74848"/>
<rect x="166.727" y="156.406" width="2.13542" height="1.24673" fill="#F74848"/>
<rect x="169.719" y="156.406" width="2.13542" height="14.1296" fill="#1FD773"/>
<rect x="172.711" y="169.705" width="2.13542" height="1.6623" fill="#1FD773"/>
<rect x="175.695" y="170.951" width="2.13542" height="12.8829" fill="#1FD773"/>
<rect x="178.688" y="183.42" width="2.13542" height="3.32461" fill="#1FD773"/>
<rect x="181.68" y="186.328" width="2.13542" height="26.5969" fill="#1FD773"/>
<rect x="184.664" y="195.887" width="2.13542" height="17.0386" fill="#F74848"/>
<rect x="187.656" y="196.303" width="2.13542" height="14.1296" fill="#F74848"/>
<rect x="190.219" y="208.354" width="2.13542" height="2.49346" fill="#F74848"/>
<rect x="193.211" y="209.6" width="2.13542" height="12.4673" fill="#F74848"/>
<rect x="196.195" y="203.783" width="2.13542" height="17.8698" fill="#F74848"/>
<rect x="199.188" y="203.783" width="2.13542" height="3.32461" fill="#1FD773"/>
<rect x="205.164" y="201.705" width="2.13542" height="3.74018" fill="#1FD773"/>
<rect x="202.18" y="201.705" width="2.13542" height="4.57134" fill="#1FD773"/>
<rect x="208.156" y="205.029" width="2.13542" height="12.4673" fill="#1FD773"/>
<rect x="211.148" y="217.08" width="2.13542" height="4.98691" fill="#F74848"/>
<rect x="214.133" y="217.496" width="2.13542" height="4.57134" fill="#F74848"/>
<rect x="217.125" y="210.016" width="2.13542" height="7.89594" fill="#1FD773"/>
<rect x="220.117" y="210.432" width="2.13542" height="2.90903" fill="#1FD773"/>
<rect x="223.102" y="209.186" width="2.13542" height="4.15576" fill="#1FD773"/>
<rect x="226.094" y="202.119" width="2.13542" height="7.48037" fill="#F74848"/>
<rect x="228.656" y="202.119" width="2.13542" height="10.3894" fill="#F74848"/>
<rect x="231.648" y="212.094" width="2.13542" height="6.23364" fill="#F74848"/>
<rect x="234.633" y="216.666" width="2.13542" height="1.6623" fill="#1FD773"/>
<rect x="237.625" y="216.666" width="2.13542" height="9.97382" fill="#1FD773"/>
<rect x="128.289" y="121.914" width="2.13542" height="0.831152" fill="#1FD773"/>
<rect x="131.281" y="121.914" width="2.13542" height="5.81806" fill="#1FD773"/>
<rect x="134.273" y="124.822" width="2.13542" height="2.90903" fill="#1FD773"/>
<rect x="137.258" y="124.822" width="2.13542" height="17.4542" fill="#1FD773"/>
<path d="M70.5755 33.7656H69.5815V28.6163H69.5476L67.4384 33.7123H66.6335L64.5195 28.6163H64.4856V33.7656H63.4964V26.769H64.7522L67.0166 32.2916H67.0554L69.3148 26.769H70.5755V33.7656ZM73.2884 33.0238C74.0206 33.0238 74.5927 32.5195 74.5927 31.8552V31.4528L73.3369 31.5304C72.7114 31.574 72.3575 31.8504 72.3575 32.2868C72.3575 32.7329 72.726 33.0238 73.2884 33.0238ZM72.9975 33.8529C71.9987 33.8529 71.3005 33.2323 71.3005 32.3159C71.3005 31.4237 71.9841 30.8758 73.1963 30.8079L74.5927 30.7255V30.3328C74.5927 29.7655 74.2097 29.4261 73.5696 29.4261C72.9636 29.4261 72.5854 29.717 72.4932 30.1728H71.5041C71.5623 29.2515 72.3478 28.5727 73.6084 28.5727C74.8448 28.5727 75.6352 29.2273 75.6352 30.2503V33.7656H74.6315V32.9268H74.6073C74.3115 33.4941 73.6666 33.8529 72.9975 33.8529ZM76.5541 33.7656V28.6648H77.5529V29.5327H77.5772C77.7469 28.9363 78.2026 28.5824 78.8039 28.5824C78.9542 28.5824 79.0851 28.6066 79.1627 28.6212V29.5958C79.0803 29.5618 78.896 29.5376 78.6924 29.5376C78.0184 29.5376 77.6014 29.9885 77.6014 30.711V33.7656H76.5541ZM80.8089 30.8516L82.8696 28.6648H84.1012L81.9871 30.8613L84.1836 33.7656H82.9666L81.2356 31.5013L80.7992 31.9328V33.7656H79.7519V26.769H80.7992V30.8516H80.8089ZM86.5183 29.4164C85.7862 29.4164 85.2722 29.974 85.2189 30.7449H87.7693C87.745 29.9643 87.2505 29.4164 86.5183 29.4164ZM87.7644 32.2674H88.7584C88.6129 33.1983 87.7305 33.8626 86.5619 33.8626C85.0637 33.8626 84.157 32.8492 84.157 31.2395C84.157 29.6394 85.0783 28.5727 86.5183 28.5727C87.9341 28.5727 88.8166 29.5715 88.8166 31.1183V31.4771H85.214V31.5401C85.214 32.4274 85.7474 33.0141 86.5862 33.0141C87.1826 33.0141 87.6238 32.7135 87.7644 32.2674ZM89.8373 27.4575H90.8895V28.6648H91.8592V29.4939H90.8895V32.3062C90.8895 32.7474 91.0834 32.9462 91.5101 32.9462C91.6168 32.9462 91.7865 32.9365 91.8544 32.922V33.7511C91.738 33.7802 91.5053 33.7996 91.2725 33.7996C90.2398 33.7996 89.8373 33.4068 89.8373 32.4225V29.4939H89.0955V28.6648H89.8373V27.4575ZM97.6924 26.6526C99.7046 26.6526 100.97 28.0442 100.97 30.2697C100.97 32.4953 99.7046 33.882 97.6924 33.882C95.6753 33.882 94.4147 32.4953 94.4147 30.2697C94.4147 28.0442 95.6753 26.6526 97.6924 26.6526ZM97.6924 27.6078C96.3638 27.6078 95.525 28.6357 95.525 30.2697C95.525 31.8989 96.3638 32.9268 97.6924 32.9268C99.0209 32.9268 99.8549 31.8989 99.8549 30.2697C99.8549 28.6357 99.0209 27.6078 97.6924 27.6078ZM106.136 28.6648L104.308 33.7656H103.184L101.346 28.6648H102.461L103.741 32.7426H103.761L105.041 28.6648H106.136ZM108.626 29.4164C107.894 29.4164 107.38 29.974 107.327 30.7449H109.877C109.853 29.9643 109.358 29.4164 108.626 29.4164ZM109.872 32.2674H110.866C110.721 33.1983 109.838 33.8626 108.67 33.8626C107.172 33.8626 106.265 32.8492 106.265 31.2395C106.265 29.6394 107.186 28.5727 108.626 28.5727C110.042 28.5727 110.925 29.5715 110.925 31.1183V31.4771H107.322V31.5401C107.322 32.4274 107.855 33.0141 108.694 33.0141C109.291 33.0141 109.732 32.7135 109.872 32.2674ZM111.64 33.7656V28.6648H112.639V29.5327H112.663C112.833 28.9363 113.288 28.5824 113.89 28.5824C114.04 28.5824 114.171 28.6066 114.248 28.6212V29.5958C114.166 29.5618 113.982 29.5376 113.778 29.5376C113.104 29.5376 112.687 29.9885 112.687 30.711V33.7656H111.64ZM119.153 28.6648L117.325 33.7656H116.2L114.362 28.6648H115.478L116.758 32.7426H116.777L118.057 28.6648H119.153ZM119.689 33.7656V28.6648H120.736V33.7656H119.689ZM120.213 27.9181C119.878 27.9181 119.606 27.6515 119.606 27.3217C119.606 26.9872 119.878 26.7205 120.213 26.7205C120.552 26.7205 120.823 26.9872 120.823 27.3217C120.823 27.6515 120.552 27.9181 120.213 27.9181ZM123.842 29.4164C123.11 29.4164 122.596 29.974 122.542 30.7449H125.093C125.069 29.9643 124.574 29.4164 123.842 29.4164ZM125.088 32.2674H126.082C125.936 33.1983 125.054 33.8626 123.885 33.8626C122.387 33.8626 121.481 32.8492 121.481 31.2395C121.481 29.6394 122.402 28.5727 123.842 28.5727C125.258 28.5727 126.14 29.5715 126.14 31.1183V31.4771H122.538V31.5401C122.538 32.4274 123.071 33.0141 123.91 33.0141C124.506 33.0141 124.947 32.7135 125.088 32.2674ZM133.585 28.6648L132.189 33.7656H131.098L130.026 29.9449H130.002L128.94 33.7656H127.859L126.458 28.6648H127.505L128.436 32.6795H128.455L129.517 28.6648H130.526L131.593 32.6795H131.617L132.548 28.6648H133.585Z" fill="#111111"/>
<path opacity="0.8" d="M63.372 45.9023V41.821H64.9106C65.6771 41.821 66.2202 42.3499 66.2202 43.1249V43.1305C66.2202 43.9055 65.6771 44.4457 64.9106 44.4457H63.8811V45.9023H63.372ZM64.7805 42.2735H63.8811V43.9932H64.7805C65.3632 43.9932 65.6998 43.6736 65.6998 43.1362V43.1305C65.6998 42.5931 65.3632 42.2735 64.7805 42.2735ZM67.2525 42.265C67.0659 42.265 66.9131 42.1123 66.9131 41.9256C66.9131 41.739 67.0659 41.5862 67.2525 41.5862C67.4392 41.5862 67.5919 41.739 67.5919 41.9256C67.5919 42.1123 67.4392 42.265 67.2525 42.265ZM67.0036 45.9023V42.8533H67.4958V45.9023H67.0036ZM69.6708 45.9561C68.8166 45.9561 68.2708 45.3367 68.2708 44.3694V44.3637C68.2708 43.4162 68.8138 42.7996 69.668 42.7996C70.409 42.7996 70.8531 43.2267 70.9436 43.7697L70.9464 43.7867H70.4571L70.4543 43.7782C70.3779 43.4784 70.1064 43.2352 69.668 43.2352C69.1193 43.2352 68.7742 43.6764 68.7742 44.3637V44.3694C68.7742 45.0708 69.1249 45.5205 69.668 45.5205C70.0781 45.5205 70.3383 45.3395 70.4514 45.0001L70.4571 44.9831L70.9436 44.9803L70.9379 45.0114C70.8135 45.5629 70.4034 45.9561 69.6708 45.9561ZM72.8047 45.925C72.1768 45.925 71.9137 45.693 71.9137 45.1104V43.2606H71.4329V42.8533H71.9137V42.0642H72.4228V42.8533H73.0903V43.2606H72.4228V44.9859C72.4228 45.3452 72.5473 45.4894 72.8641 45.4894C72.9517 45.4894 72.9998 45.4866 73.0903 45.4781V45.8967C72.9942 45.9137 72.9008 45.925 72.8047 45.925ZM75.0334 45.9561C74.1651 45.9561 73.6277 45.3565 73.6277 44.3807V44.375C73.6277 43.3964 74.1651 42.7996 75.0334 42.7996C75.9018 42.7996 76.4392 43.3964 76.4392 44.375V44.3807C76.4392 45.3565 75.9018 45.9561 75.0334 45.9561ZM75.0334 45.5205C75.6104 45.5205 75.9357 45.0991 75.9357 44.3807V44.375C75.9357 43.6538 75.6104 43.2352 75.0334 43.2352C74.4565 43.2352 74.1312 43.6538 74.1312 44.375V44.3807C74.1312 45.0991 74.4565 45.5205 75.0334 45.5205ZM77.2028 45.9023V42.8533H77.695V43.3059H77.7402C77.8562 42.9863 78.1418 42.7996 78.5548 42.7996C78.6481 42.7996 78.7528 42.8109 78.8009 42.8194V43.2974C78.699 43.2804 78.6057 43.2691 78.4982 43.2691C78.0287 43.2691 77.695 43.5661 77.695 44.013V45.9023H77.2028ZM79.6692 42.265C79.4825 42.265 79.3298 42.1123 79.3298 41.9256C79.3298 41.739 79.4825 41.5862 79.6692 41.5862C79.8558 41.5862 80.0086 41.739 80.0086 41.9256C80.0086 42.1123 79.8558 42.265 79.6692 42.265ZM79.4203 45.9023V42.8533H79.9124V45.9023H79.4203ZM81.6773 45.9561C81.0975 45.9561 80.6591 45.6054 80.6591 45.051V45.0453C80.6591 44.5023 81.0607 44.1883 81.7707 44.1459L82.6446 44.0922V43.815C82.6446 43.4388 82.4155 43.2352 81.9602 43.2352C81.5953 43.2352 81.3549 43.3709 81.2757 43.6085L81.2729 43.617H80.7807L80.7836 43.6C80.8628 43.122 81.3266 42.7996 81.9771 42.7996C82.721 42.7996 83.1368 43.1814 83.1368 43.815V45.9023H82.6446V45.4526H82.5994C82.4071 45.7779 82.0875 45.9561 81.6773 45.9561ZM81.1626 45.0397C81.1626 45.348 81.4256 45.529 81.7792 45.529C82.2798 45.529 82.6446 45.2009 82.6446 44.7653V44.4881L81.8301 44.5391C81.3662 44.5673 81.1626 44.7314 81.1626 45.034V45.0397ZM84.0645 45.9023V41.6428H84.5566V45.9023H84.0645ZM87.1305 45.9023V42.8533H87.6226V43.3172H87.6679C87.8036 42.9891 88.0921 42.7996 88.4909 42.7996C88.9039 42.7996 89.1924 43.0174 89.3338 43.3342H89.379C89.5431 43.0117 89.891 42.7996 90.3124 42.7996C90.9347 42.7996 91.2825 43.156 91.2825 43.7952V45.9023H90.7904V43.9083C90.7904 43.4586 90.5839 43.2352 90.154 43.2352C89.7298 43.2352 89.4498 43.5548 89.4498 43.9423V45.9023H88.9576V43.832C88.9576 43.4699 88.7087 43.2352 88.3241 43.2352C87.9252 43.2352 87.6226 43.5831 87.6226 44.013V45.9023H87.1305ZM93.4236 45.9561C92.5553 45.9561 92.0179 45.3565 92.0179 44.3807V44.375C92.0179 43.3964 92.5553 42.7996 93.4236 42.7996C94.292 42.7996 94.8294 43.3964 94.8294 44.375V44.3807C94.8294 45.3565 94.292 45.9561 93.4236 45.9561ZM93.4236 45.5205C94.0006 45.5205 94.3259 45.0991 94.3259 44.3807V44.375C94.3259 43.6538 94.0006 43.2352 93.4236 43.2352C92.8467 43.2352 92.5214 43.6538 92.5214 44.375V44.3807C92.5214 45.0991 92.8467 45.5205 93.4236 45.5205ZM95.593 45.9023V42.8533H96.0852V43.3115H96.1304C96.2831 42.9891 96.5688 42.7996 97.0185 42.7996C97.703 42.7996 98.0848 43.2041 98.0848 43.9281V45.9023H97.5927V44.0469C97.5927 43.4982 97.3664 43.2352 96.8799 43.2352C96.3935 43.2352 96.0852 43.5633 96.0852 44.0978V45.9023H95.593ZM100.059 45.925C99.4311 45.925 99.1681 45.693 99.1681 45.1104V43.2606H98.6873V42.8533H99.1681V42.0642H99.6772V42.8533H100.345V43.2606H99.6772V44.9859C99.6772 45.3452 99.8017 45.4894 100.118 45.4894C100.206 45.4894 100.254 45.4866 100.345 45.4781V45.8967C100.249 45.9137 100.155 45.925 100.059 45.925ZM101.108 45.9023V41.6428H101.601V43.3115H101.646C101.799 42.9891 102.084 42.7996 102.534 42.7996C103.218 42.7996 103.6 43.2041 103.6 43.9281V45.9023H103.108V44.0469C103.108 43.4982 102.882 43.2352 102.395 43.2352C101.909 43.2352 101.601 43.5633 101.601 44.0978V45.9023H101.108ZM104.519 45.9023V41.6428H105.012V45.9023H104.519ZM106.216 46.9715C106.151 46.9715 106.067 46.9658 105.999 46.9545V46.55C106.058 46.5614 106.134 46.5642 106.202 46.5642C106.482 46.5642 106.652 46.4369 106.762 46.0862L106.819 45.9052L105.69 42.8533H106.216L107.054 45.3621H107.099L107.933 42.8533H108.451L107.26 46.089C107.008 46.7735 106.757 46.9715 106.216 46.9715ZM111.568 45.9561C110.988 45.9561 110.55 45.6054 110.55 45.051V45.0453C110.55 44.5023 110.951 44.1883 111.661 44.1459L112.535 44.0922V43.815C112.535 43.4388 112.306 43.2352 111.851 43.2352C111.486 43.2352 111.245 43.3709 111.166 43.6085L111.163 43.617H110.671L110.674 43.6C110.753 43.122 111.217 42.7996 111.868 42.7996C112.611 42.7996 113.027 43.1814 113.027 43.815V45.9023H112.535V45.4526H112.49C112.297 45.7779 111.978 45.9561 111.568 45.9561ZM111.053 45.0397C111.053 45.348 111.316 45.529 111.67 45.529C112.17 45.529 112.535 45.2009 112.535 44.7653V44.4881L111.721 44.5391C111.257 44.5673 111.053 44.7314 111.053 45.034V45.0397ZM113.927 45.9023V42.8533H114.419V43.3115H114.464C114.617 42.9891 114.902 42.7996 115.352 42.7996C116.037 42.7996 116.418 43.2041 116.418 43.9281V45.9023H115.926V44.0469C115.926 43.4982 115.7 43.2352 115.214 43.2352C114.727 43.2352 114.419 43.5633 114.419 44.0978V45.9023H113.927ZM118.147 45.9561C117.567 45.9561 117.128 45.6054 117.128 45.051V45.0453C117.128 44.5023 117.53 44.1883 118.24 44.1459L119.114 44.0922V43.815C119.114 43.4388 118.885 43.2352 118.429 43.2352C118.065 43.2352 117.824 43.3709 117.745 43.6085L117.742 43.617H117.25L117.253 43.6C117.332 43.122 117.796 42.7996 118.446 42.7996C119.19 42.7996 119.606 43.1814 119.606 43.815V45.9023H119.114V45.4526H119.069C118.876 45.7779 118.557 45.9561 118.147 45.9561ZM117.632 45.0397C117.632 45.348 117.895 45.529 118.248 45.529C118.749 45.529 119.114 45.2009 119.114 44.7653V44.4881L118.299 44.5391C117.835 44.5673 117.632 44.7314 117.632 45.034V45.0397ZM120.534 45.9023V41.6428H121.026V45.9023H120.534ZM122.231 46.9715C122.166 46.9715 122.081 46.9658 122.013 46.9545V46.55C122.072 46.5614 122.149 46.5642 122.217 46.5642C122.497 46.5642 122.666 46.4369 122.777 46.0862L122.833 45.9052L121.705 42.8533H122.231L123.068 45.3621H123.113L123.948 42.8533H124.465L123.274 46.089C123.023 46.7735 122.771 46.9715 122.231 46.9715ZM126.199 45.925C125.571 45.925 125.308 45.693 125.308 45.1104V43.2606H124.827V42.8533H125.308V42.0642H125.817V42.8533H126.485V43.2606H125.817V44.9859C125.817 45.3452 125.942 45.4894 126.258 45.4894C126.346 45.4894 126.394 45.4866 126.485 45.4781V45.8967C126.389 45.9137 126.295 45.925 126.199 45.925ZM128.422 45.9561C127.568 45.9561 127.022 45.3367 127.022 44.3694V44.3637C127.022 43.4162 127.565 42.7996 128.419 42.7996C129.16 42.7996 129.604 43.2267 129.695 43.7697L129.698 43.7867H129.208L129.206 43.7782C129.129 43.4784 128.858 43.2352 128.419 43.2352C127.871 43.2352 127.526 43.6764 127.526 44.3637V44.3694C127.526 45.0708 127.876 45.5205 128.419 45.5205C128.829 45.5205 129.09 45.3395 129.203 45.0001L129.208 44.9831L129.695 44.9803L129.689 45.0114C129.565 45.5629 129.155 45.9561 128.422 45.9561ZM131.463 45.9561C130.784 45.9561 130.317 45.628 130.261 45.1245H130.764C130.846 45.3791 131.089 45.546 131.48 45.546C131.89 45.546 132.181 45.3508 132.181 45.0736V45.068C132.181 44.8615 132.026 44.7172 131.649 44.6267L131.177 44.5136C130.606 44.3778 130.348 44.1289 130.348 43.6905V43.6877C130.348 43.1814 130.835 42.7996 131.482 42.7996C132.122 42.7996 132.566 43.1192 132.634 43.617H132.15C132.085 43.3766 131.847 43.2097 131.48 43.2097C131.118 43.2097 130.852 43.3964 130.852 43.6651V43.6707C130.852 43.8772 131.004 44.0073 131.364 44.095L131.833 44.2081C132.407 44.3467 132.685 44.5956 132.685 45.0312V45.0369C132.685 45.5799 132.156 45.9561 131.463 45.9561ZM136.33 45.9561C135.462 45.9561 134.925 45.3565 134.925 44.3807V44.375C134.925 43.3964 135.462 42.7996 136.33 42.7996C137.199 42.7996 137.736 43.3964 137.736 44.375V44.3807C137.736 45.3565 137.199 45.9561 136.33 45.9561ZM136.33 45.5205C136.907 45.5205 137.233 45.0991 137.233 44.3807V44.375C137.233 43.6538 136.907 43.2352 136.33 43.2352C135.753 43.2352 135.428 43.6538 135.428 44.375V44.3807C135.428 45.0991 135.753 45.5205 136.33 45.5205ZM138.703 45.9023V43.2606H138.197V42.8533H138.703V42.5139C138.703 41.9058 139.009 41.6145 139.589 41.6145C139.707 41.6145 139.815 41.623 139.917 41.6428V42.0359C139.857 42.0246 139.775 42.0218 139.688 42.0218C139.337 42.0218 139.195 42.1943 139.195 42.5281V42.8533H139.888V43.2606H139.195V45.9023H138.703ZM142.228 45.9023V42.8533H142.72V43.3172H142.765C142.901 42.9891 143.189 42.7996 143.588 42.7996C144.001 42.7996 144.289 43.0174 144.431 43.3342H144.476C144.64 43.0117 144.988 42.7996 145.409 42.7996C146.032 42.7996 146.38 43.156 146.38 43.7952V45.9023H145.887V43.9083C145.887 43.4586 145.681 43.2352 145.251 43.2352C144.827 43.2352 144.547 43.5548 144.547 43.9423V45.9023H144.055V43.832C144.055 43.4699 143.806 43.2352 143.421 43.2352C143.022 43.2352 142.72 43.5831 142.72 44.013V45.9023H142.228ZM148.105 45.9561C147.525 45.9561 147.087 45.6054 147.087 45.051V45.0453C147.087 44.5023 147.488 44.1883 148.198 44.1459L149.072 44.0922V43.815C149.072 43.4388 148.843 43.2352 148.388 43.2352C148.023 43.2352 147.782 43.3709 147.703 43.6085L147.7 43.617H147.208L147.211 43.6C147.29 43.122 147.754 42.7996 148.405 42.7996C149.149 42.7996 149.564 43.1814 149.564 43.815V45.9023H149.072V45.4526H149.027C148.835 45.7779 148.515 45.9561 148.105 45.9561ZM147.59 45.0397C147.59 45.348 147.853 45.529 148.207 45.529C148.707 45.529 149.072 45.2009 149.072 44.7653V44.4881L148.258 44.5391C147.794 44.5673 147.59 44.7314 147.59 45.034V45.0397ZM150.464 45.9023V42.8533H150.956V43.3059H151.001C151.117 42.9863 151.403 42.7996 151.816 42.7996C151.909 42.7996 152.014 42.8109 152.062 42.8194V43.2974C151.96 43.2804 151.867 43.2691 151.759 43.2691C151.29 43.2691 150.956 43.5661 150.956 44.013V45.9023H150.464ZM152.698 45.9023V41.6428H153.19V44.1855H153.236L154.554 42.8533H155.15L153.821 44.1346L155.238 45.9023H154.619L153.476 44.4683L153.19 44.7455V45.9023H152.698ZM156.918 45.9561C156.047 45.9561 155.521 45.3452 155.521 44.3892V44.3863C155.521 43.4445 156.058 42.7996 156.887 42.7996C157.716 42.7996 158.219 43.4162 158.219 44.3269V44.5193H156.024C156.039 45.15 156.386 45.5177 156.93 45.5177C157.342 45.5177 157.597 45.3225 157.679 45.1387L157.69 45.1132H158.182L158.177 45.1358C158.072 45.5488 157.637 45.9561 156.918 45.9561ZM156.884 43.238C156.432 43.238 156.087 43.5463 156.033 44.1261H157.719C157.668 43.5237 157.334 43.238 156.884 43.238ZM160.066 45.925C159.438 45.925 159.175 45.693 159.175 45.1104V43.2606H158.694V42.8533H159.175V42.0642H159.684V42.8533H160.352V43.2606H159.684V44.9859C159.684 45.3452 159.809 45.4894 160.126 45.4894C160.213 45.4894 160.261 45.4866 160.352 45.4781V45.8967C160.256 45.9137 160.162 45.925 160.066 45.925ZM161.489 45.9306C161.288 45.9306 161.121 45.7638 161.121 45.5629C161.121 45.3593 161.288 45.1952 161.489 45.1952C161.693 45.1952 161.857 45.3593 161.857 45.5629C161.857 45.7638 161.693 45.9306 161.489 45.9306Z" fill="#111111"/>
</g>
</g>
<rect y="116" width="69.1416" height="35.5712" rx="8.3808" fill="#1FD773"/>
<path d="M22.1707 140.285H16.8033V126.908H22.1429C24.5161 126.908 26.0735 128.225 26.0735 130.245C26.0735 131.664 25.026 132.934 23.6911 133.156V133.23C25.508 133.434 26.7317 134.723 26.7317 136.503C26.7317 138.858 25.0167 140.285 22.1707 140.285ZM18.8798 128.605V132.6H21.2066C23.0051 132.6 23.997 131.858 23.997 130.533C23.997 129.291 23.1441 128.605 21.6423 128.605H18.8798ZM18.8798 138.589H21.7443C23.6169 138.589 24.6088 137.819 24.6088 136.373C24.6088 134.927 23.5891 134.185 21.6238 134.185H18.8798V138.589ZM30.7872 126.908V135.409C30.7872 137.319 31.9924 138.663 34.1245 138.663C36.2567 138.663 37.4711 137.319 37.4711 135.409V126.908H39.5384V135.585C39.5384 138.468 37.4804 140.508 34.1245 140.508C30.7687 140.508 28.7107 138.468 28.7107 135.585V126.908H30.7872ZM47.988 140.285H45.9115V134.806L41.2022 126.908H43.5197L46.9312 132.813H46.9961L50.4075 126.908H52.7066L47.988 134.806V140.285Z" fill="white"/>
<rect y="161.141" width="69.1416" height="35.5712" rx="8.3808" fill="#F74848"/>
<path d="M13.71 181.699H15.7587C15.907 183.025 17.1956 183.896 18.9569 183.896C20.6441 183.896 21.8585 183.025 21.8585 181.829C21.8585 180.791 21.1262 180.17 19.3926 179.743L17.6591 179.326C15.2025 178.733 14.0622 177.583 14.0622 175.72C14.0622 173.412 16.0739 171.826 18.9291 171.826C21.7565 171.826 23.694 173.412 23.7589 175.72H21.738C21.6175 174.385 20.5143 173.578 18.9013 173.578C17.2883 173.578 16.1851 174.394 16.1851 175.581C16.1851 176.526 16.8897 177.083 18.6139 177.509L20.0879 177.871C22.8319 178.519 23.9721 179.623 23.9721 181.579C23.9721 184.082 21.979 185.648 18.8086 185.648C15.8421 185.648 13.8397 184.119 13.71 181.699ZM34.5168 183.627V185.426H26.0253V172.049H34.5168V173.838H28.1018V177.75H34.1738V179.474H28.1018V183.627H34.5168ZM45.145 183.627V185.426H36.8389V172.049H38.9154V183.627H45.145ZM55.4209 183.627V185.426H47.1147V172.049H49.1913V183.627H55.4209Z" fill="white"/>
</g>
<defs>
<filter id="filter0_d_8022_50637" x="21.1153" y="-14.3265" width="515.019" height="361.84" filterUnits="userSpaceOnUse" color-interpolation-filters="sRGB">
<feFlood flood-opacity="0" result="BackgroundImageFix"/>
<feColorMatrix in="SourceAlpha" type="matrix" values="0 0 0 0 0 0 0 0 0 0 0 0 0 0 0 0 0 0 127 0" result="hardAlpha"/>
<feOffset dy="3.64615"/>
<feGaussianBlur stdDeviation="10.9385"/>
<feComposite in2="hardAlpha" operator="out"/>
<feColorMatrix type="matrix" values="0 0 0 0 0 0 0 0 0 0 0 0 0 0 0 0 0 0 0.07 0"/>
<feBlend mode="normal" in2="BackgroundImageFix" result="effect1_dropShadow_8022_50637"/>
<feBlend mode="normal" in="SourceGraphic" in2="effect1_dropShadow_8022_50637" result="shape"/>
</filter>
</defs>
</svg>
