<svg width="226" height="226" viewBox="0 0 226 226" fill="none" xmlns="http://www.w3.org/2000/svg">
<g clip-path="url(#clip0_8022_48205)">
<circle opacity="0.1" cx="113" cy="113" r="113" fill="white"/>
<circle opacity="0.2" cx="113" cy="113" r="112.5" stroke="url(#paint0_linear_8022_48205)"/>
<circle opacity="0.1" cx="113" cy="113" r="87" fill="white"/>
<circle opacity="0.3" cx="113" cy="113" r="86.5" stroke="url(#paint1_linear_8022_48205)"/>
<circle opacity="0.1" cx="112.999" cy="112.999" r="55.2727" fill="white"/>
<circle opacity="0.3" cx="112.999" cy="112.999" r="54.7727" stroke="url(#paint2_linear_8022_48205)"/>
<circle cx="164" cy="93" r="3" fill="white"/>
<circle cx="164" cy="93" r="1" fill="white"/>
<circle cx="46" cy="168" r="3" fill="white"/>
<circle cx="46" cy="168" r="1" fill="white"/>
<circle cx="39" cy="28" r="3" fill="white"/>
<circle cx="39" cy="28" r="1" fill="white"/>
<path d="M108.5 110.75C111.607 110.75 114.125 108.232 114.125 105.125C114.125 102.018 111.607 99.5 108.5 99.5C105.393 99.5 102.875 102.018 102.875 105.125C102.875 108.232 105.393 110.75 108.5 110.75Z" fill="white"/>
<path d="M144.007 127.331C143.399 125.096 142.217 123.059 140.579 121.421C138.942 119.783 136.904 118.602 134.67 117.993C132.358 117.337 129.912 117.31 127.586 117.915C125.26 118.52 123.138 119.735 121.438 121.435C119.739 123.134 118.524 125.256 117.919 127.582C117.314 129.908 117.341 132.354 117.997 134.666C118.606 136.901 119.787 138.938 121.425 140.575C123.063 142.213 125.1 143.395 127.335 144.003C129.647 144.659 132.092 144.686 134.418 144.081C136.744 143.476 138.866 142.261 140.566 140.562C142.265 138.862 143.48 136.74 144.085 134.414C144.69 132.088 144.663 129.643 144.007 127.331ZM135.975 130.346L131.475 134.846C131.265 135.057 131.017 135.224 130.742 135.338C130.468 135.452 130.174 135.511 129.877 135.511C129.58 135.511 129.286 135.452 129.012 135.338C128.738 135.224 128.489 135.057 128.28 134.846L126.03 132.596C125.606 132.172 125.368 131.597 125.368 130.998C125.368 130.399 125.606 129.824 126.03 129.401C126.453 128.977 127.028 128.739 127.627 128.739C128.226 128.739 128.801 128.977 129.225 129.401L129.877 130.076L132.78 127.151C133.203 126.727 133.778 126.489 134.377 126.489C134.976 126.489 135.551 126.727 135.975 127.151C136.398 127.574 136.636 128.149 136.636 128.748C136.636 129.347 136.398 129.922 135.975 130.346Z" fill="white"/>
<path d="M113 115.249H104C102.807 115.249 101.662 115.723 100.818 116.567C99.9741 117.411 99.5 118.556 99.5 119.749V121.999C99.5 122.596 99.2629 123.168 98.841 123.59C98.419 124.012 97.8467 124.249 97.25 124.249C96.6533 124.249 96.081 124.012 95.659 123.59C95.2371 123.168 95 122.596 95 121.999V119.749C95.0036 117.959 95.5407 116.211 96.5427 114.729C97.5446 113.246 98.9659 112.095 100.625 111.424C99.4236 109.937 98.6675 108.141 98.4443 106.243C98.2211 104.344 98.5397 102.421 99.3635 100.697C100.187 98.9717 101.482 97.5153 103.099 96.4957C104.716 95.4762 106.589 94.9351 108.5 94.9351C110.411 94.9351 112.284 95.4762 113.901 96.4957C115.518 97.5153 116.813 98.9717 117.636 100.697C118.46 102.421 118.779 104.344 118.556 106.243C118.332 108.141 117.576 109.937 116.375 111.424C118.474 112.271 120.177 113.878 121.145 115.924C123.211 114.569 125.534 113.655 127.968 113.237C130.403 112.819 132.898 112.906 135.298 113.494C135.41 112.279 135.5 111.042 135.5 109.804V92.749C135.5 92.2866 135.357 91.8355 135.091 91.4571C134.826 91.0786 134.45 90.7913 134.015 90.634L109.265 81.634C108.771 81.4553 108.229 81.4553 107.735 81.634L82.985 90.634C82.5501 90.7913 82.1743 91.0786 81.9086 91.4571C81.6429 91.8355 81.5002 92.2866 81.5 92.749V109.849C81.511 117.718 84.0999 125.366 88.8704 131.624C93.6409 137.882 100.33 142.404 107.915 144.499C108.296 144.62 108.704 144.62 109.085 144.499C111.616 143.808 114.062 142.835 116.375 141.597C115.123 139.881 114.193 137.952 113.63 135.904C112.841 133.022 112.781 129.989 113.457 127.078C114.132 124.168 115.522 121.471 117.5 119.232C117.372 118.13 116.843 117.114 116.012 116.379C115.182 115.644 114.109 115.242 113 115.249Z" fill="white"/>
</g>
<defs>
<linearGradient id="paint0_linear_8022_48205" x1="39" y1="26.5" x2="87.5" y2="100.5" gradientUnits="userSpaceOnUse">
<stop stop-color="white"/>
<stop offset="1" stop-color="white" stop-opacity="0"/>
</linearGradient>
<linearGradient id="paint1_linear_8022_48205" x1="47.5" y1="170" x2="84" y2="129.5" gradientUnits="userSpaceOnUse">
<stop stop-color="white"/>
<stop offset="1" stop-color="white" stop-opacity="0"/>
</linearGradient>
<linearGradient id="paint2_linear_8022_48205" x1="165.999" y1="92.4993" x2="122.499" y2="107.999" gradientUnits="userSpaceOnUse">
<stop stop-color="white"/>
<stop offset="1" stop-color="white" stop-opacity="0"/>
</linearGradient>
<clipPath id="clip0_8022_48205">
<rect width="226" height="226" rx="24" fill="white"/>
</clipPath>
</defs>
</svg>
