<svg width="529" height="188" viewBox="0 0 529 188" fill="none" xmlns="http://www.w3.org/2000/svg">
<path opacity="0.2" d="M-1401.71 289.857L-1405 291.559V369H529V37.4375L524.391 33.4669L521.098 37.4375L513.855 43.1099L508.587 61.2614L503.319 60.1269L498.709 53.8873L492.783 56.1563L488.173 81.6819L477.637 100.401L470.394 106.64L460.516 101.535L457.224 108.909L450.639 115.149L445.371 100.968L440.103 110.611L434.177 107.775L429.567 90.7576L423.641 74.3078L419.031 69.7699H413.763L407.837 81.6819L403.227 85.6525L397.301 77.144L392.033 81.6819L386.765 77.144L381.497 85.6525L376.229 65.7993L370.961 60.1269L365.693 60.6942L360.425 55.0218H357.791L349.889 53.3201L345.28 44.8116L340.012 43.1099L334.085 45.9461L328.159 47.0805L322.233 40.8409L318.281 32.3324L312.355 38.572L307.087 24.3911L301.819 23.2566L297.21 24.9583H290.625L286.015 15.3153L282.064 13.0464L276.138 16.4498L271.528 26.6601L265.602 35.7358H262.309L253.749 36.3031L249.798 31.7652L243.872 37.4375L239.262 31.7652L233.336 25.5256L228.068 30.0635L223.458 25.5256L212.264 34.0341L208.313 27.7945L197.118 11.9119L191.192 45.3788L185.266 40.8409H180.656L175.388 52.1856L170.12 47.0805C168.364 56.7235 164.852 76.3499 164.852 77.7112C164.852 79.0726 160.901 71.8498 158.926 68.0682L154.975 76.0095L151.024 82.8163L144.439 83.3836L137.854 67.501L132.586 79.9802L128.635 72.6061L116.124 61.8286H112.173L106.905 68.0682L102.295 94.7283L95.7102 99.2662L84.5159 62.9631L79.2478 66.9338H75.9554L65.4194 57.858L58.8346 58.9925L53.5667 44.8116L48.9572 42.5426L44.3477 53.8873L37.1042 55.0218L33.1532 61.8286L27.8851 65.232L22.6174 79.4129L17.3494 62.3959L12.0814 64.0976L5.49634 50.4839C3.95984 53.5092 0.755371 59.7866 0.228516 60.6942C-0.298218 61.6017 -7.01501 34.6013 -10.3075 20.9877L-14.9169 16.4498L-20.8433 26.0928L-25.4529 10.7775L-30.7208 24.9583L-35.9888 27.2273L-41.9153 34.0341L-46.5248 30.6307L-51.134 47.0805L-57.7191 51.0512L-62.9871 23.2566L-67.5964 12.4792L-72.8645 23.8239L-78.791 20.4205L-84.0588 16.4498L-88.6683 23.8239L-93.9363 20.4205L-99.2043 21.5549L-109.74 60.1269L-116.325 61.8286L-126.203 36.3031L-132.129 74.3078L-136.739 36.8703L-141.348 31.7652L-147.274 51.6184L-153.201 24.3911L-163.078 0L-169.005 10.7775L-173.614 6.80682L-179.541 26.6601L-184.15 30.6307L-190.077 32.3324L-194.686 41.4082L-200.613 47.0805L-205.222 61.2614L-211.148 34.0341L-215.758 66.3665L-221.684 73.7406L-226.952 72.0389L-232.22 78.8457L-236.83 72.0389L-242.098 106.64L-253.292 143.51L-258.56 145.212L-264.486 150.885L-269.755 145.779L-278.973 140.107L-284.9 143.51L-290.168 140.674L-295.436 144.078L-301.362 140.674L-305.972 142.376L-311.24 144.078L-316.508 157.691L-321.776 155.422L-327.043 165.633L-337.579 174.708L-342.848 186.62L-348.115 192.293L-352.725 203.07L-364.578 205.906L-373.138 201.368L-378.406 202.503L-385.65 205.906L-395.527 201.368L-400.795 208.743H-406.721L-411.989 211.011L-416.599 223.491L-422.525 222.923L-433.061 225.76L-438.329 212.713L-448.865 212.146L-454.792 214.415L-459.401 204.772L-464.669 202.503L-475.205 211.011L-480.473 204.205H-485.741L-491.009 180.381L-495.618 178.112L-501.545 181.515L-506.813 176.41L-512.739 196.831L-522.617 194.562L-527.885 195.129L-533.152 202.503L-538.42 190.024L-544.347 194.562L-549.615 207.041L-560.151 209.31L-570.687 200.234L-575.955 205.906L-580.564 199.1L-586.491 202.503L-591.759 197.965L-597.027 196.263L-607.562 198.532L-612.83 207.608L-617.44 205.339L-623.366 213.848L-627.976 207.608L-634.561 209.877L-638.512 202.503L-645.097 204.772L-649.706 213.28L-654.974 214.415L-660.242 197.398L-666.169 197.965L-670.778 195.129L-676.704 200.801L-686.582 195.129L-697.118 221.789L-703.044 226.327L-713.58 238.806L-716.873 237.672H-723.458L-729.384 241.642L-739.261 238.239L-745.188 238.806L-749.797 241.642L-755.724 240.508L-760.992 251.285L-765.601 240.508L-771.528 241.075L-776.137 246.18H-782.064L-787.332 248.449L-792.6 238.806L-797.867 252.987L-807.745 242.777L-812.354 242.209L-819.598 241.642L-823.549 245.046L-829.475 252.42L-834.085 253.554L-840.011 256.39H-851.206L-855.815 258.659L-860.425 258.092L-866.351 254.121L-871.619 259.226L-882.813 260.361L-888.74 263.764L-894.666 264.332L-903.885 260.361L-908.495 263.764L-914.421 270.004L-919.689 290.424L-923.64 290.992L-930.225 292.693L-934.835 298.366L-940.761 301.769L-950.638 300.635L-956.565 309.71L-963.15 311.979H-976.978L-982.905 308.009L-988.173 307.441L-993.441 304.605H-1003.98L-1009.24 308.009L-1014.51 305.74L-1018.46 307.441H-1025.71L-1030.97 304.605L-1035.58 310.845L-1040.85 311.979L-1046.12 310.845L-1051.39 315.383L-1056.66 316.517L-1062.58 315.383L-1067.85 315.95L-1072.46 313.681H-1084.31L-1088.92 309.71H-1094.19L-1104.73 314.248L-1113.95 313.681L-1120.53 314.248L-1129.75 318.219L-1136.99 323.324L-1142.26 318.786L-1152.8 318.219L-1157.41 315.95L-1163.33 319.353L-1172.55 318.786L-1178.48 317.652L-1189.01 318.786L-1194.94 317.652L-1200.21 309.143L-1204.82 306.307L-1210.74 316.517L-1221.94 317.652L-1229.84 317.084L-1237.08 315.383L-1243.01 317.084L-1252.23 315.95L-1264.08 317.084L-1268.69 313.114L-1273.96 299.5L-1278.57 296.664L-1284.5 294.962L-1290.42 295.53L-1295.03 294.395H-1307.54L-1316.1 292.693L-1321.37 296.097L-1327.96 297.231L-1338.49 296.664L-1348.37 296.097L-1353.64 292.693L-1358.91 296.097L-1372.08 294.962L-1379.98 296.097L-1385.25 294.962L-1388.54 296.097L-1395.78 296.664L-1401.71 289.857Z" fill="url(#paint0_linear_8022_50734)"/>
<defs>
<linearGradient id="paint0_linear_8022_50734" x1="-527.025" y1="65.9891" x2="-527.025" y2="369" gradientUnits="userSpaceOnUse">
<stop stop-color="#41FD77" stop-opacity="0.2"/>
<stop offset="1" stop-color="#1FD773" stop-opacity="0.1"/>
</linearGradient>
</defs>
</svg>
