<svg width="45" height="45" viewBox="0 0 45 45" fill="none" xmlns="http://www.w3.org/2000/svg">
<g clip-path="url(#clip0_2712_27379)">
<path d="M8.0625 19.0652C5.21934 19.0652 2.90625 16.7521 2.90625 13.9089C2.90625 11.0658 5.21934 8.75269 8.0625 8.75269C10.9057 8.75269 13.2188 11.0658 13.2188 13.9089C13.2188 16.7521 10.9057 19.0652 8.0625 19.0652Z" fill="rgba(255,255,255,0.1)"/>
<path d="M26.1094 15.6277C23.2662 15.6277 20.9531 13.3146 20.9531 10.4714C20.9531 7.62828 23.2662 5.31519 26.1094 5.31519C28.9525 5.31519 31.2656 7.62828 31.2656 10.4714C31.2656 13.3146 28.9525 15.6277 26.1094 15.6277Z" fill="rgba(255,255,255,0.1)"/>
<path d="M43.0391 13.9089H37.8828C37.1709 13.9089 36.5938 14.4861 36.5938 15.198C36.5938 15.9099 37.1709 16.4871 37.8828 16.4871H39.927L26.7109 29.7031L23.3255 26.3177C22.8222 25.8144 22.0059 25.8144 21.5025 26.3177L11.5676 36.2527H1.61719C0.905281 36.2527 0.328125 36.8298 0.328125 37.5417C0.328125 38.2537 0.905281 38.8308 1.61719 38.8308H12.1016C12.4435 38.8308 12.7714 38.695 13.013 38.4532L22.4141 29.0522L25.7995 32.4377C26.3028 32.941 27.1191 32.941 27.6225 32.4377L41.75 18.3101V20.3542C41.75 21.0662 42.3272 21.6433 43.0391 21.6433C43.751 21.6433 44.3281 21.0662 44.3281 20.3542V15.198C44.3281 14.4861 43.751 13.9089 43.0391 13.9089Z" fill="rgba(255,255,255,0.1)"/>
<path d="M30.3825 16.9148C29.1574 17.7299 27.688 18.2057 26.1094 18.2057C24.5308 18.2057 23.0613 17.73 21.8362 16.9148C19.7503 18.3001 18.375 20.6703 18.375 23.362V25.7993L19.6796 24.4947C20.41 23.7643 21.3812 23.362 22.4141 23.362C23.4469 23.362 24.4181 23.7643 25.1485 24.4946L26.7109 26.057L32.9732 19.7946C32.3663 18.6292 31.4712 17.638 30.3825 16.9148Z" fill="rgba(255,255,255,0.1)"/>
<path d="M3.78934 20.3523C1.70347 21.7376 0.328125 24.1078 0.328125 26.7995V33.6745H10.4997L15.7969 28.3774V26.7995C15.7969 24.1078 14.4215 21.7376 12.3357 20.3523C11.1105 21.1675 9.64109 21.6432 8.0625 21.6432C6.48391 21.6432 5.01447 21.1675 3.78934 20.3523Z" fill="rgba(255,255,255,0.1)"/>
</g>
<defs>
<clipPath id="clip0_2712_27379">
<rect width="44" height="44" fill="rgba(255,255,255,0.1)" transform="translate(0.328125 0.072998)"/>
</clipPath>
</defs>
</svg>
