<svg width="73" height="73" viewBox="0 0 73 73" fill="none" xmlns="http://www.w3.org/2000/svg">
<path d="M31.4819 25.1653C18.9768 25.1653 8.69543 33.7646 8.69543 44.3351C8.69543 48.5604 10.3344 52.8546 13.34 56.183L9.09566 61.0331C8.67804 61.5109 8.57674 62.1895 8.841 62.7685C9.10365 63.3475 9.67948 63.7193 10.3154 63.7193H33.1018C42.3349 63.7193 54.2684 55.7687 54.2684 44.3351C54.2684 33.7646 43.987 25.1653 31.4819 25.1653ZM21.6545 47.3043C19.8685 47.3043 18.4148 45.8505 18.4148 44.0646C18.4148 42.2786 19.8686 40.8248 21.6545 40.8248C23.4405 40.8248 24.8943 42.2787 24.8943 44.0646C24.8944 45.8505 23.4406 47.3043 21.6545 47.3043ZM31.4819 47.3043C29.6959 47.3043 28.2422 45.8505 28.2422 44.0646C28.2422 42.2786 29.696 40.8248 31.4819 40.8248C33.2678 40.8248 34.7217 42.2787 34.7217 44.0646C34.7217 45.8505 33.2679 47.3043 31.4819 47.3043ZM41.3093 47.3043C39.5232 47.3043 38.0695 45.8505 38.0695 44.0646C38.0695 42.2786 39.5233 40.8248 41.3093 40.8248C43.0952 40.8248 44.549 42.2787 44.549 44.0646C44.549 45.8505 43.0953 47.3043 41.3093 47.3043Z" fill="white"/>
<path d="M63.6008 41.3891L59.7868 36.9391C62.5093 33.8671 63.9916 30.1209 63.9916 26.2453C63.9915 16.42 54.5443 8.42651 42.933 8.42651C32.4331 8.42651 23.5126 14.9698 21.9375 23.4865C24.8672 22.491 28.1527 21.9251 31.4858 21.9251C45.6713 21.9251 57.326 31.8331 57.4963 44.0641H62.3717C63.7555 44.0642 64.4986 42.4348 63.6008 41.3891Z" fill="white"/>
</svg>
