<svg width="25" height="24" viewBox="0 0 25 24" fill="none" xmlns="http://www.w3.org/2000/svg">
<path d="M12.0547 2.25C10.1263 2.25 8.24126 2.82183 6.63788 3.89317C5.0345 4.96451 3.78482 6.48726 3.04687 8.26884C2.30891 10.0504 2.11583 12.0108 2.49204 13.9021C2.86824 15.7934 3.79684 17.5307 5.1604 18.8943C6.52396 20.2579 8.26125 21.1865 10.1526 21.5627C12.0439 21.9389 14.0043 21.7458 15.7859 21.0078C17.5674 20.2699 19.0902 19.0202 20.1615 17.4168C21.2329 15.8134 21.8047 13.9284 21.8047 12C21.802 9.41498 20.7739 6.93661 18.946 5.10872C17.1181 3.28084 14.6397 2.25273 12.0547 2.25ZM12.0547 20.25C10.423 20.25 8.82794 19.7661 7.47124 18.8596C6.11453 17.9531 5.05711 16.6646 4.43269 15.1571C3.80826 13.6496 3.64489 11.9908 3.96321 10.3905C4.28154 8.79016 5.06728 7.32015 6.22106 6.16637C7.37484 5.01259 8.84485 4.22685 10.4452 3.90852C12.0455 3.59019 13.7043 3.75357 15.2118 4.37799C16.7193 5.00242 18.0078 6.05984 18.9143 7.41655C19.8208 8.77325 20.3047 10.3683 20.3047 12C20.3022 14.1873 19.4322 16.2843 17.8856 17.8309C16.3389 19.3775 14.242 20.2475 12.0547 20.25ZM18.0547 12C18.0547 12.1989 17.9757 12.3897 17.835 12.5303C17.6944 12.671 17.5036 12.75 17.3047 12.75H12.0547C11.8558 12.75 11.665 12.671 11.5244 12.5303C11.3837 12.3897 11.3047 12.1989 11.3047 12V6.75C11.3047 6.55109 11.3837 6.36032 11.5244 6.21967C11.665 6.07902 11.8558 6 12.0547 6C12.2536 6 12.4444 6.07902 12.585 6.21967C12.7257 6.36032 12.8047 6.55109 12.8047 6.75V11.25H17.3047C17.5036 11.25 17.6944 11.329 17.835 11.4697C17.9757 11.6103 18.0547 11.8011 18.0547 12Z" fill="url(#paint0_linear_2712_31417)"/>
<defs>
<linearGradient id="paint0_linear_2712_31417" x1="0.354687" y1="12" x2="21.8437" y2="12" gradientUnits="userSpaceOnUse">
<stop stop-color="#FFFA63"/>
<stop offset="1" stop-color="#FFEA04"/>
</linearGradient>
</defs>
</svg>
