<svg width="21" height="20" viewBox="0 0 21 20" fill="none" xmlns="http://www.w3.org/2000/svg">
<path d="M14.6693 18.3335H6.33594C5.99427 18.3335 5.71094 18.0502 5.71094 17.7085C5.71094 17.3668 5.99427 17.0835 6.33594 17.0835H14.6693C15.0109 17.0835 15.2943 17.3668 15.2943 17.7085C15.2943 18.0502 15.0109 18.3335 14.6693 18.3335Z" fill="white"/>
<path d="M14.6693 18.3335H6.33594C5.99427 18.3335 5.71094 18.0502 5.71094 17.7085C5.71094 17.3668 5.99427 17.0835 6.33594 17.0835H14.6693C15.0109 17.0835 15.2943 17.3668 15.2943 17.7085C15.2943 18.0502 15.0109 18.3335 14.6693 18.3335Z" fill="url(#paint0_linear_2712_31400)"/>
<path d="M17.4614 4.6002L14.1281 6.98353C13.6864 7.3002 13.0531 7.10853 12.8614 6.6002L11.2864 2.4002C11.0198 1.6752 9.99478 1.6752 9.72811 2.4002L8.14478 6.59186C7.95311 7.10853 7.32811 7.3002 6.88645 6.9752L3.55311 4.59186C2.88645 4.1252 2.00311 4.78353 2.27811 5.55853L5.74478 15.2669C5.86145 15.6002 6.17811 15.8169 6.52811 15.8169H14.4698C14.8198 15.8169 15.1364 15.5919 15.2531 15.2669L18.7198 5.55853C19.0031 4.78353 18.1198 4.1252 17.4614 4.6002ZM12.5864 12.2919H8.41978C8.07811 12.2919 7.79478 12.0085 7.79478 11.6669C7.79478 11.3252 8.07811 11.0419 8.41978 11.0419H12.5864C12.9281 11.0419 13.2114 11.3252 13.2114 11.6669C13.2114 12.0085 12.9281 12.2919 12.5864 12.2919Z" fill="white"/>
<path d="M17.4614 4.6002L14.1281 6.98353C13.6864 7.3002 13.0531 7.10853 12.8614 6.6002L11.2864 2.4002C11.0198 1.6752 9.99478 1.6752 9.72811 2.4002L8.14478 6.59186C7.95311 7.10853 7.32811 7.3002 6.88645 6.9752L3.55311 4.59186C2.88645 4.1252 2.00311 4.78353 2.27811 5.55853L5.74478 15.2669C5.86145 15.6002 6.17811 15.8169 6.52811 15.8169H14.4698C14.8198 15.8169 15.1364 15.5919 15.2531 15.2669L18.7198 5.55853C19.0031 4.78353 18.1198 4.1252 17.4614 4.6002ZM12.5864 12.2919H8.41978C8.07811 12.2919 7.79478 12.0085 7.79478 11.6669C7.79478 11.3252 8.07811 11.0419 8.41978 11.0419H12.5864C12.9281 11.0419 13.2114 11.3252 13.2114 11.6669C13.2114 12.0085 12.9281 12.2919 12.5864 12.2919Z" fill="url(#paint1_linear_2712_31400)"/>
<defs>
<linearGradient id="paint0_linear_2712_31400" x1="11.3795" y1="17.7085" x2="13.9824" y2="17.7085" gradientUnits="userSpaceOnUse">
<stop stop-color="#634DFD"/>
<stop offset="1" stop-color="#BF48F7"/>
</linearGradient>
<linearGradient id="paint1_linear_2712_31400" x1="12.0145" y1="8.83668" x2="16.509" y2="8.83668" gradientUnits="userSpaceOnUse">
<stop stop-color="#634DFD"/>
<stop offset="1" stop-color="#BF48F7"/>
</linearGradient>
</defs>
</svg>
