<svg width="25" height="24" viewBox="0 0 25 24" fill="none" xmlns="http://www.w3.org/2000/svg">
<g clip-path="url(#clip0_2345_23421)">
<path d="M23.657 8.338L12.407 2.338C12.2984 2.28022 12.1774 2.25 12.0545 2.25C11.9315 2.25 11.8105 2.28022 11.702 2.338L0.451953 8.338C0.331957 8.40195 0.231604 8.49732 0.161628 8.6139C0.0916525 8.73049 0.0546875 8.8639 0.0546875 8.99988C0.0546875 9.13585 0.0916525 9.26926 0.161628 9.38585C0.231604 9.50243 0.331957 9.5978 0.451953 9.66175L3.05445 11.0502V15.5896C3.05367 15.958 3.18926 16.3136 3.43508 16.588C4.6632 17.9558 7.41477 20.2499 12.0545 20.2499C13.5928 20.2626 15.1197 19.9839 16.5545 19.4286V22.4999C16.5545 22.6988 16.6335 22.8896 16.7741 23.0302C16.9148 23.1709 17.1055 23.2499 17.3045 23.2499C17.5034 23.2499 17.6941 23.1709 17.8348 23.0302C17.9754 22.8896 18.0545 22.6988 18.0545 22.4999V18.7039C19.0325 18.1394 19.9162 17.4254 20.6738 16.588C20.9197 16.3136 21.0552 15.958 21.0545 15.5896V11.0502L23.657 9.66175C23.7769 9.5978 23.8773 9.50243 23.9473 9.38585C24.0173 9.26926 24.0542 9.13585 24.0542 8.99988C24.0542 8.8639 24.0173 8.73049 23.9473 8.6139C23.8773 8.49732 23.7769 8.40195 23.657 8.338ZM12.0545 18.7499C7.99789 18.7499 5.61195 16.768 4.55445 15.5896V11.8499L11.702 15.6618C11.8105 15.7195 11.9315 15.7498 12.0545 15.7498C12.1774 15.7498 12.2984 15.7195 12.407 15.6618L16.5545 13.4502V17.7946C15.3732 18.3458 13.8845 18.7499 12.0545 18.7499ZM19.5545 15.5858C19.1049 16.0847 18.6019 16.5327 18.0545 16.9218V12.6496L19.5545 11.8499V15.5858ZM17.6795 11.1505L17.6588 11.1383L12.4088 8.338C12.2337 8.24853 12.0304 8.23145 11.8427 8.29044C11.6551 8.34943 11.4982 8.47976 11.4057 8.65337C11.3132 8.82697 11.2927 9.02994 11.3484 9.21855C11.4042 9.40717 11.5318 9.56633 11.7038 9.66175L16.0857 11.9999L12.0545 14.1496L2.3982 8.99988L12.0545 3.85019L21.7107 8.99988L17.6795 11.1505Z" fill="#7248F7"/>
</g>
<defs>
<clipPath id="clip0_2345_23421">
<rect width="24" height="24" fill="white" transform="translate(0.0546875)"/>
</clipPath>
</defs>
</svg>
