<svg width="58" height="58" viewBox="0 0 58 58" fill="none" xmlns="http://www.w3.org/2000/svg">
<path d="M40.3944 36.4413C40.0331 33.9445 38.8037 31.6622 36.9292 30.0082C35.0547 28.3543 32.6594 27.4385 30.1777 27.4268H27.8648C25.3831 27.4385 22.9878 28.3543 21.1133 30.0082C19.2389 31.6622 18.0094 33.9445 17.6481 36.4413L16.5395 44.324C16.5041 44.5788 16.5275 44.8385 16.6078 45.0825C16.6882 45.3265 16.8233 45.5482 17.0025 45.7299C17.4372 46.172 20.1045 48.4268 29.0234 48.4268C37.9424 48.4268 40.6031 46.1809 41.0444 45.7299C41.2236 45.5482 41.3587 45.3265 41.439 45.0825C41.5194 44.8385 41.5428 44.5788 41.5074 44.324L40.3944 36.4413Z" fill="rgba(0,0,0,0.4)"/>
<path d="M19.5234 28.6116C17.3794 30.5306 15.9844 33.11 15.5747 35.913L14.7539 41.4268C8.16518 41.3837 6.16862 39.0576 5.83585 38.5837C5.70723 38.4116 5.61544 38.2162 5.5659 38.009C5.51637 37.8019 5.5101 37.5872 5.54746 37.3776L6.03551 34.7069C6.28979 33.3111 6.88698 31.9954 7.77646 30.8714C8.66593 29.7474 9.82146 28.8483 11.1451 28.2501C12.4687 27.652 13.9213 27.3725 15.3798 27.4355C16.8383 27.4984 18.2597 27.9018 19.5234 28.6116Z" fill="rgba(0,0,0,0.4)"/>
<path d="M52.4994 37.3776C52.5368 37.5872 52.5305 37.8019 52.481 38.009C52.4314 38.2162 52.3396 38.4116 52.211 38.5837C51.8783 39.0576 49.8817 41.3837 43.293 41.4268L42.4722 35.913C42.0625 33.11 40.6675 30.5306 38.5234 28.6116C39.7872 27.9018 41.2085 27.4984 42.6671 27.4355C44.1256 27.3725 45.5782 27.652 46.9018 28.2501C48.2254 28.8483 49.3809 29.7474 50.2704 30.8714C51.1599 31.9954 51.7571 33.3111 52.0114 34.7069L52.4994 37.3776Z" fill="rgba(0,0,0,0.4)"/>
<path d="M19.5234 23.9176C18.9674 24.6965 18.2293 25.3313 17.3717 25.7682C16.5142 26.205 15.5626 26.4309 14.5977 26.4267C13.6353 26.4267 12.6865 26.2008 11.8298 25.7676C10.973 25.3343 10.2328 24.7062 9.67001 23.935C9.10724 23.1637 8.73806 22.2714 8.59291 21.3316C8.44776 20.3917 8.53079 19.4313 8.83515 18.5294C9.13952 17.6275 9.6565 16.8099 10.3435 16.144C11.0305 15.4782 11.8679 14.9831 12.7866 14.6997C13.7053 14.4162 14.679 14.3524 15.6276 14.5136C16.5761 14.6748 17.4723 15.0563 18.2423 15.6268C18.0208 16.4822 17.9095 17.3619 17.911 18.2449C17.9127 20.246 18.4704 22.2082 19.5234 23.9176Z" fill="rgba(0,0,0,0.4)"/>
<path d="M49.5234 20.4267C49.524 21.2148 49.3673 21.9953 49.0622 22.7235C48.7572 23.4517 48.3098 24.1134 47.7456 24.6706C47.1814 25.2279 46.5116 25.6698 45.7744 25.9711C45.0371 26.2725 44.247 26.4273 43.4491 26.4267C42.4843 26.4309 41.5327 26.205 40.6751 25.7682C39.8176 25.3313 39.0794 24.6965 38.5234 23.9176C39.5765 22.2082 40.1342 20.246 40.1359 18.2449C40.1373 17.3619 40.026 16.4822 39.8046 15.6268C40.707 14.9582 41.7801 14.5511 42.9036 14.451C44.0271 14.3509 45.1567 14.5619 46.1656 15.0602C47.1746 15.5585 48.0232 16.3245 48.6162 17.2724C49.2093 18.2202 49.5234 19.3125 49.5234 20.4267Z" fill="rgba(0,0,0,0.4)"/>
<path d="M29.0234 26.4268C33.7179 26.4268 37.5234 22.6212 37.5234 17.9268C37.5234 13.2323 33.7179 9.42676 29.0234 9.42676C24.329 9.42676 20.5234 13.2323 20.5234 17.9268C20.5234 22.6212 24.329 26.4268 29.0234 26.4268Z" fill="rgba(0,0,0,0.4)"/>
</svg>
