<svg width="48" height="48" viewBox="0 0 48 48" fill="none" xmlns="http://www.w3.org/2000/svg">
<path fill-rule="evenodd" clip-rule="evenodd" d="M16.8575 5.42651C20.6389 5.42651 23.7088 8.46861 23.7088 12.2157C23.7088 15.9627 20.6389 19.0048 16.8575 19.0048C13.0761 19.0048 10.0061 15.9627 10.0061 12.2157C10.0061 8.46861 13.0761 5.42651 16.8575 5.42651ZM26.5174 24.5808C28.363 23.0888 30.7202 22.1927 33.2858 22.1927C39.1986 22.1927 44 26.9505 44 32.8096C44 38.6687 39.1986 43.4265 33.2858 43.4265C27.3731 43.4265 22.5717 38.6687 22.5717 32.8096C22.5717 29.1022 24.4988 26.213 26.5174 24.5808ZM31.8601 38.0091C31.9059 38.7494 32.5273 39.3369 33.2858 39.3369C34.0301 39.3369 34.643 38.7706 34.7087 38.0487C34.8158 38.0218 34.9201 37.9907 35.0201 37.9553C36.3401 37.4924 37.2944 36.4859 37.2944 34.7348C37.2944 33.0205 36.1101 32.1386 34.4487 31.6587C33.873 31.4917 33.2387 31.37 32.6844 31.1859C32.523 31.1321 32.3701 31.0755 32.2373 30.9991C32.193 30.9736 32.1344 30.9594 32.1344 30.9014C32.1344 30.4697 32.4759 30.3097 32.8387 30.2601C33.5744 30.1582 34.4587 30.3762 35.0473 30.7839C35.693 31.2312 36.5844 31.0741 37.0358 30.4343C37.4872 29.793 37.3301 28.9097 36.6829 28.4624C36.1287 28.0787 35.4372 27.7815 34.7115 27.6031C34.6615 26.8656 34.0415 26.2823 33.2858 26.2823C32.5401 26.2823 31.9259 26.85 31.863 27.5734C31.0673 27.7899 30.393 28.2132 29.9316 28.829C29.5345 29.357 29.2773 30.0365 29.2773 30.9014C29.2773 32.6157 30.4616 33.4976 32.123 33.9775C32.6987 34.1445 33.333 34.2663 33.8873 34.4503C34.0487 34.5041 34.2015 34.5621 34.3344 34.6371C34.3787 34.6626 34.4373 34.6768 34.4373 34.7348C34.4373 35.1623 34.0987 35.3124 33.7401 35.3605C32.9944 35.461 32.1016 35.2373 31.5059 34.8396C30.8516 34.4022 29.963 34.5734 29.5216 35.2218C29.0816 35.8687 29.2545 36.7492 29.9073 37.1866C30.4573 37.5547 31.1402 37.8364 31.8601 38.0091ZM22.7617 41.2975C18.1389 41.3031 11.8318 41.3031 8.29614 41.3031C6.00903 41.3031 4.12476 39.5252 4.01334 37.2616C4.01334 37.2489 4.01334 37.2347 4.01191 37.222C3.96334 34.8537 4.03762 31.1789 4.72618 27.0369C5.09047 24.8484 6.98044 22.0965 8.90613 20.9343C8.9847 20.8875 9.06185 20.8408 9.13899 20.7955C9.62898 20.5053 10.2475 20.5322 10.7104 20.8663C12.4875 22.146 14.6746 22.9005 17.0375 22.9005C19.4003 22.9005 21.5874 22.146 23.3645 20.8663C23.8245 20.5351 24.4374 20.5068 24.9274 20.7913C25.0074 20.838 25.0874 20.8861 25.1688 20.9343C25.4331 21.0928 25.6959 21.2811 25.9545 21.492C25.5231 21.768 25.1074 22.0667 24.7117 22.3881C22.1545 24.4548 19.7146 28.1155 19.7146 32.8096C19.7146 36.0272 20.8574 38.9816 22.7617 41.2975Z" fill="rgba(0,0,0,0.1)"/>
</svg>
