<svg width="58" height="58" viewBox="0 0 58 58" fill="none" xmlns="http://www.w3.org/2000/svg">
<path d="M41.6717 35.4122C39.1993 35.4122 37.0205 36.6284 35.6521 38.478L23.8205 32.4196C24.0169 31.7501 24.155 31.0562 24.155 30.324C24.155 29.3308 23.9514 28.3867 23.5996 27.5183L35.9819 20.0671C37.3599 21.6844 39.3853 22.7334 41.6717 22.7334C45.8115 22.7334 49.1789 19.3659 49.1789 15.2262C49.1789 11.0865 45.8115 7.71899 41.6717 7.71899C37.532 7.71899 34.1646 11.0865 34.1646 15.2262C34.1646 16.1802 34.361 17.0851 34.6869 17.9253L22.2678 25.3982C20.8909 23.8291 18.8947 22.8168 16.6478 22.8168C12.5081 22.8168 9.14062 26.1842 9.14062 30.324C9.14062 34.4637 12.5081 37.8311 16.6478 37.8311C19.161 37.8311 21.3766 36.5792 22.7399 34.6776L34.5325 40.7163C34.3153 41.4175 34.1646 42.1478 34.1646 42.9193C34.1646 47.059 37.532 50.4265 41.6717 50.4265C45.8115 50.4265 49.1789 47.059 49.1789 42.9193C49.1789 38.7796 45.8115 35.4122 41.6717 35.4122Z" fill="rgba(255,255,255,0.5)"/>
</svg>
