<svg width="25" height="24" viewBox="0 0 25 24" fill="none" xmlns="http://www.w3.org/2000/svg">
<path d="M22.6953 19.5C22.6953 19.6989 22.6163 19.8897 22.4756 20.0303C22.335 20.171 22.1442 20.25 21.9453 20.25H3.94531C3.7464 20.25 3.55563 20.171 3.41498 20.0303C3.27433 19.8897 3.19531 19.6989 3.19531 19.5V4.5C3.19531 4.30109 3.27433 4.11032 3.41498 3.96967C3.55563 3.82902 3.7464 3.75 3.94531 3.75C4.14422 3.75 4.33499 3.82902 4.47564 3.96967C4.61629 4.11032 4.69531 4.30109 4.69531 4.5V14.6897L9.41469 9.96937C9.48434 9.89964 9.56706 9.84432 9.65811 9.80658C9.74916 9.76884 9.84675 9.74941 9.94531 9.74941C10.0439 9.74941 10.1415 9.76884 10.2325 9.80658C10.3236 9.84432 10.4063 9.89964 10.4759 9.96937L12.9453 12.4397L17.885 7.5H15.9453C15.7464 7.5 15.5556 7.42098 15.415 7.28033C15.2743 7.13968 15.1953 6.94891 15.1953 6.75C15.1953 6.55109 15.2743 6.36032 15.415 6.21967C15.5556 6.07902 15.7464 6 15.9453 6H19.6953C19.8942 6 20.085 6.07902 20.2256 6.21967C20.3663 6.36032 20.4453 6.55109 20.4453 6.75V10.5C20.4453 10.6989 20.3663 10.8897 20.2256 11.0303C20.085 11.171 19.8942 11.25 19.6953 11.25C19.4964 11.25 19.3056 11.171 19.165 11.0303C19.0243 10.8897 18.9453 10.6989 18.9453 10.5V8.56031L13.4759 14.0306C13.4063 14.1004 13.3236 14.1557 13.2325 14.1934C13.1415 14.2312 13.0439 14.2506 12.9453 14.2506C12.8468 14.2506 12.7492 14.2312 12.6581 14.1934C12.5671 14.1557 12.4843 14.1004 12.4147 14.0306L9.94531 11.5603L4.69531 16.8103V18.75H21.9453C22.1442 18.75 22.335 18.829 22.4756 18.9697C22.6163 19.1103 22.6953 19.3011 22.6953 19.5Z" fill="#7248F7"/>
</svg>
