<svg width="25" height="24" viewBox="0 0 25 24" fill="none" xmlns="http://www.w3.org/2000/svg">
<path d="M10.7718 14.4693L19.7718 5.46927C19.8415 5.39959 19.9242 5.34431 20.0152 5.3066C20.1063 5.26889 20.2039 5.24948 20.3024 5.24948C20.401 5.24948 20.4985 5.26889 20.5896 5.3066C20.6806 5.34431 20.7634 5.39959 20.833 5.46927C20.9027 5.53895 20.958 5.62168 20.9957 5.71272C21.0334 5.80377 21.0528 5.90135 21.0528 5.9999C21.0528 6.09844 21.0334 6.19602 20.9957 6.28707C20.958 6.37811 20.9027 6.46084 20.833 6.53052L11.833 15.5305C11.7634 15.6002 11.6806 15.6555 11.5896 15.6932C11.4985 15.7309 11.401 15.7503 11.3024 15.7503C11.2039 15.7503 11.1063 15.7309 11.0152 15.6932C10.9242 15.6555 10.8415 15.6002 10.7718 15.5305C10.7021 15.4608 10.6468 15.3781 10.6091 15.2871C10.5714 15.196 10.552 15.0984 10.552 14.9999C10.552 14.9014 10.5714 14.8038 10.6091 14.7127C10.6468 14.6217 10.7021 14.539 10.7718 14.4693ZM12.0524 8.2499C12.7039 8.24907 13.3511 8.35452 13.9687 8.56208C14.0624 8.59532 14.1619 8.60958 14.2612 8.60403C14.3605 8.59847 14.4577 8.57321 14.5472 8.52972C14.6367 8.48623 14.7166 8.42537 14.7823 8.3507C14.848 8.27602 14.8982 8.18902 14.93 8.09476C14.9618 8.00049 14.9745 7.90085 14.9674 7.80163C14.9603 7.7024 14.9335 7.60559 14.8886 7.51681C14.8437 7.42804 14.7816 7.34908 14.7059 7.28453C14.6303 7.21998 14.5425 7.17113 14.4477 7.14083C13.2525 6.7379 11.975 6.6429 10.7334 6.86462C9.49173 7.08634 8.32605 7.61762 7.34417 8.4093C6.36229 9.20099 5.59593 10.2275 5.11599 11.3939C4.63604 12.5603 4.45801 13.8289 4.59836 15.0824C4.61865 15.2657 4.70578 15.4351 4.84309 15.5583C4.98041 15.6814 5.15829 15.7496 5.34273 15.7499C5.36992 15.7499 5.39805 15.7499 5.42617 15.7452C5.62383 15.7233 5.80468 15.6238 5.92898 15.4685C6.05327 15.3133 6.11083 15.1151 6.08898 14.9174C6.06458 14.6957 6.05237 14.4729 6.05242 14.2499C6.05416 12.6591 6.68686 11.134 7.8117 10.0092C8.93654 8.88433 10.4617 8.25163 12.0524 8.2499ZM21.403 9.46865C21.3581 9.38099 21.2963 9.30304 21.2213 9.23925C21.1462 9.17546 21.0593 9.12709 20.9656 9.09688C20.8718 9.06667 20.773 9.05522 20.6748 9.0632C20.5767 9.07117 20.481 9.0984 20.3934 9.14333C20.3057 9.18827 20.2278 9.25003 20.164 9.32509C20.1002 9.40016 20.0518 9.48705 20.0216 9.5808C19.9914 9.67456 19.9799 9.77335 19.9879 9.87153C19.9959 9.96971 20.0231 10.0654 20.068 10.153C20.6229 11.2427 20.9506 12.4337 21.0312 13.6538C21.1118 14.8739 20.9436 16.0977 20.5368 17.2508L3.55867 17.2443C3.08498 15.8864 2.94272 14.435 3.14377 13.011C3.34481 11.5871 3.88333 10.2318 4.71443 9.05813C5.54553 7.88449 6.64513 6.92653 7.92158 6.26409C9.19802 5.60165 10.6143 5.25392 12.0524 5.2499H12.1349C13.5317 5.25868 14.9069 5.59589 16.1493 6.23427C16.2372 6.28265 16.3339 6.31289 16.4337 6.32322C16.5335 6.33355 16.6344 6.32375 16.7303 6.29441C16.8262 6.26506 16.9153 6.21676 16.9923 6.15237C17.0692 6.08798 17.1324 6.00881 17.1782 5.91954C17.224 5.83027 17.2514 5.73272 17.2589 5.63267C17.2663 5.53261 17.2536 5.43209 17.2214 5.33704C17.1893 5.24199 17.1384 5.15436 17.0718 5.07933C17.0052 5.00429 16.9242 4.94338 16.8337 4.90021C14.9633 3.9422 12.8485 3.56744 10.7629 3.82442C8.67723 4.08139 6.71666 4.95827 5.13479 6.34162C3.55292 7.72498 2.42253 9.55116 1.88983 11.5839C1.35714 13.6167 1.44665 15.7626 2.1468 17.744C2.25022 18.0375 2.44203 18.2918 2.69585 18.472C2.94967 18.6521 3.25305 18.7492 3.5643 18.7499H20.5396C20.8507 18.7501 21.1541 18.6536 21.4079 18.4737C21.6617 18.2938 21.8533 18.0394 21.9562 17.7458C22.4292 16.4004 22.6241 14.973 22.529 13.55C22.4339 12.1271 22.0509 10.7382 21.403 9.46771V9.46865Z" fill="url(#paint0_linear_2712_31413)"/>
<defs>
<linearGradient id="paint0_linear_2712_31413" x1="-0.553682" y1="11.2478" x2="22.5945" y2="11.2478" gradientUnits="userSpaceOnUse">
<stop stop-color="#FFFA63"/>
<stop offset="1" stop-color="#FFEA04"/>
</linearGradient>
</defs>
</svg>
