<svg width="121" height="121" viewBox="0 0 121 121" fill="none" xmlns="http://www.w3.org/2000/svg">
<g clip-path="url(#clip0_2712_27397)">
<path d="M96.6437 47.2093C97.3136 49.0555 99.3491 49.9674 101.148 49.3105L114.421 44.48C116.244 43.8174 117.161 41.8159 116.502 39.9927C115.849 38.18 113.855 37.2357 112.018 37.8744H112.014C111.97 37.8812 111.952 37.895 111.925 37.9086L98.7449 42.7048C96.9182 43.3674 95.9776 45.3861 96.6437 47.2093Z" fill="white"/>
<path d="M101.19 21.5562L90.3653 30.6406C88.8787 31.8868 88.683 34.1047 89.9327 35.5913C91.1592 37.0604 93.3745 37.2891 94.8834 36.0239L105.708 26.9396C107.195 25.6934 107.391 23.4755 106.141 21.9889C104.898 20.5055 102.687 20.3098 101.19 21.5562Z" fill="white"/>
<path d="M90.2312 8.63706C88.5523 7.66206 86.3996 8.24213 85.4281 9.92448L78.3626 22.164C77.3909 23.8464 77.9677 25.9956 79.6501 26.9671C81.316 27.9296 83.472 27.373 84.4531 25.6796L91.5186 13.4401C92.4903 11.758 91.9135 9.60877 90.2312 8.63706Z" fill="white"/>
<path d="M71.1089 19.5238L73.5638 5.37462C73.9036 3.46235 72.6265 1.63938 70.7142 1.30282C68.7848 0.938837 66.9755 2.24009 66.6424 4.15235L64.1876 18.3016C63.8477 20.2138 65.1248 22.037 67.0371 22.3734C68.9173 22.7179 70.7712 21.4541 71.1089 19.5238Z" fill="white"/>
<path d="M47.9097 60.9457C44.2361 63.2048 39.2031 66.2946 39.2031 74.4897C39.2031 76.4329 40.7755 78.0054 42.7188 78.0054H56.7812C58.7245 78.0054 60.2969 76.4329 60.2969 74.4897C60.2969 72.5465 58.7245 70.9741 56.7812 70.9741H46.9314C47.7484 69.3708 49.2899 68.3512 51.5903 66.9401C55.2639 64.6809 60.2969 61.5912 60.2969 53.396C60.2969 47.5802 55.5658 42.8491 49.75 42.8491C43.9342 42.8491 39.2031 47.5802 39.2031 53.396C39.2031 55.3392 40.7755 56.9116 42.7188 56.9116C44.662 56.9116 46.2344 55.3392 46.2344 53.396C46.2344 51.4563 47.8103 49.8804 49.75 49.8804C51.6897 49.8804 53.2656 51.4563 53.2656 53.396C53.2656 57.4781 51.5282 58.7278 47.9097 60.9457Z" fill="white"/>
<path d="M60.9598 69.5148C61.6224 70.4315 62.6834 70.974 63.8128 70.974H74.3597V74.4897C74.3597 76.4329 75.9321 78.0053 77.8753 78.0053C79.8185 78.0053 81.391 76.4329 81.391 74.4897V70.974H84.9066C86.8498 70.974 88.4222 69.4016 88.4222 67.4584C88.4222 65.5152 86.8498 63.9428 84.9066 63.9428H81.391V53.3959C81.391 51.4527 79.8185 49.8803 77.8753 49.8803C75.9321 49.8803 74.3597 51.4527 74.3597 53.3959V63.9428H68.6913L74.1776 47.477C74.7921 45.6334 73.7965 43.6422 71.9562 43.0309C70.1056 42.4096 68.1246 43.412 67.5101 45.2523L60.4789 66.3461C60.1186 67.4169 60.3005 68.598 60.9598 69.5148Z" fill="white"/>
<path d="M116.781 56.9114H109.749C107.808 56.9114 106.234 58.485 106.234 60.427C106.234 85.6269 85.4964 106.364 60.2965 106.364C35.0967 106.364 14.3593 85.6269 14.3593 60.427C14.3593 52.5589 16.6226 45.1712 20.146 38.7069L24.4641 43.0241C25.3962 43.9562 26.7553 44.2747 27.9694 43.903C29.2087 43.5287 30.1425 42.4989 30.3965 41.2286L35.3678 16.3721C35.5978 15.2185 35.2373 14.0272 34.4064 13.1963C33.5756 12.3654 32.3807 12.0221 31.2307 12.2349L6.37114 17.2064C5.10083 17.4605 4.07099 18.3942 3.6967 19.6336C3.3224 20.8765 3.65896 22.2223 4.5756 23.1389L9.86354 28.4261C3.96271 37.671 0.296875 48.6397 0.296875 60.427C0.296875 93.4343 27.2892 120.427 60.2965 120.427C93.3038 120.427 120.296 93.4343 120.296 60.427C120.296 58.4848 118.722 56.9114 116.781 56.9114Z" fill="white"/>
<path d="M53.6205 22.3735C55.5327 22.037 56.8098 20.214 56.47 18.3017L53.8745 3.33197C53.538 1.4197 51.6911 0.139079 49.8027 0.482438C47.8905 0.819001 46.6134 2.64197 46.9532 4.55424L49.5487 19.524C49.8873 21.4595 51.7445 22.7174 53.6205 22.3735Z" fill="white"/>
</g>
<defs>
<clipPath id="clip0_2712_27397">
<rect width="120" height="120" fill="white" transform="translate(0.296875 0.426758)"/>
</clipPath>
</defs>
</svg>
