<svg width="254" height="120" viewBox="0 0 254 120" fill="none" xmlns="http://www.w3.org/2000/svg">
<rect y="0.862305" width="77.365" height="75.7683" rx="37.8842" fill="#F74848"/>
<path d="M34.0189 20.8279C32.1126 20.8279 30.5315 22.2343 30.0788 24.1347C30.0278 24.1347 29.9896 24.121 29.9386 24.121C27.688 24.121 25.8582 26.09 25.8582 28.5118C25.8582 28.8411 25.8965 29.1635 25.9666 29.4722C24.105 30.2955 22.798 32.2576 22.798 34.5491C22.798 35.4135 23.002 36.2162 23.3271 36.9434C21.797 37.8902 20.7578 39.6465 20.7578 41.6841C20.7578 43.9687 22.0584 45.9308 23.9073 46.7541C23.8499 47.0697 23.8181 47.3921 23.8181 47.7215C23.8181 50.452 25.871 52.6611 28.4084 52.6611C28.6698 52.6611 28.9248 52.6268 29.1735 52.5788C29.7855 54.534 31.4814 55.9542 33.5088 55.9542C36.0463 55.9542 38.0992 53.7451 38.0992 51.0145V25.2187C38.0992 22.7969 36.2694 20.8279 34.0189 20.8279ZM57.4808 41.6841C57.4808 39.6465 56.4416 37.8902 54.9114 36.9434C55.243 36.2162 55.4406 35.4135 55.4406 34.5491C55.4406 32.2576 54.1336 30.2955 52.272 29.4722C52.3357 29.1635 52.3804 28.8411 52.3804 28.5118C52.3804 26.09 50.5506 24.121 48.3 24.121C48.249 24.121 48.2044 24.1347 48.1598 24.1347C47.7071 22.2343 46.126 20.8279 44.2197 20.8279C41.9691 20.8279 40.1394 22.79 40.1394 25.2187V51.0145C40.1394 53.7451 42.1923 55.9542 44.7297 55.9542C46.7572 55.9542 48.453 54.534 49.0651 52.5788C49.3137 52.6268 49.5688 52.6611 49.8301 52.6611C52.3676 52.6611 54.4205 50.452 54.4205 47.7215C54.4205 47.3921 54.3886 47.0697 54.3313 46.7541C56.1802 45.9308 57.4808 43.9687 57.4808 41.6841Z" fill="white"/>
<rect x="90.1406" y="1.52161" width="74.4495" height="74.4496" rx="37.2247" fill="url(#paint0_linear_2833_20927)"/>
<path d="M142.368 46.3738C144.167 46.3738 145.639 44.9368 145.639 43.1805V25.6174C145.639 23.8611 144.167 22.4241 142.368 22.4241H127.259C126.315 22.4241 125.69 23.4296 125.88 24.354C126.02 25.0368 126.577 25.6174 127.274 25.6174H139.83C141.232 25.6174 142.368 26.7537 142.368 28.1554V40.6425C142.368 42.0442 141.232 43.1805 139.83 43.1805H130.186C128.784 43.1805 127.648 44.3168 127.648 45.7186V46.3738M132.593 30.4073C133.475 30.4073 134.19 31.1222 134.19 32.004C134.19 32.8858 133.475 33.6006 132.593 33.6006H126.914C125.513 33.6006 124.376 34.7369 124.376 36.1387V52.7215C124.376 53.6248 123.644 54.3571 122.741 54.3571C121.837 54.3571 121.105 53.6248 121.105 52.7215V46.4128C121.105 45.5095 120.373 44.7772 119.47 44.7772C118.566 44.7772 117.834 45.5095 117.834 46.4128V52.7215C117.834 53.6248 117.102 54.3571 116.198 54.3571C115.295 54.3571 114.563 53.6248 114.563 52.7215V42.8106C114.563 42.1331 114.014 41.5839 113.336 41.5839C112.659 41.5839 112.109 41.0347 112.109 40.3572V33.6006C112.109 31.8443 113.581 30.4073 115.381 30.4073H132.593ZM122.741 25.6174C122.741 27.3737 121.269 28.8107 119.47 28.8107C117.67 28.8107 116.198 27.3737 116.198 25.6174C116.198 23.8611 117.67 22.4241 119.47 22.4241C121.269 22.4241 122.741 23.8611 122.741 25.6174ZM137.461 30.4463C137.461 29.543 138.193 28.8107 139.097 28.8107C140 28.8107 140.732 29.543 140.732 30.4463V39.9483C140.732 40.8516 140 41.5839 139.097 41.5839C138.193 41.5839 137.461 40.8516 137.461 39.9483V30.4463ZM132.554 36.8329C132.554 35.9296 133.287 35.1973 134.19 35.1973C135.093 35.1973 135.825 35.9296 135.825 36.8329V39.9483C135.825 40.8516 135.093 41.5839 134.19 41.5839C133.287 41.5839 132.554 40.8516 132.554 39.9483V36.8329ZM127.648 36.8329C127.648 35.9296 128.38 35.1973 129.283 35.1973C130.186 35.1973 130.919 35.9296 130.919 36.8329V39.9483C130.919 40.8516 130.186 41.5839 129.283 41.5839C128.38 41.5839 127.648 40.8516 127.648 39.9483V36.8329Z" fill="white"/>
<rect x="177.359" y="0.42688" width="76.6392" height="76.6392" rx="38.3196" fill="url(#paint1_linear_2833_20927)"/>
<path d="M213.324 26.1874C214.092 25.8123 214.932 25.6177 215.783 25.6177C216.633 25.6177 217.473 25.8123 218.241 26.1874L232.508 33.1512C232.756 33.2724 232.967 33.4633 233.115 33.702C233.263 33.9406 233.343 34.2175 233.345 34.5008C233.347 34.7841 233.272 35.0624 233.128 35.3037C232.984 35.5451 232.777 35.7398 232.531 35.8655L218.335 43.1218C217.542 43.5274 216.668 43.7384 215.783 43.7384C214.897 43.7384 214.023 43.5274 213.23 43.1218L201.147 36.9452V43.713C201.147 44.1129 200.993 44.4964 200.719 44.7792C200.444 45.062 200.072 45.2209 199.684 45.2209C199.296 45.2209 198.923 45.062 198.649 44.7792C198.375 44.4964 198.22 44.1129 198.22 43.713V34.5898C198.207 34.2917 198.279 33.9961 198.428 33.7401C198.577 33.4842 198.796 33.2793 199.058 33.1512L213.324 26.1874ZM204.074 41.8099V46.7289C204.074 46.9272 204.113 47.1237 204.186 47.3069C204.26 47.4901 204.368 47.6565 204.505 47.7965L204.511 47.8056L204.578 47.8689L204.754 48.0378C205.671 48.8802 206.663 49.6324 207.716 50.2847C209.671 51.494 212.496 52.7607 215.783 52.7607C219.07 52.7607 221.894 51.494 223.852 50.2847C224.906 49.6324 225.897 48.8802 226.815 48.0378L226.99 47.8689L227.037 47.8206L227.055 47.8025L227.057 47.7995L227.063 47.7965C227.199 47.6562 227.307 47.4897 227.38 47.3065C227.453 47.1233 227.491 46.927 227.491 46.7289V41.8069L219.635 45.8241C218.437 46.4359 217.119 46.7542 215.783 46.7542C214.446 46.7542 213.128 46.4359 211.931 45.8241L204.074 41.8099Z" fill="white"/>
<rect x="43.9766" y="77.7526" width="76.6392" height="76.6392" rx="38.3196" fill="url(#paint2_linear_2833_20927)"/>
<path fill-rule="evenodd" clip-rule="evenodd" d="M67.2089 103.164C66.9111 103.164 66.6254 103.277 66.4148 103.479C66.2043 103.68 66.0859 103.953 66.0859 104.238C66.0859 104.523 66.2043 104.796 66.4148 104.998C66.6254 105.199 66.9111 105.312 67.2089 105.312H70.2035V116.41C70.2035 120.798 70.2035 122.992 71.7068 124.355C73.2101 125.718 75.6297 125.718 80.4704 125.718H81.0589V130.783L78.6857 131.918C78.5526 131.98 78.4337 132.067 78.3358 132.173C78.238 132.28 78.1632 132.404 78.1157 132.538C78.0682 132.672 78.049 132.814 78.0591 132.956C78.0692 133.097 78.1085 133.235 78.1747 133.362C78.2409 133.489 78.3327 133.602 78.4448 133.695C78.5569 133.787 78.6871 133.858 78.8278 133.902C78.9686 133.947 79.1171 133.964 79.2649 133.953C79.4127 133.942 79.5568 133.904 79.6889 133.839L82.1819 132.648L84.6749 133.839C84.8069 133.904 84.951 133.942 85.0988 133.953C85.2466 133.964 85.3951 133.947 85.5359 133.902C85.6766 133.858 85.8068 133.787 85.9189 133.695C86.031 133.602 86.1228 133.489 86.189 133.362C86.2552 133.235 86.2945 133.097 86.3046 132.956C86.3147 132.814 86.2955 132.672 86.248 132.538C86.2005 132.404 86.1257 132.28 86.0279 132.173C85.93 132.067 85.8111 131.98 85.678 131.918L83.3048 130.782V125.718H83.8933C88.7325 125.718 91.1536 125.718 92.6569 124.355C94.1602 122.992 94.1602 120.798 94.1602 116.41V105.312H97.1548C97.4526 105.312 97.7383 105.199 97.9489 104.998C98.1595 104.796 98.2778 104.523 98.2778 104.238C98.2778 103.953 98.1595 103.68 97.9489 103.479C97.7383 103.277 97.4526 103.164 97.1548 103.164H67.2089ZM87.4673 112.787C87.6776 112.989 87.7957 113.262 87.7957 113.546C87.7957 113.831 87.6776 114.104 87.4673 114.305L85.4954 116.193C85.2831 116.405 85.0571 116.604 84.8186 116.788C84.4963 117.04 84.095 117.181 83.6792 117.188C83.2633 117.181 82.862 117.04 82.5397 116.788C82.3012 116.604 82.0752 116.405 81.8629 116.193L80.9496 115.319L80.6846 115.066L80.4195 115.316L78.4835 117.169C78.3807 117.275 78.2568 117.359 78.119 117.418C77.9813 117.477 77.8326 117.508 77.6818 117.511C77.531 117.513 77.3812 117.487 77.2414 117.433C77.1016 117.379 76.9745 117.298 76.8679 117.196C76.7613 117.095 76.6772 116.973 76.6207 116.839C76.5642 116.706 76.5365 116.562 76.5392 116.418C76.5418 116.274 76.5748 116.132 76.6362 116C76.6976 115.868 76.7861 115.75 76.8964 115.651L78.8683 113.764C79.0855 113.556 79.3205 113.331 79.5451 113.168C79.8674 112.917 80.2687 112.776 80.6846 112.769C81.1847 112.769 81.5605 112.976 81.824 113.168C82.0486 113.331 82.2837 113.556 82.5008 113.764L83.4141 114.637L83.6792 114.889L83.9442 114.639L85.8802 112.787C86.0907 112.586 86.3762 112.473 86.6737 112.473C86.9713 112.473 87.2567 112.586 87.4673 112.787Z" fill="white"/>
<rect x="133.391" y="77.7527" width="76.6392" height="76.6392" rx="38.3196" fill="#111111"/>
<path d="M173.635 110.927H182.417L173.635 102.145V110.927ZM162.459 99.7504H175.232L184.812 109.33V128.49C184.812 129.337 184.476 130.149 183.877 130.748C183.278 131.347 182.466 131.683 181.619 131.683H162.459C161.612 131.683 160.8 131.347 160.201 130.748C159.602 130.149 159.266 129.337 159.266 128.49V102.944C159.266 101.171 160.687 99.7504 162.459 99.7504ZM164.056 128.49H167.249V118.91H164.056V128.49ZM170.442 128.49H173.635V115.717H170.442V128.49ZM176.829 128.49H180.022V122.103H176.829V128.49Z" fill="white"/>
<defs>
<linearGradient id="paint0_linear_2833_20927" x1="127.365" y1="1.52161" x2="127.365" y2="75.9712" gradientUnits="userSpaceOnUse">
<stop stop-color="#3761FB"/>
<stop offset="1" stop-color="#37A9FB"/>
</linearGradient>
<linearGradient id="paint1_linear_2833_20927" x1="215.679" y1="0.42688" x2="215.679" y2="77.0661" gradientUnits="userSpaceOnUse">
<stop stop-color="#7248F7"/>
<stop offset="1" stop-color="#BF48F7"/>
</linearGradient>
<linearGradient id="paint2_linear_2833_20927" x1="39.2844" y1="77.7526" x2="135.57" y2="126.261" gradientUnits="userSpaceOnUse">
<stop stop-color="#F7841A"/>
<stop offset="1" stop-color="#F74848"/>
</linearGradient>
</defs>
</svg>
