<svg width="1440" height="567" viewBox="0 0 1440 567" fill="none" xmlns="http://www.w3.org/2000/svg">
<g opacity="0.5">
<path d="M22.3906 494.532C75.8676 467.715 123.247 430.17 161.574 384.236C218.061 315.695 214.989 273.704 269.244 234.549C321.976 196.523 394.351 186.045 453.071 200.41C533.193 220.027 536.817 273.415 639.524 357.975C699.924 407.661 813.187 500.939 946.777 491.906C1014.27 487.336 1081.36 457.031 1143.73 428.879C1220.18 394.373 1231.16 376.647 1272.41 368.479C1321.42 358.763 1397.18 365.67 1506.14 452.514" stroke="url(#paint0_linear_1545_28512)" stroke-width="0.382926" stroke-miterlimit="10"/>
<path d="M20.8906 484.712C69.0784 461.153 112.52 428.929 149.044 389.647C152.537 385.84 156.03 381.927 159.549 377.909C216.614 311.521 214.355 271.421 267.928 233.238C291.28 216.529 317.721 204.63 345.713 198.232C365.763 193.667 386.327 191.76 406.874 192.559C422.24 193.165 437.489 195.5 452.332 199.519C468.872 203.77 484.596 210.727 498.867 220.107C525.128 237.439 543.51 260.838 571.793 290.197C593.098 312.293 616.277 332.502 641.07 350.597C654.2 360.314 669.537 372.026 687.263 384.028C734.69 416.223 795.379 451.203 868.201 463.283C892.911 467.499 918.018 468.909 943.045 467.485C946.879 467.275 950.687 466.96 954.442 466.592C991.628 462.994 1027.05 453.461 1063.24 440.804C1090.32 431.455 1115.92 419.795 1141.32 408.844C1151.95 404.17 1161.46 399.915 1170.04 395.924C1221.91 371.738 1235.38 358.765 1270.81 353.092C1297.73 348.785 1332.55 349.547 1376.74 364.883C1412.99 377.436 1455.9 400.047 1506.13 437.442" stroke="url(#paint1_linear_1545_28512)" stroke-width="0.382926" stroke-miterlimit="10"/>
<path d="M19.5 474.837C67.1887 452.169 110.363 421.025 146.918 382.924C150.42 379.247 153.921 375.483 157.423 371.632C215.197 307.371 213.805 269.214 266.642 231.924C290.05 214.997 316.575 202.868 344.69 196.235C364.858 191.641 385.557 189.803 406.219 190.773C421.608 191.557 436.845 194.203 451.598 198.651C468.056 203.408 483.694 210.642 497.975 220.106C525.286 237.964 544.667 260.6 572.635 288.017C594.04 308.826 617.487 327.425 642.621 343.532C655.751 352.146 670.746 362.703 688.288 373.155C735.033 401.018 792.019 430.246 864.106 439.779C889.011 443.21 914.179 444.335 939.291 443.14C943.177 442.93 947.012 442.667 950.793 442.326C988.609 439.017 1023.14 430.85 1060.07 419.584C1087.88 411.075 1113.24 399.626 1138.85 388.832C1149.48 384.368 1159.1 380.298 1167.89 376.49C1219.92 353.879 1233.86 341.957 1269.15 337.755C1296.05 334.551 1330.61 336.311 1375.04 351.831C1411.33 364.541 1454.79 386.732 1506.13 422.315" stroke="url(#paint2_linear_1545_28512)" stroke-width="0.382926" stroke-miterlimit="10"/>
<path d="M17.8438 465.117C65.1426 443.307 108.14 413.18 144.789 376.171C148.282 372.6 151.801 368.976 155.294 365.273C213.829 303.166 213.173 266.899 265.301 230.607C289.986 213.432 314.304 201.063 343.585 194.209C363.889 189.577 384.741 187.809 405.535 188.957C420.953 189.926 436.18 192.892 450.835 197.781C467.219 203.039 482.793 210.552 497.107 220.102C525.416 238.485 545.768 260.308 573.447 285.755C594.971 305.288 618.706 322.236 644.168 336.254C657.43 343.765 671.978 353.166 689.311 362.069C735.609 385.861 788.656 409.155 860.007 416.193C885.108 418.829 910.366 419.663 935.586 418.687C939.499 418.504 943.464 418.267 947.141 417.952C984.245 414.913 1020.97 408.309 1056.81 398.23C1085.35 390.588 1110.51 379.244 1136.43 368.739C1147.07 364.432 1156.76 360.572 1165.79 356.948C1217.94 335.939 1232.39 325.12 1267.52 322.31C1294.42 320.157 1328.79 322.993 1373.38 338.697C1409.75 351.407 1453.69 373.44 1506.13 407.343" stroke="url(#paint3_linear_1545_28512)" stroke-width="0.382926" stroke-miterlimit="10"/>
<path d="M16.3203 455.327C63.162 434.365 105.933 405.294 142.662 369.454C146.155 365.987 149.7 362.521 153.166 358.949C212.332 298.89 212.595 264.751 263.988 229.273C289.224 211.914 312.728 199.204 342.534 192.192C362.955 187.515 383.946 185.825 404.851 187.177C420.34 188.3 435.596 191.579 450.178 196.919C466.452 202.637 481.945 210.374 496.292 219.95C525.599 238.884 547.055 259.814 574.34 283.528C593.589 300.23 616.357 314.831 645.796 329.012C659.163 335.472 673.396 343.744 690.44 351.071C736.554 370.898 785.399 388.099 855.884 392.642C881.145 394.505 906.486 395.057 931.804 394.296C935.77 394.139 939.682 393.929 943.438 393.666C980.609 391.229 1017.51 385.642 1053.73 376.964C1083.07 370.189 1107.86 358.923 1134.04 348.786C1144.54 344.637 1154.5 340.908 1163.74 337.52C1216 317.982 1230.94 308.397 1265.98 307.005C1292.87 305.928 1327.01 309.789 1371.78 325.65C1408.15 338.544 1452.61 360.183 1506.13 392.353" stroke="url(#paint4_linear_1545_28512)" stroke-width="0.382926" stroke-miterlimit="10"/>
<path d="M14.8281 445.528C61.202 425.4 103.735 397.385 140.539 362.728C144.032 359.393 147.577 356.084 151.044 352.67C210.919 294.896 211.996 262.464 262.627 227.983C288.415 210.415 311.104 197.363 341.41 190.194C361.966 185.476 383.113 183.865 404.147 185.414C419.639 186.7 434.853 190.284 449.29 196.05C465.467 202.25 480.893 210.258 495.273 219.921C525.604 239.354 548.189 259.312 575.027 281.293C594.854 297.469 618.122 310.18 647.219 321.787C660.743 327.197 674.661 334.287 691.337 340.17C737.635 356.189 781.99 367.14 851.739 369.24C875.978 369.976 902.791 370.895 928.027 370.028C932.045 369.897 935.906 369.713 939.74 369.503C976.921 367.669 1013.92 363.105 1050.43 355.847C1080.5 349.939 1105.11 338.752 1131.58 328.825C1142.21 324.833 1152.11 321.393 1161.59 318.137C1213.96 299.938 1229.48 291.009 1264.27 291.561C1291.16 291.981 1325.09 296.471 1370.03 312.569C1406.42 325.7 1451.44 346.892 1506.03 377.303" stroke="url(#paint5_linear_1545_28512)" stroke-width="0.382926" stroke-miterlimit="10"/>
<path d="M13.3047 435.759C59.2193 416.444 101.522 389.476 138.412 356.004C141.905 352.801 145.476 349.623 148.916 346.367C209.527 290.694 211.417 260.257 261.287 226.669C287.548 208.943 309.476 195.524 340.333 188.171C360.985 183.442 382.241 181.91 403.359 183.628C418.902 185.093 434.117 188.992 448.449 195.183C464.494 201.893 479.843 210.161 494.274 219.868C525.604 239.852 549.423 258.944 575.683 279.086C596.115 294.843 619.907 305.505 648.61 314.565C662.345 318.924 677.287 321.445 692.203 329.034C740.602 331.057 778.681 350.043 847.458 345.579C871.75 343.977 898.982 346.209 924.114 345.579C928.185 345.448 932.124 345.316 935.905 345.132C976.4 343.215 1007.39 340.983 1047.09 334.628C1077.9 329.612 1102.24 318.478 1129 308.866C1139.51 305.032 1149.62 301.776 1159.33 298.703C1211.72 282.106 1227.8 275.068 1262.54 276.381C1289.46 277.458 1323.18 283.393 1368.27 299.622C1404.72 312.753 1450.2 333.761 1505.93 362.412" stroke="url(#paint6_linear_1545_28512)" stroke-width="0.382926" stroke-miterlimit="10"/>
<path d="M11.7812 425.963C57.2313 407.463 99.3021 381.561 136.285 349.308C139.804 346.209 143.375 343.189 146.789 340.09C208.266 286.571 210.945 258.077 260.053 225.356C286.97 207.446 307.979 193.686 339.334 186.149C360.166 181.361 381.627 179.916 402.912 181.868C420.218 183.313 434.425 188.512 447.924 194.342C463.85 201.549 479.143 210.079 493.644 219.842C525.971 240.351 551.129 258.445 576.786 276.88C597.795 292.033 622.218 300.778 650.317 307.369C664.34 310.652 678.941 311.413 693.411 318.031C741.81 314.302 775.424 324.728 843.519 322.075C867.942 321.104 895.489 321.681 920.542 321.13C924.639 321.13 928.631 320.946 932.386 320.815C973.563 319.265 1003.66 318.477 1044.07 313.199C1075.59 309.05 1099.69 297.994 1126.74 288.671C1137.25 284.995 1147.44 281.949 1157.39 279.06C1209.91 263.881 1226.48 258.051 1261.09 260.861C1288.01 262.988 1321.5 269.947 1366.77 286.36C1403.25 299.491 1449.25 320.29 1506.08 347.181" stroke="url(#paint7_linear_1545_28512)" stroke-width="0.382926" stroke-miterlimit="10"/>
<path d="M10.2812 416.194C55.2458 398.48 97.0704 373.653 134.154 342.663C137.673 339.67 141.271 336.781 144.816 333.866C206.923 282.5 210.469 255.976 258.736 224.148C286.205 206.054 306.4 191.926 338.281 184.258C359.213 179.416 380.795 178.033 402.174 180.161C419.716 181.763 433.687 187.383 447.106 193.554C463.677 201.17 477.306 210.098 492.669 219.815C526.021 240.824 556.194 253.455 577.545 274.674C601.731 284.994 624.342 304.69 651.889 300.147C666.228 297.783 680.514 301.407 694.485 307.027C742.91 297.573 772.244 303.535 839.472 298.545C863.999 296.733 891.994 297.153 916.837 296.759C921.012 296.759 925.004 296.759 928.785 296.523C970.593 295.341 999.821 296.076 1040.92 291.927C1073.25 288.697 1097.04 277.694 1124.35 268.66C1134.86 265.141 1145.15 262.279 1155.31 259.6C1207.83 245.813 1225.06 241.375 1259.54 245.498C1286.49 248.728 1319.76 256.711 1365.16 273.308C1401.69 286.596 1448.1 307.027 1506.13 332.159" stroke="url(#paint8_linear_1545_28512)" stroke-width="0.382926" stroke-miterlimit="10"/>
<path d="M8.76562 406.426C53.2707 389.462 94.8596 365.664 132.035 335.889C135.554 333.027 139.151 330.401 142.723 327.539C205.749 278.326 209.872 253.772 257.431 222.81C285.478 204.559 304.832 190.063 337.212 182.211C358.275 177.348 380.004 176.043 401.499 178.35C419.277 180.11 433.012 186.229 446.379 192.663C462.634 200.541 476.106 209.89 491.784 219.79C526.133 241.376 557.883 252.511 578.445 272.496C603.472 281.687 627.501 300.122 653.525 292.953C667.759 289.04 682.123 291.377 695.543 296.025C743.994 280.847 769.073 282.291 835.409 275.017C860.042 272.391 888.246 272.601 913.141 272.391H925.142C967.633 271.603 996.047 273.782 1037.78 270.815C1070.86 268.478 1094.37 257.501 1121.97 248.782C1132.47 245.421 1142.85 242.768 1153.25 240.3C1205.77 227.852 1223.62 224.78 1257.97 230.268C1284.92 234.601 1317.98 243.609 1363.54 260.363C1400.1 273.782 1447.13 293.872 1506.17 317.27" stroke="url(#paint9_linear_1545_28512)" stroke-width="0.382926" stroke-miterlimit="10"/>
<path d="M7.23438 396.686C51.2266 380.442 92.5381 357.702 129.794 329.221C133.34 326.595 136.937 323.969 140.509 321.343C204.218 274.31 209.234 251.725 256.057 221.552C284.682 203.169 303.327 188.279 336.101 180.269C357.282 175.344 379.154 174.109 400.755 176.619C418.796 178.536 432.268 184.996 445.556 191.851C461.497 200.149 474.837 209.734 490.83 219.792C526.204 241.904 559.503 251.594 579.12 270.318C605.013 278.406 629.016 281.295 654.935 285.786C669.799 282.95 683.507 281.4 696.48 285.05C744.932 264.042 765.704 261.048 831.199 251.568C855.937 247.97 884.509 247.786 909.299 248.075C913.553 248.075 917.624 248.075 921.379 248.075C964.552 248.627 992.021 251.358 1034.49 249.519C1068.36 248.075 1091.55 237.151 1119.47 228.721C1129.97 225.543 1140.47 223.048 1150.98 220.843C1203.5 209.734 1221.88 208.08 1256.18 214.934C1283.15 220.344 1315.98 230.375 1361.75 247.314C1398.33 260.838 1445.78 280.612 1506 302.278" stroke="url(#paint10_linear_1545_28512)" stroke-width="0.382926" stroke-miterlimit="10"/>
<path d="M5.74219 386.916C49.3005 371.402 90.4067 349.717 127.803 322.524C131.322 319.898 134.946 317.455 138.518 314.987C203.067 270.16 208.818 249.518 254.801 220.264C284.003 201.671 301.677 186.44 335.081 178.246C356.444 173.263 378.523 172.115 400.287 174.859C418.67 176.933 431.932 183.787 444.931 190.983C460.687 199.623 473.818 209.523 490.073 219.87C526.419 242.507 561.319 250.753 580.043 268.216C606.777 275.175 631.147 276.095 656.594 278.721C671.642 274.519 685.14 271.525 697.64 274.204C746.092 247.549 762.584 239.881 827.212 228.195C852.055 223.704 880.968 223.389 905.68 223.835C909.986 223.835 914.057 223.835 917.838 223.835C961.642 224.807 988.27 229.087 1031.42 228.326C1066.03 227.774 1088.95 216.876 1117.16 208.762C1127.66 205.715 1138.17 203.509 1149.07 201.382C1201.59 191.561 1220.71 191.351 1254.77 199.57C1281.74 206.083 1314.35 217.113 1360.28 234.235C1396.89 247.864 1444.97 267.323 1506.19 287.229" stroke="url(#paint11_linear_1545_28512)" stroke-width="0.382926" stroke-miterlimit="10"/>
<path d="M4.21875 377.174C47.3093 362.353 88.1728 341.713 125.676 315.829C129.221 313.203 132.845 311.049 136.417 308.712C201.833 266.117 208.319 247.419 253.488 218.979C283.268 200.255 300.101 184.656 334.03 176.278C355.472 171.263 377.646 170.186 399.473 173.101C417.855 175.359 431.196 182.607 444.116 190.17C459.453 199.152 472.478 209.367 489.128 219.74C526.497 242.929 562.947 249.704 580.805 265.933C608.405 271.789 633.038 270.896 658.091 271.369C673.296 265.828 686.61 261.364 698.612 263.071C747.089 230.665 759.274 218.427 823.062 204.535C848.01 199.125 877.265 199.073 901.845 199.283C906.205 199.283 910.301 199.283 914.083 199.283C958.569 200.675 984.331 205.297 1028.16 206.794C1063.51 208.002 1086.17 196.289 1114.66 188.411C1125.27 185.551 1136.03 183.271 1146.89 181.583C1199.41 173.022 1219.16 174.283 1253.09 183.868C1280.08 191.483 1312.46 203.511 1358.55 220.817C1395.32 234.551 1443.79 253.722 1506.11 271.868" stroke="url(#paint12_linear_1545_28512)" stroke-width="0.382926" stroke-miterlimit="10"/>
<path d="M2.69531 373.048C45.3236 358.858 85.9432 339.228 123.548 314.644C127.094 312.281 130.744 310.127 134.342 307.948C200.598 267.585 207.872 250.83 252.175 223.23C282.532 204.322 298.525 188.355 332.953 179.821C354.525 174.755 376.85 173.749 398.79 176.853C417.54 179.295 430.592 186.911 443.433 194.842C458.376 204.348 471.191 214.853 488.235 225.357C526.602 248.992 564.654 254.428 581.619 269.37C610.059 274.124 634.981 271.34 659.64 269.817C675.003 262.91 688.107 257.001 699.635 257.71C748.139 219.58 756.044 202.563 818.939 186.806C844.018 180.477 873.614 180.346 898.142 180.74L910.432 180.976C955.601 181.764 980.47 189.905 1024.98 191.48C1061.14 192.794 1083.47 181.895 1112.25 174.411C1122.97 171.698 1133.85 169.602 1144.81 168.135C1197.2 160.834 1217.71 163.618 1251.48 174.542C1278.51 183.261 1310.68 196.286 1356.92 213.776C1393.69 227.615 1442.72 246.471 1506.14 262.858" stroke="url(#paint13_linear_1545_28512)" stroke-width="0.382926" stroke-miterlimit="10"/>
<path d="M1.11719 371.396C43.268 357.926 83.6353 339.409 121.34 316.248C124.911 313.989 128.562 311.993 132.159 309.971C199.388 271.788 207.292 256.872 250.859 230.191C281.821 211.151 296.947 194.791 331.9 186.072C353.61 180.999 376.087 180.108 398.131 183.446C417.091 186.072 429.985 193.951 442.643 202.354C457.323 211.992 470.059 222.864 487.287 233.552C526.678 257.791 566.28 261.704 582.378 275.386C611.685 279.036 637.815 278.458 661.161 270.816C677.889 265.328 689.601 255.06 700.552 255.06C749.056 211.204 752.654 189.407 814.709 171.524C839.867 164.223 869.857 164.039 894.253 164.591C898.717 164.591 902.867 164.801 906.622 164.906C952.474 166.114 976.45 175.752 1021.67 178.483C1058.57 180.715 1080.63 169.817 1109.7 162.726C1120.53 160.128 1131.51 158.215 1142.58 157.002C1194.94 150.909 1216.11 155.242 1249.75 167.506C1276.77 177.354 1308.73 191.377 1355.13 209.024C1391.9 222.969 1441.48 241.509 1506 256.294" stroke="url(#paint14_linear_1545_28512)" stroke-width="0.382926" stroke-miterlimit="10"/>
<path d="M-0.328125 369.791C41.3625 356.96 81.4853 339.501 119.291 317.741C122.888 315.614 126.565 313.776 130.136 311.885C198.205 276.065 206.819 263.145 249.545 237.147C281.058 217.976 295.344 201.222 330.954 192.346C352.777 187.122 375.412 186.23 397.578 189.72C416.801 192.529 429.512 200.88 442.012 209.52C456.403 219.473 468.982 230.713 486.656 241.559C527.019 266.323 568.196 268.765 583.454 281.213C613.575 283.839 640.23 280.924 662.919 271.627C679.963 264.642 691.334 253.245 701.891 251.958C750.395 202.351 749.685 175.801 810.926 155.896C836.189 147.623 866.468 147.413 890.838 148.017L903.286 148.437C949.794 150.039 972.904 161.2 1018.83 165.034C1056.52 168.212 1078.26 157.156 1107.65 150.459C1118.58 147.952 1129.67 146.198 1140.84 145.207C1193.15 140.297 1215 146.205 1248.51 159.808C1275.54 170.759 1307.26 185.78 1353.85 203.612C1403.16 223.231 1454.12 238.418 1506.13 248.99" stroke="url(#paint15_linear_1545_28512)" stroke-width="0.382926" stroke-miterlimit="10"/>
<path d="M-1.84375 369.267C39.3952 357.011 79.274 340.574 117.171 320.211C120.795 318.215 124.472 316.508 128.043 314.775C197.031 281.24 206.327 270.132 248.24 245.026C280.383 225.724 293.776 208.576 329.78 199.516C351.741 194.269 374.534 193.501 396.798 197.258C416.231 200.251 428.784 208.97 441.153 217.978C455.229 228.246 467.65 239.827 485.586 250.83C526.974 276.119 569.621 277.091 584.091 288.304C615.079 289.722 642.154 284.628 664.292 273.729C681.625 265.195 692.68 252.484 702.738 250.252C751.269 194.92 746.227 163.591 806.627 141.663C831.995 132.42 862.641 132.209 886.907 133.023C891.45 133.181 895.678 133.391 899.433 133.549C946.703 135.571 968.841 148.202 1015.43 153.166C1053.85 157.262 1075.33 146.311 1105 139.825C1116.05 137.467 1127.25 135.922 1138.51 135.203C1190.8 131.448 1213.3 138.985 1246.68 153.901C1273.7 165.981 1305.22 181.974 1351.96 200.015C1401.71 219.741 1453.38 234.219 1506.14 243.214" stroke="url(#paint16_linear_1545_28512)" stroke-width="0.382926" stroke-miterlimit="10"/>
<path d="M-3.375 370.766C37.4202 359.097 77.0571 343.705 115.036 324.783C118.66 322.919 122.363 321.343 125.934 319.741C195.867 288.569 205.951 279.431 246.918 255.008C279.666 235.575 292.192 218.006 328.721 208.815C350.804 203.508 373.743 202.811 396.107 206.767C415.776 209.971 428.172 219.031 440.383 228.406C454.17 238.91 466.434 250.911 484.685 262.072C527.07 287.887 571.347 287.44 584.897 297.367C616.725 297.682 644.168 290.276 665.833 277.776C683.376 267.64 694.195 253.721 703.781 250.517C752.311 189.435 742.909 153.352 802.522 129.428C827.942 119.187 858.983 118.924 883.169 119.922C887.739 120.106 891.993 120.342 895.748 120.526C943.622 122.942 964.893 137.123 1012.16 143.189C1051.34 148.231 1072.56 137.254 1102.47 131.083C1113.64 128.864 1124.95 127.503 1136.33 127.012C1188.58 124.386 1211.72 133.578 1244.97 149.807C1271.99 162.937 1303.32 180.007 1350.22 198.206C1400.33 218.131 1452.65 231.982 1506.05 239.462" stroke="url(#paint17_linear_1545_28512)" stroke-width="0.382926" stroke-miterlimit="10"/>
<path d="M-4.86719 372.262C35.4811 361.132 74.8683 346.773 112.913 329.325C116.564 327.592 120.266 326.2 123.838 324.729C194.742 295.842 205.247 288.621 245.61 264.986C278.935 245.448 290.621 227.459 327.649 218.084C349.861 212.7 372.961 212.082 395.429 216.272C415.335 219.712 427.572 229.061 439.652 238.83C453.151 249.728 465.231 261.992 483.797 273.311C527.206 299.572 573.084 297.786 585.716 306.452C614.706 306.107 643.009 297.577 667.361 281.845C685.087 270.081 695.723 254.981 704.809 250.779C753.366 183.971 739.579 143.109 798.43 117.19C823.903 105.924 855.337 105.714 879.419 106.817C884.067 107.027 888.321 107.289 892.103 107.526C940.607 110.414 961.09 125.908 1009.04 133.209C1048.93 139.17 1069.94 128.193 1100.14 122.337C1110.65 120.315 1121.73 120 1134.28 118.844C1186.33 114.038 1210.31 128.167 1243.42 145.735C1270.44 160.074 1301.56 178.036 1348.62 196.419C1399.15 216.542 1452.14 229.791 1506.19 235.81" stroke="url(#paint18_linear_1545_28512)" stroke-width="0.382926" stroke-miterlimit="10"/>
<path d="M-6.39062 373.759C33.5302 363.154 72.6801 349.835 110.786 333.895C114.462 332.32 118.165 331.033 121.763 329.72C193.56 303.459 204.879 297.813 244.297 274.966C278.252 255.296 288.94 236.914 326.599 227.355C348.977 221.9 372.271 221.363 394.877 225.779C414.993 229.456 427.073 239.12 439.022 249.256C452.152 260.47 464.127 273.075 483.009 284.551C527.443 311.442 574.922 308.186 586.635 315.513C616.399 313.952 645.032 303.597 668.91 285.759C686.742 272.392 697.246 256.084 705.833 250.911C754.416 178.378 736.217 132.737 794.307 104.795C819.859 92.5313 851.661 92.3475 875.716 93.5817C880.39 93.8181 884.697 94.1332 888.452 94.3695C937.639 97.7046 957.23 114.801 1005.89 123.099C1046.57 130.006 1067.18 118.95 1097.8 113.461C1109.24 111.87 1120.75 110.889 1132.29 110.52C1184.41 107.132 1208.91 122.626 1241.92 141.508C1268.92 156.976 1299.86 175.91 1346.97 194.476C1397.87 214.755 1451.5 227.341 1506.11 231.819" stroke="url(#paint19_linear_1545_28512)" stroke-width="0.382926" stroke-miterlimit="10"/>
<path d="M-7.91406 375.255C31.5973 365.148 70.5224 352.875 108.685 338.49C112.361 337.045 116.064 335.864 119.662 334.734C192.405 310.784 204.406 307.055 243.088 284.839C277.543 265.195 287.364 246.366 325.522 236.65C347.994 231.117 371.415 230.651 394.089 235.284C414.441 239.197 426.39 249.176 438.155 259.681C451.075 271.183 462.814 284.156 482.037 295.789C527.442 323.206 576.577 318.426 587.344 324.676C617.968 321.959 647.001 309.832 670.46 289.959C688.343 274.938 698.743 257.475 706.857 251.33C755.44 173.046 732.829 122.467 790.21 92.6876C815.814 79.3996 847.984 79.242 871.934 80.6076C876.661 80.8702 880.994 81.2116 884.749 81.5005C934.645 85.282 953.317 103.848 1002.69 113.25C1044.13 121.128 1064.45 109.994 1095.31 104.846C1106.85 103.343 1118.47 102.545 1130.11 102.457C1182.31 100.487 1207.34 117.347 1240.22 137.568C1267.24 154.138 1297.99 174.07 1345.26 192.715C1396.57 213.176 1450.87 225.124 1506.03 228.089" stroke="url(#paint20_linear_1545_28512)" stroke-width="0.382926" stroke-miterlimit="10"/>
<path d="M-9.39062 376.751C35.5944 365.327 75.9575 353.694 106.578 343.032C110.307 341.719 114.01 340.721 117.581 339.671C191.296 318.242 203.954 316.246 241.691 295.027C276.854 275.174 285.914 255.925 324.491 246.024C347.087 240.425 370.66 240.038 393.426 244.895C414.015 249.07 425.833 259.312 437.44 270.21C450.045 282.028 461.626 295.342 481.164 307.133C527.594 335.075 578.33 328.851 588.178 333.736C619.642 329.833 649.028 315.954 672.029 294.134C689.939 277.459 701.415 259.864 707.928 251.697C768.328 175.724 729.436 112.225 786.133 80.5543C811.764 66.2158 844.38 66.1107 868.225 67.6076C873.004 67.8965 877.338 68.2904 881.119 68.6055C931.619 72.8335 949.398 92.8706 999.504 103.349C1041.7 112.199 1061.74 101.011 1092.91 96.232C1104.53 94.5087 1116.29 93.8844 1128.02 94.3675C1180.26 96.1532 1205.86 112.067 1238.64 133.575C1265.63 151.301 1296.15 172.205 1343.68 191.113C1395.43 211.743 1450.42 223.061 1506.1 224.543" stroke="url(#paint21_linear_1545_28512)" stroke-width="0.382926" stroke-miterlimit="10"/>
<path d="M-10.9375 378.248C34.5465 367.166 74.647 356.662 104.427 347.602C108.182 346.446 111.885 345.579 115.457 344.66C190.195 325.753 203.457 325.464 240.354 304.928C276.148 284.969 284.315 265.247 323.391 255.189C346.127 249.516 369.872 249.211 392.746 254.297C413.545 258.761 425.205 269.265 436.655 280.557C448.997 292.69 460.289 306.346 480.248 318.294C527.675 346.787 579.856 339.093 588.995 342.743C625.077 337.491 653.439 318.688 673.555 298.1C691.439 279.717 702.757 260.731 708.928 251.881C767.359 168.187 725.998 101.8 781.987 68.2119C807.643 52.8492 840.706 52.7967 864.446 54.4249C869.278 54.7663 873.664 55.1602 877.419 55.5016C928.602 60.2023 945.514 81.7625 996.302 93.291C1039.24 103.086 1058.99 91.8204 1090.45 87.4086C1102.19 85.8177 1114.05 85.3867 1125.87 86.1218C1178.13 88.9317 1204.34 106.579 1237.01 129.426C1263.98 148.281 1294.31 170.157 1342.05 189.248C1379.06 204.033 1432.84 220.079 1506.13 220.761" stroke="url(#paint22_linear_1545_28512)" stroke-width="0.382926" stroke-miterlimit="10"/>
<path d="M-12.4609 379.747C33.4958 368.927 73.3337 359.683 102.3 352.146C106.081 351.175 109.784 350.439 113.355 349.52C188.961 333.317 202.984 334.709 239.04 314.908C275.097 295.108 282.739 274.703 322.34 264.487C345.196 258.718 369.099 258.484 392.063 263.805C413.072 268.584 424.627 279.299 435.919 290.958C447.973 303.38 459.186 317.403 479.355 329.509C527.806 358.396 581.562 349.389 589.808 351.779C626.758 345.424 655.146 324.415 675.104 302.146C692.935 282.24 703.991 261.73 709.952 252.25C766.125 160.993 722.531 91.5332 777.89 56.0809C803.547 39.6416 837.029 39.6679 860.717 41.4274C865.575 41.7951 869.987 42.2414 873.847 42.6091C925.686 47.8613 941.732 70.7608 993.203 83.4185C1036.9 94.1593 1056.39 82.8145 1088.14 78.7704C1099.99 77.3038 1111.97 77.0575 1123.88 78.0351C1176.16 81.8954 1202.92 101.276 1235.51 125.436C1262.46 145.421 1292.6 168.268 1340.56 187.543C1377.61 202.433 1431.89 218.189 1506.29 217.06" stroke="url(#paint23_linear_1545_28512)" stroke-width="0.382926" stroke-miterlimit="10"/>
<path d="M-13.9531 381.242C32.45 370.738 72.0253 362.702 100.177 356.662C103.985 355.848 107.688 355.218 111.259 354.587C187.784 340.905 202.516 343.952 237.732 324.86C274.786 304.797 281.141 284.156 321.268 273.756C344.254 267.886 368.327 267.733 391.385 273.31C412.604 278.431 424.054 289.355 435.188 301.357C446.953 314.119 457.983 328.458 478.493 340.748C527.916 370.291 583.668 363.542 590.627 360.837C626.552 346.945 656.831 330.191 676.658 306.189C694.41 284.681 705.361 262.753 711.007 252.38C764.711 153.77 719.043 81.0013 773.797 43.6846C799.454 26.1948 833.383 26.3261 856.966 28.1906C861.903 28.5845 866.315 29.0572 870.096 29.4511C922.618 35.0709 937.745 59.5461 989.925 73.3069C1034.36 85.0192 1053.56 73.5695 1085.62 69.8929C1097.6 68.5547 1109.69 68.4931 1121.68 69.7091C1173.99 74.5936 1201.33 95.7336 1233.78 121.207C1260.73 142.215 1290.69 166.165 1338.83 185.625C1375.91 200.62 1430.74 216.035 1506.22 213.172" stroke="url(#paint24_linear_1545_28512)" stroke-width="0.382926" stroke-miterlimit="10"/>
<path d="M-15.4766 382.737C31.3993 372.417 70.6857 365.799 98.0496 361.282C101.884 360.652 105.587 360.127 109.184 359.628C186.602 348.546 202.069 353.194 236.419 334.864C274.235 314.643 279.487 293.634 320.217 283.13C343.336 277.184 367.575 277.112 390.728 282.92C412.105 288.408 423.476 299.49 434.427 311.807C445.929 324.937 456.775 339.564 477.6 351.986C528.047 382.055 584.981 370.684 591.441 369.922C630.832 365.221 658.485 335.993 678.102 310.257C691.371 292.303 702.708 273 711.926 252.667C763.135 146.888 715.445 70.6265 769.7 31.4452C795.331 12.905 829.733 13.0626 853.237 15.0847C858.2 15.5048 862.664 16.03 866.367 16.4502C919.519 22.6215 933.779 48.5411 986.695 63.326C1031.84 76.0362 1050.8 64.4026 1083.15 61.1463C1095.25 59.9372 1107.45 60.0693 1119.52 61.5402C1171.89 67.4489 1199.72 90.4272 1232.13 117.135C1259.02 139.43 1288.8 164.194 1337.17 183.811C1374.31 198.911 1429.61 214.037 1506.22 209.415" stroke="url(#paint25_linear_1545_28512)" stroke-width="0.382926" stroke-miterlimit="10"/>
<path d="M-17 384.236C30.2698 374.362 69.3198 368.952 95.9222 365.853C183.949 355.611 200.073 363.227 235.105 344.844C273.446 324.702 277.99 303.063 319.141 292.323C342.389 286.277 366.797 286.277 390.045 292.323C434.111 304.403 435.319 338.594 476.706 363.227C528.152 393.847 586.635 380.375 592.255 378.984C667.151 360.601 702.078 278.378 713.055 252.931C761.717 140.22 712.005 60.2551 765.577 19.2093C796.67 -4.60938 841.419 0.826623 862.743 3.45271C916.551 10.0179 929.945 37.4343 983.543 53.3484C1043.94 71.3109 1057.26 45.4702 1117.47 53.3484C1213.54 66.0325 1228.95 138.434 1335.44 182.027C1372.6 197.232 1428.43 212.043 1506.14 205.662" stroke="url(#paint26_linear_1545_28512)" stroke-width="0.382926" stroke-miterlimit="10"/>
<path d="M-15.5859 380.955C30.8435 371.081 69.237 365.199 95.8394 361.942C181.529 351.123 198.257 358.266 233.079 339.857C270.711 319.898 275.727 298.89 315.854 288.07C338.616 282.057 362.51 281.75 385.419 287.177C428.907 297.445 430.588 330.797 471.345 354.484C521.687 383.949 578.411 371.685 584.976 370.608C646.401 360.655 680.277 300.124 696.953 267.823C700.367 261.232 702.836 255.559 704.831 251.463C754.727 144.765 707.615 67.9251 760.4 29.164C791.913 6.08071 837.029 11.8844 859.246 14.3792C879.605 16.6143 899.34 22.7673 917.361 32.4992C935.744 41.7168 952.945 52.1161 981.228 59.0227C989.894 61.1236 997.615 62.279 1004.55 63.277C1046.57 69.3432 1062.77 54.4008 1113.4 63.4083C1132.99 66.847 1151.85 73.5868 1169.18 83.3403C1216.21 109.601 1245.62 156.871 1318.45 191.378C1322.72 193.408 1327.18 195.387 1331.84 197.313C1369.34 212.912 1426.01 228.432 1504.9 222.471" stroke="url(#paint27_linear_1545_28512)" stroke-width="0.382926" stroke-miterlimit="10"/>
<path d="M-14.1641 377.671C31.32 367.797 69.162 361.678 95.7907 358.054C179.09 346.683 196.344 353.301 231.061 334.839C268.01 315.301 273.472 294.476 312.47 283.841C334.765 277.843 358.163 277.213 380.749 282.002C423.58 290.59 425.865 322.864 465.965 345.764C515.231 373.889 570.458 364.829 577.653 362.229C634.482 341.877 671.353 295.921 688.527 265.484C692.02 259.287 694.436 253.851 696.406 250.017C747.457 149.201 703.128 75.6705 755.073 39.1154C786.848 16.7936 832.464 22.9387 855.573 25.3284C876.092 27.4348 896.092 33.0766 914.687 42.004C933.358 50.3288 950.822 59.3363 978.764 64.6672C987.456 66.3479 995.229 66.9782 1002.16 67.9761C1044.05 74.0424 1059.54 62.2512 1109.15 73.4909C1128.51 77.9527 1147.05 85.4322 1164.09 95.6551C1209.36 121.916 1240.24 170.84 1314.54 206.502C1318.87 208.551 1323.39 210.599 1328.09 212.595C1365.9 228.588 1423.41 244.817 1503.51 239.302" stroke="url(#paint28_linear_1545_28512)" stroke-width="0.382926" stroke-miterlimit="10"/>
<path d="M-12.75 374.388C31.7886 364.54 69.0529 358.053 95.6553 354.035C176.592 342.192 194.423 348.206 228.982 329.744C265.222 310.521 271.157 290.09 309.21 279.507C331.025 273.562 353.908 272.664 376.123 276.881C418.14 283.84 421.16 315.038 460.604 337.045C508.793 363.936 562.26 357.055 570.375 353.904C615.5 335.818 653.862 304.112 680.12 263.199C683.691 257.395 686.081 252.196 687.998 248.598C740.152 153.875 698.66 83.3644 749.685 49.0151C781.828 27.4287 827.864 33.9676 851.866 36.1998C872.551 38.218 892.81 43.3624 911.952 51.4574C930.965 58.8892 948.717 66.4786 976.238 70.2864C985.01 71.4944 992.809 71.6257 999.742 72.6237C1041.58 78.7162 1056.23 69.9976 1104.79 83.5219C1123.89 89.0311 1142.1 97.2372 1158.88 107.892C1202.4 134.337 1234.88 184.653 1310.49 221.575C1314.85 223.676 1319.42 225.768 1324.2 227.852C1362.33 244.212 1420.71 261.151 1501.98 256.056" stroke="url(#paint29_linear_1545_28512)" stroke-width="0.382926" stroke-miterlimit="10"/>
<path d="M-11.3281 371.132C32.2651 361.258 68.978 354.43 95.6329 350.123C174.206 337.807 192.641 343.216 226.938 324.729C262.443 305.795 268.955 285.81 305.852 275.253C327.21 269.277 349.613 268.023 371.504 271.577C412.918 276.829 416.463 307.029 455.277 328.169C502.389 354.036 553.467 343.742 563.105 345.501C618.647 334.288 653.574 287.727 671.746 260.836C675.396 255.453 677.734 250.516 679.782 247.128C733.092 158.419 694.436 91.1118 744.515 59.021C777.079 38.1699 823.456 45.0765 848.378 47.2036C869.245 49.1238 889.772 53.7677 909.434 61.0168C928.815 67.5558 946.777 73.7009 973.958 76.0118C982.781 76.7734 990.607 76.3794 997.592 77.3774C1039.37 83.4699 1053.19 77.9288 1100.85 93.6329C1121.05 100.303 1137.62 109.862 1154.11 120.261C1195.92 146.759 1229.84 198.755 1306.89 236.755C1311.27 238.908 1315.89 241.053 1320.76 243.189C1359.23 259.969 1418.45 277.617 1500.91 272.942" stroke="url(#paint30_linear_1545_28512)" stroke-width="0.382926" stroke-miterlimit="10"/>
<path d="M-9.9375 367.849C32.6315 358.001 68.8717 350.832 95.6579 346.367C171.815 333.604 190.723 338.279 225.019 319.896C259.789 301.198 266.696 281.687 302.673 271.182C323.534 265.21 345.411 263.653 366.908 266.613C407.533 270.499 411.788 299.36 449.945 319.607C495.954 344.004 545.167 334.629 555.882 337.176C609.769 326.987 644.67 283.656 663.394 258.551C667.123 253.561 669.434 248.86 671.535 245.709C725.974 163.066 690.233 98.937 739.314 69.0258C772.298 48.91 819.043 56.2105 844.831 58.1801C871.092 60.1759 889.606 65.6119 906.886 70.549C926.634 76.195 945.017 84.3884 971.619 81.7361C979.483 80.8885 987.422 81.0208 995.254 82.13C1037.01 88.2226 1049.93 85.7277 1096.67 103.769C1116.24 111.306 1132.52 121.679 1149.2 132.656C1189.3 159.127 1224.67 212.725 1303.14 251.959C1307.57 254.165 1312.24 256.371 1317.16 258.577C1355.95 275.725 1416.01 294.082 1499.67 289.854" stroke="url(#paint31_linear_1545_28512)" stroke-width="0.382926" stroke-miterlimit="10"/>
<path d="M-8.51562 364.542C33.2131 354.694 68.7967 347.184 95.4778 342.43C169.35 329.3 188.862 333.292 223.001 314.856C257.14 296.421 264.467 277.408 299.368 266.878C329.778 257.713 355.12 259.682 362.394 261.389C401.182 270.58 407.169 291.458 444.696 310.812C489.603 333.974 537.004 325.44 548.716 328.748C600.923 319.557 635.771 279.562 655.126 256.19C658.907 251.594 661.192 247.129 663.319 244.188C718.887 167.611 686.14 106.739 734.224 78.9021C767.68 59.5216 814.714 67.216 841.421 69.0543C868.128 70.8926 886.852 75.8296 904.447 80.0051C924.537 84.7583 943.55 91.875 969.391 87.3319C977.189 85.8895 985.168 85.7033 993.026 86.7804C1034.73 92.8729 1046.78 93.4244 1092.58 113.777C1111.54 122.18 1127.46 133.394 1144.16 144.843C1182.58 171.104 1219.42 226.515 1299.28 266.983C1303.75 269.241 1308.47 271.5 1313.46 273.758C1352.59 291.3 1413.49 310.366 1498.34 306.584" stroke="url(#paint32_linear_1545_28512)" stroke-width="0.382926" stroke-miterlimit="10"/>
<path d="M-7.10156 361.335C33.6817 351.408 68.6876 343.53 95.395 338.593C166.904 325.147 186.993 328.378 220.975 309.942C254.326 291.822 262.205 273.177 296.081 262.673C325.651 253.508 350.284 254.637 357.663 256.265C395.689 264.721 402.307 283.629 439.23 302.09C483.033 324.044 528.517 316.298 541.333 320.473C591.885 312.306 626.602 275.829 646.613 253.954C649.567 250.395 652.336 246.688 654.911 242.846C711.556 172.335 681.881 114.745 728.81 88.9569C762.765 70.3379 810.087 78.4525 837.688 80.107C864.238 81.7351 883.749 86.2257 901.686 89.6134C922.143 93.4737 941.786 99.3299 966.839 93.1061C974.595 91.0521 982.677 90.5346 990.632 91.583C1032.31 97.7018 1043.47 101.247 1088.35 123.963C1106.73 133.233 1122.23 145.234 1139.06 157.262C1175.82 183.522 1214.11 240.509 1295.36 282.211C1299.86 284.522 1304.64 286.833 1309.7 289.144C1349.09 307.08 1410.89 326.854 1496.94 323.493" stroke="url(#paint33_linear_1545_28512)" stroke-width="0.382926" stroke-miterlimit="10"/>
<path d="M-5.6875 358.106C34.1504 348.232 68.5786 340.091 95.3385 334.734C164.457 320.921 185.125 323.415 219.08 304.98C251.723 287.149 260.074 268.976 292.9 258.525C321.787 249.36 345.579 249.648 353.169 251.198C390.459 258.84 397.812 275.857 434 293.452C476.7 314.171 520.425 307.239 534.186 312.123C583.057 304.98 617.591 271.76 638.363 251.723C641.344 248.458 644.14 245.03 646.74 241.455C704.514 177.037 677.912 122.782 723.685 98.9896C758.139 81.106 805.724 89.5882 834.217 91.1114C861.004 92.582 880.962 96.5999 899.213 99.1997C920.907 102.183 942.915 102.068 964.577 98.8583C973.821 97.6766 981.594 95.3656 988.448 96.2322C1030.07 102.377 1040.34 108.864 1084.3 133.969C1102 144.08 1117.21 156.947 1134.2 169.5C1169.36 195.551 1209.01 254.349 1291.76 297.286C1296.28 299.623 1301.14 302.013 1306.28 304.402C1346.04 322.785 1408.7 343.216 1495.86 340.275" stroke="url(#paint34_linear_1545_28512)" stroke-width="0.382926" stroke-miterlimit="10"/>
<path d="M-4.13281 353.587C34.7597 343.739 68.6364 335.205 95.3963 329.611C162.047 315.509 183.292 317.268 216.932 298.754C248.892 281.212 257.689 263.486 289.491 253.06C317.433 243.895 340.595 243.37 348.395 244.815C385.002 251.564 392.907 266.795 428.543 283.497C470.114 302.982 512.027 296.864 526.785 302.51C574.055 296.391 608.194 266.637 629.833 248.097C632.842 245.131 635.674 241.992 638.316 238.696C697.009 180.37 673.742 129.477 718.307 107.654C753.312 90.5055 801.107 99.3554 830.52 100.747C857.49 102.034 877.921 105.579 896.487 107.391C917.654 109.466 937.376 107.706 962.14 103.216C971.515 101.509 979.262 98.7514 986.09 99.7493C1027.66 105.894 1037.06 115.322 1080.1 142.87C1097.17 153.821 1112.01 167.502 1129.13 180.633C1162.72 206.421 1203.74 267.031 1287.78 311.228C1292.35 313.644 1297.23 316.06 1302.46 318.529C1342.53 337.227 1405.95 358.419 1494.4 355.924" stroke="url(#paint35_linear_1545_28512)" stroke-width="0.382926" stroke-miterlimit="10"/>
<path d="M-2.84375 342.219C35.1034 332.371 68.4023 323.573 95.1885 317.612C159.607 303.247 181.43 304.14 214.912 285.758C246.163 268.504 255.433 251.198 286.211 240.825C313.312 231.66 335.739 230.321 343.775 231.66C379.7 237.464 388.182 250.962 423.188 266.771C463.63 285.154 503.731 279.691 519.513 286.152C565.05 280.899 596.327 250.542 621.458 237.753C624.794 234.181 627.682 231.293 629.993 229.244C689.685 177.038 669.752 129.453 713.057 109.6C748.64 93.239 796.646 102.457 826.951 103.691C854.105 104.794 875.008 107.866 893.89 108.943C915.424 110.125 935.514 106.632 959.674 100.933C969.18 98.7012 976.901 95.4974 983.702 96.5216C1025.25 102.667 1033.76 114.904 1075.85 144.999C1092.32 156.738 1106.79 171.26 1124.04 184.995C1156.08 210.494 1198.44 272.969 1283.87 318.4C1288.47 320.833 1293.42 323.319 1298.7 325.858C1339.12 344.818 1403.46 366.72 1493.01 364.54" stroke="url(#paint36_linear_1545_28512)" stroke-width="0.382926" stroke-miterlimit="10"/>
<path d="M-1.50781 331.977C35.5727 322.129 68.2939 313.043 95.1063 306.766C157.187 292.165 179.693 292.165 212.887 273.678C243.428 256.739 253.171 239.853 282.899 229.507C309.16 220.368 330.851 218.32 339.15 219.449C374.418 224.255 383.452 236.046 417.933 250.962C457.324 268.031 495.534 263.488 512.341 270.71C556.197 266.613 587.158 239.013 613.157 228.377C615.881 225.66 618.766 223.108 621.796 220.736C682.407 174.595 665.889 130.582 707.906 112.488C744.094 96.9154 792.257 106.501 823.455 107.551C850.818 108.496 872.195 111.096 891.365 111.333C913.267 111.622 933.751 106.343 957.386 99.489C966.997 96.7053 974.718 93.0813 981.519 94.2368C1022.99 100.408 1030.65 115.561 1071.8 148.098C1087.56 160.624 1101.77 175.961 1119.07 190.299C1149.56 215.457 1193.24 279.849 1280.05 326.541C1284.68 329.167 1289.69 331.583 1295.05 334.156C1335.78 353.668 1400.88 376.174 1491.72 374.624" stroke="url(#paint37_linear_1545_28512)" stroke-width="0.382926" stroke-miterlimit="10"/>
<path d="M-0.0390625 321.734C36.0698 311.887 68.2395 302.511 95.0257 295.867C154.769 281.109 177.695 280.242 210.863 261.728C240.695 245.079 250.911 228.613 279.614 218.319C305.087 209.18 325.991 208.419 334.526 207.342C369.059 202.93 378.723 221.26 412.468 235.257C450.678 251.014 487.128 247.364 504.96 255.373C547.161 252.301 577.755 227.563 604.751 219.081C607.503 216.63 610.415 214.366 613.47 212.305C674.973 172.257 661.921 131.789 702.757 115.481C739.523 100.723 787.869 110.623 819.986 111.542C847.56 112.304 869.383 114.405 888.869 113.879C911.138 113.275 931.963 106.159 955.099 98.1229C964.842 94.7878 972.51 90.7699 979.312 91.7678C1020.75 97.9654 1027.58 115.954 1067.73 151.012C1082.99 164.327 1096.75 180.503 1114.24 195.446C1143.13 220.236 1188.19 286.571 1276.4 334.629C1281.08 337.15 1286.13 339.776 1291.55 342.507C1332.6 362.413 1398.57 385.732 1490.59 384.524" stroke="url(#paint38_linear_1545_28512)" stroke-width="0.382926" stroke-miterlimit="10"/>
<path d="M1.38281 311.467C36.5463 301.514 68.112 291.982 94.9507 284.996C152.357 270.08 175.834 268.294 208.845 249.754C237.968 233.42 248.656 217.479 276.309 206.975C300.968 197.836 321.163 196.471 329.881 195.079C363.548 189.827 373.974 206.318 407.115 219.423C444.195 234.102 478.86 231.109 497.689 239.906C538.21 237.832 568.594 216.009 596.273 209.654C599.051 207.463 601.992 205.488 605.07 203.745C667.414 169.763 657.986 132.84 697.299 118.318C734.773 104.426 783.198 114.642 816.182 115.377C843.966 115.981 866.262 117.583 886.063 116.27C908.7 114.773 929.866 105.765 952.503 96.758C962.351 92.8188 970.019 88.407 976.794 89.4312C1018.18 95.6288 1024.22 116.427 1063.46 154.033C1078.11 168.135 1091.5 185.126 1109.1 200.699C1136.62 225.095 1182.84 293.4 1272.44 342.507C1277.15 345.116 1282.25 347.742 1287.75 350.386C1329.14 370.659 1395.92 394.688 1489.15 393.9" stroke="url(#paint39_linear_1545_28512)" stroke-width="0.382926" stroke-miterlimit="10"/>
<path d="M2.79687 301.226C36.9361 291.405 68.0029 281.478 94.8679 274.125C150.016 259.104 173.966 256.32 206.818 237.806C235.259 221.761 246.394 206.109 273.022 195.789C296.841 186.65 316.327 184.681 325.255 182.974C358.029 176.75 369.243 191.561 401.754 203.746C437.705 217.218 470.557 215.012 490.411 224.597C529.277 223.547 559.215 204.586 587.891 200.385C590.703 198.464 593.672 196.786 596.768 195.369C659.794 167.348 654.122 134.26 692.043 121.339C729.963 108.419 778.704 118.713 812.607 119.37C840.575 119.816 863.343 120.945 883.511 118.844C906.49 116.455 927.997 105.714 950.162 95.4722C960.115 90.9291 967.783 86.1759 974.532 87.1738C1015.87 93.3976 1021.15 116.954 1059.25 157.159C1073.35 172.023 1086.38 189.828 1104.08 206.057C1130.13 229.981 1177.61 300.307 1268.58 350.781C1273.3 353.407 1278.48 356.033 1284.04 358.895C1325.69 379.668 1393.34 404.405 1487.75 403.933" stroke="url(#paint40_linear_1545_28512)" stroke-width="0.382926" stroke-miterlimit="10"/>
<path d="M4.21875 291.009C37.4914 281.187 67.9279 270.998 94.8191 263.303C147.551 248.177 172.105 244.422 204.8 225.881C232.532 210.125 244.192 194.92 269.717 184.731C292.748 175.592 311.525 173.018 320.637 170.996C352.544 163.932 364.493 176.905 396.426 188.197C431.222 200.487 462.263 199.017 483.088 209.39C520.273 209.39 549.869 193.292 579.439 191.243C582.306 189.594 585.311 188.196 588.42 187.068C652.392 164.956 650.291 135.754 686.794 124.409C725.634 112.356 774.217 123.044 809.039 123.411C837.191 123.727 860.432 124.357 880.863 121.468C904.209 118.186 926.005 105.423 947.723 94.2619C957.781 89.0097 965.423 83.9938 972.172 85.018C1013.48 91.2156 1018 117.555 1055.05 160.361C1068.58 175.986 1081.31 194.5 1099.01 211.491C1123.65 234.942 1172.33 307.29 1264.69 359.024C1269.47 361.703 1274.68 364.469 1280.32 367.323C1322.34 388.331 1390.82 413.805 1486.44 413.883" stroke="url(#paint41_linear_1545_28512)" stroke-width="0.382926" stroke-miterlimit="10"/>
<path d="M5.63281 280.715C37.9601 270.893 67.8188 260.468 94.7363 252.38C145.157 237.201 170.263 232.421 202.774 213.829C229.797 198.413 241.877 183.602 266.431 173.466C282.505 167.162 299.093 162.26 316.011 158.812C347.052 150.934 359.736 162.068 391.065 172.441C424.705 183.55 454.092 182.946 475.862 194.002C511.367 194.973 540.648 181.79 571.11 181.869C574.023 180.498 577.056 179.399 580.17 178.586C644.72 162.41 646.506 137.173 681.538 127.378C721.113 116.322 769.748 126.537 805.437 127.378C833.799 128.034 857.486 127.64 878.259 123.99C901.894 119.814 924.058 105.108 945.329 92.9496C955.466 87.1722 963.134 81.7099 969.857 82.7341C1011.11 88.9579 1014.92 118.029 1050.9 163.46C1063.85 179.821 1076.19 199.201 1094.02 216.822C1117.21 239.774 1167.1 314.171 1260.86 367.166C1265.66 369.792 1270.91 372.707 1276.61 375.622C1318.97 397.077 1388.3 423.233 1485.1 423.732" stroke="url(#paint42_linear_1545_28512)" stroke-width="0.382926" stroke-miterlimit="10"/>
<path d="M7.05469 270.449C38.5679 260.628 67.7438 249.992 94.6613 241.562C142.771 226.384 168.402 220.554 200.782 201.935C227.043 186.835 239.622 172.417 263.125 162.333C278.79 155.861 294.927 150.593 311.393 146.577C341.62 137.937 354.986 147.207 385.712 156.608C418.197 166.588 445.692 166.614 468.591 178.536C502.442 180.558 531.381 170.238 562.711 172.47C565.677 171.387 568.736 170.578 571.85 170.054C637.134 159.681 642.754 138.541 676.29 130.242C716.626 120.263 765.262 130.61 801.869 131.24C830.441 131.713 854.575 130.846 875.663 126.408C899.718 121.34 922.066 104.691 942.97 91.5338C953.133 85.1262 960.853 79.3225 967.55 80.3467C1008.78 86.5968 1011.88 118.399 1046.73 166.456C1059.15 183.578 1071.15 203.72 1089.01 222.024C1110.86 244.451 1161.91 320.923 1257.08 375.204C1261.91 377.961 1267.24 380.85 1273.02 383.844C1315.72 405.667 1385.94 432.532 1483.87 433.477" stroke="url(#paint43_linear_1545_28512)" stroke-width="0.382926" stroke-miterlimit="10"/>
<path d="M8.44531 260.181C38.908 250.386 67.6638 239.514 94.5813 230.611C140.302 215.406 166.563 208.526 198.759 189.881C224.363 175.07 237.362 160.994 259.842 151.041C275.097 144.52 290.765 139.011 306.744 134.549C336.182 125.174 350.232 132.527 380.275 141.009C411.63 149.807 437.313 150.568 461.237 163.305C493.407 166.325 522.005 158.893 554.253 163.305C557.271 162.501 560.357 161.982 563.471 161.755C629.491 157.133 638.866 140.274 670.957 133.367C712.056 124.491 760.691 134.943 798.218 135.311C826.974 135.626 851.58 134.286 872.983 129.06C897.406 123.099 919.99 104.507 940.5 90.3519C950.715 83.2877 958.462 77.2215 965.159 78.1931C1006.34 84.4432 1008.8 119.003 1042.5 169.686C1054.37 187.544 1066.13 208.421 1083.91 227.46C1104.5 249.335 1156.6 327.777 1253.19 383.45C1258.05 386.26 1263.43 389.201 1269.29 392.247C1312.3 414.438 1383.31 442.038 1482.5 443.325" stroke="url(#paint44_linear_1545_28512)" stroke-width="0.382926" stroke-miterlimit="10"/>
<path d="M9.85937 249.911C39.3767 240.089 67.6335 229.06 94.4985 219.684C138.039 204.532 164.694 196.522 196.732 177.877C221.654 163.381 235.1 149.752 256.529 139.799C271.38 133.13 286.602 127.317 302.118 122.388C330.769 112.277 345.448 117.74 374.992 125.276C405.192 132.945 429.09 134.415 454.038 147.913C484.553 151.957 512.81 147.414 545.951 153.927C549.033 153.516 552.138 153.296 555.247 153.271C621.95 150.303 635.186 141.847 665.78 136.28C707.64 128.664 756.301 139.589 794.695 139.221C823.582 138.932 848.74 137.54 870.458 131.527C895.248 124.672 918.017 104.11 938.185 88.9839C948.453 81.2632 956.253 74.8555 962.923 75.8534C1004.07 82.1035 1005.91 119.368 1038.4 172.677C1049.74 191.296 1061.17 212.909 1079 232.736C1098.17 254.06 1151.5 334.707 1249.35 391.536C1254.27 394.407 1259.69 397.392 1265.61 400.491C1308.94 423.128 1380.81 451.411 1481.18 453.196" stroke="url(#paint45_linear_1545_28512)" stroke-width="0.382926" stroke-miterlimit="10"/>
<path d="M11.2812 239.671C39.8532 229.876 67.5585 218.662 94.4235 208.841C135.706 193.767 162.833 184.628 194.714 165.931C218.927 151.75 232.819 138.514 253.25 128.614C272.158 119.422 287.389 114.17 297.5 110.231C325.389 99.4379 340.699 102.983 369.639 109.522C395.816 115.533 421.579 123.226 446.767 132.553C474.394 142.269 503.228 151.933 537.551 144.607C540.667 144.173 543.833 144.244 546.926 144.817C614.522 151.487 631.408 143.504 660.531 139.223C703.179 132.973 751.815 143.74 791.127 143.162C820.303 142.742 845.829 140.825 867.862 134.05C892.994 126.172 915.972 103.745 935.799 87.6468C946.093 79.2696 953.972 72.5468 960.642 73.5709C1001.71 79.8473 1002.97 119.843 1034.17 175.778C1044.99 195.159 1056.15 217.454 1073.91 238.043C1091.66 258.632 1146.31 341.406 1245.44 399.705C1250.38 402.568 1255.95 405.64 1261.86 408.818C1305.53 431.822 1378.22 460.814 1479.82 463.046" stroke="url(#paint46_linear_1545_28512)" stroke-width="0.382926" stroke-miterlimit="10"/>
<path d="M12.7031 229.401C40.3297 219.606 67.5098 208.393 94.3748 197.888C133.372 182.893 160.999 172.599 192.696 153.875C216.331 140.009 230.564 127.168 249.945 117.32C268.039 108.102 282.745 102.351 292.882 98.0707C320.035 86.5947 335.923 88.2491 364.285 93.7901C392.148 99.2261 410.636 106.159 439.497 117.162C465.495 127.089 493.174 129.006 529.178 135.282C532.487 135.86 535.664 135.808 538.632 136.333C607.068 148.623 627.63 145.209 655.283 142.163C698.692 137.41 747.354 147.861 787.533 147.1C816.919 146.522 842.918 144.106 865.266 136.595C890.765 127.929 913.901 103.454 933.413 86.3583C943.734 77.3246 951.796 70.2866 958.335 71.3108C999.354 77.5872 1000.06 120.34 1030.08 178.98C1040.4 199.123 1051.32 222.048 1068.97 243.477C1085.6 263.646 1141.19 348.39 1241.69 407.949C1246.68 410.864 1252.2 413.989 1258.26 417.246C1302.25 440.618 1375.81 470.319 1478.56 472.998" stroke="url(#paint47_linear_1545_28512)" stroke-width="0.382926" stroke-miterlimit="10"/>
<path d="M14.25 219.16C40.9312 209.365 67.6123 197.941 94.4248 187.095C131.19 172.205 159.263 160.834 190.803 141.979C213.623 128.428 228.435 115.981 246.791 106.159C264.044 96.9679 278.12 90.7441 288.388 86.0171C314.833 73.8583 331.299 73.622 359.083 78.1389C385.764 82.4982 402.65 89.5623 432.351 101.774C456.8 111.91 483.98 116.664 520.903 125.934C524.186 126.748 527.442 127.089 530.462 127.851C599.791 145.734 624.056 142.11 650.16 145.104C694.627 149.988 739.366 151.953 784.091 150.987C813.687 150.278 840.132 147.363 862.874 139.012C888.741 129.453 912.008 103.008 931.152 84.9404C941.473 75.2501 949.535 67.9233 956.153 68.9213C997.146 75.2239 997.277 120.708 1026.06 181.843C1035.88 202.721 1046.62 226.277 1064.11 248.572C1079.47 268.136 1136.09 355.06 1237.99 415.854C1243 418.822 1248.49 421.999 1254.71 425.308C1299.04 449.1 1373.41 479.51 1477.38 482.583" stroke="url(#paint48_linear_1545_28512)" stroke-width="0.382926" stroke-miterlimit="10"/>
<path d="M15.5312 211.782C41.267 201.987 67.4492 190.484 94.3142 179.087C128.874 164.355 157.341 151.671 188.854 132.894C210.992 119.764 226.249 107.579 243.582 97.8358C259.995 88.6182 273.467 81.9217 283.813 76.827C309.628 64.0117 326.593 61.8846 353.799 65.3773C379.325 68.6599 394.687 75.7241 425.15 89.4848C448.102 99.8578 474.888 107.342 512.599 119.685C515.882 120.762 519.138 121.471 522.237 122.495C592.511 145.919 620.374 148.125 644.981 151.119C689.962 156.654 735.282 158.962 780.592 158.026C810.372 157.159 837.29 153.745 860.242 144.606C886.503 134.102 909.875 105.767 928.836 86.8324C939.13 76.4856 947.218 68.8175 953.915 69.8416C994.856 76.1705 994.488 124.386 1021.96 188.173C1031.28 209.839 1041.92 233.972 1059.17 257.134C1073.32 276.121 1130.94 365.198 1234.22 427.253C1239.27 430.273 1244.91 433.503 1251.11 436.864C1295.75 461.05 1370.99 492.17 1476.14 495.688" stroke="url(#paint49_linear_1545_28512)" stroke-width="0.382926" stroke-miterlimit="10"/>
<path d="M16.875 207.815C41.6654 198.02 67.4011 186.518 94.056 174.516C126.41 159.942 155.402 146.102 186.547 127.247C208.002 114.353 223.68 102.614 239.988 92.95C255.587 83.7061 268.455 76.5894 278.907 70.9696C304.091 57.4978 321.555 53.5061 348.157 55.9484C372.527 58.1805 386.472 65.0609 417.591 80.4235C439.073 90.9279 465.544 101.222 503.911 116.664C507.22 117.977 510.503 119.053 513.628 120.34C584.952 149.358 616.203 157.473 639.444 160.388C684.692 166.034 733.826 169.658 776.71 168.266C806.7 167.295 834.064 163.355 857.358 153.429C883.96 142.084 907.437 111.753 926.161 91.6894C936.456 80.6599 944.728 72.7291 951.319 73.7532C992.234 80.0559 991.341 131.055 1017.52 197.442C1026.35 219.869 1036.93 244.554 1053.87 268.635C1066.84 287.018 1125.43 378.248 1230.11 441.563C1235.2 444.61 1240.87 447.919 1247.15 451.359C1292.13 475.913 1368.19 507.741 1474.54 511.759" stroke="url(#paint50_linear_1545_28512)" stroke-width="0.382926" stroke-miterlimit="10"/>
<path d="M18.3437 204.033C42.215 194.264 67.5306 182.761 94.0541 170.104C125.062 155.574 155.286 139.428 184.602 121.731C205.374 109.126 221.367 97.7549 236.783 88.1959C251.515 78.8733 263.805 71.3627 274.362 65.2964C298.942 51.1418 316.879 45.3119 342.877 46.6774C366.118 47.8854 378.723 54.4244 410.394 71.5202C430.51 82.366 456.692 95.2864 495.611 113.8C498.92 115.376 502.229 116.82 505.406 118.343C577.755 152.955 612.157 168.37 634.269 169.815C680.462 172.756 729.412 180.319 773.216 178.665C803.416 177.588 831.226 173.071 854.835 162.383C881.805 150.145 905.361 117.739 923.849 96.7307C934.09 85.0446 942.494 76.7987 949.085 77.7966C989.947 84.1517 988.477 137.908 1013.42 206.895C1022.23 232.738 1034.16 257.412 1048.93 280.373C1060.75 298.204 1120.28 391.562 1226.32 456.137C1231.44 459.236 1237.17 462.598 1243.52 466.09C1288.82 491.038 1365.74 523.575 1473.28 527.961" stroke="url(#paint51_linear_1545_28512)" stroke-width="0.382926" stroke-miterlimit="10"/>
<path d="M19.7656 200.409C76.0231 176.422 130.442 148.335 182.584 116.374C266.461 64.9289 289.387 37.1449 337.523 37.5913C372.582 37.9327 380.854 52.8489 487.211 111.122C567.202 154.951 607.197 176.774 629.02 179.4C707.436 188.565 793.151 199.91 852.239 171.522C894.834 151.065 928.395 79.3987 946.778 82.2349C1001.27 90.6909 979.762 188.592 1043.94 292.322C1054.63 309.602 1115.08 405.06 1222.52 470.896C1264.22 496.448 1347.94 538.938 1472 544.427" stroke="url(#paint52_linear_1545_28512)" stroke-width="0.382926" stroke-miterlimit="10"/>
</g>
<rect opacity="0.8" x="-17" y="1.42676" width="1437" height="565" fill="url(#paint53_linear_1545_28512)"/>
<defs>
<linearGradient id="paint0_linear_1545_28512" x1="764.263" y1="494.532" x2="764.263" y2="194.244" gradientUnits="userSpaceOnUse">
<stop stop-color="#7248F7"/>
<stop offset="1" stop-color="#BF48F7"/>
</linearGradient>
<linearGradient id="paint1_linear_1545_28512" x1="763.512" y1="484.712" x2="763.512" y2="192.382" gradientUnits="userSpaceOnUse">
<stop stop-color="#7248F7"/>
<stop offset="1" stop-color="#BF48F7"/>
</linearGradient>
<linearGradient id="paint2_linear_1545_28512" x1="762.817" y1="474.837" x2="762.817" y2="190.521" gradientUnits="userSpaceOnUse">
<stop stop-color="#7248F7"/>
<stop offset="1" stop-color="#BF48F7"/>
</linearGradient>
<linearGradient id="paint3_linear_1545_28512" x1="761.988" y1="465.117" x2="761.988" y2="188.618" gradientUnits="userSpaceOnUse">
<stop stop-color="#7248F7"/>
<stop offset="1" stop-color="#BF48F7"/>
</linearGradient>
<linearGradient id="paint4_linear_1545_28512" x1="761.226" y1="455.327" x2="761.226" y2="186.726" gradientUnits="userSpaceOnUse">
<stop stop-color="#7248F7"/>
<stop offset="1" stop-color="#BF48F7"/>
</linearGradient>
<linearGradient id="paint5_linear_1545_28512" x1="760.43" y1="445.528" x2="760.43" y2="184.844" gradientUnits="userSpaceOnUse">
<stop stop-color="#7248F7"/>
<stop offset="1" stop-color="#BF48F7"/>
</linearGradient>
<linearGradient id="paint6_linear_1545_28512" x1="759.615" y1="435.759" x2="759.615" y2="182.946" gradientUnits="userSpaceOnUse">
<stop stop-color="#7248F7"/>
<stop offset="1" stop-color="#BF48F7"/>
</linearGradient>
<linearGradient id="paint7_linear_1545_28512" x1="758.932" y1="425.963" x2="758.932" y2="181.026" gradientUnits="userSpaceOnUse">
<stop stop-color="#7248F7"/>
<stop offset="1" stop-color="#BF48F7"/>
</linearGradient>
<linearGradient id="paint8_linear_1545_28512" x1="758.207" y1="416.194" x2="758.207" y2="179.192" gradientUnits="userSpaceOnUse">
<stop stop-color="#7248F7"/>
<stop offset="1" stop-color="#BF48F7"/>
</linearGradient>
<linearGradient id="paint9_linear_1545_28512" x1="757.466" y1="406.426" x2="757.466" y2="177.243" gradientUnits="userSpaceOnUse">
<stop stop-color="#7248F7"/>
<stop offset="1" stop-color="#BF48F7"/>
</linearGradient>
<linearGradient id="paint10_linear_1545_28512" x1="756.618" y1="396.686" x2="756.618" y2="175.355" gradientUnits="userSpaceOnUse">
<stop stop-color="#7248F7"/>
<stop offset="1" stop-color="#BF48F7"/>
</linearGradient>
<linearGradient id="paint11_linear_1545_28512" x1="755.966" y1="386.916" x2="755.966" y2="173.406" gradientUnits="userSpaceOnUse">
<stop stop-color="#7248F7"/>
<stop offset="1" stop-color="#BF48F7"/>
</linearGradient>
<linearGradient id="paint12_linear_1545_28512" x1="755.165" y1="377.174" x2="755.165" y2="171.502" gradientUnits="userSpaceOnUse">
<stop stop-color="#7248F7"/>
<stop offset="1" stop-color="#BF48F7"/>
</linearGradient>
<linearGradient id="paint13_linear_1545_28512" x1="754.416" y1="373.048" x2="754.416" y2="164.073" gradientUnits="userSpaceOnUse">
<stop stop-color="#7248F7"/>
<stop offset="1" stop-color="#BF48F7"/>
</linearGradient>
<linearGradient id="paint14_linear_1545_28512" x1="753.56" y1="371.396" x2="753.56" y2="154.266" gradientUnits="userSpaceOnUse">
<stop stop-color="#7248F7"/>
<stop offset="1" stop-color="#BF48F7"/>
</linearGradient>
<linearGradient id="paint15_linear_1545_28512" x1="752.902" y1="369.791" x2="752.902" y2="143.497" gradientUnits="userSpaceOnUse">
<stop stop-color="#7248F7"/>
<stop offset="1" stop-color="#BF48F7"/>
</linearGradient>
<linearGradient id="paint16_linear_1545_28512" x1="752.148" y1="369.267" x2="752.148" y2="132.72" gradientUnits="userSpaceOnUse">
<stop stop-color="#7248F7"/>
<stop offset="1" stop-color="#BF48F7"/>
</linearGradient>
<linearGradient id="paint17_linear_1545_28512" x1="751.339" y1="370.766" x2="751.339" y2="119.539" gradientUnits="userSpaceOnUse">
<stop stop-color="#7248F7"/>
<stop offset="1" stop-color="#BF48F7"/>
</linearGradient>
<linearGradient id="paint18_linear_1545_28512" x1="750.661" y1="372.262" x2="750.661" y2="106.382" gradientUnits="userSpaceOnUse">
<stop stop-color="#7248F7"/>
<stop offset="1" stop-color="#BF48F7"/>
</linearGradient>
<linearGradient id="paint19_linear_1545_28512" x1="749.86" y1="373.759" x2="749.86" y2="93.0848" gradientUnits="userSpaceOnUse">
<stop stop-color="#7248F7"/>
<stop offset="1" stop-color="#BF48F7"/>
</linearGradient>
<linearGradient id="paint20_linear_1545_28512" x1="749.059" y1="375.255" x2="749.059" y2="80.0479" gradientUnits="userSpaceOnUse">
<stop stop-color="#7248F7"/>
<stop offset="1" stop-color="#BF48F7"/>
</linearGradient>
<linearGradient id="paint21_linear_1545_28512" x1="748.357" y1="376.751" x2="748.357" y2="66.9813" gradientUnits="userSpaceOnUse">
<stop stop-color="#7248F7"/>
<stop offset="1" stop-color="#BF48F7"/>
</linearGradient>
<linearGradient id="paint22_linear_1545_28512" x1="747.598" y1="378.248" x2="747.598" y2="53.7312" gradientUnits="userSpaceOnUse">
<stop stop-color="#7248F7"/>
<stop offset="1" stop-color="#BF48F7"/>
</linearGradient>
<linearGradient id="paint23_linear_1545_28512" x1="746.915" y1="379.747" x2="746.915" y2="40.6628" gradientUnits="userSpaceOnUse">
<stop stop-color="#7248F7"/>
<stop offset="1" stop-color="#BF48F7"/>
</linearGradient>
<linearGradient id="paint24_linear_1545_28512" x1="746.131" y1="381.242" x2="746.131" y2="27.3654" gradientUnits="userSpaceOnUse">
<stop stop-color="#7248F7"/>
<stop offset="1" stop-color="#BF48F7"/>
</linearGradient>
<linearGradient id="paint25_linear_1545_28512" x1="745.37" y1="382.737" x2="745.37" y2="14.1805" gradientUnits="userSpaceOnUse">
<stop stop-color="#7248F7"/>
<stop offset="1" stop-color="#BF48F7"/>
</linearGradient>
<linearGradient id="paint26_linear_1545_28512" x1="744.568" y1="384.236" x2="744.568" y2="0.999786" gradientUnits="userSpaceOnUse">
<stop stop-color="#7248F7"/>
<stop offset="1" stop-color="#BF48F7"/>
</linearGradient>
<linearGradient id="paint27_linear_1545_28512" x1="744.656" y1="380.955" x2="744.656" y2="11.8577" gradientUnits="userSpaceOnUse">
<stop stop-color="#7248F7"/>
<stop offset="1" stop-color="#BF48F7"/>
</linearGradient>
<linearGradient id="paint28_linear_1545_28512" x1="744.673" y1="377.671" x2="744.673" y2="22.7158" gradientUnits="userSpaceOnUse">
<stop stop-color="#7248F7"/>
<stop offset="1" stop-color="#BF48F7"/>
</linearGradient>
<linearGradient id="paint29_linear_1545_28512" x1="744.617" y1="374.388" x2="744.617" y2="33.5096" gradientUnits="userSpaceOnUse">
<stop stop-color="#7248F7"/>
<stop offset="1" stop-color="#BF48F7"/>
</linearGradient>
<linearGradient id="paint30_linear_1545_28512" x1="744.791" y1="371.132" x2="744.791" y2="44.3914" gradientUnits="userSpaceOnUse">
<stop stop-color="#7248F7"/>
<stop offset="1" stop-color="#BF48F7"/>
</linearGradient>
<linearGradient id="paint31_linear_1545_28512" x1="744.869" y1="367.849" x2="744.869" y2="55.2652" gradientUnits="userSpaceOnUse">
<stop stop-color="#7248F7"/>
<stop offset="1" stop-color="#BF48F7"/>
</linearGradient>
<linearGradient id="paint32_linear_1545_28512" x1="744.912" y1="364.542" x2="744.912" y2="66.0001" gradientUnits="userSpaceOnUse">
<stop stop-color="#7248F7"/>
<stop offset="1" stop-color="#BF48F7"/>
</linearGradient>
<linearGradient id="paint33_linear_1545_28512" x1="744.921" y1="361.335" x2="744.921" y2="76.9269" gradientUnits="userSpaceOnUse">
<stop stop-color="#7248F7"/>
<stop offset="1" stop-color="#BF48F7"/>
</linearGradient>
<linearGradient id="paint34_linear_1545_28512" x1="745.088" y1="358.106" x2="745.088" y2="87.7712" gradientUnits="userSpaceOnUse">
<stop stop-color="#7248F7"/>
<stop offset="1" stop-color="#BF48F7"/>
</linearGradient>
<linearGradient id="paint35_linear_1545_28512" x1="745.132" y1="356.125" x2="745.132" y2="97.2294" gradientUnits="userSpaceOnUse">
<stop stop-color="#7248F7"/>
<stop offset="1" stop-color="#BF48F7"/>
</linearGradient>
<linearGradient id="paint36_linear_1545_28512" x1="745.082" y1="364.691" x2="745.082" y2="96.3251" gradientUnits="userSpaceOnUse">
<stop stop-color="#7248F7"/>
<stop offset="1" stop-color="#BF48F7"/>
</linearGradient>
<linearGradient id="paint37_linear_1545_28512" x1="745.105" y1="374.7" x2="745.105" y2="94.0161" gradientUnits="userSpaceOnUse">
<stop stop-color="#7248F7"/>
<stop offset="1" stop-color="#BF48F7"/>
</linearGradient>
<linearGradient id="paint38_linear_1545_28512" x1="745.274" y1="384.569" x2="745.274" y2="91.6127" gradientUnits="userSpaceOnUse">
<stop stop-color="#7248F7"/>
<stop offset="1" stop-color="#BF48F7"/>
</linearGradient>
<linearGradient id="paint39_linear_1545_28512" x1="745.264" y1="393.919" x2="745.264" y2="89.2811" gradientUnits="userSpaceOnUse">
<stop stop-color="#7248F7"/>
<stop offset="1" stop-color="#BF48F7"/>
</linearGradient>
<linearGradient id="paint40_linear_1545_28512" x1="745.273" y1="403.939" x2="745.273" y2="87.0397" gradientUnits="userSpaceOnUse">
<stop stop-color="#7248F7"/>
<stop offset="1" stop-color="#BF48F7"/>
</linearGradient>
<linearGradient id="paint41_linear_1545_28512" x1="745.33" y1="413.883" x2="745.33" y2="84.884" gradientUnits="userSpaceOnUse">
<stop stop-color="#7248F7"/>
<stop offset="1" stop-color="#BF48F7"/>
</linearGradient>
<linearGradient id="paint42_linear_1545_28512" x1="745.365" y1="423.732" x2="745.365" y2="82.6096" gradientUnits="userSpaceOnUse">
<stop stop-color="#7248F7"/>
<stop offset="1" stop-color="#BF48F7"/>
</linearGradient>
<linearGradient id="paint43_linear_1545_28512" x1="745.461" y1="433.477" x2="745.461" y2="80.2287" gradientUnits="userSpaceOnUse">
<stop stop-color="#7248F7"/>
<stop offset="1" stop-color="#BF48F7"/>
</linearGradient>
<linearGradient id="paint44_linear_1545_28512" x1="745.473" y1="443.325" x2="745.473" y2="78.0904" gradientUnits="userSpaceOnUse">
<stop stop-color="#7248F7"/>
<stop offset="1" stop-color="#BF48F7"/>
</linearGradient>
<linearGradient id="paint45_linear_1545_28512" x1="745.521" y1="453.196" x2="745.521" y2="75.7506" gradientUnits="userSpaceOnUse">
<stop stop-color="#7248F7"/>
<stop offset="1" stop-color="#BF48F7"/>
</linearGradient>
<linearGradient id="paint46_linear_1545_28512" x1="745.551" y1="463.046" x2="745.551" y2="73.4676" gradientUnits="userSpaceOnUse">
<stop stop-color="#7248F7"/>
<stop offset="1" stop-color="#BF48F7"/>
</linearGradient>
<linearGradient id="paint47_linear_1545_28512" x1="745.634" y1="472.998" x2="745.634" y2="71.2116" gradientUnits="userSpaceOnUse">
<stop stop-color="#7248F7"/>
<stop offset="1" stop-color="#BF48F7"/>
</linearGradient>
<linearGradient id="paint48_linear_1545_28512" x1="745.815" y1="482.583" x2="745.815" y2="68.8302" gradientUnits="userSpaceOnUse">
<stop stop-color="#7248F7"/>
<stop offset="1" stop-color="#BF48F7"/>
</linearGradient>
<linearGradient id="paint49_linear_1545_28512" x1="745.836" y1="495.688" x2="745.836" y2="63.8762" gradientUnits="userSpaceOnUse">
<stop stop-color="#7248F7"/>
<stop offset="1" stop-color="#BF48F7"/>
</linearGradient>
<linearGradient id="paint50_linear_1545_28512" x1="745.709" y1="511.759" x2="745.709" y2="55.2726" gradientUnits="userSpaceOnUse">
<stop stop-color="#7248F7"/>
<stop offset="1" stop-color="#BF48F7"/>
</linearGradient>
<linearGradient id="paint51_linear_1545_28512" x1="745.812" y1="527.961" x2="745.812" y2="46.484" gradientUnits="userSpaceOnUse">
<stop stop-color="#7248F7"/>
<stop offset="1" stop-color="#BF48F7"/>
</linearGradient>
<linearGradient id="paint52_linear_1545_28512" x1="745.882" y1="544.427" x2="745.882" y2="37.5861" gradientUnits="userSpaceOnUse">
<stop stop-color="#7248F7"/>
<stop offset="1" stop-color="#BF48F7"/>
</linearGradient>
<linearGradient id="paint53_linear_1545_28512" x1="1420" y1="283.927" x2="-17" y2="283.927" gradientUnits="userSpaceOnUse">
<stop offset="0.25" stop-color="#F5F5F7" stop-opacity="0"/>
<stop offset="0.65" stop-color="#F5F5F7"/>
<stop offset="0.95" stop-color="#F5F5F7"/>
<stop offset="1" stop-color="#F5F5F7" stop-opacity="0"/>
</linearGradient>
</defs>
</svg>
