<svg width="58" height="44" viewBox="0 0 58 44" fill="none" xmlns="http://www.w3.org/2000/svg">
<path d="M56.9815 15.8946L48.3096 42.4563C48.2224 42.724 48.076 42.9687 47.8813 43.1721C47.6866 43.3755 47.4486 43.5325 47.185 43.6313C46.9213 43.7301 46.6388 43.7683 46.3584 43.743C46.0779 43.7177 45.8068 43.6296 45.5651 43.4852C45.5112 43.4524 39.5182 40 28.9995 40C18.4807 40 12.4877 43.4524 12.4291 43.4875C12.1875 43.6306 11.9168 43.7175 11.6371 43.742C11.3574 43.7664 11.0757 43.7277 10.813 43.6287C10.5502 43.5297 10.313 43.373 10.1189 43.17C9.92486 42.9671 9.77883 42.7232 9.69164 42.4563L1.02445 15.8875C0.849822 15.3557 0.836365 14.7841 0.985775 14.2446C1.13519 13.7051 1.44079 13.2218 1.86415 12.8556C2.28751 12.4893 2.80972 12.2565 3.36509 12.1862C3.92047 12.116 4.4842 12.2116 4.98539 12.461L16.7487 18.3204L26.5737 1.99379C26.8262 1.57502 27.1827 1.22861 27.6085 0.988154C28.0344 0.747693 28.5151 0.621338 29.0041 0.621338C29.4932 0.621338 29.9739 0.747693 30.3997 0.988154C30.8256 1.22861 31.182 1.57502 31.4346 1.99379L41.2596 18.3204L53.0276 12.461C53.5293 12.2112 54.0939 12.1158 54.6498 12.1867C55.2058 12.2576 55.7283 12.4916 56.1514 12.8592C56.5744 13.2269 56.879 13.7116 57.0268 14.2523C57.1745 14.7929 57.1588 15.3652 56.9815 15.8969V15.8946Z" fill="url(#paint0_linear_1758_9409)"/>
<defs>
<linearGradient id="paint0_linear_1758_9409" x1="29.005" y1="0.621338" x2="29.005" y2="43.7506" gradientUnits="userSpaceOnUse">
<stop stop-color="#2BFF27"/>
<stop offset="1" stop-color="#FBFF39"/>
</linearGradient>
</defs>
</svg>
