<svg width="69" height="69" viewBox="0 0 69 69" fill="none" xmlns="http://www.w3.org/2000/svg">
<g clip-path="url(#clip0_1545_28646)">
<path d="M63.0525 17.8781C62.9709 16.0839 62.9709 14.3713 62.9709 12.6586C62.9709 11.2722 61.9107 10.212 60.5243 10.212C50.33 10.212 42.5823 7.27601 36.1395 0.996311C35.1608 0.0992113 33.6928 0.0992113 32.7142 0.996311C26.2714 7.27601 18.5237 10.212 8.32937 10.212C6.94295 10.212 5.88274 11.2722 5.88274 12.6586C5.88274 14.3713 5.88274 16.0839 5.80118 17.8781C5.47496 35.0046 4.98563 58.4923 33.6113 68.3604L34.4268 68.5235L35.2424 68.3604C63.7865 58.4923 63.3787 35.0861 63.0525 17.8781ZM32.4695 41.6105C31.9802 42.0183 31.4093 42.2629 30.7569 42.2629H30.6753C30.0229 42.2629 29.3704 41.9367 28.9627 41.4474L21.3781 33.0473L25.0481 29.7851L31.0015 36.391L44.2134 23.8316L47.5571 27.42L32.4695 41.6105Z" fill="white"/>
</g>
<defs>
<clipPath id="clip0_1545_28646">
<rect width="68.2" height="68.2" fill="white" transform="translate(0.328125 0.323486)"/>
</clipPath>
</defs>
</svg>
