<svg width="968" height="245" viewBox="0 0 968 245" fill="none" xmlns="http://www.w3.org/2000/svg">
<mask id="mask0_8022_50639" style="mask-type:alpha" maskUnits="userSpaceOnUse" x="0" y="0" width="968" height="245">
<rect x="0.25" width="967.5" height="244.5" rx="24" fill="#F1EDFE"/>
</mask>
<g mask="url(#mask0_8022_50639)">
<rect x="451.219" y="135.285" width="86.0895" height="86.0895" rx="15.6526" fill="#FE4E4E"/>
<g clip-path="url(#clip0_8022_50639)">
<path d="M490.435 158.976C491.633 158.408 492.943 158.113 494.27 158.113C495.596 158.113 496.906 158.408 498.105 158.976L520.356 169.517C520.744 169.701 521.072 169.99 521.303 170.351C521.534 170.712 521.658 171.131 521.662 171.56C521.666 171.989 521.549 172.41 521.324 172.776C521.1 173.141 520.777 173.436 520.393 173.626L498.251 184.61C497.013 185.224 495.651 185.543 494.27 185.543C492.888 185.543 491.526 185.224 490.289 184.61L471.443 175.26V185.505C471.443 186.11 471.202 186.691 470.774 187.119C470.346 187.547 469.766 187.788 469.16 187.788C468.555 187.788 467.974 187.547 467.546 187.119C467.118 186.691 466.878 186.11 466.878 185.505V171.695C466.856 171.244 466.969 170.796 467.201 170.409C467.434 170.021 467.775 169.711 468.183 169.517L490.435 158.976ZM476.008 182.624V190.07C476.008 190.371 476.068 190.668 476.183 190.945C476.298 191.223 476.467 191.474 476.679 191.686L476.688 191.7L476.793 191.796L477.067 192.052C478.498 193.327 480.045 194.466 481.688 195.453C484.737 197.284 489.143 199.201 494.27 199.201C499.397 199.201 503.802 197.284 506.856 195.453C508.499 194.466 510.046 193.327 511.476 192.052L511.75 191.796L511.823 191.723L511.851 191.696L511.855 191.691L511.865 191.686C512.076 191.474 512.244 191.222 512.359 190.945C512.473 190.667 512.532 190.37 512.531 190.07V182.62L500.278 188.701C498.41 189.627 496.354 190.109 494.27 190.109C492.185 190.109 490.129 189.627 488.262 188.701L476.008 182.624Z" fill="white"/>
</g>
<rect x="576.398" y="118.674" width="68.8716" height="68.8716" rx="12.5221" fill="#FFBF42"/>
<path d="M625.44 162.24C627.449 162.24 629.092 160.596 629.092 158.587V138.5C629.092 136.491 627.449 134.848 625.44 134.848H608.613C607.534 134.848 606.816 135.988 607.029 137.045C607.187 137.831 607.828 138.5 608.629 138.5H623.092C624.389 138.5 625.44 139.551 625.44 140.848V156.24C625.44 157.536 624.389 158.587 623.092 158.587H611.352C610.056 158.587 609.005 159.639 609.005 160.935V162.24M614.483 143.978C615.492 143.978 616.309 144.796 616.309 145.805C616.309 146.813 615.492 147.631 614.483 147.631H607.7C606.404 147.631 605.352 148.682 605.352 149.979V169.544C605.352 170.553 604.535 171.37 603.526 171.37C602.518 171.37 601.7 170.553 601.7 169.544V162.24C601.7 161.231 600.882 160.414 599.874 160.414C598.865 160.414 598.048 161.231 598.048 162.24V169.544C598.048 170.553 597.23 171.37 596.222 171.37C595.213 171.37 594.395 170.553 594.395 169.544V158.131C594.395 157.375 593.782 156.761 593.026 156.761C592.269 156.761 591.656 156.148 591.656 155.392V147.631C591.656 145.622 593.3 143.978 595.309 143.978H614.483ZM603.526 138.5C603.526 140.509 601.883 142.152 599.874 142.152C597.865 142.152 596.222 140.509 596.222 138.5C596.222 136.491 597.865 134.848 599.874 134.848C601.883 134.848 603.526 136.491 603.526 138.5ZM619.961 143.978C619.961 142.97 620.779 142.152 621.788 142.152C622.796 142.152 623.614 142.97 623.614 143.978V154.935C623.614 155.944 622.796 156.761 621.788 156.761C620.779 156.761 619.961 155.944 619.961 154.935V143.978ZM614.483 151.283C614.483 150.274 615.301 149.457 616.309 149.457C617.318 149.457 618.135 150.274 618.135 151.283V154.935C618.135 155.944 617.318 156.761 616.309 156.761C615.301 156.761 614.483 155.944 614.483 154.935V151.283ZM609.005 151.283C609.005 150.274 609.822 149.457 610.831 149.457C611.839 149.457 612.657 150.274 612.657 151.283V154.935C612.657 155.944 611.839 156.761 610.831 156.761C609.822 156.761 609.005 155.944 609.005 154.935V151.283Z" fill="white"/>
<rect x="329.125" y="124.846" width="76.2088" height="70.5934" rx="12.8352" fill="#1FD773"/>
<g clip-path="url(#clip1_8022_50639)">
<path d="M360.211 137.682C357.588 137.682 355.412 139.48 354.789 141.911C354.718 141.911 354.666 141.893 354.596 141.893C351.498 141.893 348.98 144.411 348.98 147.509C348.98 147.93 349.033 148.342 349.129 148.737C346.567 149.79 344.769 152.299 344.769 155.23C344.769 156.335 345.049 157.362 345.497 158.292C343.391 159.503 341.961 161.749 341.961 164.355C341.961 167.276 343.751 169.786 346.295 170.839C346.216 171.242 346.172 171.655 346.172 172.076C346.172 175.568 348.998 178.393 352.49 178.393C352.85 178.393 353.2 178.349 353.543 178.288C354.385 180.788 356.719 182.605 359.509 182.605C363.001 182.605 365.826 179.779 365.826 176.287V143.297C365.826 140.2 363.308 137.682 360.211 137.682ZM392.499 164.355C392.499 161.749 391.069 159.503 388.963 158.292C389.42 157.362 389.692 156.335 389.692 155.23C389.692 152.299 387.893 149.79 385.331 148.737C385.419 148.342 385.48 147.93 385.48 147.509C385.48 144.411 382.962 141.893 379.865 141.893C379.795 141.893 379.733 141.911 379.672 141.911C379.049 139.48 376.873 137.682 374.249 137.682C371.152 137.682 368.634 140.191 368.634 143.297V176.287C368.634 179.779 371.459 182.605 374.951 182.605C377.741 182.605 380.075 180.788 380.918 178.288C381.26 178.349 381.611 178.393 381.971 178.393C385.463 178.393 388.288 175.568 388.288 172.076C388.288 171.655 388.244 171.242 388.165 170.839C390.709 169.786 392.499 167.276 392.499 164.355Z" fill="white"/>
</g>
<rect x="238.609" y="77.5254" width="63.6345" height="63.6345" rx="12.5221" fill="white"/>
<rect x="239.124" y="78.0398" width="62.6058" height="62.6058" rx="12.0078" stroke="#111111" stroke-opacity="0.1" stroke-width="1.02872"/>
<path d="M272.034 104.519H280.877L272.034 95.6756V104.519ZM260.778 93.2637H273.642L283.289 102.911V122.206C283.289 123.059 282.951 123.877 282.347 124.48C281.744 125.083 280.926 125.422 280.073 125.422H260.778C259.925 125.422 259.107 125.083 258.504 124.48C257.901 123.877 257.562 123.059 257.562 122.206V96.4795C257.562 94.6947 258.994 93.2637 260.778 93.2637ZM262.386 122.206H265.602V112.559H262.386V122.206ZM268.818 122.206H272.034V109.343H268.818V122.206ZM275.25 122.206H278.466V115.775H275.25V122.206Z" fill="#111111"/>
<rect x="668.617" y="-33.75" width="63.6345" height="63.6345" rx="12.5221" fill="#4864F7"/>
<rect x="668.617" y="-33.75" width="63.6345" height="63.6345" rx="12.5221" fill="url(#paint0_linear_8022_50639)"/>
<path d="M702.049 -6.75623H710.893L702.049 -15.5998V-6.75623ZM690.794 -18.0117H703.657L713.305 -8.36415V10.931C713.305 11.7839 712.966 12.6018 712.363 13.2049C711.76 13.808 710.942 14.1468 710.089 14.1468H690.794C689.941 14.1468 689.123 13.808 688.52 13.2049C687.917 12.6018 687.578 11.7839 687.578 10.931V-14.7959C687.578 -16.5807 689.009 -18.0117 690.794 -18.0117ZM692.402 10.931H695.618V1.28341H692.402V10.931ZM698.834 10.931H702.049V-1.93244H698.834V10.931ZM705.265 10.931H708.481V4.49927H705.265V10.931Z" fill="white"/>
<rect x="487.391" y="45.6348" width="60.6418" height="60.6418" rx="11.0258" fill="white"/>
<rect x="487.905" y="46.1491" width="59.6131" height="59.6131" rx="10.5114" stroke="#111111" stroke-opacity="0.1" stroke-width="1.02872"/>
<path d="M519.315 71.1324H528.159L519.315 62.2888V71.1324ZM508.06 59.877H520.923L530.571 69.5245V88.8196C530.571 89.6725 530.232 90.4905 529.629 91.0936C529.026 91.6967 528.208 92.0355 527.355 92.0355H508.06C507.207 92.0355 506.389 91.6967 505.786 91.0936C505.183 90.4905 504.844 89.6725 504.844 88.8196V63.0928C504.844 61.308 506.275 59.877 508.06 59.877ZM509.668 88.8196H512.883V79.1721H509.668V88.8196ZM516.099 88.8196H519.315V75.9562H516.099V88.8196ZM522.531 88.8196H525.747V82.3879H522.531V88.8196Z" fill="#111111"/>
<rect x="362.5" y="44.1074" width="60.2627" height="60.2627" rx="10.9569" fill="#4864F7"/>
<path fill-rule="evenodd" clip-rule="evenodd" d="M376.652 57.0625C376.334 57.0625 376.029 57.1888 375.804 57.4135C375.579 57.6382 375.453 57.9431 375.453 58.2609C375.453 58.5787 375.579 58.8836 375.804 59.1083C376.029 59.3331 376.334 59.4593 376.652 59.4593H379.847V71.8428C379.847 76.7387 379.847 79.1867 381.452 80.7078C383.056 82.229 385.638 82.229 390.804 82.229H391.432V87.8807L388.899 89.1462C388.757 89.2158 388.63 89.3127 388.526 89.4315C388.422 89.5504 388.342 89.6887 388.291 89.8385C388.24 89.9883 388.22 90.1467 388.231 90.3045C388.241 90.4622 388.283 90.6163 388.354 90.7578C388.425 90.8993 388.523 91.0255 388.642 91.1289C388.762 91.2324 388.901 91.3112 389.051 91.3607C389.201 91.4102 389.36 91.4295 389.517 91.4175C389.675 91.4054 389.829 91.3623 389.97 91.2906L392.63 89.9611L395.291 91.2906C395.432 91.3623 395.585 91.4054 395.743 91.4175C395.901 91.4295 396.059 91.4102 396.21 91.3607C396.36 91.3112 396.499 91.2324 396.618 91.1289C396.738 91.0255 396.836 90.8993 396.907 90.7578C396.977 90.6163 397.019 90.4622 397.03 90.3045C397.041 90.1467 397.02 89.9883 396.97 89.8385C396.919 89.6887 396.839 89.5504 396.735 89.4315C396.63 89.3127 396.503 89.2158 396.361 89.1462L393.829 87.8791V82.229H394.457C399.621 82.229 402.205 82.229 403.809 80.7078C405.413 79.1867 405.413 76.7387 405.413 71.8428V59.4593H408.609C408.927 59.4593 409.232 59.3331 409.456 59.1083C409.681 58.8836 409.807 58.5787 409.807 58.2609C409.807 57.9431 409.681 57.6382 409.456 57.4135C409.232 57.1888 408.927 57.0625 408.609 57.0625H376.652ZM398.271 67.8002C398.495 68.0249 398.621 68.3295 398.621 68.6471C398.621 68.9647 398.495 69.2693 398.271 69.494L396.166 71.6C395.94 71.8365 395.699 72.0585 395.444 72.2647C395.1 72.5453 394.672 72.7023 394.228 72.7105C393.784 72.7023 393.356 72.5453 393.012 72.2647C392.758 72.0585 392.516 71.8365 392.29 71.6L391.315 70.6253L391.032 70.3424L390.75 70.6221L388.684 72.6897C388.574 72.8074 388.442 72.9019 388.294 72.9674C388.147 73.0329 387.989 73.0681 387.828 73.0709C387.667 73.0738 387.507 73.0442 387.358 72.9839C387.209 72.9236 387.073 72.8339 386.959 72.7201C386.846 72.6063 386.756 72.4708 386.696 72.3216C386.635 72.1723 386.606 72.0125 386.609 71.8516C386.611 71.6907 386.647 71.532 386.712 71.385C386.778 71.238 386.872 71.1057 386.99 70.996L389.094 68.89C389.326 68.6583 389.577 68.4074 389.816 68.2252C390.16 67.9446 390.589 67.7876 391.032 67.7794C391.566 67.7794 391.967 68.0111 392.248 68.2252C392.488 68.4074 392.739 68.6583 392.971 68.89L393.945 69.8647L394.228 70.1459L394.511 69.8663L396.577 67.8002C396.802 67.5758 397.106 67.4497 397.424 67.4497C397.741 67.4497 398.046 67.5758 398.271 67.8002Z" fill="white"/>
<rect x="671.938" y="77.5254" width="60.2627" height="60.2627" rx="10.9569" fill="white"/>
<rect x="672.452" y="78.0398" width="59.234" height="59.234" rx="10.4425" stroke="#111111" stroke-opacity="0.1" stroke-width="1.02872"/>
<g clip-path="url(#clip2_8022_50639)">
<path fill-rule="evenodd" clip-rule="evenodd" d="M702.065 126.831C707.151 126.831 712.028 124.811 715.624 121.215C719.219 117.619 721.24 112.742 721.24 107.657C721.24 102.572 719.219 97.6944 715.624 94.0985C712.028 90.5026 707.151 88.4824 702.065 88.4824C696.98 88.4824 692.103 90.5026 688.507 94.0985C684.911 97.6944 682.891 102.572 682.891 107.657C682.891 112.742 684.911 117.619 688.507 121.215C692.103 124.811 696.98 126.831 702.065 126.831ZM694.7 100.443C694.017 101.471 693.676 102.487 693.676 103.486C693.676 103.973 693.892 104.426 694.323 104.843C694.755 105.26 695.282 105.466 695.908 105.466C696.969 105.466 697.691 104.872 698.072 103.678C698.475 102.54 698.966 101.677 699.548 101.09C700.131 100.505 701.034 100.212 702.266 100.212C703.319 100.212 704.177 100.5 704.843 101.082C705.507 101.662 705.84 102.377 705.84 103.22C705.843 103.644 705.73 104.06 705.514 104.424C705.294 104.795 705.023 105.133 704.709 105.428C704.204 105.889 703.687 106.335 703.156 106.765C702.341 107.441 701.691 108.024 701.209 108.515C700.73 109.006 700.342 109.577 700.052 110.224C699.28 113.208 703.287 113.448 704.213 111.317C704.325 111.111 704.495 110.885 704.723 110.636C704.953 110.389 705.258 110.102 705.639 109.773C706.608 108.966 707.563 108.139 708.501 107.295C709.03 106.806 709.488 106.221 709.874 105.545C710.272 104.824 710.472 104.01 710.454 103.187C710.454 102.048 710.116 100.994 709.438 100.023C708.762 99.05 707.803 98.283 706.562 97.7173C705.32 97.1541 703.889 96.8713 702.266 96.8713C700.522 96.8713 698.995 97.2068 697.686 97.8851C696.377 98.561 695.383 99.4143 694.7 100.443ZM699.829 117.412C699.829 118.048 700.081 118.657 700.531 119.107C700.98 119.556 701.59 119.809 702.226 119.809C702.861 119.809 703.471 119.556 703.921 119.107C704.37 118.657 704.623 118.048 704.623 117.412C704.623 116.776 704.37 116.167 703.921 115.717C703.471 115.268 702.861 115.015 702.226 115.015C701.59 115.015 700.98 115.268 700.531 115.717C700.081 116.167 699.829 116.776 699.829 117.412Z" fill="#DF48F7"/>
</g>
<rect x="271.117" y="-14.8887" width="58.5409" height="58.5409" rx="10.6438" fill="url(#paint1_linear_8022_50639)"/>
<path d="M312.802 22.1446C314.509 22.1446 315.906 20.7476 315.906 19.0402V1.96577C315.906 0.258326 314.509 -1.13867 312.802 -1.13867H298.499C297.582 -1.13867 296.971 -0.169217 297.153 0.729339C297.287 1.39691 297.832 1.96577 298.513 1.96577H310.806C311.909 1.96577 312.802 2.85928 312.802 3.96148V17.0445C312.802 18.1467 311.909 19.0402 310.806 19.0402H300.828C299.726 19.0402 298.832 19.9337 298.832 21.0359V22.1446M303.489 6.62243C304.346 6.62243 305.041 7.31738 305.041 8.17465C305.041 9.03192 304.346 9.72687 303.489 9.72687H297.723C296.621 9.72687 295.728 10.6204 295.728 11.7226V28.3535C295.728 29.2108 295.033 29.9057 294.175 29.9057C293.318 29.9057 292.623 29.2108 292.623 28.3535V22.1446C292.623 21.2874 291.928 20.5924 291.071 20.5924C290.214 20.5924 289.519 21.2874 289.519 22.1446V28.3535C289.519 29.2108 288.824 29.9057 287.966 29.9057C287.109 29.9057 286.414 29.2108 286.414 28.3535V18.6521C286.414 18.0092 285.893 17.488 285.25 17.488C284.607 17.488 284.086 16.9668 284.086 16.3238V9.72687C284.086 8.01943 285.483 6.62243 287.19 6.62243H303.489ZM294.175 1.96577C294.175 3.67321 292.778 5.07021 291.071 5.07021C289.363 5.07021 287.966 3.67321 287.966 1.96577C287.966 0.258326 289.363 -1.13867 291.071 -1.13867C292.778 -1.13867 294.175 0.258326 294.175 1.96577ZM308.145 6.62243C308.145 5.76516 308.84 5.07021 309.698 5.07021C310.555 5.07021 311.25 5.76516 311.25 6.62243V15.9358C311.25 16.793 310.555 17.488 309.698 17.488C308.84 17.488 308.145 16.793 308.145 15.9358V6.62243ZM303.489 12.8313C303.489 11.974 304.184 11.2791 305.041 11.2791C305.898 11.2791 306.593 11.974 306.593 12.8313V15.9358C306.593 16.793 305.898 17.488 305.041 17.488C304.184 17.488 303.489 16.793 303.489 15.9358V12.8313ZM298.832 12.8313C298.832 11.974 299.527 11.2791 300.384 11.2791C301.242 11.2791 301.936 11.974 301.936 12.8313V15.9358C301.936 16.793 301.242 17.488 300.384 17.488C299.527 17.488 298.832 16.793 298.832 15.9358V12.8313Z" fill="white"/>
<rect x="576.891" y="14.5996" width="58.5894" height="58.5894" rx="11.6893" fill="#F7931A"/>
<path d="M609.465 41.7816C609.011 43.6008 606.179 42.6765 605.299 42.4271L606.106 39.2288C607.015 39.4929 609.935 39.8743 609.465 41.7816ZM604.903 44.0703L604.022 47.606C605.108 47.8848 608.468 48.9558 608.967 46.9605C609.495 44.8772 605.988 44.3343 604.903 44.0703ZM620.41 47.4446C618.444 55.3084 610.492 60.0912 602.629 58.1252C594.765 56.1593 589.986 48.2075 591.948 40.3438C592.414 38.4748 593.244 36.7159 594.389 35.1677C595.535 33.6194 596.975 32.312 598.626 31.3201C600.277 30.3283 602.108 29.6715 604.013 29.3872C605.918 29.1029 607.861 29.1967 609.729 29.6632C617.578 31.6291 622.361 39.5809 620.41 47.4446ZM609.421 38.0991L610.082 35.4583L608.468 35.0915L607.822 37.6296C607.397 37.5269 606.971 37.4242 606.531 37.3362L607.177 34.7394L605.577 34.358L604.917 36.9841C604.565 36.8961 604.213 36.8227 603.89 36.7347L601.675 36.1772L601.235 37.8937C601.235 37.8937 602.438 38.1725 602.408 38.1871C603.069 38.3485 603.186 38.7593 603.157 39.1261L601.352 46.359C601.279 46.5644 601.044 46.8284 600.619 46.7551C600.633 46.7698 599.445 46.4617 599.445 46.4617L598.653 48.2956L600.736 48.8237C601.132 48.9264 601.514 49.0291 601.895 49.1172L601.22 51.7873L602.834 52.1981L603.494 49.5426C603.934 49.66 604.36 49.7627 604.771 49.8801L604.11 52.5062L605.724 52.917L606.399 50.2468C609.113 50.7603 611.197 50.5549 612.047 48.0755C612.781 46.0949 612.047 44.9212 610.58 44.173C611.637 43.8942 612.429 43.234 612.649 41.7962C612.942 39.845 611.446 38.8033 609.421 38.0991Z" fill="white"/>
<rect x="433.391" y="-19.5195" width="49.071" height="49.071" rx="10.0771" fill="#4864F7"/>
<path d="M460.623 3.27954C460.249 4.77358 457.924 4.01451 457.201 3.80968L457.863 1.18306C458.61 1.39994 461.008 1.71321 460.623 3.27954ZM456.875 5.15913L456.153 8.06287C457.044 8.29179 459.803 9.17135 460.213 7.53273C460.647 5.82181 457.767 5.37601 456.875 5.15913ZM469.611 7.93033C467.996 14.3884 461.466 18.3163 455.008 16.7018C448.55 15.0873 444.626 8.55686 446.236 2.09877C446.619 0.563869 447.301 -0.880598 448.242 -2.15214C449.183 -3.42367 450.365 -4.49737 451.721 -5.31191C453.077 -6.12644 454.58 -6.66585 456.145 -6.89934C457.709 -7.13282 459.305 -7.0558 460.839 -6.67268C467.286 -5.05816 471.213 1.47223 469.611 7.93033ZM460.586 0.255316L461.129 -1.91345L459.803 -2.21467L459.273 -0.130242C458.924 -0.214583 458.574 -0.298923 458.213 -0.371216L458.743 -2.50383L457.43 -2.8171L456.888 -0.660385C456.598 -0.732677 456.309 -0.79292 456.044 -0.865212L454.225 -1.32306L453.863 0.0866342C453.863 0.0866342 454.851 0.315559 454.827 0.327608C455.369 0.460144 455.466 0.797507 455.442 1.09872L453.96 7.03873C453.899 7.20741 453.707 7.42429 453.357 7.36404C453.369 7.37609 452.393 7.12307 452.393 7.12307L451.743 8.62916L453.454 9.06291C453.779 9.14725 454.092 9.23159 454.405 9.30388L453.851 11.4967L455.177 11.8341L455.719 9.6533C456.08 9.74969 456.43 9.83402 456.767 9.93041L456.225 12.0871L457.55 12.4245L458.104 10.2316C460.333 10.6533 462.044 10.4847 462.743 8.44843C463.346 6.82185 462.743 5.85796 461.538 5.24347C462.406 5.01455 463.056 4.47236 463.237 3.29159C463.478 1.68911 462.249 0.833653 460.586 0.255316Z" fill="white"/>
<rect x="153.25" y="45" width="49.071" height="49.071" rx="10.0771" fill="#4864F7"/>
<path d="M180.482 67.7991C180.108 69.2931 177.783 68.534 177.06 68.3292L177.723 65.7026C178.47 65.9195 180.868 66.2327 180.482 67.7991ZM176.735 69.6787L176.012 72.5824C176.904 72.8113 179.663 73.6909 180.072 72.0523C180.506 70.3413 177.626 69.8955 176.735 69.6787ZM189.47 72.4499C187.856 78.908 181.325 82.8358 174.867 81.2213C168.409 79.6068 164.485 73.0764 166.096 66.6183C166.479 65.0834 167.16 63.6389 168.101 62.3674C169.042 61.0959 170.224 60.0222 171.58 59.2076C172.936 58.3931 174.44 57.8537 176.004 57.6202C177.569 57.3867 179.164 57.4637 180.699 57.8469C187.145 59.4614 191.073 65.9918 189.47 72.4499ZM180.446 64.7748L180.988 62.6061L179.663 62.3049L179.133 64.3893C178.783 64.3049 178.434 64.2206 178.072 64.1483L178.602 62.0157L177.289 61.7024L176.747 63.8591C176.458 63.7869 176.169 63.7266 175.903 63.6543L174.084 63.1965L173.723 64.6062C173.723 64.6062 174.711 64.8351 174.687 64.8471C175.229 64.9797 175.325 65.317 175.301 65.6183L173.819 71.5583C173.759 71.7269 173.566 71.9438 173.217 71.8836C173.229 71.8956 172.253 71.6426 172.253 71.6426L171.602 73.1487L173.313 73.5824C173.638 73.6668 173.952 73.7511 174.265 73.8234L173.711 76.0163L175.036 76.3536L175.578 74.1728C175.94 74.2692 176.289 74.3536 176.626 74.4499L176.084 76.6067L177.41 76.944L177.964 74.7512C180.193 75.1729 181.904 75.0042 182.603 72.968C183.205 71.3414 182.603 70.3775 181.398 69.763C182.265 69.5341 182.916 68.9919 183.097 67.8111C183.338 66.2086 182.109 65.3532 180.446 64.7748Z" fill="white"/>
<rect x="765.25" y="52.5" width="49.5476" height="49.5476" rx="9.00866" fill="url(#paint2_linear_8022_50639)"/>
<path d="M800.531 69.3918H799.217V79.9019C799.217 80.6244 798.626 81.2156 797.903 81.2156H782.138V82.5294C782.138 83.9745 783.32 85.1569 784.765 85.1569H797.903L803.158 90.412V72.0193C803.158 70.5742 801.976 69.3918 800.531 69.3918ZM796.589 75.9606V66.7642C796.589 65.3191 795.407 64.1367 793.962 64.1367H779.51C778.065 64.1367 776.883 65.3191 776.883 66.7642V83.8432L782.138 78.5881H793.962C795.407 78.5881 796.589 77.4057 796.589 75.9606Z" fill="white"/>
<rect x="36.25" y="118.5" width="156" height="26" rx="13" fill="white"/>
<rect x="36.4375" y="118.688" width="155.625" height="25.625" rx="12.8125" stroke="#111111" stroke-opacity="0.1" stroke-width="0.375"/>
<rect x="42.25" y="125.5" width="12" height="12" rx="6" fill="#1FD773"/>
<g clip-path="url(#clip3_8022_50639)">
<path d="M50.25 130L47.5 132.75L46.25 131.5" stroke="white" stroke-width="1.125" stroke-linecap="round" stroke-linejoin="round"/>
</g>
<path d="M62.7666 134.218V135.5H57.8652V128.102H62.7666V129.378H59.4136V131.163H62.5769V132.352H59.4136V134.218H62.7666ZM66.0171 133.593H65.9863L64.9558 135.5H63.3818L65.1045 132.762L63.3921 130.004H65.0789L66.0684 131.86H66.0991L67.0732 130.004H68.7036L66.9861 132.721L68.6882 135.5H67.063L66.0171 133.593ZM72.5129 129.917C73.9075 129.917 74.7637 130.978 74.7637 132.752C74.7637 134.521 73.9126 135.587 72.5386 135.587C71.7388 135.587 71.1235 135.198 70.8313 134.577H70.8005V137.294H69.3035V130.004H70.78V130.963H70.8108C71.1082 130.317 71.7183 129.917 72.5129 129.917ZM72.0105 134.382C72.759 134.382 73.2307 133.752 73.2307 132.752C73.2307 131.757 72.759 131.116 72.0105 131.116C71.2773 131.116 70.7954 131.768 70.7954 132.752C70.7954 133.747 71.2773 134.382 72.0105 134.382ZM78.0039 130.993C77.3477 130.993 76.876 131.491 76.8247 132.178H79.1575C79.1267 131.475 78.6704 130.993 78.0039 130.993ZM79.178 133.818H80.552C80.3879 134.895 79.4036 135.618 78.0449 135.618C76.353 135.618 75.3379 134.536 75.3379 132.778C75.3379 131.024 76.3633 129.886 77.9885 129.886C79.5881 129.886 80.5981 130.968 80.5981 132.639V133.095H76.8093V133.188C76.8093 133.972 77.3066 134.51 78.0706 134.51C78.6191 134.51 79.0396 134.239 79.178 133.818ZM81.3723 135.5V130.004H82.8181V130.993H82.8489C83.0437 130.296 83.5103 129.917 84.1562 129.917C84.3306 129.917 84.4792 129.942 84.5818 129.973V131.291C84.4587 131.24 84.2537 131.204 84.0383 131.204C83.3 131.204 82.8694 131.655 82.8694 132.429V135.5H81.3723ZM85.5969 128.738H87.094V130.004H88.1091V131.132H87.094V133.762C87.094 134.182 87.2991 134.382 87.74 134.382C87.8733 134.382 88.0117 134.372 88.104 134.357V135.459C87.9502 135.495 87.6938 135.521 87.3914 135.521C86.0994 135.521 85.5969 135.09 85.5969 134.018V131.132H84.8228V130.004H85.5969V128.738ZM95.9226 134.218V135.5H91.1392V128.102H92.6875V134.218H95.9226ZM99.0962 130.993C98.4399 130.993 97.9683 131.491 97.917 132.178H100.25C100.219 131.475 99.7627 130.993 99.0962 130.993ZM100.27 133.818H101.644C101.48 134.895 100.496 135.618 99.1372 135.618C97.4453 135.618 96.4302 134.536 96.4302 132.778C96.4302 131.024 97.4556 129.886 99.0808 129.886C100.68 129.886 101.69 130.968 101.69 132.639V133.095H97.9016V133.188C97.9016 133.972 98.3989 134.51 99.1628 134.51C99.7114 134.51 100.132 134.239 100.27 133.818ZM102.372 131.619C102.372 130.573 103.28 129.886 104.69 129.886C106.069 129.886 106.966 130.583 106.987 131.65H105.607C105.577 131.209 105.223 130.937 104.669 130.937C104.151 130.937 103.813 131.173 103.813 131.527C103.813 131.798 104.049 131.983 104.531 132.096L105.582 132.321C106.684 132.567 107.13 133.003 107.13 133.823C107.13 134.905 106.135 135.618 104.685 135.618C103.218 135.618 102.316 134.91 102.234 133.839H103.695C103.767 134.3 104.131 134.567 104.726 134.567C105.295 134.567 105.638 134.341 105.638 133.982C105.638 133.706 105.454 133.552 104.961 133.434L103.946 133.208C102.906 132.972 102.372 132.429 102.372 131.619ZM107.786 131.619C107.786 130.573 108.694 129.886 110.104 129.886C111.483 129.886 112.38 130.583 112.401 131.65H111.021C110.991 131.209 110.637 130.937 110.083 130.937C109.565 130.937 109.227 131.173 109.227 131.527C109.227 131.798 109.463 131.983 109.945 132.096L110.996 132.321C112.098 132.567 112.544 133.003 112.544 133.823C112.544 134.905 111.55 135.618 110.099 135.618C108.632 135.618 107.73 134.91 107.648 133.839H109.109C109.181 134.3 109.545 134.567 110.14 134.567C110.709 134.567 111.052 134.341 111.052 133.982C111.052 133.706 110.868 133.552 110.375 133.434L109.36 133.208C108.32 132.972 107.786 132.429 107.786 131.619ZM115.815 135.618C114.154 135.618 113.093 134.552 113.093 132.747C113.093 130.968 114.169 129.886 115.815 129.886C117.461 129.886 118.538 130.963 118.538 132.747C118.538 134.557 117.476 135.618 115.815 135.618ZM115.815 134.475C116.548 134.475 117.015 133.854 117.015 132.752C117.015 131.66 116.543 131.029 115.815 131.029C115.087 131.029 114.61 131.66 114.61 132.752C114.61 133.854 115.077 134.475 115.815 134.475ZM119.312 135.5V130.004H120.758V130.983H120.788C121.081 130.301 121.66 129.901 122.506 129.901C123.726 129.901 124.413 130.67 124.413 131.957V135.5H122.916V132.27C122.916 131.552 122.578 131.142 121.906 131.142C121.234 131.142 120.809 131.634 120.809 132.347V135.5H119.312ZM125.269 131.619C125.269 130.573 126.177 129.886 127.587 129.886C128.966 129.886 129.863 130.583 129.884 131.65H128.504C128.474 131.209 128.12 130.937 127.566 130.937C127.048 130.937 126.71 131.173 126.71 131.527C126.71 131.798 126.946 131.983 127.428 132.096L128.479 132.321C129.581 132.567 130.027 133.003 130.027 133.823C130.027 134.905 129.032 135.618 127.582 135.618C126.115 135.618 125.213 134.91 125.131 133.839H126.592C126.664 134.3 127.028 134.567 127.623 134.567C128.192 134.567 128.535 134.341 128.535 133.982C128.535 133.706 128.351 133.552 127.858 133.434L126.843 133.208C125.802 132.972 125.269 132.429 125.269 131.619ZM135.38 135.618C133.719 135.618 132.657 134.552 132.657 132.747C132.657 130.968 133.734 129.886 135.38 129.886C137.025 129.886 138.102 130.963 138.102 132.747C138.102 134.557 137.041 135.618 135.38 135.618ZM135.38 134.475C136.113 134.475 136.579 133.854 136.579 132.752C136.579 131.66 136.108 131.029 135.38 131.029C134.652 131.029 134.175 131.66 134.175 132.752C134.175 133.854 134.641 134.475 135.38 134.475ZM138.876 135.5V130.004H140.322V130.983H140.353C140.645 130.301 141.224 129.901 142.07 129.901C143.291 129.901 143.978 130.67 143.978 131.957V135.5H142.48V132.27C142.48 131.552 142.142 131.142 141.47 131.142C140.799 131.142 140.373 131.634 140.373 132.347V135.5H138.876ZM150.453 135.5H148.905V129.378H146.767V128.102H152.596V129.378H150.453V135.5ZM152.627 135.5V130.004H154.073V130.993H154.103C154.298 130.296 154.765 129.917 155.411 129.917C155.585 129.917 155.734 129.942 155.836 129.973V131.291C155.713 131.24 155.508 131.204 155.293 131.204C154.554 131.204 154.124 131.655 154.124 132.429V135.5H152.627ZM158.441 134.505C159.092 134.505 159.63 134.08 159.63 133.485V133.085L158.471 133.157C157.913 133.198 157.595 133.449 157.595 133.839C157.595 134.249 157.933 134.505 158.441 134.505ZM157.948 135.587C156.903 135.587 156.108 134.91 156.108 133.921C156.108 132.921 156.877 132.342 158.246 132.26L159.63 132.178V131.814C159.63 131.301 159.271 131.004 158.707 131.004C158.148 131.004 157.795 131.281 157.723 131.686H156.354C156.41 130.619 157.318 129.886 158.774 129.886C160.184 129.886 161.102 130.614 161.102 131.721V135.5H159.656V134.659H159.625C159.317 135.244 158.635 135.587 157.948 135.587ZM164.111 135.587C162.737 135.587 161.871 134.5 161.871 132.742C161.871 130.999 162.742 129.917 164.121 129.917C164.916 129.917 165.531 130.337 165.798 130.947H165.829V128.102H167.326V135.5H165.849V134.557H165.823C165.557 135.162 164.921 135.587 164.111 135.587ZM164.619 131.116C163.865 131.116 163.404 131.747 163.404 132.752C163.404 133.762 163.865 134.382 164.619 134.382C165.362 134.382 165.839 133.757 165.839 132.752C165.839 131.752 165.362 131.116 164.619 131.116ZM168.351 135.5V130.004H169.848V135.5H168.351ZM169.1 129.399C168.648 129.399 168.3 129.055 168.3 128.625C168.3 128.189 168.648 127.851 169.1 127.851C169.551 127.851 169.899 128.189 169.899 128.625C169.899 129.055 169.551 129.399 169.1 129.399ZM170.848 135.5V130.004H172.294V130.983H172.324C172.617 130.301 173.196 129.901 174.042 129.901C175.262 129.901 175.949 130.67 175.949 131.957V135.5H174.452V132.27C174.452 131.552 174.114 131.142 173.442 131.142C172.771 131.142 172.345 131.634 172.345 132.347V135.5H170.848ZM179.436 134.331C180.184 134.331 180.661 133.736 180.661 132.742C180.661 131.752 180.184 131.116 179.436 131.116C178.697 131.116 178.231 131.742 178.231 132.742C178.231 133.747 178.692 134.331 179.436 134.331ZM179.41 137.571C177.964 137.571 176.985 136.869 176.867 135.89H178.333C178.451 136.269 178.882 136.531 179.451 136.531C180.225 136.531 180.656 136.1 180.656 135.464V134.5H180.625C180.369 135.085 179.723 135.485 178.928 135.485C177.585 135.485 176.698 134.449 176.698 132.731C176.698 130.988 177.559 129.917 178.954 129.917C179.743 129.917 180.364 130.332 180.651 130.963H180.676V130.004H182.153V135.423C182.153 136.736 181.056 137.571 179.41 137.571Z" fill="#111111"/>
<rect x="30.25" y="195.75" width="109" height="26" rx="13" fill="white"/>
<rect x="30.4375" y="195.938" width="108.625" height="25.625" rx="12.8125" stroke="#111111" stroke-opacity="0.1" stroke-width="0.375"/>
<rect x="36.25" y="202.75" width="12" height="12" rx="6" fill="#1FD773"/>
<g clip-path="url(#clip4_8022_50639)">
<path d="M44.25 207.25L41.5 210L40.25 208.75" stroke="white" stroke-width="1.125" stroke-linecap="round" stroke-linejoin="round"/>
</g>
<path d="M59.6992 212.75H58.3201V207.756H58.2791L56.2693 212.678H55.2952L53.2854 207.756H53.2444V212.75H51.8652V205.352H53.6597L55.7617 210.597H55.8027L57.9048 205.352H59.6992V212.75ZM62.801 211.755C63.4521 211.755 63.9905 211.33 63.9905 210.735V210.335L62.8318 210.407C62.2729 210.448 61.9551 210.699 61.9551 211.089C61.9551 211.499 62.2935 211.755 62.801 211.755ZM62.3088 212.837C61.2629 212.837 60.4683 212.16 60.4683 211.171C60.4683 210.171 61.2373 209.592 62.6062 209.51L63.9905 209.428V209.064C63.9905 208.551 63.6316 208.254 63.0676 208.254C62.5088 208.254 62.155 208.531 62.0833 208.936H60.7144C60.7708 207.869 61.6782 207.136 63.1343 207.136C64.5442 207.136 65.4619 207.864 65.4619 208.971V212.75H64.0161V211.909H63.9854C63.6777 212.494 62.9958 212.837 62.3088 212.837ZM66.4309 212.75V207.254H67.8767V208.243H67.9075C68.1023 207.546 68.5688 207.167 69.2148 207.167C69.3892 207.167 69.5378 207.192 69.6404 207.223V208.541C69.5173 208.49 69.3123 208.454 69.0969 208.454C68.3586 208.454 67.928 208.905 67.928 209.679V212.75H66.4309ZM71.8091 209.458L73.6753 207.254H75.3723L73.2754 209.612L75.4749 212.75H73.7522L72.1782 210.515L71.7886 210.935V212.75H70.2915V205.352H71.7886V209.458H71.8091ZM78.1152 208.243C77.459 208.243 76.9873 208.741 76.936 209.428H79.2688C79.238 208.725 78.7817 208.243 78.1152 208.243ZM79.2893 211.068H80.6633C80.4993 212.145 79.5149 212.868 78.1562 212.868C76.4644 212.868 75.4492 211.786 75.4492 210.028C75.4492 208.274 76.4746 207.136 78.0999 207.136C79.6995 207.136 80.7095 208.218 80.7095 209.889V210.345H76.9207V210.438C76.9207 211.222 77.418 211.76 78.1819 211.76C78.7305 211.76 79.1509 211.489 79.2893 211.068ZM81.8835 205.988H83.3806V207.254H84.3958V208.382H83.3806V211.012C83.3806 211.432 83.5857 211.632 84.0266 211.632C84.1599 211.632 84.2983 211.622 84.3906 211.607V212.709C84.2368 212.745 83.9805 212.771 83.678 212.771C82.386 212.771 81.8835 212.34 81.8835 211.268V208.382H81.1094V207.254H81.8835V205.988ZM90.7634 205.224C92.9526 205.224 94.3318 206.695 94.3318 209.053C94.3318 211.407 92.9526 212.878 90.7634 212.878C88.5691 212.878 87.1951 211.407 87.1951 209.053C87.1951 206.695 88.5691 205.224 90.7634 205.224ZM90.7634 206.516C89.5535 206.516 88.7742 207.5 88.7742 209.053C88.7742 210.602 89.5483 211.581 90.7634 211.581C91.9734 211.581 92.7476 210.602 92.7476 209.053C92.7476 207.5 91.9734 206.516 90.7634 206.516ZM100.279 207.254V212.75H98.8333V211.76H98.8025C98.5308 212.453 97.9873 212.853 97.1567 212.853C95.9673 212.853 95.1777 212.078 95.1777 210.797V207.254H96.6748V210.484C96.6748 211.217 97.0388 211.607 97.7002 211.607C98.3667 211.607 98.782 211.13 98.782 210.402V207.254H100.279ZM101.653 205.988H103.15V207.254H104.165V208.382H103.15V211.012C103.15 211.432 103.355 211.632 103.796 211.632C103.929 211.632 104.068 211.622 104.16 211.607V212.709C104.006 212.745 103.75 212.771 103.448 212.771C102.156 212.771 101.653 212.34 101.653 211.268V208.382H100.879V207.254H101.653V205.988ZM105.021 212.75V205.352H106.519V212.75H105.021ZM110.051 212.868C108.39 212.868 107.329 211.802 107.329 209.997C107.329 208.218 108.405 207.136 110.051 207.136C111.697 207.136 112.773 208.213 112.773 209.997C112.773 211.807 111.712 212.868 110.051 212.868ZM110.051 211.725C110.784 211.725 111.251 211.104 111.251 210.002C111.251 208.91 110.779 208.279 110.051 208.279C109.323 208.279 108.846 208.91 108.846 210.002C108.846 211.104 109.313 211.725 110.051 211.725ZM116.07 212.868C114.409 212.868 113.348 211.802 113.348 209.997C113.348 208.218 114.424 207.136 116.07 207.136C117.716 207.136 118.792 208.213 118.792 209.997C118.792 211.807 117.731 212.868 116.07 212.868ZM116.07 211.725C116.803 211.725 117.27 211.104 117.27 210.002C117.27 208.91 116.798 208.279 116.07 208.279C115.342 208.279 114.865 208.91 114.865 210.002C114.865 211.104 115.332 211.725 116.07 211.725ZM121.12 209.458L122.986 207.254H124.683L122.586 209.612L124.786 212.75H123.063L121.489 210.515L121.1 210.935V212.75H119.603V205.352H121.1V209.458H121.12ZM125.022 208.869C125.022 207.823 125.929 207.136 127.339 207.136C128.718 207.136 129.615 207.833 129.636 208.9H128.257C128.226 208.459 127.872 208.187 127.319 208.187C126.801 208.187 126.462 208.423 126.462 208.777C126.462 209.048 126.698 209.233 127.18 209.346L128.231 209.571C129.333 209.817 129.78 210.253 129.78 211.073C129.78 212.155 128.785 212.868 127.334 212.868C125.868 212.868 124.965 212.16 124.883 211.089H126.344C126.416 211.55 126.78 211.817 127.375 211.817C127.944 211.817 128.288 211.591 128.288 211.232C128.288 210.956 128.103 210.802 127.611 210.684L126.596 210.458C125.555 210.222 125.022 209.679 125.022 208.869Z" fill="#111111"/>
<rect x="37" y="24" width="161" height="26" rx="13" fill="white"/>
<rect x="37.1875" y="24.1875" width="160.625" height="25.625" rx="12.8125" stroke="#111111" stroke-opacity="0.1" stroke-width="0.375"/>
<rect x="43" y="31" width="12" height="12" rx="6" fill="#1FD773"/>
<path d="M51 35.5L48.25 38.25L47 37" stroke="white" stroke-width="1.125" stroke-linecap="round" stroke-linejoin="round"/>
<path d="M60.1636 34.8118V37.1702H61.4966C62.2759 37.1702 62.7322 36.7241 62.7322 35.991C62.7322 35.2732 62.2502 34.8118 61.4812 34.8118H60.1636ZM60.1636 38.293V41H58.6152V33.6018H61.6453C63.3474 33.6018 64.3215 34.499 64.3215 35.9602C64.3215 36.9087 63.8293 37.729 62.9783 38.0623L64.5369 41H62.7834L61.4043 38.293H60.1636ZM67.6284 36.4934C66.9722 36.4934 66.5005 36.9907 66.4492 37.6777H68.782C68.7512 36.9753 68.2949 36.4934 67.6284 36.4934ZM68.8025 39.3184H70.1765C70.0125 40.395 69.0281 41.1179 67.6694 41.1179C65.9775 41.1179 64.9624 40.0361 64.9624 38.2776C64.9624 36.5242 65.9878 35.386 67.613 35.386C69.2126 35.386 70.2227 36.4678 70.2227 38.1392V38.5955H66.4338V38.6877C66.4338 39.4722 66.9312 40.0105 67.6951 40.0105C68.2437 40.0105 68.6641 39.7388 68.8025 39.3184ZM73.1194 40.0054C73.7705 40.0054 74.3088 39.5798 74.3088 38.9851V38.5852L73.1501 38.657C72.5913 38.698 72.2734 38.9492 72.2734 39.3389C72.2734 39.749 72.6118 40.0054 73.1194 40.0054ZM72.6272 41.0872C71.5813 41.0872 70.7866 40.4104 70.7866 39.4209C70.7866 38.4211 71.5557 37.8418 72.9246 37.7598L74.3088 37.6777V37.3137C74.3088 36.801 73.95 36.5037 73.386 36.5037C72.8271 36.5037 72.4734 36.7805 72.4016 37.1855H71.0327C71.0891 36.1191 71.9966 35.386 73.4526 35.386C74.8625 35.386 75.7803 36.114 75.7803 37.2214V41H74.3345V40.1592H74.3037C73.9961 40.7437 73.3142 41.0872 72.6272 41.0872ZM76.7852 41V33.6018H78.2822V41H76.7852ZM84.8191 41H83.2708V34.8784H81.1328V33.6018H86.9622V34.8784H84.8191V41ZM87.48 41V35.5039H88.9771V41H87.48ZM88.2285 34.8989C87.7773 34.8989 87.4287 34.5554 87.4287 34.1248C87.4287 33.689 87.7773 33.3506 88.2285 33.3506C88.6797 33.3506 89.0283 33.689 89.0283 34.1248C89.0283 34.5554 88.6797 34.8989 88.2285 34.8989ZM89.9768 41V35.5039H91.4226V36.4985H91.4534C91.6841 35.8372 92.2737 35.4014 93.0222 35.4014C93.8169 35.4014 94.3706 35.8115 94.5552 36.5293H94.5859C94.832 35.8372 95.4883 35.4014 96.2932 35.4014C97.3699 35.4014 98.0928 36.1396 98.0928 37.2471V41H96.5957V37.6213C96.5957 36.9856 96.2778 36.637 95.6985 36.637C95.1294 36.637 94.7551 37.0522 94.7551 37.6624V41H93.3145V37.5752C93.3145 36.9856 92.9812 36.637 92.4275 36.637C91.8584 36.637 91.4739 37.0676 91.4739 37.6829V41H89.9768ZM101.507 36.4934C100.851 36.4934 100.379 36.9907 100.328 37.6777H102.661C102.63 36.9753 102.174 36.4934 101.507 36.4934ZM102.681 39.3184H104.055C103.891 40.395 102.907 41.1179 101.548 41.1179C99.8564 41.1179 98.8413 40.0361 98.8413 38.2776C98.8413 36.5242 99.8667 35.386 101.492 35.386C103.092 35.386 104.102 36.4678 104.102 38.1392V38.5955H100.313V38.6877C100.313 39.4722 100.81 40.0105 101.574 40.0105C102.123 40.0105 102.543 39.7388 102.681 39.3184ZM114.919 41H113.54V36.0063H113.499L111.49 40.9282H110.515L108.506 36.0063H108.465V41H107.085V33.6018H108.88L110.982 38.8467H111.023L113.125 33.6018H114.919V41ZM118.021 40.0054C118.672 40.0054 119.211 39.5798 119.211 38.9851V38.5852L118.052 38.657C117.493 38.698 117.175 38.9492 117.175 39.3389C117.175 39.749 117.514 40.0054 118.021 40.0054ZM117.529 41.0872C116.483 41.0872 115.688 40.4104 115.688 39.4209C115.688 38.4211 116.458 37.8418 117.826 37.7598L119.211 37.6777V37.3137C119.211 36.801 118.852 36.5037 118.288 36.5037C117.729 36.5037 117.375 36.7805 117.303 37.1855H115.935C115.991 36.1191 116.898 35.386 118.354 35.386C119.764 35.386 120.682 36.114 120.682 37.2214V41H119.236V40.1592H119.206C118.898 40.7437 118.216 41.0872 117.529 41.0872ZM121.651 41V35.5039H123.097V36.4934H123.128C123.323 35.7961 123.789 35.4167 124.435 35.4167C124.609 35.4167 124.758 35.4424 124.861 35.4731V36.7908C124.738 36.7395 124.532 36.7036 124.317 36.7036C123.579 36.7036 123.148 37.1548 123.148 37.929V41H121.651ZM127.029 37.7085L128.896 35.5039H130.593L128.496 37.8623L130.695 41H128.972L127.398 38.7646L127.009 39.1851V41H125.512V33.6018H127.009V37.7085H127.029ZM133.335 36.4934C132.679 36.4934 132.208 36.9907 132.156 37.6777H134.489C134.458 36.9753 134.002 36.4934 133.335 36.4934ZM134.51 39.3184H135.884C135.719 40.395 134.735 41.1179 133.376 41.1179C131.685 41.1179 130.669 40.0361 130.669 38.2776C130.669 36.5242 131.695 35.386 133.32 35.386C134.92 35.386 135.93 36.4678 135.93 38.1392V38.5955H132.141V38.6877C132.141 39.4722 132.638 40.0105 133.402 40.0105C133.951 40.0105 134.371 39.7388 134.51 39.3184ZM137.104 34.2375H138.601V35.5039H139.616V36.6318H138.601V39.262C138.601 39.6824 138.806 39.8823 139.247 39.8823C139.38 39.8823 139.519 39.8721 139.611 39.8567V40.959C139.457 40.9949 139.201 41.0205 138.898 41.0205C137.606 41.0205 137.104 40.5898 137.104 39.5183V36.6318H136.33V35.5039H137.104V34.2375ZM145.917 41.1282C143.764 41.1282 142.415 39.6875 142.415 37.2983C142.415 34.9143 143.774 33.4736 145.917 33.4736C147.696 33.4736 149.05 34.6016 149.167 36.2576H147.66C147.517 35.3501 146.819 34.7554 145.917 34.7554C144.748 34.7554 143.994 35.7346 143.994 37.2932C143.994 38.8723 144.738 39.8464 145.922 39.8464C146.84 39.8464 147.501 39.3081 147.665 38.4314H149.173C148.998 40.0823 147.732 41.1282 145.917 41.1282ZM152.526 41.1179C150.865 41.1179 149.803 40.0515 149.803 38.2468C149.803 36.4678 150.88 35.386 152.526 35.386C154.171 35.386 155.248 36.4626 155.248 38.2468C155.248 40.0566 154.187 41.1179 152.526 41.1179ZM152.526 39.9746C153.259 39.9746 153.725 39.3542 153.725 38.252C153.725 37.1599 153.254 36.5293 152.526 36.5293C151.798 36.5293 151.321 37.1599 151.321 38.252C151.321 39.3542 151.787 39.9746 152.526 39.9746ZM160.913 35.5039L159.027 41H157.335L155.433 35.5039H157.037L158.181 39.6772H158.211L159.35 35.5039H160.913ZM163.749 36.4934C163.092 36.4934 162.621 36.9907 162.569 37.6777H164.902C164.871 36.9753 164.415 36.4934 163.749 36.4934ZM164.923 39.3184H166.297C166.133 40.395 165.148 41.1179 163.79 41.1179C162.098 41.1179 161.083 40.0361 161.083 38.2776C161.083 36.5242 162.108 35.386 163.733 35.386C165.333 35.386 166.343 36.4678 166.343 38.1392V38.5955H162.554V38.6877C162.554 39.4722 163.051 40.0105 163.815 40.0105C164.364 40.0105 164.784 39.7388 164.923 39.3184ZM167.117 41V35.5039H168.563V36.4934H168.594C168.788 35.7961 169.255 35.4167 169.901 35.4167C170.075 35.4167 170.224 35.4424 170.326 35.4731V36.7908C170.203 36.7395 169.998 36.7036 169.783 36.7036C169.045 36.7036 168.614 37.1548 168.614 37.929V41H167.117ZM172.931 40.0054C173.582 40.0054 174.12 39.5798 174.12 38.9851V38.5852L172.962 38.657C172.403 38.698 172.085 38.9492 172.085 39.3389C172.085 39.749 172.423 40.0054 172.931 40.0054ZM172.439 41.0872C171.393 41.0872 170.598 40.4104 170.598 39.4209C170.598 38.4211 171.367 37.8418 172.736 37.7598L174.12 37.6777V37.3137C174.12 36.801 173.761 36.5037 173.198 36.5037C172.639 36.5037 172.285 36.7805 172.213 37.1855H170.844C170.901 36.1191 171.808 35.386 173.264 35.386C174.674 35.386 175.592 36.114 175.592 37.2214V41H174.146V40.1592H174.115C173.808 40.7437 173.126 41.0872 172.439 41.0872ZM179.099 39.8311C179.847 39.8311 180.324 39.2363 180.324 38.2417C180.324 37.2522 179.847 36.6165 179.099 36.6165C178.36 36.6165 177.894 37.2419 177.894 38.2417C177.894 39.2466 178.355 39.8311 179.099 39.8311ZM179.073 43.0713C177.627 43.0713 176.648 42.3689 176.53 41.3896H177.996C178.114 41.769 178.545 42.0305 179.114 42.0305C179.888 42.0305 180.319 41.5999 180.319 40.9641V40.0002H180.288C180.032 40.5847 179.386 40.9846 178.591 40.9846C177.248 40.9846 176.361 39.949 176.361 38.2314C176.361 36.4883 177.222 35.4167 178.617 35.4167C179.406 35.4167 180.027 35.832 180.314 36.4626H180.339V35.5039H181.816V40.9231C181.816 42.2356 180.719 43.0713 179.073 43.0713ZM185.261 36.4934C184.605 36.4934 184.133 36.9907 184.082 37.6777H186.415C186.384 36.9753 185.928 36.4934 185.261 36.4934ZM186.435 39.3184H187.809C187.645 40.395 186.661 41.1179 185.302 41.1179C183.61 41.1179 182.595 40.0361 182.595 38.2776C182.595 36.5242 183.621 35.386 185.246 35.386C186.845 35.386 187.855 36.4678 187.855 38.1392V38.5955H184.067V38.6877C184.067 39.4722 184.564 40.0105 185.328 40.0105C185.876 40.0105 186.297 39.7388 186.435 39.3184Z" fill="#111111"/>
<rect x="733" y="200.25" width="212" height="26" rx="13" fill="white"/>
<rect x="733.188" y="200.438" width="211.625" height="25.625" rx="12.8125" stroke="#111111" stroke-opacity="0.1" stroke-width="0.375"/>
<rect x="739" y="207.25" width="12" height="12" rx="6" fill="#1FD773"/>
<path d="M747 211.75L744.25 214.5L743 213.25" stroke="white" stroke-width="1.125" stroke-linecap="round" stroke-linejoin="round"/>
<path d="M754.615 209.852H757.44C759.66 209.852 760.968 211.175 760.968 213.523C760.968 215.871 759.66 217.25 757.44 217.25H754.615V209.852ZM756.164 211.128V215.968H757.256C758.64 215.968 759.388 215.127 759.388 213.528C759.388 211.979 758.619 211.128 757.256 211.128H756.164ZM763.931 216.255C764.582 216.255 765.12 215.83 765.12 215.235V214.835L763.962 214.907C763.403 214.948 763.085 215.199 763.085 215.589C763.085 215.999 763.423 216.255 763.931 216.255ZM763.439 217.337C762.393 217.337 761.598 216.66 761.598 215.671C761.598 214.671 762.367 214.092 763.736 214.01L765.12 213.928V213.564C765.12 213.051 764.761 212.754 764.198 212.754C763.639 212.754 763.285 213.031 763.213 213.436H761.844C761.901 212.369 762.808 211.636 764.264 211.636C765.674 211.636 766.592 212.364 766.592 213.471V217.25H765.146V216.409H765.115C764.808 216.994 764.126 217.337 763.439 217.337ZM767.586 217.25V211.754H769.083V217.25H767.586ZM768.335 211.149C767.884 211.149 767.535 210.805 767.535 210.375C767.535 209.939 767.884 209.601 768.335 209.601C768.786 209.601 769.135 209.939 769.135 210.375C769.135 210.805 768.786 211.149 768.335 211.149ZM770.119 217.25V209.852H771.616V217.25H770.119ZM773.329 219.285C773.277 219.285 772.811 219.28 772.765 219.27V218.116C772.811 218.127 773.083 218.127 773.139 218.127C773.688 218.127 773.959 217.952 774.062 217.517C774.062 217.496 774.118 217.276 774.108 217.255L772.196 211.754H773.841L775.01 216.05H775.036L776.205 211.754H777.784L775.892 217.373C775.42 218.783 774.733 219.285 773.329 219.285ZM787.151 214.143C787.151 216.158 785.931 217.378 783.87 217.378C781.66 217.378 780.306 215.932 780.306 213.528C780.306 211.159 781.66 209.724 783.834 209.724C785.562 209.724 786.864 210.744 787.084 212.241H785.531C785.305 211.467 784.675 211.005 783.839 211.005C782.619 211.005 781.885 211.933 781.885 213.507C781.885 215.112 782.665 216.091 783.895 216.091C784.905 216.091 785.608 215.471 785.638 214.553L785.644 214.435H784.034V213.307H787.151V214.143ZM790.514 212.743C789.858 212.743 789.386 213.241 789.335 213.928H791.668C791.637 213.225 791.181 212.743 790.514 212.743ZM791.688 215.568H793.062C792.898 216.645 791.914 217.368 790.555 217.368C788.863 217.368 787.848 216.286 787.848 214.528C787.848 212.774 788.874 211.636 790.499 211.636C792.098 211.636 793.108 212.718 793.108 214.389V214.845H789.32V214.938C789.32 215.722 789.817 216.26 790.581 216.26C791.129 216.26 791.55 215.989 791.688 215.568ZM793.883 217.25V211.754H795.328V212.749H795.359C795.59 212.087 796.179 211.651 796.928 211.651C797.723 211.651 798.276 212.062 798.461 212.779H798.492C798.738 212.087 799.394 211.651 800.199 211.651C801.276 211.651 801.999 212.39 801.999 213.497V217.25H800.501V213.871C800.501 213.236 800.184 212.887 799.604 212.887C799.035 212.887 798.661 213.302 798.661 213.912V217.25H797.22V213.825C797.22 213.236 796.887 212.887 796.333 212.887C795.764 212.887 795.38 213.318 795.38 213.933V217.25H793.883ZM802.855 213.369C802.855 212.323 803.762 211.636 805.172 211.636C806.551 211.636 807.448 212.333 807.469 213.4H806.09C806.059 212.959 805.705 212.687 805.152 212.687C804.634 212.687 804.295 212.923 804.295 213.277C804.295 213.548 804.531 213.733 805.013 213.846L806.064 214.071C807.167 214.317 807.613 214.753 807.613 215.573C807.613 216.655 806.618 217.368 805.167 217.368C803.701 217.368 802.798 216.66 802.716 215.589H804.177C804.249 216.05 804.613 216.317 805.208 216.317C805.777 216.317 806.121 216.091 806.121 215.732C806.121 215.456 805.936 215.302 805.444 215.184L804.429 214.958C803.388 214.722 802.855 214.179 802.855 213.369ZM812.565 216.255C813.216 216.255 813.755 215.83 813.755 215.235V214.835L812.596 214.907C812.037 214.948 811.719 215.199 811.719 215.589C811.719 215.999 812.058 216.255 812.565 216.255ZM812.073 217.337C811.027 217.337 810.232 216.66 810.232 215.671C810.232 214.671 811.001 214.092 812.37 214.01L813.755 213.928V213.564C813.755 213.051 813.396 212.754 812.832 212.754C812.273 212.754 811.919 213.031 811.847 213.436H810.479C810.535 212.369 811.442 211.636 812.898 211.636C814.308 211.636 815.226 212.364 815.226 213.471V217.25H813.78V216.409H813.75C813.442 216.994 812.76 217.337 812.073 217.337ZM816.195 217.25V211.754H817.641V212.733H817.672C817.964 212.051 818.543 211.651 819.389 211.651C820.609 211.651 821.296 212.42 821.296 213.707V217.25H819.799V214.02C819.799 213.302 819.461 212.892 818.789 212.892C818.118 212.892 817.692 213.384 817.692 214.097V217.25H816.195ZM824.285 217.337C822.911 217.337 822.045 216.25 822.045 214.492C822.045 212.749 822.917 211.667 824.296 211.667C825.09 211.667 825.706 212.087 825.972 212.697H826.003V209.852H827.5V217.25H826.023V216.307H825.998C825.731 216.912 825.095 217.337 824.285 217.337ZM824.793 212.866C824.039 212.866 823.578 213.497 823.578 214.502C823.578 215.512 824.039 216.132 824.793 216.132C825.536 216.132 826.013 215.507 826.013 214.502C826.013 213.502 825.536 212.866 824.793 212.866ZM835.611 215.968V217.25H830.709V209.852H835.611V211.128H832.258V212.913H835.421V214.102H832.258V215.968H835.611ZM838.641 217.337C837.267 217.337 836.4 216.25 836.4 214.492C836.4 212.749 837.272 211.667 838.651 211.667C839.446 211.667 840.061 212.087 840.328 212.697H840.358V209.852H841.855V217.25H840.379V216.307H840.353C840.087 216.912 839.451 217.337 838.641 217.337ZM839.148 212.866C838.395 212.866 837.933 213.497 837.933 214.502C837.933 215.512 838.395 216.132 839.148 216.132C839.892 216.132 840.369 215.507 840.369 214.502C840.369 213.502 839.892 212.866 839.148 212.866ZM847.931 211.754V217.25H846.485V216.26H846.454C846.183 216.953 845.639 217.353 844.809 217.353C843.619 217.353 842.83 216.578 842.83 215.297V211.754H844.327V214.984C844.327 215.717 844.691 216.107 845.352 216.107C846.019 216.107 846.434 215.63 846.434 214.902V211.754H847.931ZM853.899 213.8H852.509C852.422 213.22 852.038 212.81 851.422 212.81C850.684 212.81 850.223 213.436 850.223 214.497C850.223 215.579 850.684 216.194 851.427 216.194C852.027 216.194 852.417 215.835 852.509 215.235H853.904C853.827 216.532 852.858 217.368 851.412 217.368C849.756 217.368 848.705 216.291 848.705 214.497C848.705 212.733 849.756 211.636 851.402 211.636C852.889 211.636 853.832 212.554 853.899 213.8ZM856.749 216.255C857.4 216.255 857.939 215.83 857.939 215.235V214.835L856.78 214.907C856.221 214.948 855.903 215.199 855.903 215.589C855.903 215.999 856.242 216.255 856.749 216.255ZM856.257 217.337C855.211 217.337 854.417 216.66 854.417 215.671C854.417 214.671 855.186 214.092 856.554 214.01L857.939 213.928V213.564C857.939 213.051 857.58 212.754 857.016 212.754C856.457 212.754 856.103 213.031 856.031 213.436H854.663C854.719 212.369 855.626 211.636 857.083 211.636C858.492 211.636 859.41 212.364 859.41 213.471V217.25H857.964V216.409H857.934C857.626 216.994 856.944 217.337 856.257 217.337ZM860.779 210.488H862.276V211.754H863.291V212.882H862.276V215.512C862.276 215.932 862.481 216.132 862.922 216.132C863.055 216.132 863.194 216.122 863.286 216.107V217.209C863.132 217.245 862.876 217.271 862.573 217.271C861.281 217.271 860.779 216.84 860.779 215.768V212.882H860.005V211.754H860.779V210.488ZM864.137 217.25V211.754H865.634V217.25H864.137ZM864.886 211.149C864.435 211.149 864.086 210.805 864.086 210.375C864.086 209.939 864.435 209.601 864.886 209.601C865.337 209.601 865.686 209.939 865.686 210.375C865.686 210.805 865.337 211.149 864.886 211.149ZM869.156 217.368C867.495 217.368 866.434 216.302 866.434 214.497C866.434 212.718 867.511 211.636 869.156 211.636C870.802 211.636 871.879 212.713 871.879 214.497C871.879 216.307 870.818 217.368 869.156 217.368ZM869.156 216.225C869.89 216.225 870.356 215.604 870.356 214.502C870.356 213.41 869.885 212.779 869.156 212.779C868.428 212.779 867.952 213.41 867.952 214.502C867.952 215.604 868.418 216.225 869.156 216.225ZM872.653 217.25V211.754H874.099V212.733H874.13C874.422 212.051 875.001 211.651 875.847 211.651C877.067 211.651 877.754 212.42 877.754 213.707V217.25H876.257V214.02C876.257 213.302 875.919 212.892 875.247 212.892C874.576 212.892 874.15 213.384 874.15 214.097V217.25H872.653ZM880.825 216.255C881.477 216.255 882.015 215.83 882.015 215.235V214.835L880.856 214.907C880.297 214.948 879.979 215.199 879.979 215.589C879.979 215.999 880.318 216.255 880.825 216.255ZM880.333 217.337C879.287 217.337 878.493 216.66 878.493 215.671C878.493 214.671 879.262 214.092 880.631 214.01L882.015 213.928V213.564C882.015 213.051 881.656 212.754 881.092 212.754C880.533 212.754 880.179 213.031 880.108 213.436H878.739C878.795 212.369 879.703 211.636 881.159 211.636C882.569 211.636 883.486 212.364 883.486 213.471V217.25H882.041V216.409H882.01C881.702 216.994 881.02 217.337 880.333 217.337ZM884.491 217.25V209.852H885.988V217.25H884.491ZM893.638 212.195L892.233 217.25H890.772L888.813 209.852H890.418L891.582 215.209H891.623L893.007 209.852H894.314L895.699 215.209H895.74L896.909 209.852H898.513L896.55 217.25H895.089L893.684 212.195H893.638ZM899.016 217.25V211.754H900.462V212.743H900.492C900.687 212.046 901.154 211.667 901.8 211.667C901.974 211.667 902.123 211.692 902.225 211.723V213.041C902.102 212.99 901.897 212.954 901.682 212.954C900.944 212.954 900.513 213.405 900.513 214.179V217.25H899.016ZM902.866 217.25V211.754H904.363V217.25H902.866ZM903.615 211.149C903.164 211.149 902.815 210.805 902.815 210.375C902.815 209.939 903.164 209.601 903.615 209.601C904.066 209.601 904.415 209.939 904.415 210.375C904.415 210.805 904.066 211.149 903.615 211.149ZM905.763 210.488H907.26V211.754H908.275V212.882H907.26V215.512C907.26 215.932 907.465 216.132 907.906 216.132C908.039 216.132 908.178 216.122 908.27 216.107V217.209C908.116 217.245 907.86 217.271 907.557 217.271C906.265 217.271 905.763 216.84 905.763 215.768V212.882H904.989V211.754H905.763V210.488ZM911.479 212.743C910.823 212.743 910.352 213.241 910.3 213.928H912.633C912.602 213.225 912.146 212.743 911.479 212.743ZM912.654 215.568H914.028C913.864 216.645 912.879 217.368 911.521 217.368C909.829 217.368 908.813 216.286 908.813 214.528C908.813 212.774 909.839 211.636 911.464 211.636C913.064 211.636 914.074 212.718 914.074 214.389V214.845H910.285V214.938C910.285 215.722 910.782 216.26 911.546 216.26C912.095 216.26 912.515 215.989 912.654 215.568ZM918.606 209.852V214.481C918.606 215.43 919.165 216.05 920.159 216.05C921.149 216.05 921.708 215.43 921.708 214.481V209.852H923.256V214.635C923.256 216.266 922.051 217.378 920.159 217.378C918.262 217.378 917.058 216.266 917.058 214.635V209.852H918.606ZM927.573 211.667C928.968 211.667 929.824 212.728 929.824 214.502C929.824 216.271 928.973 217.337 927.599 217.337C926.799 217.337 926.184 216.948 925.891 216.327H925.861V219.044H924.364V211.754H925.84V212.713H925.871C926.168 212.067 926.778 211.667 927.573 211.667ZM927.071 216.132C927.819 216.132 928.291 215.502 928.291 214.502C928.291 213.507 927.819 212.866 927.071 212.866C926.337 212.866 925.855 213.518 925.855 214.502C925.855 215.497 926.337 216.132 927.071 216.132ZM930.506 213.369C930.506 212.323 931.413 211.636 932.823 211.636C934.202 211.636 935.099 212.333 935.12 213.4H933.741C933.71 212.959 933.356 212.687 932.802 212.687C932.285 212.687 931.946 212.923 931.946 213.277C931.946 213.548 932.182 213.733 932.664 213.846L933.715 214.071C934.817 214.317 935.263 214.753 935.263 215.573C935.263 216.655 934.269 217.368 932.818 217.368C931.352 217.368 930.449 216.66 930.367 215.589H931.828C931.9 216.05 932.264 216.317 932.859 216.317C933.428 216.317 933.771 216.091 933.771 215.732C933.771 215.456 933.587 215.302 933.095 215.184L932.08 214.958C931.039 214.722 930.506 214.179 930.506 213.369Z" fill="#111111"/>
<rect x="772.75" y="118.5" width="171" height="26" rx="13" fill="white"/>
<rect x="772.938" y="118.688" width="170.625" height="25.625" rx="12.8125" stroke="#111111" stroke-opacity="0.1" stroke-width="0.375"/>
<rect x="778.75" y="125.5" width="12" height="12" rx="6" fill="#1FD773"/>
<g clip-path="url(#clip5_8022_50639)">
<path d="M786.75 130L784 132.75L782.75 131.5" stroke="white" stroke-width="1.125" stroke-linecap="round" stroke-linejoin="round"/>
</g>
<path d="M795.914 135.5H794.365V128.102H799.21V129.378H795.914V131.363H798.923V132.588H795.914V135.5ZM805.075 130.004V135.5H803.63V134.51H803.599C803.327 135.203 802.784 135.603 801.953 135.603C800.764 135.603 799.974 134.828 799.974 133.547V130.004H801.471V133.234C801.471 133.967 801.835 134.357 802.497 134.357C803.163 134.357 803.578 133.88 803.578 133.152V130.004H805.075ZM806.05 135.5V130.004H807.495V130.983H807.526C807.818 130.301 808.398 129.901 809.244 129.901C810.464 129.901 811.151 130.67 811.151 131.957V135.5H809.654V132.27C809.654 131.552 809.315 131.142 808.644 131.142C807.972 131.142 807.547 131.634 807.547 132.347V135.5H806.05ZM814.14 135.587C812.766 135.587 811.899 134.5 811.899 132.742C811.899 130.999 812.771 129.917 814.15 129.917C814.945 129.917 815.56 130.337 815.827 130.947H815.857V128.102H817.354V135.5H815.878V134.557H815.852C815.586 135.162 814.95 135.587 814.14 135.587ZM814.647 131.116C813.894 131.116 813.432 131.747 813.432 132.752C813.432 133.762 813.894 134.382 814.647 134.382C815.391 134.382 815.868 133.757 815.868 132.752C815.868 131.752 815.391 131.116 814.647 131.116ZM820.477 134.505C821.128 134.505 821.666 134.08 821.666 133.485V133.085L820.508 133.157C819.949 133.198 819.631 133.449 819.631 133.839C819.631 134.249 819.969 134.505 820.477 134.505ZM819.985 135.587C818.939 135.587 818.144 134.91 818.144 133.921C818.144 132.921 818.913 132.342 820.282 132.26L821.666 132.178V131.814C821.666 131.301 821.307 131.004 820.743 131.004C820.185 131.004 819.831 131.281 819.759 131.686H818.39C818.447 130.619 819.354 129.886 820.81 129.886C822.22 129.886 823.138 130.614 823.138 131.721V135.5H821.692V134.659H821.661C821.354 135.244 820.672 135.587 819.985 135.587ZM824.107 135.5V130.004H825.552V130.999H825.583C825.814 130.337 826.404 129.901 827.152 129.901C827.947 129.901 828.5 130.312 828.685 131.029H828.716C828.962 130.337 829.618 129.901 830.423 129.901C831.5 129.901 832.223 130.64 832.223 131.747V135.5H830.726V132.121C830.726 131.486 830.408 131.137 829.828 131.137C829.259 131.137 828.885 131.552 828.885 132.162V135.5H827.444V132.075C827.444 131.486 827.111 131.137 826.557 131.137C825.988 131.137 825.604 131.568 825.604 132.183V135.5H824.107ZM835.637 130.993C834.981 130.993 834.509 131.491 834.458 132.178H836.791C836.76 131.475 836.304 130.993 835.637 130.993ZM836.811 133.818H838.185C838.021 134.895 837.037 135.618 835.678 135.618C833.986 135.618 832.971 134.536 832.971 132.778C832.971 131.024 833.997 129.886 835.622 129.886C837.221 129.886 838.231 130.968 838.231 132.639V133.095H834.443V133.188C834.443 133.972 834.94 134.51 835.704 134.51C836.252 134.51 836.673 134.239 836.811 133.818ZM839.006 135.5V130.004H840.451V130.983H840.482C840.774 130.301 841.354 129.901 842.2 129.901C843.42 129.901 844.107 130.67 844.107 131.957V135.5H842.61V132.27C842.61 131.552 842.271 131.142 841.6 131.142C840.928 131.142 840.503 131.634 840.503 132.347V135.5H839.006ZM845.455 128.738H846.952V130.004H847.968V131.132H846.952V133.762C846.952 134.182 847.157 134.382 847.598 134.382C847.732 134.382 847.87 134.372 847.962 134.357V135.459C847.809 135.495 847.552 135.521 847.25 135.521C845.958 135.521 845.455 135.09 845.455 134.018V131.132H844.681V130.004H845.455V128.738ZM850.859 134.505C851.51 134.505 852.049 134.08 852.049 133.485V133.085L850.89 133.157C850.331 133.198 850.013 133.449 850.013 133.839C850.013 134.249 850.352 134.505 850.859 134.505ZM850.367 135.587C849.321 135.587 848.526 134.91 848.526 133.921C848.526 132.921 849.295 132.342 850.664 132.26L852.049 132.178V131.814C852.049 131.301 851.69 131.004 851.126 131.004C850.567 131.004 850.213 131.281 850.141 131.686H848.772C848.829 130.619 849.736 129.886 851.192 129.886C852.602 129.886 853.52 130.614 853.52 131.721V135.5H852.074V134.659H852.043C851.736 135.244 851.054 135.587 850.367 135.587ZM854.525 135.5V128.102H856.022V135.5H854.525ZM864.143 134.218V135.5H859.242V128.102H864.143V129.378H860.79V131.163H863.953V132.352H860.79V134.218H864.143ZM870.157 130.004L868.27 135.5H866.578L864.676 130.004H866.281L867.424 134.177H867.455L868.593 130.004H870.157ZM872.992 130.993C872.336 130.993 871.864 131.491 871.813 132.178H874.146C874.115 131.475 873.659 130.993 872.992 130.993ZM874.166 133.818H875.54C875.376 134.895 874.392 135.618 873.033 135.618C871.341 135.618 870.326 134.536 870.326 132.778C870.326 131.024 871.352 129.886 872.977 129.886C874.576 129.886 875.586 130.968 875.586 132.639V133.095H871.798V133.188C871.798 133.972 872.295 134.51 873.059 134.51C873.607 134.51 874.028 134.239 874.166 133.818ZM876.361 135.5V130.004H877.806V130.983H877.837C878.129 130.301 878.709 129.901 879.555 129.901C880.775 129.901 881.462 130.67 881.462 131.957V135.5H879.965V132.27C879.965 131.552 879.626 131.142 878.955 131.142C878.283 131.142 877.858 131.634 877.858 132.347V135.5H876.361ZM882.81 128.738H884.307V130.004H885.323V131.132H884.307V133.762C884.307 134.182 884.512 134.382 884.953 134.382C885.087 134.382 885.225 134.372 885.317 134.357V135.459C885.164 135.495 884.907 135.521 884.605 135.521C883.313 135.521 882.81 135.09 882.81 134.018V131.132H882.036V130.004H882.81V128.738ZM891.624 135.628C889.47 135.628 888.122 134.188 888.122 131.798C888.122 129.414 889.48 127.974 891.624 127.974C893.403 127.974 894.756 129.102 894.874 130.758H893.367C893.223 129.85 892.526 129.255 891.624 129.255C890.455 129.255 889.701 130.235 889.701 131.793C889.701 133.372 890.444 134.346 891.629 134.346C892.546 134.346 893.208 133.808 893.372 132.931H894.879C894.705 134.582 893.438 135.628 891.624 135.628ZM898.232 135.618C896.571 135.618 895.51 134.552 895.51 132.747C895.51 130.968 896.586 129.886 898.232 129.886C899.878 129.886 900.955 130.963 900.955 132.747C900.955 134.557 899.893 135.618 898.232 135.618ZM898.232 134.475C898.965 134.475 899.432 133.854 899.432 132.752C899.432 131.66 898.96 131.029 898.232 131.029C897.504 131.029 897.027 131.66 897.027 132.752C897.027 133.854 897.494 134.475 898.232 134.475ZM906.62 130.004L904.733 135.5H903.041L901.139 130.004H902.744L903.887 134.177H903.918L905.056 130.004H906.62ZM909.455 130.993C908.799 130.993 908.327 131.491 908.276 132.178H910.609C910.578 131.475 910.122 130.993 909.455 130.993ZM910.629 133.818H912.003C911.839 134.895 910.855 135.618 909.496 135.618C907.804 135.618 906.789 134.536 906.789 132.778C906.789 131.024 907.814 129.886 909.44 129.886C911.039 129.886 912.049 130.968 912.049 132.639V133.095H908.26V133.188C908.26 133.972 908.758 134.51 909.522 134.51C910.07 134.51 910.491 134.239 910.629 133.818ZM912.823 135.5V130.004H914.269V130.993H914.3C914.495 130.296 914.961 129.917 915.607 129.917C915.782 129.917 915.93 129.942 916.033 129.973V131.291C915.91 131.24 915.705 131.204 915.49 131.204C914.751 131.204 914.321 131.655 914.321 132.429V135.5H912.823ZM918.637 134.505C919.289 134.505 919.827 134.08 919.827 133.485V133.085L918.668 133.157C918.109 133.198 917.792 133.449 917.792 133.839C917.792 134.249 918.13 134.505 918.637 134.505ZM918.145 135.587C917.099 135.587 916.305 134.91 916.305 133.921C916.305 132.921 917.074 132.342 918.443 132.26L919.827 132.178V131.814C919.827 131.301 919.468 131.004 918.904 131.004C918.345 131.004 917.991 131.281 917.92 131.686H916.551C916.607 130.619 917.515 129.886 918.971 129.886C920.381 129.886 921.298 130.614 921.298 131.721V135.5H919.853V134.659H919.822C919.514 135.244 918.832 135.587 918.145 135.587ZM924.805 134.331C925.554 134.331 926.031 133.736 926.031 132.742C926.031 131.752 925.554 131.116 924.805 131.116C924.067 131.116 923.6 131.742 923.6 132.742C923.6 133.747 924.062 134.331 924.805 134.331ZM924.78 137.571C923.334 137.571 922.354 136.869 922.237 135.89H923.703C923.821 136.269 924.251 136.531 924.821 136.531C925.595 136.531 926.025 136.1 926.025 135.464V134.5H925.995C925.738 135.085 925.092 135.485 924.298 135.485C922.954 135.485 922.067 134.449 922.067 132.731C922.067 130.988 922.929 129.917 924.323 129.917C925.113 129.917 925.733 130.332 926.02 130.963H926.046V130.004H927.522V135.423C927.522 136.736 926.425 137.571 924.78 137.571ZM930.968 130.993C930.312 130.993 929.84 131.491 929.789 132.178H932.121C932.091 131.475 931.634 130.993 930.968 130.993ZM932.142 133.818H933.516C933.352 134.895 932.367 135.618 931.009 135.618C929.317 135.618 928.302 134.536 928.302 132.778C928.302 131.024 929.327 129.886 930.952 129.886C932.552 129.886 933.562 130.968 933.562 132.639V133.095H929.773V133.188C929.773 133.972 930.271 134.51 931.034 134.51C931.583 134.51 932.003 134.239 932.142 133.818Z" fill="#111111"/>
<rect x="131.5" y="165" width="183" height="26" rx="13" fill="white"/>
<rect x="131.688" y="165.188" width="182.625" height="25.625" rx="12.8125" stroke="#111111" stroke-opacity="0.1" stroke-width="0.375"/>
<rect x="137.5" y="172" width="12" height="12" rx="6" fill="#1FD773"/>
<g clip-path="url(#clip6_8022_50639)">
<path d="M145.5 176.5L142.75 179.25L141.5 178" stroke="white" stroke-width="1.125" stroke-linecap="round" stroke-linejoin="round"/>
</g>
<path d="M154.664 182H153.115V174.602H154.664V182ZM155.766 182V176.504H157.212V177.483H157.242C157.535 176.801 158.114 176.401 158.96 176.401C160.18 176.401 160.867 177.17 160.867 178.457V182H159.37V178.77C159.37 178.052 159.032 177.642 158.36 177.642C157.688 177.642 157.263 178.134 157.263 178.847V182H155.766ZM165.333 179.647H161.964V178.339H165.333V179.647ZM168.501 182.087C167.127 182.087 166.261 181 166.261 179.242C166.261 177.499 167.132 176.417 168.511 176.417C169.306 176.417 169.921 176.837 170.188 177.447H170.219V174.602H171.716V182H170.239V181.057H170.214C169.947 181.662 169.311 182.087 168.501 182.087ZM169.009 177.616C168.255 177.616 167.794 178.247 167.794 179.252C167.794 180.262 168.255 180.882 169.009 180.882C169.752 180.882 170.229 180.257 170.229 179.252C170.229 178.252 169.752 177.616 169.009 177.616ZM175.182 177.493C174.525 177.493 174.054 177.991 174.002 178.678H176.335C176.304 177.975 175.848 177.493 175.182 177.493ZM176.356 180.318H177.73C177.566 181.395 176.581 182.118 175.223 182.118C173.531 182.118 172.516 181.036 172.516 179.278C172.516 177.524 173.541 176.386 175.166 176.386C176.766 176.386 177.776 177.468 177.776 179.139V179.595H173.987V179.688C173.987 180.472 174.484 181.01 175.248 181.01C175.797 181.01 176.217 180.739 176.356 180.318ZM181.76 176.417C183.154 176.417 184.01 177.478 184.01 179.252C184.01 181.021 183.159 182.087 181.785 182.087C180.985 182.087 180.37 181.698 180.078 181.077H180.047V183.794H178.55V176.504H180.027V177.463H180.057C180.355 176.817 180.965 176.417 181.76 176.417ZM181.257 180.882C182.006 180.882 182.477 180.252 182.477 179.252C182.477 178.257 182.006 177.616 181.257 177.616C180.524 177.616 180.042 178.268 180.042 179.252C180.042 180.247 180.524 180.882 181.257 180.882ZM185.184 175.238H186.681V176.504H187.697V177.632H186.681V180.262C186.681 180.682 186.886 180.882 187.327 180.882C187.461 180.882 187.599 180.872 187.691 180.857V181.959C187.538 181.995 187.281 182.021 186.979 182.021C185.687 182.021 185.184 181.59 185.184 180.518V177.632H184.41V176.504H185.184V175.238ZM188.553 182V174.602H190.024V177.483H190.055C190.347 176.791 190.947 176.401 191.783 176.401C193.003 176.401 193.7 177.191 193.7 178.462V182H192.203V178.78C192.203 178.073 191.854 177.642 191.173 177.642C190.465 177.642 190.05 178.139 190.05 178.862V182H188.553ZM201.77 180.718V182H196.869V174.602H201.77V175.878H198.417V177.663H201.58V178.852H198.417V180.718H201.77ZM207.753 178.55H206.364C206.277 177.97 205.892 177.56 205.277 177.56C204.539 177.56 204.077 178.186 204.077 179.247C204.077 180.329 204.539 180.944 205.282 180.944C205.882 180.944 206.271 180.585 206.364 179.985H207.758C207.681 181.282 206.712 182.118 205.267 182.118C203.611 182.118 202.56 181.041 202.56 179.247C202.56 177.483 203.611 176.386 205.256 176.386C206.743 176.386 207.687 177.304 207.753 178.55ZM211.004 182.118C209.343 182.118 208.281 181.052 208.281 179.247C208.281 177.468 209.358 176.386 211.004 176.386C212.649 176.386 213.726 177.463 213.726 179.247C213.726 181.057 212.665 182.118 211.004 182.118ZM211.004 180.975C211.737 180.975 212.203 180.354 212.203 179.252C212.203 178.16 211.732 177.529 211.004 177.529C210.276 177.529 209.799 178.16 209.799 179.252C209.799 180.354 210.265 180.975 211.004 180.975ZM214.5 182V176.504H215.946V177.483H215.977C216.269 176.801 216.848 176.401 217.694 176.401C218.915 176.401 219.602 177.17 219.602 178.457V182H218.104V178.77C218.104 178.052 217.766 177.642 217.094 177.642C216.423 177.642 215.997 178.134 215.997 178.847V182H214.5ZM223.073 182.118C221.411 182.118 220.35 181.052 220.35 179.247C220.35 177.468 221.427 176.386 223.073 176.386C224.718 176.386 225.795 177.463 225.795 179.247C225.795 181.057 224.734 182.118 223.073 182.118ZM223.073 180.975C223.806 180.975 224.272 180.354 224.272 179.252C224.272 178.16 223.801 177.529 223.073 177.529C222.344 177.529 221.868 178.16 221.868 179.252C221.868 180.354 222.334 180.975 223.073 180.975ZM226.569 182V176.504H228.015V177.499H228.046C228.276 176.837 228.866 176.401 229.615 176.401C230.409 176.401 230.963 176.812 231.147 177.529H231.178C231.424 176.837 232.081 176.401 232.885 176.401C233.962 176.401 234.685 177.14 234.685 178.247V182H233.188V178.621C233.188 177.986 232.87 177.637 232.291 177.637C231.722 177.637 231.347 178.052 231.347 178.662V182H229.907V178.575C229.907 177.986 229.573 177.637 229.02 177.637C228.451 177.637 228.066 178.068 228.066 178.683V182H226.569ZM235.659 182V176.504H237.156V182H235.659ZM236.408 175.899C235.957 175.899 235.608 175.555 235.608 175.125C235.608 174.689 235.957 174.351 236.408 174.351C236.859 174.351 237.208 174.689 237.208 175.125C237.208 175.555 236.859 175.899 236.408 175.899ZM243.15 178.55H241.76C241.673 177.97 241.289 177.56 240.673 177.56C239.935 177.56 239.474 178.186 239.474 179.247C239.474 180.329 239.935 180.944 240.678 180.944C241.278 180.944 241.668 180.585 241.76 179.985H243.155C243.078 181.282 242.109 182.118 240.663 182.118C239.007 182.118 237.956 181.041 237.956 179.247C237.956 177.483 239.007 176.386 240.653 176.386C242.14 176.386 243.083 177.304 243.15 178.55ZM249.364 182H246.087V174.602H249.307C250.697 174.602 251.568 175.314 251.568 176.448C251.568 177.258 250.963 177.934 250.179 178.052V178.093C251.184 178.17 251.922 178.903 251.922 179.883C251.922 181.185 250.943 182 249.364 182ZM247.636 175.755V177.678H248.748C249.574 177.678 250.045 177.314 250.045 176.688C250.045 176.094 249.63 175.755 248.907 175.755H247.636ZM247.636 180.846H248.969C249.861 180.846 250.343 180.467 250.343 179.76C250.343 179.067 249.845 178.698 248.933 178.698H247.636V180.846ZM252.676 182V176.504H254.121V177.493H254.152C254.347 176.796 254.813 176.417 255.459 176.417C255.634 176.417 255.782 176.442 255.885 176.473V177.791C255.762 177.74 255.557 177.704 255.342 177.704C254.603 177.704 254.173 178.155 254.173 178.929V182H252.676ZM258.782 177.493C258.125 177.493 257.654 177.991 257.603 178.678H259.935C259.905 177.975 259.448 177.493 258.782 177.493ZM259.956 180.318H261.33C261.166 181.395 260.181 182.118 258.823 182.118C257.131 182.118 256.116 181.036 256.116 179.278C256.116 177.524 257.141 176.386 258.766 176.386C260.366 176.386 261.376 177.468 261.376 179.139V179.595H257.587V179.688C257.587 180.472 258.084 181.01 258.848 181.01C259.397 181.01 259.817 180.739 259.956 180.318ZM264.273 181.005C264.924 181.005 265.462 180.58 265.462 179.985V179.585L264.303 179.657C263.745 179.698 263.427 179.949 263.427 180.339C263.427 180.749 263.765 181.005 264.273 181.005ZM263.781 182.087C262.735 182.087 261.94 181.41 261.94 180.421C261.94 179.421 262.709 178.842 264.078 178.76L265.462 178.678V178.314C265.462 177.801 265.103 177.504 264.539 177.504C263.98 177.504 263.627 177.781 263.555 178.186H262.186C262.242 177.119 263.15 176.386 264.606 176.386C266.016 176.386 266.934 177.114 266.934 178.221V182H265.488V181.159H265.457C265.149 181.744 264.468 182.087 263.781 182.087ZM269.456 178.708L271.322 176.504H273.019L270.922 178.862L273.122 182H271.399L269.825 179.765L269.436 180.185V182H267.938V174.602H269.436V178.708H269.456ZM275.337 182.087C273.963 182.087 273.096 181 273.096 179.242C273.096 177.499 273.968 176.417 275.347 176.417C276.142 176.417 276.757 176.837 277.023 177.447H277.054V174.602H278.551V182H277.075V181.057H277.049C276.782 181.662 276.147 182.087 275.337 182.087ZM275.844 177.616C275.091 177.616 274.629 178.247 274.629 179.252C274.629 180.262 275.091 180.882 275.844 180.882C276.588 180.882 277.064 180.257 277.064 179.252C277.064 178.252 276.588 177.616 275.844 177.616ZM282.073 182.118C280.412 182.118 279.351 181.052 279.351 179.247C279.351 177.468 280.428 176.386 282.073 176.386C283.719 176.386 284.796 177.463 284.796 179.247C284.796 181.057 283.735 182.118 282.073 182.118ZM282.073 180.975C282.807 180.975 283.273 180.354 283.273 179.252C283.273 178.16 282.802 177.529 282.073 177.529C281.345 177.529 280.869 178.16 280.869 179.252C280.869 180.354 281.335 180.975 282.073 180.975ZM293.23 176.504L291.774 182H290.179L289.185 178.114H289.154L288.164 182H286.59L285.129 176.504H286.636L287.467 180.58H287.498L288.472 176.504H289.907L290.887 180.58H290.917L291.753 176.504H293.23ZM293.814 182V176.504H295.26V177.483H295.291C295.583 176.801 296.162 176.401 297.008 176.401C298.229 176.401 298.916 177.17 298.916 178.457V182H297.418V178.77C297.418 178.052 297.08 177.642 296.408 177.642C295.737 177.642 295.311 178.134 295.311 178.847V182H293.814ZM299.772 178.119C299.772 177.073 300.679 176.386 302.089 176.386C303.468 176.386 304.365 177.083 304.386 178.15H303.007C302.976 177.709 302.622 177.437 302.069 177.437C301.551 177.437 301.212 177.673 301.212 178.027C301.212 178.298 301.448 178.483 301.93 178.596L302.981 178.821C304.083 179.067 304.53 179.503 304.53 180.323C304.53 181.405 303.535 182.118 302.084 182.118C300.618 182.118 299.715 181.41 299.633 180.339H301.094C301.166 180.8 301.53 181.067 302.125 181.067C302.694 181.067 303.038 180.841 303.038 180.482C303.038 180.206 302.853 180.052 302.361 179.934L301.346 179.708C300.305 179.472 299.772 178.929 299.772 178.119Z" fill="#111111"/>
<rect x="677.5" y="159" width="165" height="26" rx="13" fill="white"/>
<rect x="677.688" y="159.188" width="164.625" height="25.625" rx="12.8125" stroke="#111111" stroke-opacity="0.1" stroke-width="0.375"/>
<rect x="683.5" y="166" width="12" height="12" rx="6" fill="#1FD773"/>
<g clip-path="url(#clip7_8022_50639)">
<path d="M691.5 170.5L688.75 173.25L687.5 172" stroke="white" stroke-width="1.125" stroke-linecap="round" stroke-linejoin="round"/>
</g>
<path d="M700.664 169.812V172.17H701.997C702.776 172.17 703.232 171.724 703.232 170.991C703.232 170.273 702.75 169.812 701.981 169.812H700.664ZM700.664 173.293V176H699.115V168.602H702.145C703.847 168.602 704.822 169.499 704.822 170.96C704.822 171.909 704.329 172.729 703.478 173.062L705.037 176H703.283L701.904 173.293H700.664ZM708.185 176.118C706.524 176.118 705.462 175.052 705.462 173.247C705.462 171.468 706.539 170.386 708.185 170.386C709.831 170.386 710.907 171.463 710.907 173.247C710.907 175.057 709.846 176.118 708.185 176.118ZM708.185 174.975C708.918 174.975 709.385 174.354 709.385 173.252C709.385 172.16 708.913 171.529 708.185 171.529C707.457 171.529 706.98 172.16 706.98 173.252C706.98 174.354 707.447 174.975 708.185 174.975ZM716.757 170.504V176H715.311V175.01H715.281C715.009 175.703 714.465 176.103 713.635 176.103C712.445 176.103 711.656 175.328 711.656 174.047V170.504H713.153V173.734C713.153 174.467 713.517 174.857 714.178 174.857C714.845 174.857 715.26 174.38 715.26 173.652V170.504H716.757ZM717.731 176V170.504H719.177V171.483H719.208C719.5 170.801 720.079 170.401 720.925 170.401C722.146 170.401 722.833 171.17 722.833 172.457V176H721.335V172.77C721.335 172.052 720.997 171.642 720.325 171.642C719.654 171.642 719.228 172.134 719.228 172.847V176H717.731ZM725.822 176.087C724.448 176.087 723.581 175 723.581 173.242C723.581 171.499 724.453 170.417 725.832 170.417C726.626 170.417 727.242 170.837 727.508 171.447H727.539V168.602H729.036V176H727.56V175.057H727.534C727.267 175.662 726.632 176.087 725.822 176.087ZM726.329 171.616C725.575 171.616 725.114 172.247 725.114 173.252C725.114 174.262 725.575 174.882 726.329 174.882C727.073 174.882 727.549 174.257 727.549 173.252C727.549 172.252 727.073 171.616 726.329 171.616ZM732.517 169.238H734.014V170.504H735.03V171.632H734.014V174.262C734.014 174.682 734.219 174.882 734.66 174.882C734.794 174.882 734.932 174.872 735.024 174.857V175.959C734.871 175.995 734.614 176.021 734.312 176.021C733.02 176.021 732.517 175.59 732.517 174.518V171.632H731.743V170.504H732.517V169.238ZM735.886 176V168.602H737.357V171.483H737.388C737.68 170.791 738.28 170.401 739.116 170.401C740.336 170.401 741.033 171.191 741.033 172.462V176H739.536V172.78C739.536 172.073 739.188 171.642 738.506 171.642C737.798 171.642 737.383 172.139 737.383 172.862V176H735.886ZM744.458 171.493C743.802 171.493 743.33 171.991 743.279 172.678H745.612C745.581 171.975 745.125 171.493 744.458 171.493ZM745.632 174.318H747.006C746.842 175.395 745.858 176.118 744.499 176.118C742.807 176.118 741.792 175.036 741.792 173.278C741.792 171.524 742.817 170.386 744.443 170.386C746.042 170.386 747.052 171.468 747.052 173.139V173.595H743.263V173.688C743.263 174.472 743.761 175.01 744.525 175.01C745.073 175.01 745.494 174.739 745.632 174.318ZM754.902 172.55H753.512C753.425 171.97 753.041 171.56 752.425 171.56C751.687 171.56 751.226 172.186 751.226 173.247C751.226 174.329 751.687 174.944 752.43 174.944C753.03 174.944 753.42 174.585 753.512 173.985H754.907C754.83 175.282 753.861 176.118 752.415 176.118C750.759 176.118 749.708 175.041 749.708 173.247C749.708 171.483 750.759 170.386 752.405 170.386C753.892 170.386 754.835 171.304 754.902 172.55ZM755.666 176V168.602H757.163V176H755.666ZM760.695 176.118C759.034 176.118 757.973 175.052 757.973 173.247C757.973 171.468 759.049 170.386 760.695 170.386C762.341 170.386 763.417 171.463 763.417 173.247C763.417 175.057 762.356 176.118 760.695 176.118ZM760.695 174.975C761.428 174.975 761.895 174.354 761.895 173.252C761.895 172.16 761.423 171.529 760.695 171.529C759.967 171.529 759.49 172.16 759.49 173.252C759.49 174.354 759.957 174.975 760.695 174.975ZM769.185 172.55H767.796C767.709 171.97 767.324 171.56 766.709 171.56C765.971 171.56 765.509 172.186 765.509 173.247C765.509 174.329 765.971 174.944 766.714 174.944C767.314 174.944 767.704 174.585 767.796 173.985H769.19C769.114 175.282 768.145 176.118 766.699 176.118C765.043 176.118 763.992 175.041 763.992 173.247C763.992 171.483 765.043 170.386 766.688 170.386C768.175 170.386 769.119 171.304 769.185 172.55ZM771.467 172.708L773.333 170.504H775.03L772.933 172.862L775.133 176H773.41L771.836 173.765L771.446 174.185V176H769.949V168.602H771.446V172.708H771.467ZM785.607 176H784.228V171.006H784.187L782.177 175.928H781.203L779.193 171.006H779.152V176H777.773V168.602H779.567L781.669 173.847H781.71L783.812 168.602H785.607V176ZM789.232 176.118C787.571 176.118 786.509 175.052 786.509 173.247C786.509 171.468 787.586 170.386 789.232 170.386C790.877 170.386 791.954 171.463 791.954 173.247C791.954 175.057 790.893 176.118 789.232 176.118ZM789.232 174.975C789.965 174.975 790.431 174.354 790.431 173.252C790.431 172.16 789.96 171.529 789.232 171.529C788.504 171.529 788.027 172.16 788.027 173.252C788.027 174.354 788.493 174.975 789.232 174.975ZM794.769 176.087C793.395 176.087 792.528 175 792.528 173.242C792.528 171.499 793.4 170.417 794.779 170.417C795.574 170.417 796.189 170.837 796.456 171.447H796.486V168.602H797.983V176H796.507V175.057H796.481C796.215 175.662 795.579 176.087 794.769 176.087ZM795.276 171.616C794.523 171.616 794.061 172.247 794.061 173.252C794.061 174.262 794.523 174.882 795.276 174.882C796.02 174.882 796.497 174.257 796.497 173.252C796.497 172.252 796.02 171.616 795.276 171.616ZM801.449 171.493C800.793 171.493 800.321 171.991 800.27 172.678H802.603C802.572 171.975 802.116 171.493 801.449 171.493ZM802.623 174.318H803.997C803.833 175.395 802.849 176.118 801.49 176.118C799.798 176.118 798.783 175.036 798.783 173.278C798.783 171.524 799.809 170.386 801.434 170.386C803.033 170.386 804.043 171.468 804.043 173.139V173.595H800.255V173.688C800.255 174.472 800.752 175.01 801.516 175.01C802.064 175.01 802.485 174.739 802.623 174.318ZM804.818 176V170.504H806.263V171.493H806.294C806.489 170.796 806.956 170.417 807.602 170.417C807.776 170.417 807.925 170.442 808.027 170.473V171.791C807.904 171.74 807.699 171.704 807.484 171.704C806.745 171.704 806.315 172.155 806.315 172.929V176H804.818ZM810.632 175.005C811.283 175.005 811.821 174.58 811.821 173.985V173.585L810.662 173.657C810.104 173.698 809.786 173.949 809.786 174.339C809.786 174.749 810.124 175.005 810.632 175.005ZM810.139 176.087C809.094 176.087 808.299 175.41 808.299 174.421C808.299 173.421 809.068 172.842 810.437 172.76L811.821 172.678V172.314C811.821 171.801 811.462 171.504 810.898 171.504C810.339 171.504 809.986 171.781 809.914 172.186H808.545C808.601 171.119 809.509 170.386 810.965 170.386C812.375 170.386 813.292 171.114 813.292 172.221V176H811.847V175.159H811.816C811.508 175.744 810.826 176.087 810.139 176.087ZM814.661 169.238H816.158V170.504H817.174V171.632H816.158V174.262C816.158 174.682 816.364 174.882 816.804 174.882C816.938 174.882 817.076 174.872 817.168 174.857V175.959C817.015 175.995 816.758 176.021 816.456 176.021C815.164 176.021 814.661 175.59 814.661 174.518V171.632H813.887V170.504H814.661V169.238ZM820.434 176.118C818.773 176.118 817.712 175.052 817.712 173.247C817.712 171.468 818.789 170.386 820.434 170.386C822.08 170.386 823.157 171.463 823.157 173.247C823.157 175.057 822.095 176.118 820.434 176.118ZM820.434 174.975C821.167 174.975 821.634 174.354 821.634 173.252C821.634 172.16 821.162 171.529 820.434 171.529C819.706 171.529 819.229 172.16 819.229 173.252C819.229 174.354 819.696 174.975 820.434 174.975ZM823.931 176V170.504H825.377V171.493H825.407C825.602 170.796 826.069 170.417 826.715 170.417C826.889 170.417 827.038 170.442 827.14 170.473V171.791C827.017 171.74 826.812 171.704 826.597 171.704C825.859 171.704 825.428 172.155 825.428 172.929V176H823.931ZM827.663 172.119C827.663 171.073 828.571 170.386 829.981 170.386C831.36 170.386 832.257 171.083 832.278 172.15H830.898C830.868 171.709 830.514 171.437 829.96 171.437C829.442 171.437 829.104 171.673 829.104 172.027C829.104 172.298 829.34 172.483 829.822 172.596L830.873 172.821C831.975 173.067 832.421 173.503 832.421 174.323C832.421 175.405 831.427 176.118 829.976 176.118C828.509 176.118 827.607 175.41 827.525 174.339H828.986C829.058 174.8 829.422 175.067 830.017 175.067C830.586 175.067 830.929 174.841 830.929 174.482C830.929 174.206 830.745 174.052 830.252 173.934L829.237 173.708C828.197 173.472 827.663 172.929 827.663 172.119Z" fill="#111111"/>
<rect x="829.75" y="24" width="96" height="26" rx="13" fill="white"/>
<rect x="829.938" y="24.1875" width="95.625" height="25.625" rx="12.8125" stroke="#111111" stroke-opacity="0.1" stroke-width="0.375"/>
<rect x="835.75" y="31" width="12" height="12" rx="6" fill="#1FD773"/>
<g clip-path="url(#clip8_8022_50639)">
<path d="M843.75 35.5L841 38.25L839.75 37" stroke="white" stroke-width="1.125" stroke-linecap="round" stroke-linejoin="round"/>
</g>
<path d="M856.149 39.7183V41H851.365V33.6018H852.914V39.7183H856.149ZM856.964 41V35.5039H858.461V41H856.964ZM857.712 34.8989C857.261 34.8989 856.913 34.5554 856.913 34.1248C856.913 33.689 857.261 33.3506 857.712 33.3506C858.164 33.3506 858.512 33.689 858.512 34.1248C858.512 34.5554 858.164 34.8989 857.712 34.8989ZM859.861 41V36.6318H859.112V35.5295H859.861V35.1143C859.861 34.0376 860.368 33.5352 861.67 33.5352C861.947 33.5352 862.26 33.5659 862.434 33.6018V34.5913C862.327 34.5708 862.178 34.5605 862.029 34.5605C861.537 34.5605 861.322 34.7759 861.322 35.1655V35.5295H862.414V36.6318H861.358V41H859.861ZM865.516 36.4934C864.859 36.4934 864.388 36.9907 864.336 37.6777H866.669C866.638 36.9753 866.182 36.4934 865.516 36.4934ZM866.69 39.3184H868.064C867.9 40.395 866.915 41.1179 865.557 41.1179C863.865 41.1179 862.85 40.0361 862.85 38.2776C862.85 36.5242 863.875 35.386 865.5 35.386C867.1 35.386 868.11 36.4678 868.11 38.1392V38.5955H864.321V38.6877C864.321 39.4722 864.818 40.0105 865.582 40.0105C866.131 40.0105 866.551 39.7388 866.69 39.3184ZM874.365 41.1282C872.211 41.1282 870.863 39.6875 870.863 37.2983C870.863 34.9143 872.222 33.4736 874.365 33.4736C876.144 33.4736 877.497 34.6016 877.615 36.2576H876.108C875.964 35.3501 875.267 34.7554 874.365 34.7554C873.196 34.7554 872.442 35.7346 872.442 37.2932C872.442 38.8723 873.186 39.8464 874.37 39.8464C875.288 39.8464 875.949 39.3081 876.113 38.4314H877.62C877.446 40.0823 876.18 41.1282 874.365 41.1282ZM880.973 41.1179C879.312 41.1179 878.251 40.0515 878.251 38.2468C878.251 36.4678 879.328 35.386 880.973 35.386C882.619 35.386 883.696 36.4626 883.696 38.2468C883.696 40.0566 882.635 41.1179 880.973 41.1179ZM880.973 39.9746C881.707 39.9746 882.173 39.3542 882.173 38.252C882.173 37.1599 881.701 36.5293 880.973 36.5293C880.245 36.5293 879.769 37.1599 879.769 38.252C879.769 39.3542 880.235 39.9746 880.973 39.9746ZM886.593 40.0054C887.244 40.0054 887.782 39.5798 887.782 38.9851V38.5852L886.623 38.657C886.064 38.698 885.747 38.9492 885.747 39.3389C885.747 39.749 886.085 40.0054 886.593 40.0054ZM886.1 41.0872C885.054 41.0872 884.26 40.4104 884.26 39.4209C884.26 38.4211 885.029 37.8418 886.398 37.7598L887.782 37.6777V37.3137C887.782 36.801 887.423 36.5037 886.859 36.5037C886.3 36.5037 885.947 36.7805 885.875 37.1855H884.506C884.562 36.1191 885.47 35.386 886.926 35.386C888.336 35.386 889.253 36.114 889.253 37.2214V41H887.808V40.1592H887.777C887.469 40.7437 886.787 41.0872 886.1 41.0872ZM895.216 37.5496H893.827C893.74 36.9702 893.355 36.5601 892.74 36.5601C892.001 36.5601 891.54 37.1855 891.54 38.2468C891.54 39.3286 892.001 39.9438 892.745 39.9438C893.345 39.9438 893.734 39.585 893.827 38.9851H895.221C895.144 40.2822 894.175 41.1179 892.729 41.1179C891.073 41.1179 890.022 40.0413 890.022 38.2468C890.022 36.4832 891.073 35.386 892.719 35.386C894.206 35.386 895.149 36.3037 895.216 37.5496ZM895.98 41V33.6018H897.451V36.4832H897.482C897.774 35.791 898.374 35.4014 899.21 35.4014C900.43 35.4014 901.127 36.1909 901.127 37.4624V41H899.63V37.7803C899.63 37.0728 899.282 36.6421 898.6 36.6421C897.892 36.6421 897.477 37.1394 897.477 37.8623V41H895.98ZM902.112 41V35.5039H903.609V41H902.112ZM902.86 34.8989C902.409 34.8989 902.061 34.5554 902.061 34.1248C902.061 33.689 902.409 33.3506 902.86 33.3506C903.312 33.3506 903.66 33.689 903.66 34.1248C903.66 34.5554 903.312 34.8989 902.86 34.8989ZM904.609 41V35.5039H906.054V36.4832H906.085C906.377 35.8013 906.957 35.4014 907.803 35.4014C909.023 35.4014 909.71 36.1704 909.71 37.4573V41H908.213V37.77C908.213 37.0522 907.875 36.6421 907.203 36.6421C906.531 36.6421 906.106 37.1343 906.106 37.8469V41H904.609ZM913.196 39.8311C913.945 39.8311 914.422 39.2363 914.422 38.2417C914.422 37.2522 913.945 36.6165 913.196 36.6165C912.458 36.6165 911.991 37.2419 911.991 38.2417C911.991 39.2466 912.453 39.8311 913.196 39.8311ZM913.171 43.0713C911.725 43.0713 910.746 42.3689 910.628 41.3896H912.094C912.212 41.769 912.643 42.0305 913.212 42.0305C913.986 42.0305 914.417 41.5999 914.417 40.9641V40.0002H914.386C914.129 40.5847 913.483 40.9846 912.689 40.9846C911.345 40.9846 910.458 39.949 910.458 38.2314C910.458 36.4883 911.32 35.4167 912.714 35.4167C913.504 35.4167 914.124 35.832 914.411 36.4626H914.437V35.5039H915.914V40.9231C915.914 42.2356 914.816 43.0713 913.171 43.0713Z" fill="#111111"/>
<rect x="232.75" y="206.25" width="123" height="26" rx="13" fill="white"/>
<rect x="232.938" y="206.438" width="122.625" height="25.625" rx="12.8125" stroke="#111111" stroke-opacity="0.1" stroke-width="0.375"/>
<rect x="238.75" y="213.25" width="12" height="12" rx="6" fill="#1FD773"/>
<path d="M247.133 218.07L244.133 221.07C244.115 221.088 244.095 221.102 244.072 221.111C244.049 221.12 244.025 221.125 244 221.125C243.975 221.125 243.951 221.12 243.928 221.111C243.906 221.102 243.885 221.088 243.867 221.07L242.555 219.758C242.52 219.723 242.5 219.675 242.5 219.625C242.5 219.575 242.52 219.528 242.555 219.492C242.59 219.457 242.638 219.437 242.688 219.437C242.737 219.437 242.785 219.457 242.82 219.492L244 220.673L246.867 217.805C246.903 217.77 246.95 217.75 247 217.75C247.05 217.75 247.098 217.77 247.133 217.805C247.168 217.84 247.188 217.888 247.188 217.938C247.188 217.987 247.168 218.035 247.133 218.07Z" fill="white" stroke="white" stroke-width="0.75"/>
<path d="M254.365 223.25V215.852H259.267V217.128H255.914V218.902H259.077V220.112H255.914V221.973H259.267V223.25H254.365ZM262.292 223.363C260.907 223.363 260.056 222.286 260.056 220.502V220.497C260.056 218.708 260.907 217.641 262.292 217.641C263.071 217.641 263.686 218.041 263.983 218.708H264.014V215.852H265.511V223.25H264.014V222.312H263.983C263.691 222.963 263.086 223.363 262.292 223.363ZM262.794 222.122C263.522 222.122 264.019 221.497 264.019 220.502V220.497C264.019 219.507 263.517 218.882 262.794 218.882C262.051 218.882 261.579 219.492 261.579 220.497V220.502C261.579 221.502 262.045 222.122 262.794 222.122ZM268.382 223.363C267.172 223.363 266.485 222.589 266.485 221.302V217.754H267.982V220.989C267.982 221.707 268.321 222.122 268.992 222.122C269.664 222.122 270.09 221.63 270.09 220.912V217.754H271.587V223.25H270.09V222.343H270.059C269.777 222.973 269.213 223.363 268.382 223.363ZM275.073 223.363C273.396 223.363 272.361 222.271 272.361 220.497V220.492C272.361 218.733 273.412 217.641 275.058 217.641C276.55 217.641 277.498 218.559 277.554 219.748V219.784H276.165L276.155 219.738C276.062 219.215 275.698 218.815 275.078 218.815C274.345 218.815 273.884 219.446 273.884 220.497V220.502C273.884 221.579 274.345 222.189 275.083 222.189C275.683 222.189 276.057 221.82 276.16 221.266L276.165 221.22H277.56V221.25C277.488 222.45 276.539 223.363 275.073 223.363ZM279.918 223.337C278.816 223.337 278.072 222.645 278.072 221.676V221.666C278.072 220.666 278.846 220.082 280.21 219.994L281.569 219.912V219.574C281.569 219.087 281.251 218.784 280.667 218.784C280.108 218.784 279.769 219.046 279.698 219.4L279.687 219.446H278.318L278.323 219.384C278.406 218.369 279.277 217.641 280.728 217.641C282.148 217.641 283.066 218.374 283.066 219.482V223.25H281.569V222.43H281.538C281.225 222.994 280.641 223.337 279.918 223.337ZM279.554 221.599C279.554 222.004 279.887 222.245 280.405 222.245C281.077 222.245 281.569 221.814 281.569 221.24V220.845L280.436 220.917C279.856 220.953 279.554 221.199 279.554 221.589V221.599ZM286.219 223.363C284.999 223.363 284.425 222.891 284.425 221.712V218.882H283.661V217.754H284.425V216.411H285.937V217.754H286.942V218.882H285.937V221.548C285.937 222.061 286.168 222.235 286.619 222.235C286.752 222.235 286.85 222.219 286.942 222.209V223.306C286.773 223.332 286.532 223.363 286.219 223.363ZM288.547 217.046C288.095 217.046 287.747 216.693 287.747 216.267C287.747 215.842 288.095 215.488 288.547 215.488C288.998 215.488 289.346 215.842 289.346 216.267C289.346 216.693 288.998 217.046 288.547 217.046ZM287.798 223.25V217.754H289.295V223.25H287.798ZM292.823 223.363C291.151 223.363 290.1 222.291 290.1 220.502V220.492C290.1 218.723 291.177 217.641 292.817 217.641C294.463 217.641 295.545 218.713 295.545 220.492V220.502C295.545 222.296 294.484 223.363 292.823 223.363ZM292.828 222.189C293.556 222.189 294.022 221.573 294.022 220.502V220.492C294.022 219.43 293.545 218.815 292.817 218.815C292.094 218.815 291.623 219.43 291.623 220.492V220.502C291.623 221.579 292.089 222.189 292.828 222.189ZM296.319 223.25V217.754H297.816V218.656H297.847C298.129 218.026 298.693 217.641 299.523 217.641C300.733 217.641 301.42 218.415 301.42 219.702V223.25H299.923V220.01C299.923 219.292 299.585 218.882 298.913 218.882C298.242 218.882 297.816 219.374 297.816 220.092V223.25H296.319ZM304.004 223.337C302.902 223.337 302.159 222.645 302.159 221.676V221.666C302.159 220.666 302.933 220.082 304.297 219.994L305.655 219.912V219.574C305.655 219.087 305.337 218.784 304.753 218.784C304.194 218.784 303.856 219.046 303.784 219.4L303.774 219.446H302.405L302.41 219.384C302.492 218.369 303.364 217.641 304.814 217.641C306.235 217.641 307.152 218.374 307.152 219.482V223.25H305.655V222.43H305.625C305.312 222.994 304.727 223.337 304.004 223.337ZM303.64 221.599C303.64 222.004 303.974 222.245 304.491 222.245C305.163 222.245 305.655 221.814 305.655 221.24V220.845L304.522 220.917C303.943 220.953 303.64 221.199 303.64 221.589V221.599ZM308.157 223.25V215.852H309.654V223.25H308.157ZM316.207 223.378C313.997 223.378 312.643 221.938 312.643 219.528V219.523C312.643 217.154 314.002 215.724 316.171 215.724C317.95 215.724 319.16 216.759 319.406 218.149L319.421 218.22H317.868L317.847 218.169C317.601 217.451 317.011 217.036 316.176 217.036C314.956 217.036 314.222 217.938 314.222 219.507V219.512C314.222 221.117 315.002 222.066 316.232 222.066C317.242 222.066 317.934 221.466 317.975 220.553L317.98 220.446H316.289V219.292H319.488V220.143C319.488 222.158 318.268 223.378 316.207 223.378ZM322.256 223.363C321.046 223.363 320.359 222.589 320.359 221.302V217.754H321.856V220.989C321.856 221.707 322.195 222.122 322.866 222.122C323.538 222.122 323.964 221.63 323.964 220.912V217.754H325.461V223.25H323.964V222.343H323.933C323.651 222.973 323.087 223.363 322.256 223.363ZM327.214 217.046C326.763 217.046 326.414 216.693 326.414 216.267C326.414 215.842 326.763 215.488 327.214 215.488C327.665 215.488 328.014 215.842 328.014 216.267C328.014 216.693 327.665 217.046 327.214 217.046ZM326.466 223.25V217.754H327.963V223.25H326.466ZM331.003 223.363C329.619 223.363 328.768 222.286 328.768 220.502V220.497C328.768 218.708 329.619 217.641 331.003 217.641C331.782 217.641 332.397 218.041 332.695 218.708H332.726V215.852H334.223V223.25H332.726V222.312H332.695C332.403 222.963 331.798 223.363 331.003 223.363ZM331.505 222.122C332.233 222.122 332.731 221.497 332.731 220.502V220.497C332.731 219.507 332.228 218.882 331.505 218.882C330.762 218.882 330.29 219.492 330.29 220.497V220.502C330.29 221.502 330.757 222.122 331.505 222.122ZM337.724 223.363C336.043 223.363 335.022 222.271 335.022 220.512V220.507C335.022 218.759 336.053 217.641 337.663 217.641C339.273 217.641 340.283 218.733 340.283 220.394V220.856H336.499C336.514 221.732 336.991 222.245 337.755 222.245C338.37 222.245 338.745 221.907 338.852 221.599L338.863 221.568H340.237L340.221 221.625C340.052 222.435 339.293 223.363 337.724 223.363ZM337.688 218.759C337.073 218.759 336.612 219.169 336.514 219.912H338.847C338.755 219.154 338.309 218.759 337.688 218.759ZM343.318 223.363C341.795 223.363 340.949 222.66 340.831 221.62L340.826 221.573H342.287L342.298 221.62C342.395 222.05 342.718 222.302 343.318 222.302C343.882 222.302 344.225 222.081 344.225 221.727V221.722C344.225 221.43 344.041 221.261 343.502 221.143L342.569 220.948C341.503 220.722 340.965 220.189 340.965 219.369V219.364C340.965 218.318 341.867 217.641 343.267 217.641C344.728 217.641 345.543 218.415 345.579 219.379V219.43H344.2L344.195 219.389C344.143 218.995 343.82 218.697 343.267 218.697C342.749 218.697 342.426 218.928 342.426 219.282V219.287C342.426 219.569 342.615 219.753 343.169 219.871L344.102 220.071C345.251 220.312 345.722 220.763 345.722 221.573V221.579C345.722 222.655 344.733 223.363 343.318 223.363Z" fill="#111111"/>
<rect x="597.25" y="204" width="95" height="26" rx="13" fill="white"/>
<rect x="597.438" y="204.188" width="94.625" height="25.625" rx="12.8125" stroke="#111111" stroke-opacity="0.1" stroke-width="0.375"/>
<rect x="603.25" y="211" width="12" height="12" rx="6" fill="#1FD773"/>
<g clip-path="url(#clip9_8022_50639)">
<path d="M611.25 215.5L608.5 218.25L607.25 217" stroke="white" stroke-width="1.125" stroke-linecap="round" stroke-linejoin="round"/>
</g>
<path d="M618.865 213.602H621.69C623.91 213.602 625.218 214.925 625.218 217.273C625.218 219.621 623.91 221 621.69 221H618.865V213.602ZM620.414 214.878V219.718H621.506C622.89 219.718 623.638 218.877 623.638 217.278C623.638 215.729 622.869 214.878 621.506 214.878H620.414ZM628.181 220.005C628.832 220.005 629.37 219.58 629.37 218.985V218.585L628.212 218.657C627.653 218.698 627.335 218.949 627.335 219.339C627.335 219.749 627.673 220.005 628.181 220.005ZM627.689 221.087C626.643 221.087 625.848 220.41 625.848 219.421C625.848 218.421 626.617 217.842 627.986 217.76L629.37 217.678V217.314C629.37 216.801 629.011 216.504 628.448 216.504C627.889 216.504 627.535 216.781 627.463 217.186H626.094C626.151 216.119 627.058 215.386 628.514 215.386C629.924 215.386 630.842 216.114 630.842 217.221V221H629.396V220.159H629.365C629.058 220.744 628.376 221.087 627.689 221.087ZM631.836 221V215.504H633.333V221H631.836ZM632.585 214.899C632.134 214.899 631.785 214.555 631.785 214.125C631.785 213.689 632.134 213.351 632.585 213.351C633.036 213.351 633.385 213.689 633.385 214.125C633.385 214.555 633.036 214.899 632.585 214.899ZM634.369 221V213.602H635.866V221H634.369ZM637.579 223.035C637.527 223.035 637.061 223.03 637.015 223.02V221.866C637.061 221.877 637.333 221.877 637.389 221.877C637.938 221.877 638.209 221.702 638.312 221.267C638.312 221.246 638.368 221.026 638.358 221.005L636.446 215.504H638.091L639.26 219.8H639.286L640.455 215.504H642.034L640.142 221.123C639.67 222.533 638.983 223.035 637.579 223.035ZM648.125 221.128C645.93 221.128 644.556 219.677 644.556 217.303C644.556 214.95 645.93 213.474 648.125 213.474C650.314 213.474 651.688 214.95 651.688 217.303C651.688 218.606 651.273 219.652 650.509 220.282L651.447 221.697H649.945L649.417 220.923C649.022 221.062 648.591 221.128 648.125 221.128ZM648.125 219.846C648.314 219.846 648.489 219.821 648.653 219.775L647.843 218.565H649.242L649.565 219.006C649.914 218.606 650.109 218.016 650.109 217.303C650.109 215.75 649.335 214.75 648.125 214.75C646.91 214.75 646.135 215.75 646.135 217.303C646.135 218.852 646.91 219.846 648.125 219.846ZM657.64 215.504V221H656.195V220.01H656.164C655.892 220.703 655.349 221.103 654.518 221.103C653.329 221.103 652.539 220.328 652.539 219.047V215.504H654.036V218.734C654.036 219.467 654.4 219.857 655.062 219.857C655.728 219.857 656.143 219.38 656.143 218.652V215.504H657.64ZM658.64 221V215.504H660.137V221H658.64ZM659.389 214.899C658.938 214.899 658.589 214.555 658.589 214.125C658.589 213.689 658.938 213.351 659.389 213.351C659.84 213.351 660.188 213.689 660.188 214.125C660.188 214.555 659.84 214.899 659.389 214.899ZM661.034 221V220.149L663.772 216.678V216.647H661.075V215.504H665.51V216.452L662.937 219.826V219.852H665.572V221H661.034ZM666.346 221V220.149L669.084 216.678V216.647H666.387V215.504H670.822V216.452L668.248 219.826V219.852H670.883V221H666.346ZM674.124 216.493C673.467 216.493 672.996 216.991 672.944 217.678H675.277C675.246 216.975 674.79 216.493 674.124 216.493ZM675.298 219.318H676.672C676.508 220.395 675.523 221.118 674.165 221.118C672.473 221.118 671.458 220.036 671.458 218.278C671.458 216.524 672.483 215.386 674.108 215.386C675.708 215.386 676.718 216.468 676.718 218.139V218.595H672.929V218.688C672.929 219.472 673.426 220.01 674.19 220.01C674.739 220.01 675.159 219.739 675.298 219.318ZM677.4 217.119C677.4 216.073 678.307 215.386 679.717 215.386C681.096 215.386 681.993 216.083 682.014 217.15H680.635C680.604 216.709 680.25 216.437 679.697 216.437C679.179 216.437 678.84 216.673 678.84 217.027C678.84 217.298 679.076 217.483 679.558 217.596L680.609 217.821C681.711 218.067 682.157 218.503 682.157 219.323C682.157 220.405 681.163 221.118 679.712 221.118C678.246 221.118 677.343 220.41 677.261 219.339H678.722C678.794 219.8 679.158 220.067 679.753 220.067C680.322 220.067 680.666 219.841 680.666 219.482C680.666 219.206 680.481 219.052 679.989 218.934L678.974 218.708C677.933 218.472 677.4 217.929 677.4 217.119Z" fill="#111111"/>
</g>
<defs>
<linearGradient id="paint0_linear_8022_50639" x1="700.434" y1="-33.75" x2="700.434" y2="29.8845" gradientUnits="userSpaceOnUse">
<stop stop-color="#7248F7"/>
<stop offset="1" stop-color="#BF48F7"/>
</linearGradient>
<linearGradient id="paint1_linear_8022_50639" x1="300.388" y1="-14.8887" x2="300.388" y2="43.6522" gradientUnits="userSpaceOnUse">
<stop stop-color="#7248F7"/>
<stop offset="1" stop-color="#BF48F7"/>
</linearGradient>
<linearGradient id="paint2_linear_8022_50639" x1="790.024" y1="52.5" x2="790.024" y2="102.048" gradientUnits="userSpaceOnUse">
<stop stop-color="#7248F7"/>
<stop offset="1" stop-color="#BF48F7"/>
</linearGradient>
<clipPath id="clip0_8022_50639">
<rect width="54.7842" height="54.7842" fill="white" transform="translate(466.875 150.938)"/>
</clipPath>
<clipPath id="clip1_8022_50639">
<rect width="50.5385" height="44.9231" fill="white" transform="translate(341.961 137.682)"/>
</clipPath>
<clipPath id="clip2_8022_50639">
<rect width="38.349" height="38.349" fill="white" transform="translate(682.891 88.4824)"/>
</clipPath>
<clipPath id="clip3_8022_50639">
<rect width="6" height="6" fill="white" transform="translate(45.25 128.5)"/>
</clipPath>
<clipPath id="clip4_8022_50639">
<rect width="6" height="6" fill="white" transform="translate(39.25 205.75)"/>
</clipPath>
<clipPath id="clip5_8022_50639">
<rect width="6" height="6" fill="white" transform="translate(781.75 128.5)"/>
</clipPath>
<clipPath id="clip6_8022_50639">
<rect width="6" height="6" fill="white" transform="translate(140.5 175)"/>
</clipPath>
<clipPath id="clip7_8022_50639">
<rect width="6" height="6" fill="white" transform="translate(686.5 169)"/>
</clipPath>
<clipPath id="clip8_8022_50639">
<rect width="6" height="6" fill="white" transform="translate(838.75 34)"/>
</clipPath>
<clipPath id="clip9_8022_50639">
<rect width="6" height="6" fill="white" transform="translate(606.25 214)"/>
</clipPath>
</defs>
</svg>
