<svg width="553" height="216" viewBox="0 0 553 216" fill="none" xmlns="http://www.w3.org/2000/svg">
<g opacity="0.1">
<rect y="71.4395" width="78.456" height="72.675" rx="13.2136" fill="white"/>
<g clip-path="url(#clip0_8022_40853)">
<path d="M31.9991 84.6523C29.2983 84.6523 27.0582 86.5041 26.4168 89.0061C26.3446 89.0061 26.2904 88.9881 26.2181 88.9881C23.0295 88.9881 20.4371 91.5805 20.4371 94.769C20.4371 95.2026 20.4913 95.6271 20.5907 96.0336C17.9531 97.1176 16.1014 99.7009 16.1014 102.718C16.1014 103.856 16.3905 104.913 16.8511 105.87C14.6833 107.117 13.2109 109.429 13.2109 112.112C13.2109 115.12 15.0536 117.703 17.6731 118.787C17.5918 119.203 17.5467 119.627 17.5467 120.061C17.5467 123.656 20.4552 126.564 24.0503 126.564C24.4206 126.564 24.7819 126.519 25.1342 126.456C26.0013 129.03 28.404 130.9 31.2765 130.9C34.8715 130.9 37.7801 127.992 37.7801 124.396V90.4333C37.7801 87.2447 35.1876 84.6523 31.9991 84.6523ZM65.2396 112.112C65.2396 109.429 63.7673 107.117 61.5994 105.87C62.0691 104.913 62.3492 103.856 62.3492 102.718C62.3492 99.7009 60.4974 97.1176 57.8599 96.0336C57.9502 95.6271 58.0134 95.2026 58.0134 94.769C58.0134 91.5805 55.421 88.9881 52.2325 88.9881C52.1602 88.9881 52.097 89.0061 52.0337 89.0061C51.3924 86.5041 49.1523 84.6523 46.4515 84.6523C43.2629 84.6523 40.6705 87.2357 40.6705 90.4333V124.396C40.6705 127.992 43.5791 130.9 47.1741 130.9C50.0465 130.9 52.4493 129.03 53.3164 126.456C53.6687 126.519 54.03 126.564 54.4003 126.564C57.9954 126.564 60.9039 123.656 60.9039 120.061C60.9039 119.627 60.8588 119.203 60.7775 118.787C63.397 117.703 65.2396 115.12 65.2396 112.112Z" fill="#7248F7"/>
</g>
</g>
<g opacity="0.3">
<rect x="105.711" y="63.6523" width="88.2481" height="88.2482" rx="16.0451" fill="white"/>
<path d="M168.554 119.476C171.128 119.476 173.234 117.37 173.234 114.796V89.0568C173.234 86.4829 171.128 84.377 168.554 84.377H146.993C145.611 84.377 144.69 85.8384 144.963 87.1929C145.166 88.1992 145.987 89.0568 147.014 89.0568H165.546C167.207 89.0568 168.554 90.4037 168.554 92.0652V111.787C168.554 113.449 167.207 114.796 165.546 114.796H150.503C148.842 114.796 147.495 116.143 147.495 117.804V119.476M154.515 96.0765C155.807 96.0765 156.854 97.1241 156.854 98.4164C156.854 99.7087 155.807 100.756 154.515 100.756H145.823C144.162 100.756 142.815 102.103 142.815 103.765V128.835C142.815 130.128 141.767 131.175 140.475 131.175C139.183 131.175 138.135 130.128 138.135 128.835V119.476C138.135 118.183 137.088 117.136 135.795 117.136C134.503 117.136 133.455 118.183 133.455 119.476V128.835C133.455 130.128 132.408 131.175 131.115 131.175C129.823 131.175 128.775 130.128 128.775 128.835V114.211C128.775 113.242 127.99 112.456 127.021 112.456C126.051 112.456 125.266 111.67 125.266 110.701V100.756C125.266 98.1825 127.372 96.0765 129.945 96.0765H154.515ZM140.475 89.0568C140.475 91.6307 138.369 93.7366 135.795 93.7366C133.221 93.7366 131.115 91.6307 131.115 89.0568C131.115 86.4829 133.221 84.377 135.795 84.377C138.369 84.377 140.475 86.4829 140.475 89.0568ZM161.534 96.0765C161.534 94.7842 162.582 93.7366 163.874 93.7366C165.166 93.7366 166.214 94.7842 166.214 96.0765V110.116C166.214 111.408 165.166 112.456 163.874 112.456C162.582 112.456 161.534 111.408 161.534 110.116V96.0765ZM154.515 105.436C154.515 104.144 155.562 103.096 156.854 103.096C158.147 103.096 159.194 104.144 159.194 105.436V110.116C159.194 111.408 158.147 112.456 156.854 112.456C155.562 112.456 154.515 111.408 154.515 110.116V105.436ZM147.495 105.436C147.495 104.144 148.542 103.096 149.835 103.096C151.127 103.096 152.175 104.144 152.175 105.436V110.116C152.175 111.408 151.127 112.456 149.835 112.456C148.542 112.456 147.495 111.408 147.495 110.116V105.436Z" fill="#7248F7"/>
</g>
<g filter="url(#filter0_dd_8022_40853)">
<rect x="221.211" y="51" width="113.555" height="113.555" rx="20.6463" fill="white" shape-rendering="crispEdges"/>
<g clip-path="url(#clip1_8022_40853)">
<path d="M272.935 82.247C274.517 81.4979 276.244 81.1094 277.994 81.1094C279.743 81.1094 281.471 81.4979 283.052 82.247L312.403 96.1514C312.914 96.3934 313.347 96.7745 313.651 97.2511C313.956 97.7277 314.12 98.2805 314.125 98.8461C314.13 99.4118 313.976 99.9674 313.68 100.449C313.384 100.931 312.958 101.32 312.451 101.571L283.245 116.06C281.613 116.869 279.816 117.291 277.994 117.291C276.172 117.291 274.375 116.869 272.743 116.06L247.885 103.727V117.24C247.885 118.038 247.567 118.804 247.003 119.369C246.438 119.934 245.672 120.251 244.874 120.251C244.075 120.251 243.309 119.934 242.745 119.369C242.18 118.804 241.863 118.038 241.863 117.24V99.0238C241.835 98.4286 241.983 97.8384 242.29 97.3273C242.596 96.8162 243.047 96.4071 243.585 96.1514L272.935 82.247ZM253.906 113.44V123.262C253.906 123.658 253.985 124.05 254.137 124.416C254.289 124.782 254.511 125.114 254.792 125.393L254.804 125.412L254.942 125.538L255.303 125.875C257.191 127.557 259.231 129.059 261.398 130.361C265.42 132.776 271.231 135.305 277.994 135.305C284.756 135.305 290.567 132.776 294.596 130.361C296.763 129.059 298.803 127.557 300.69 125.875L301.051 125.538L301.148 125.442L301.184 125.406L301.19 125.399L301.202 125.393C301.481 125.113 301.703 124.781 301.854 124.415C302.005 124.049 302.082 123.657 302.081 123.262V113.434L285.919 121.455C283.455 122.677 280.743 123.312 277.994 123.312C275.244 123.312 272.532 122.677 270.069 121.455L253.906 113.44Z" fill="#7248F7"/>
</g>
</g>
<g opacity="0.3">
<rect x="362.016" y="62.3555" width="90.8437" height="90.8437" rx="16.517" fill="white"/>
<path fill-rule="evenodd" clip-rule="evenodd" d="M383.353 81.8848C382.874 81.8848 382.415 82.0751 382.076 82.4139C381.737 82.7527 381.547 83.2122 381.547 83.6913C381.547 84.1704 381.737 84.6299 382.076 84.9687C382.415 85.3075 382.874 85.4979 383.353 85.4979H388.171V104.166C388.171 111.546 388.171 115.236 390.589 117.529C393.008 119.822 396.9 119.822 404.688 119.822H405.634V128.342L401.816 130.25C401.602 130.355 401.411 130.501 401.254 130.68C401.096 130.859 400.976 131.067 400.899 131.293C400.823 131.519 400.792 131.758 400.808 131.996C400.825 132.234 400.888 132.466 400.994 132.679C401.101 132.893 401.249 133.083 401.429 133.239C401.609 133.395 401.819 133.513 402.045 133.588C402.272 133.663 402.51 133.692 402.748 133.674C402.986 133.655 403.218 133.59 403.43 133.482L407.441 131.478L411.451 133.482C411.664 133.59 411.896 133.655 412.133 133.674C412.371 133.692 412.61 133.663 412.836 133.588C413.063 133.513 413.272 133.395 413.453 133.239C413.633 133.083 413.781 132.893 413.887 132.679C413.994 132.466 414.057 132.234 414.073 131.996C414.089 131.758 414.058 131.519 413.982 131.293C413.906 131.067 413.785 130.859 413.628 130.68C413.471 130.501 413.279 130.355 413.065 130.25L409.247 128.34V119.822H410.194C417.979 119.822 421.874 119.822 424.292 117.529C426.711 115.236 426.711 111.546 426.711 104.166V85.4979H431.528C432.007 85.4979 432.467 85.3075 432.806 84.9687C433.144 84.6299 433.335 84.1704 433.335 83.6913C433.335 83.2122 433.144 82.7527 432.806 82.4139C432.467 82.0751 432.007 81.8848 431.528 81.8848H383.353ZM415.944 98.0715C416.282 98.4102 416.472 98.8694 416.472 99.3481C416.472 99.8268 416.282 100.286 415.944 100.625L412.771 103.799C412.43 104.156 412.066 104.491 411.683 104.801C411.164 105.224 410.519 105.461 409.85 105.473C409.18 105.461 408.535 105.224 408.016 104.801C407.633 104.491 407.269 104.156 406.928 103.799L405.458 102.33L405.032 101.904L404.606 102.325L401.491 105.442C401.326 105.62 401.126 105.762 400.905 105.861C400.683 105.96 400.444 106.013 400.201 106.017C399.959 106.021 399.718 105.977 399.493 105.886C399.268 105.795 399.064 105.66 398.892 105.488C398.721 105.316 398.585 105.112 398.494 104.887C398.404 104.662 398.359 104.421 398.363 104.179C398.368 103.936 398.421 103.697 398.519 103.475C398.618 103.254 398.76 103.054 398.938 102.889L402.11 99.7142C402.46 99.365 402.838 98.9868 403.199 98.7122C403.717 98.2892 404.363 98.0525 405.032 98.0401C405.837 98.0401 406.441 98.3894 406.865 98.7122C407.226 98.9868 407.605 99.365 407.954 99.7142L409.423 101.184L409.85 101.607L410.276 101.186L413.39 98.0715C413.729 97.7332 414.188 97.5431 414.667 97.5431C415.146 97.5431 415.605 97.7332 415.944 98.0715Z" fill="#7248F7"/>
</g>
<g opacity="0.1">
<rect x="480.117" y="71.4395" width="72.675" height="72.675" rx="14.3011" fill="white"/>
<path d="M518.293 102.269H528.393L518.293 92.1686V102.269ZM505.438 89.4141H520.129L531.147 100.432V122.469C531.147 123.443 530.761 124.377 530.072 125.066C529.383 125.754 528.449 126.141 527.475 126.141H505.438C504.464 126.141 503.53 125.754 502.841 125.066C502.153 124.377 501.766 123.443 501.766 122.469V93.0868C501.766 91.0484 503.4 89.4141 505.438 89.4141ZM507.275 122.469H510.947V111.45H507.275V122.469ZM514.62 122.469H518.293V107.778H514.62V122.469ZM521.966 122.469H525.638V115.123H521.966V122.469Z" fill="#7248F7"/>
</g>
<defs>
<filter id="filter0_dd_8022_40853" x="101.211" y="-65.6819" width="353.555" height="353.555" filterUnits="userSpaceOnUse" color-interpolation-filters="sRGB">
<feFlood flood-opacity="0" result="BackgroundImageFix"/>
<feColorMatrix in="SourceAlpha" type="matrix" values="0 0 0 0 0 0 0 0 0 0 0 0 0 0 0 0 0 0 127 0" result="hardAlpha"/>
<feOffset dy="3.31812"/>
<feGaussianBlur stdDeviation="60"/>
<feComposite in2="hardAlpha" operator="out"/>
<feColorMatrix type="matrix" values="0 0 0 0 0.85 0 0 0 0 0 0 0 0 0 1 0 0 0 0.6 0"/>
<feBlend mode="normal" in2="BackgroundImageFix" result="effect1_dropShadow_8022_40853"/>
<feColorMatrix in="SourceAlpha" type="matrix" values="0 0 0 0 0 0 0 0 0 0 0 0 0 0 0 0 0 0 127 0" result="hardAlpha"/>
<feOffset dy="3.31812"/>
<feGaussianBlur stdDeviation="46.4536"/>
<feComposite in2="hardAlpha" operator="out"/>
<feColorMatrix type="matrix" values="0 0 0 0 0.333333 0 0 0 0 1 0 0 0 0 0 0 0 0 0.4 0"/>
<feBlend mode="normal" in2="effect1_dropShadow_8022_40853" result="effect2_dropShadow_8022_40853"/>
<feBlend mode="normal" in="SourceGraphic" in2="effect2_dropShadow_8022_40853" result="shape"/>
</filter>
<clipPath id="clip0_8022_40853">
<rect width="52.0287" height="46.2477" fill="white" transform="translate(13.2109 84.6523)"/>
</clipPath>
<clipPath id="clip1_8022_40853">
<rect width="72.2621" height="72.2621" fill="white" transform="translate(241.859 71.6465)"/>
</clipPath>
</defs>
</svg>
