<svg xmlns="http://www.w3.org/2000/svg" fill="none" viewBox="0 117.48888888888888 553.268 197.28080808080807" style="max-height: 500px" width="553.268" height="197.28080808080807">
<g clip-path="url(#clip0_8022_50733)">
<path fill="url(#paint0_linear_8022_50733)" d="M-1401.71 412.857L-1405 414.559V492H529V160.438L524.391 156.467L521.098 160.438L513.855 166.11L508.587 184.261L503.319 183.127L498.709 176.887L492.783 179.156L488.173 204.682L477.637 223.401L470.394 229.64L460.516 224.535L457.224 231.909L450.639 238.149L445.371 223.968L440.103 233.611L434.177 230.775L429.567 213.758L423.641 197.308L419.031 192.77H413.763L407.837 204.682L403.227 208.653L397.301 200.144L392.033 204.682L386.765 200.144L381.497 208.653L376.229 188.799L370.961 183.127L365.693 183.694L360.425 178.022H357.791L349.889 176.32L345.28 167.812L340.012 166.11L334.085 168.946L328.159 170.081L322.233 163.841L318.281 155.332L312.355 161.572L307.087 147.391L301.819 146.257L297.21 147.958H290.625L286.015 138.315L282.064 136.046L276.138 139.45L271.528 149.66L265.602 158.736H262.309L253.749 159.303L249.798 154.765L243.872 160.438L239.262 154.765L233.336 148.526L228.068 153.063L223.458 148.526L212.264 157.034L208.313 150.795L197.118 134.912L191.192 168.379L185.266 163.841H180.656L175.388 175.186L170.12 170.081C168.364 179.724 164.852 199.35 164.852 200.711C164.852 202.073 160.901 194.85 158.926 191.068L154.975 199.01L151.024 205.816L144.439 206.384L137.854 190.501L132.586 202.98L128.635 195.606L116.124 184.829H112.173L106.905 191.068L102.295 217.728L95.7102 222.266L84.5159 185.963L79.2478 189.934H75.9554L65.4194 180.858L58.8346 181.992L53.5667 167.812L48.9572 165.543L44.3477 176.887L37.1042 178.022L33.1532 184.829L27.8851 188.232L22.6174 202.413L17.3494 185.396L12.0814 187.098L5.49634 173.484C3.95984 176.509 0.755371 182.787 0.228516 183.694C-0.298218 184.602 -7.01501 157.601 -10.3075 143.988L-14.9169 139.45L-20.8433 149.093L-25.4529 133.777L-30.7208 147.958L-35.9888 150.227L-41.9153 157.034L-46.5248 153.631L-51.134 170.081L-57.7191 174.051L-62.9871 146.257L-67.5964 135.479L-72.8645 146.824L-78.791 143.42L-84.0588 139.45L-88.6683 146.824L-93.9363 143.42L-99.2043 144.555L-109.74 183.127L-116.325 184.829L-126.203 159.303L-132.129 197.308L-136.739 159.87L-141.348 154.765L-147.274 174.618L-153.201 147.391L-163.078 123L-169.005 133.777L-173.614 129.807L-179.541 149.66L-184.15 153.631L-190.077 155.332L-194.686 164.408L-200.613 170.081L-205.222 184.261L-211.148 157.034L-215.758 189.367L-221.684 196.741L-226.952 195.039L-232.22 201.846L-236.83 195.039L-242.098 229.64L-253.292 266.51L-258.56 268.212L-264.486 273.885L-269.755 268.779L-278.973 263.107L-284.9 266.51L-290.168 263.674L-295.436 267.078L-301.362 263.674L-305.972 265.376L-311.24 267.078L-316.508 280.691L-321.776 278.422L-327.043 288.633L-337.579 297.708L-342.848 309.62L-348.115 315.293L-352.725 326.07L-364.578 328.906L-373.138 324.368L-378.406 325.503L-385.65 328.906L-395.527 324.368L-400.795 331.743H-406.721L-411.989 334.011L-416.599 346.491L-422.525 345.923L-433.061 348.76L-438.329 335.713L-448.865 335.146L-454.792 337.415L-459.401 327.772L-464.669 325.503L-475.205 334.011L-480.473 327.205H-485.741L-491.009 303.381L-495.618 301.112L-501.545 304.515L-506.813 299.41L-512.739 319.831L-522.617 317.562L-527.885 318.129L-533.152 325.503L-538.42 313.024L-544.347 317.562L-549.615 330.041L-560.151 332.31L-570.687 323.234L-575.955 328.906L-580.564 322.1L-586.491 325.503L-591.759 320.965L-597.027 319.263L-607.562 321.532L-612.83 330.608L-617.44 328.339L-623.366 336.848L-627.976 330.608L-634.561 332.877L-638.512 325.503L-645.097 327.772L-649.706 336.28L-654.974 337.415L-660.242 320.398L-666.169 320.965L-670.778 318.129L-676.704 323.801L-686.582 318.129L-697.118 344.789L-703.044 349.327L-713.58 361.806L-716.873 360.672H-723.458L-729.384 364.642L-739.261 361.239L-745.188 361.806L-749.797 364.642L-755.724 363.508L-760.992 374.285L-765.601 363.508L-771.528 364.075L-776.137 369.18H-782.064L-787.332 371.449L-792.6 361.806L-797.867 375.987L-807.745 365.777L-812.354 365.209L-819.598 364.642L-823.549 368.046L-829.475 375.42L-834.085 376.554L-840.011 379.39H-851.206L-855.815 381.659L-860.425 381.092L-866.351 377.121L-871.619 382.226L-882.813 383.361L-888.74 386.764L-894.666 387.332L-903.885 383.361L-908.495 386.764L-914.421 393.004L-919.689 413.424L-923.64 413.992L-930.225 415.693L-934.835 421.366L-940.761 424.769L-950.638 423.635L-956.565 432.71L-963.15 434.979H-976.978L-982.905 431.009L-988.173 430.441L-993.441 427.605H-1003.98L-1009.24 431.009L-1014.51 428.74L-1018.46 430.441H-1025.71L-1030.97 427.605L-1035.58 433.845L-1040.85 434.979L-1046.12 433.845L-1051.39 438.383L-1056.66 439.517L-1062.58 438.383L-1067.85 438.95L-1072.46 436.681H-1084.31L-1088.92 432.71H-1094.19L-1104.73 437.248L-1113.95 436.681L-1120.53 437.248L-1129.75 441.219L-1136.99 446.324L-1142.26 441.786L-1152.8 441.219L-1157.41 438.95L-1163.33 442.353L-1172.55 441.786L-1178.48 440.652L-1189.01 441.786L-1194.94 440.652L-1200.21 432.143L-1204.82 429.307L-1210.74 439.517L-1221.94 440.652L-1229.84 440.084L-1237.08 438.383L-1243.01 440.084L-1252.23 438.95L-1264.08 440.084L-1268.69 436.114L-1273.96 422.5L-1278.57 419.664L-1284.5 417.962L-1290.42 418.53L-1295.03 417.395H-1307.54L-1316.1 415.693L-1321.37 419.097L-1327.96 420.231L-1338.49 419.664L-1348.37 419.097L-1353.64 415.693L-1358.91 419.097L-1372.08 417.962L-1379.98 419.097L-1385.25 417.962L-1388.54 419.097L-1395.78 419.664L-1401.71 412.857Z" opacity="0.2"/>
<path stroke-width="1.4185" stroke="#1FD773" d="M-1405 413.365L-1401.71 411.67L-1395.78 418.449L-1388.54 417.884L-1385.25 416.754L-1379.98 417.884L-1372.08 416.754L-1358.91 417.884L-1353.64 414.495L-1348.37 417.884L-1338.49 418.449L-1327.96 419.014L-1321.37 417.884L-1316.1 414.495L-1307.54 416.189H-1295.03L-1290.42 417.319L-1284.5 416.754L-1278.57 418.449L-1273.96 421.274L-1268.69 434.832L-1264.08 438.786L-1252.23 437.656L-1243.01 438.786L-1237.08 437.091L-1229.84 438.786L-1221.94 439.351L-1210.74 438.221L-1204.82 428.053L-1200.21 430.877L-1194.94 439.351L-1189.01 440.481L-1178.48 439.351L-1172.55 440.481L-1163.33 441.046L-1157.41 437.656L-1152.8 439.916L-1142.26 440.481L-1136.99 445L-1129.75 439.916L-1120.53 435.961L-1113.95 435.396L-1104.73 435.961L-1094.19 431.442H-1088.92L-1084.31 435.396H-1072.46L-1067.85 437.656L-1062.58 437.091L-1056.66 438.221L-1051.39 437.091L-1046.12 432.572L-1040.85 433.702L-1035.58 432.572L-1030.97 426.358L-1025.71 429.182H-1018.46L-1014.51 427.488L-1009.24 429.747L-1003.98 426.358H-993.441L-988.173 429.182L-982.905 429.747L-976.978 433.702H-963.15L-956.565 431.442L-950.638 422.403L-940.761 423.533L-934.835 420.144L-930.225 414.495L-923.64 412.8L-919.689 412.235L-914.421 391.898L-908.495 385.684L-903.885 382.295L-894.666 386.249L-888.74 385.684L-882.813 382.295L-871.619 381.165L-866.351 376.081L-860.425 380.035L-855.815 380.6L-851.206 378.34H-840.011L-834.085 375.516L-829.475 374.386L-823.549 367.042L-819.598 363.653L-812.354 364.218L-807.745 364.782L-797.868 374.951L-792.6 360.828L-787.332 370.432L-782.064 368.172H-776.137L-771.528 363.088L-765.601 362.523L-760.992 373.256L-755.724 362.523L-749.797 363.653L-745.188 360.828L-739.261 360.263L-729.384 363.653L-723.458 359.698H-716.873L-713.58 360.828L-703.044 348.4L-697.118 343.881L-686.582 317.33L-676.704 322.979L-670.778 317.33L-666.169 320.154L-660.242 319.589L-654.974 336.537L-649.706 335.407L-645.097 326.933L-638.512 324.674L-634.561 332.018L-627.976 329.758L-623.366 335.972L-617.44 327.498L-612.83 329.758L-607.562 320.719L-597.027 318.46L-591.759 320.154L-586.491 324.674L-580.564 321.284L-575.955 328.063L-570.687 322.414L-560.151 331.453L-549.615 329.193L-544.347 316.765L-538.42 312.246L-533.153 324.674L-527.885 317.33L-522.617 316.765L-512.739 319.025L-506.813 298.688L-501.545 303.772L-495.618 300.382L-491.009 302.642L-485.741 326.368H-480.473L-475.205 333.147L-464.669 324.674L-459.401 326.933L-454.792 336.537L-448.865 334.277L-438.329 334.842L-433.061 347.835L-422.525 345.011L-416.599 345.575L-411.989 333.147L-406.721 330.888H-400.795L-395.527 323.544L-385.65 328.063L-378.406 324.674L-373.138 323.544L-364.578 328.063L-352.725 325.239L-348.115 314.505L-342.847 308.856L-337.579 296.993L-327.044 287.954L-321.776 277.786L-316.508 280.046L-311.24 266.488L-305.972 264.793L-301.362 263.098L-295.436 266.488L-290.168 263.098L-284.9 265.923L-278.973 262.533L-269.755 268.182L-264.487 273.267L-258.56 267.618L-253.292 265.923L-242.098 229.204L-236.83 194.744L-232.22 201.523L-226.952 194.744L-221.684 196.439L-215.758 189.095L-211.148 156.895L-205.222 184.011L-200.613 169.888L-194.686 164.239L-190.077 155.2L-184.15 153.505L-179.541 149.551L-173.614 129.779L-169.005 133.733L-163.078 123L-153.201 147.291L-147.274 174.407L-141.348 154.635L-136.738 159.719L-132.129 197.004L-126.203 159.154L-116.325 184.575L-109.74 182.881L-99.2043 144.467L-93.9363 143.337L-88.6684 146.726L-84.0589 139.382L-78.7909 143.337L-72.8645 146.726L-67.5965 135.428L-62.9871 146.161L-57.7191 173.842L-51.1341 169.888L-46.5247 153.505L-41.9152 156.895L-35.9888 150.116L-30.7208 147.856L-25.4528 133.733L-20.8434 148.986L-14.9169 139.382L-10.3074 143.902C-7.01497 157.46 -0.29832 184.349 0.228476 183.446C0.755272 182.542 3.95995 176.29 5.49644 173.277L12.0814 186.835L17.3493 185.14L22.6173 202.088L27.8853 187.965L33.1532 184.575L37.1042 177.796L44.3476 176.667L48.9571 165.368L53.5666 167.628L58.8345 181.751L65.4195 180.621L75.9554 189.66H79.2479L84.5158 185.705L95.7103 221.86L102.295 217.34L106.905 190.789L112.173 184.575H116.124L128.635 195.309L132.586 202.653L137.854 190.225L144.439 206.042L151.024 205.477L154.975 198.698L158.926 190.789C160.901 194.556 164.852 201.749 164.852 200.393C164.852 199.037 168.364 179.491 170.12 169.888L175.388 174.972L180.656 163.674H185.266L191.192 168.193L197.119 134.863L208.313 150.681L212.264 156.895L223.458 148.421L228.068 152.94L233.336 148.421L239.262 154.635L243.872 160.284L249.798 154.635L253.749 159.154L262.31 158.589H265.602L271.528 149.551L276.138 139.382L282.064 135.993L286.015 138.253L290.625 147.856H297.21L301.819 146.161L307.087 147.291L312.355 161.414L318.282 155.2L322.233 163.674L328.159 169.888L334.085 168.758L340.012 165.933L345.28 167.628L349.889 176.102L357.791 177.796H360.425L365.693 183.446L370.961 182.881L376.229 188.53L381.497 208.302L386.765 199.828L392.033 204.347L397.301 199.828L403.227 208.302L407.837 204.347L413.763 192.484H419.031L423.641 197.004L429.567 213.386L434.177 230.333L440.103 233.158L445.371 223.554L450.639 237.677L457.224 231.463L460.517 224.119L470.394 229.204L477.637 222.989L488.173 204.347L492.783 178.926L498.709 176.667L503.319 182.881L508.587 184.011L513.855 165.933L521.098 160.284L524.391 156.33L529 160.284"/>
<circle stroke-width="2" stroke="#1FD773" fill="white" r="7.5" cy="155.5" cx="526.5"/>
</g>
<defs>
<linearGradient gradientUnits="userSpaceOnUse" y2="492" x2="-527.025" y1="188.989" x1="-527.025" id="paint0_linear_8022_50733">
<stop stop-opacity="0.2" stop-color="#41FD77"/>
<stop stop-opacity="0.1" stop-color="#1FD773" offset="1"/>
</linearGradient>
<clipPath id="clip0_8022_50733">
<rect fill="white" rx="16" height="311" width="628"/>
</clipPath>
</defs>
</svg>